<?xml version="1.0" encoding="utf-8"?>
<!-- Generator: Adobe Illustrator 19.0.0, SVG Export Plug-In . SVG Version: 6.00 Build 0)  -->
<svg version="1.1" id="Capa_1" xmlns="http://www.w3.org/2000/svg" xmlns:xlink="http://www.w3.org/1999/xlink" x="0px" y="0px"
	 viewBox="-7.9 -31.8 1486.2 84.8" style="enable-background:new -7.9 -31.8 1486.2 84.8;" xml:space="preserve">
<style type="text/css">
	.st0{display:none;}
	.st1{display:inline;fill:#161616;}
	.st2{fill:#FFF8E3;}
	.st3{fill:none;stroke:#FFF8E3;stroke-width:1.6;stroke-miterlimit:10;}
	.st4{clip-path:url(#XMLID_20_);}
</style>
<g id="Capa_5" class="st0">
	<rect id="XMLID_171_" x="-377.4" y="-127.2" class="st1" width="1970.8" height="316.5"/>
</g>
<g id="Capa_3">
	<rect id="XMLID_11_" x="1394.9" y="3.8" class="st2" width="83.4" height="31.3"/>
	<rect id="XMLID_13_" x="-7.9" y="3.7" class="st2" width="1284.4" height="31.4"/>
</g>
<g id="Capa_7">
	<path id="XMLID_18_" class="st3" d="M-7.9-2.9"/>
	<path id="XMLID_17_" class="st3" d="M-7.9-7.4"/>
	<path id="XMLID_16_" class="st3" d="M-7.9-11.9"/>
	<path id="XMLID_15_" class="st3" d="M-7.9-16.4"/>
</g>
<g id="Capa_8_1_">
	<line id="XMLID_14_" class="st3" x1="1378.9" y1="-20.9" x2="1395.6" y2="-20.9"/>
	<line id="XMLID_12_" class="st3" x1="1378.9" y1="-25.4" x2="1395.6" y2="-25.4"/>
	<line id="XMLID_10_" class="st3" x1="1378.9" y1="-29.9" x2="1395.6" y2="-29.9"/>
	<g id="XMLID_9_">
	</g>
	<g id="XMLID_8_">
	</g>
	<g id="XMLID_7_">
	</g>
	<g id="XMLID_6_">
	</g>
	<g id="XMLID_3_">
	</g>
	<g id="XMLID_1_">
	</g>
</g>
<g id="Capa_8">
	<line id="XMLID_192_" class="st3" x1="-7.9" y1="-2.9" x2="1318.8" y2="-2.9"/>
	<line id="XMLID_191_" class="st3" x1="-7.9" y1="-7.4" x2="1318.8" y2="-7.4"/>
	<line id="XMLID_190_" class="st3" x1="-7.9" y1="-11.9" x2="1317.1" y2="-11.9"/>
	<line id="XMLID_189_" class="st3" x1="-7.9" y1="-16.4" x2="1310.2" y2="-16.4"/>
	<g id="XMLID_2_">
	</g>
	<g id="XMLID_226_">
	</g>
	<g id="XMLID_227_">
	</g>
	<g id="XMLID_228_">
	</g>
	<g id="XMLID_229_">
	</g>
	<g id="XMLID_230_">
	</g>
</g>
<g id="Capa_8_8_">
	<line id="XMLID_84_" class="st3" x1="1326.4" y1="-2.9" x2="1343.2" y2="-2.9"/>
	<line id="XMLID_83_" class="st3" x1="1326.4" y1="-7.4" x2="1343.2" y2="-7.4"/>
	<line id="XMLID_82_" class="st3" x1="1326.4" y1="-11.9" x2="1343.2" y2="-11.9"/>
	<line id="XMLID_81_" class="st3" x1="1326.4" y1="-16.4" x2="1343.2" y2="-16.4"/>
	<g id="XMLID_80_">
	</g>
	<g id="XMLID_79_">
	</g>
	<g id="XMLID_78_">
	</g>
	<g id="XMLID_77_">
	</g>
	<g id="XMLID_76_">
	</g>
	<g id="XMLID_75_">
	</g>
</g>
<g id="Capa_8_7_">
	<line id="XMLID_74_" class="st3" x1="1354.4" y1="-2.9" x2="1371.1" y2="-2.9"/>
	<line id="XMLID_73_" class="st3" x1="1354.4" y1="-7.4" x2="1371.1" y2="-7.4"/>
	<line id="XMLID_72_" class="st3" x1="1354.4" y1="-11.9" x2="1371.1" y2="-11.9"/>
	<line id="XMLID_71_" class="st3" x1="1354.4" y1="-16.4" x2="1371.1" y2="-16.4"/>
	<g id="XMLID_70_">
	</g>
	<g id="XMLID_69_">
	</g>
	<g id="XMLID_68_">
	</g>
	<g id="XMLID_39_">
	</g>
	<g id="XMLID_38_">
	</g>
	<g id="XMLID_37_">
	</g>
</g>
<g id="Capa_8_3_">
	<line id="XMLID_36_" class="st3" x1="1378.9" y1="-2.9" x2="1478.3" y2="-2.9"/>
	<line id="XMLID_35_" class="st3" x1="1378.9" y1="-7.4" x2="1478.3" y2="-7.4"/>
	<line id="XMLID_34_" class="st3" x1="1378.9" y1="-11.9" x2="1478.3" y2="-11.9"/>
	<line id="XMLID_33_" class="st3" x1="1378.9" y1="-16.4" x2="1478.3" y2="-16.4"/>
	<g id="XMLID_32_">
	</g>
	<g id="XMLID_31_">
	</g>
	<g id="XMLID_30_">
	</g>
	<g id="XMLID_29_">
	</g>
	<g id="XMLID_28_">
	</g>
	<g id="XMLID_27_">
	</g>
</g>
<g id="XMLID_4_">
	<defs>
		<rect id="XMLID_169_" x="957.7" y="0.7" width="443.6" height="64.5"/>
	</defs>
	<clipPath id="XMLID_20_">
		<use xlink:href="#XMLID_169_"  style="overflow:visible;"/>
	</clipPath>
	<g id="XMLID_5_" class="st4">
		<path class="st2" d="M1275.9-17.2h31.7c0.8,0,1.5,0,2.2,0.1c0.7,0.1,1.6,0.4,2.7,0.8h-36.7V-17.2z M1275.9-15h38.8
			c0.1,0.1,0.3,0.3,0.5,0.5c0.2,0.2,0.4,0.4,0.5,0.5h-39.8V-15z M1316.8-12.6c0.1,0.1,0.2,0.2,0.3,0.5c0.1,0.3,0.2,0.4,0.3,0.5
			h-41.5v-1H1316.8z M1318-10.4c0.1,0.1,0.1,0.2,0.2,0.5c0.1,0.3,0.1,0.4,0.1,0.5h-42.4v-1H1318z M1318.7-8.2l0.1,1h-42.9v-1H1318.7
			z M1318.8-5.8v1h-42.9v-1H1318.8z M1318.8-3.5v1h-42.9v-1H1318.8z M1318.8-1.1v1h-42.9v-1H1318.8z M1275.9,3.7h16.7v31.4h-16.7
			V3.7z M1302,3.7h16.7v31.4H1302V3.7z"/>
		<path class="st2" d="M1343.1-17.2v1h-16.7v-1H1343.1z M1343.1-14.9v1h-16.7v-1H1343.1z M1343.1-12.7v1h-16.7v-1H1343.1z
			 M1343.1-10.4v1h-16.7v-1H1343.1z M1343.1-8.2v1h-16.7v-1H1343.1z M1343.1-5.8v1h-16.7v-1H1343.1z M1343.1-3.5v1h-16.7v-1H1343.1z
			 M1343.1-1.1v1h-16.7v-1H1343.1z M1371.1,3.7v18.1c0,2-0.3,3.8-1,5.4c-0.7,1.6-1.6,3-2.8,4.2c-1.2,1.1-2.6,2-4.2,2.7
			c-1.6,0.6-3.4,1-5.2,1h-18.2c-1.8,0-3.6-0.3-5.2-1c-1.6-0.6-3-1.5-4.3-2.7c-1.2-1.1-2.1-2.5-2.8-4.2c-0.7-1.6-1-3.4-1-5.4V3.7
			h16.7v8.4c0,3.8,1.6,5.6,4.8,5.6h1.8c1.8,0,3.1-0.5,3.7-1.6c0.6-1.1,1-2.4,1-4.1V3.7H1371.1z M1371.1-17.2v1h-16.7v-1H1371.1z
			 M1371.1-14.9v1h-16.7v-1H1371.1z M1371.1-12.7v1h-16.7v-1H1371.1z M1371.1-10.4v1h-16.7v-1H1371.1z M1371.1-8.2v1h-16.7v-1
			H1371.1z M1371.1-5.8v1h-16.7v-1H1371.1z M1371.1-3.5v1h-16.7v-1H1371.1z M1371.1-1.1v1h-16.7v-1H1371.1z"/>
		<path class="st2" d="M1378.8-28.6h16.7v1h-16.7V-28.6z M1378.8-26.4h16.7v1h-16.7V-26.4z M1378.8-24.1h16.7v1h-16.7V-24.1z
			 M1378.8-21.9h16.7v1h-16.7V-21.9z M1378.8-19.5h16.7v1h-16.7V-19.5z M1395.5-17.2v1h-16.7v-1H1395.5z M1395.5-14.9v1h-16.7v-1
			H1395.5z M1395.5-12.7v1h-16.7v-1H1395.5z M1395.5-10.4v1h-16.7v-1H1395.5z M1395.5-8.2v1h-16.7v-1H1395.5z M1395.5-5.8v1h-16.7
			v-1H1395.5z M1395.5-3.5v1h-16.7v-1H1395.5z M1395.5-1.1v1h-16.7v-1H1395.5z M1378.8,3.8h16.7v31.3h-16.7V3.8z"/>
	</g>
</g>
</svg>
