<?xml version="1.0" encoding="utf-8"?>
<!-- Generator: Adobe Illustrator 19.0.0, SVG Export Plug-In . SVG Version: 6.00 Build 0)  -->
<svg version="1.1" id="Capa_1" xmlns="http://www.w3.org/2000/svg" xmlns:xlink="http://www.w3.org/1999/xlink" x="0px" y="0px"
	 viewBox="-321.7 -31.8 1800 84.8" style="enable-background:new -321.7 -31.8 1800 84.8;" xml:space="preserve">
<style type="text/css">
	.st0{display:none;}
	.st1{display:inline;fill:#161616;}
	.st2{fill:#FFF8E3;}
	.st3{fill:none;stroke:#FFF8E3;stroke-width:1.6;stroke-miterlimit:10;}
	.st4{clip-path:url(#XMLID_41_);}
</style>
<g id="Capa_5" class="st0">
	<rect id="XMLID_171_" x="-377.4" y="-127.2" class="st1" width="1970.8" height="316.5"/>
</g>
<g id="Capa_3">
	<rect id="XMLID_11_" x="1395.2" y="4.4" class="st2" width="83.1" height="30.7"/>
	<rect id="XMLID_13_" x="-321.7" y="3.7" class="st2" width="1447.4" height="31.4"/>
</g>
<g id="Capa_4">
	<line id="XMLID_1_" class="st3" x1="1166.8" y1="-2.9" x2="-321.7" y2="-2.9"/>
	<line id="XMLID_172_" class="st3" x1="1166.5" y1="-7.4" x2="-321.7" y2="-7.4"/>
	<line id="XMLID_173_" class="st3" x1="1165.1" y1="-11.9" x2="-321.7" y2="-11.9"/>
	<line id="XMLID_175_" class="st3" x1="1158.4" y1="-16.4" x2="-321.7" y2="-16.4"/>
</g>
<g id="Capa_7">
	<line id="XMLID_188_" class="st3" x1="1174.4" y1="-2.9" x2="1201.7" y2="-2.9"/>
	<line id="XMLID_187_" class="st3" x1="1174.7" y1="-7.4" x2="1201.7" y2="-7.4"/>
	<line id="XMLID_186_" class="st3" x1="1176.2" y1="-11.9" x2="1201.7" y2="-11.9"/>
	<line id="XMLID_185_" class="st3" x1="1182" y1="-16.4" x2="1201.7" y2="-16.4"/>
</g>
<g id="Capa_8_1_">
	<line id="XMLID_16_" class="st3" x1="1209.4" y1="-2.9" x2="1254" y2="-2.9"/>
	<line id="XMLID_15_" class="st3" x1="1209.5" y1="-7.4" x2="1253.8" y2="-7.4"/>
	<line id="XMLID_14_" class="st3" x1="1211" y1="-11.9" x2="1252.5" y2="-11.9"/>
	<line id="XMLID_12_" class="st3" x1="1217.3" y1="-16.4" x2="1245.7" y2="-16.4"/>
	<g id="XMLID_10_">
	</g>
	<g id="XMLID_9_">
	</g>
	<g id="XMLID_8_">
	</g>
	<g id="XMLID_7_">
	</g>
	<g id="XMLID_6_">
	</g>
	<g id="XMLID_3_">
	</g>
</g>
<g id="Capa_8_2_">
	<line id="XMLID_26_" class="st3" x1="1261.7" y1="-2.9" x2="1297.7" y2="-2.9"/>
	<line id="XMLID_25_" class="st3" x1="1261.7" y1="-7.4" x2="1297.7" y2="-7.4"/>
	<line id="XMLID_24_" class="st3" x1="1263.6" y1="-11.9" x2="1297.7" y2="-11.9"/>
	<line id="XMLID_23_" class="st3" x1="1269.4" y1="-16.4" x2="1297.7" y2="-16.4"/>
	<g id="XMLID_22_">
	</g>
	<g id="XMLID_21_">
	</g>
	<g id="XMLID_20_">
	</g>
	<g id="XMLID_19_">
	</g>
	<g id="XMLID_18_">
	</g>
	<g id="XMLID_17_">
	</g>
</g>
<g id="Capa_8">
	<line id="XMLID_192_" class="st3" x1="1305.3" y1="-2.9" x2="1321.8" y2="-2.9"/>
	<line id="XMLID_191_" class="st3" x1="1305.3" y1="-7.4" x2="1321.8" y2="-7.4"/>
	<line id="XMLID_190_" class="st3" x1="1305.2" y1="-11.9" x2="1321.8" y2="-11.9"/>
	<line id="XMLID_189_" class="st3" x1="1305.3" y1="-16.4" x2="1321.8" y2="-16.4"/>
	<g id="XMLID_2_">
	</g>
	<g id="XMLID_226_">
	</g>
	<g id="XMLID_227_">
	</g>
	<g id="XMLID_228_">
	</g>
	<g id="XMLID_229_">
	</g>
	<g id="XMLID_230_">
	</g>
</g>
<g id="Capa_8_3_">
	<line id="XMLID_36_" class="st3" x1="1329.6" y1="-2.9" x2="1346.3" y2="-2.9"/>
	<line id="XMLID_35_" class="st3" x1="1329.6" y1="-7.4" x2="1346.3" y2="-7.4"/>
	<line id="XMLID_34_" class="st3" x1="1329.6" y1="-11.9" x2="1346.3" y2="-11.9"/>
	<line id="XMLID_33_" class="st3" x1="1329.6" y1="-16.4" x2="1346.3" y2="-16.4"/>
	<line id="XMLID_37_" class="st3" x1="1329.6" y1="-20.8" x2="1346.3" y2="-20.8"/>
	<line id="XMLID_38_" class="st3" x1="1329.6" y1="-25.4" x2="1346.3" y2="-25.4"/>
	<line id="XMLID_39_" class="st3" x1="1329.6" y1="-29.7" x2="1346.3" y2="-29.7"/>
	<g id="XMLID_32_">
	</g>
	<g id="XMLID_31_">
	</g>
	<g id="XMLID_30_">
	</g>
	<g id="XMLID_29_">
	</g>
	<g id="XMLID_28_">
	</g>
	<g id="XMLID_27_">
	</g>
</g>
<g id="Capa_6">
	<line id="XMLID_180_" class="st3" x1="1354" y1="-2.9" x2="1478.3" y2="-2.9"/>
	<line id="XMLID_179_" class="st3" x1="1353.8" y1="-7.4" x2="1478.3" y2="-7.4"/>
	<line id="XMLID_178_" class="st3" x1="1355.4" y1="-11.9" x2="1478.3" y2="-11.9"/>
	<line id="XMLID_177_" class="st3" x1="1361.1" y1="-16.4" x2="1478.3" y2="-16.4"/>
</g>
<g id="XMLID_4_">
	<defs>
		<rect id="XMLID_169_" x="1080" y="0.7" width="321.3" height="64.5"/>
	</defs>
	<clipPath id="XMLID_41_">
		<use xlink:href="#XMLID_169_"  style="overflow:visible;"/>
	</clipPath>
	<g id="XMLID_5_" class="st4">
		<path class="st2" d="M1123.7-17.2h31.9c0.8,0,1.5,0,2.2,0.1c0.7,0.1,1.6,0.4,2.7,0.8h-36.9V-17.2z M1123.7-15h39
			c0.1,0.1,0.3,0.3,0.5,0.5c0.2,0.2,0.4,0.4,0.5,0.5h-40V-15z M1164.9-12.6c0.1,0.1,0.2,0.2,0.3,0.5c0.1,0.3,0.2,0.4,0.3,0.5h-41.7
			v-1H1164.9z M1166-10.4c0.1,0.1,0.1,0.2,0.2,0.5c0.1,0.3,0.1,0.4,0.1,0.5h-42.6v-1H1166z M1166.7-8.2l0.1,1h-43.1v-1H1166.7z
			 M1166.8-5.8v1h-43.1v-1H1166.8z M1166.8-3.5v1h-43.1v-1H1166.8z M1166.8-1.1v1h-43.1v-1H1166.8z M1166.8,3.7v18.1
			c0,2-0.3,3.8-1,5.4c-0.7,1.6-1.6,3-2.8,4.2c-1.2,1.1-2.6,2-4.2,2.7c-1.6,0.6-3.4,1-5.2,1h-13.2v17.5h-16.7V3.7h16.7v14h4.7
			c1.7,0,3-0.4,3.9-1.1c0.9-0.7,1.4-1.4,1.5-2.1c0.1-0.3,0.1-0.6,0.1-1.1c0-0.5,0-0.9,0-1.2V3.7H1166.8z"/>
		<path class="st2" d="M1174.3-5.8h27.3v1h-27.3V-5.8z M1174.3-3.5h27.3v1h-27.3V-3.5z M1174.3-1.1h27.3v1h-27.3V-1.1z M1174.3,3.9
			h16.7v31.2h-16.7V3.9z M1174.4-7.2c0-0.1,0-0.2,0.1-0.5c0.1-0.3,0.1-0.4,0.1-0.5h27v1H1174.4z M1174.9-9.5c0-0.1,0-0.2,0.1-0.5
			c0.1-0.3,0.1-0.4,0.2-0.5h26.5v1H1174.9z M1175.8-11.7c0.1-0.1,0.2-0.2,0.3-0.5c0.1-0.3,0.2-0.4,0.3-0.5h25.3v1H1175.8z
			 M1201.7-15v1h-24.2c0.1-0.1,0.3-0.3,0.5-0.5c0.2-0.2,0.4-0.3,0.5-0.5H1201.7z M1201.7-17.2v1h-21c1.1-0.4,2-0.7,2.8-0.8
			c0.8-0.1,1.5-0.1,2.3-0.1H1201.7z"/>
		<path class="st2" d="M1254-7.2h-44.7c0-0.1,0-0.2,0.1-0.5c0.1-0.3,0.1-0.4,0.1-0.5h44.4L1254-7.2z M1254-4.8h-44.7v-1h44.7V-4.8z
			 M1254-2.5h-44.7v-1h44.7V-2.5z M1254-0.1h-44.7v-1h44.7V-0.1z M1254,3.7v18.1c0,2-0.3,3.8-1,5.4c-0.7,1.6-1.6,3-2.8,4.2
			c-1.2,1.1-2.6,2-4.2,2.7c-1.6,0.6-3.4,1-5.2,1h-18.2c-1.8,0-3.6-0.3-5.2-1c-1.6-0.6-3-1.5-4.3-2.7c-1.2-1.1-2.1-2.5-2.8-4.2
			c-0.7-1.6-1-3.4-1-5.4V3.7h16.7v8.4c0,3.8,1.6,5.6,4.8,5.6h1.8c1.8,0,3.1-0.5,3.7-1.6c0.6-1.1,1-2.4,1-4.1V3.7H1254z M1253.2-10.4
			c0.1,0.1,0.1,0.2,0.2,0.5c0.1,0.3,0.1,0.4,0.1,0.5h-43.8c0-0.1,0-0.2,0.1-0.5c0.1-0.3,0.1-0.4,0.2-0.5H1253.2z M1252.2-12.6
			c0.1,0.1,0.2,0.2,0.3,0.5c0.1,0.3,0.2,0.4,0.3,0.5h-42.1c0.1-0.1,0.2-0.2,0.3-0.5c0.1-0.3,0.2-0.4,0.3-0.5H1252.2z M1250-15
			c0.1,0.1,0.3,0.3,0.5,0.5c0.2,0.2,0.4,0.4,0.5,0.5h-38.7c0.1-0.1,0.3-0.3,0.5-0.5c0.2-0.2,0.4-0.3,0.5-0.5H1250z M1243.6-17.2
			c0.8,0,1.6,0.1,2.3,0.3c0.7,0.2,1.3,0.4,1.9,0.7h-32.3c0.6-0.3,1.2-0.5,2-0.7c0.7-0.2,1.5-0.3,2.3-0.3H1243.6z"/>
		<path class="st2" d="M1261.7-7.2c0-0.1,0-0.2,0.1-0.5c0.1-0.3,0.1-0.4,0.1-0.5h35.7v1H1261.7z M1261.7-5.8h35.9v1h-35.9V-5.8z
			 M1261.7-3.5h35.9v1h-35.9V-3.5z M1261.7-1.1h35.9v1h-35.9V-1.1z M1261.7,4h30.4v9.1h-9v39h-16.7v-39h-4.7V4z M1262.2-9.5
			c0-0.1,0-0.2,0.1-0.5c0.1-0.3,0.1-0.4,0.2-0.5h35.2v1H1262.2z M1263.1-11.7c0.1-0.1,0.2-0.2,0.3-0.5c0.1-0.3,0.2-0.4,0.3-0.5h34v1
			H1263.1z M1297.6-15v1h-32.9c0.1-0.1,0.3-0.3,0.5-0.5c0.2-0.2,0.4-0.3,0.5-0.5H1297.6z M1297.6-17.2v1h-29.7
			c1.1-0.4,2-0.7,2.8-0.8c0.8-0.1,1.5-0.1,2.3-0.1H1297.6z"/>
		<path class="st2" d="M1322-17.2v1h-16.7v-1H1322z M1322-14.9v1h-16.7v-1H1322z M1322-12.7v1h-16.7v-1H1322z M1322-10.4v1h-16.7v-1
			H1322z M1322-8.2v1h-16.7v-1H1322z M1322-5.8v1h-16.7v-1H1322z M1322-3.5v1h-16.7v-1H1322z M1322-1.1v1h-16.7v-1H1322z
			 M1305.3,3.8h16.7v31.3h-16.7V3.8z"/>
		<path class="st2" d="M1329.6-28.6h16.7v1h-16.7V-28.6z M1329.6-26.4h16.7v1h-16.7V-26.4z M1329.6-24.1h16.7v1h-16.7V-24.1z
			 M1329.6-21.9h16.7v1h-16.7V-21.9z M1329.6-19.5h16.7v1h-16.7V-19.5z M1346.4-17.2v1h-16.7v-1H1346.4z M1346.4-14.9v1h-16.7v-1
			H1346.4z M1346.4-12.7v1h-16.7v-1H1346.4z M1346.4-10.4v1h-16.7v-1H1346.4z M1346.4-8.2v1h-16.7v-1H1346.4z M1346.4-5.8v1h-16.7
			v-1H1346.4z M1346.4-3.5v1h-16.7v-1H1346.4z M1346.4-1.1v1h-16.7v-1H1346.4z M1329.6,3.8h16.7v31.3h-16.7V3.8z"/>
		<path class="st2" d="M1354-7.2c0-0.1,0-0.2,0.1-0.5c0.1-0.3,0.1-0.4,0.1-0.5h41.5v1H1354z M1354-5.8h41.6v1H1354V-5.8z M1354-3.5
			h41.6v1H1354V-3.5z M1354-1.1h41.6v1H1354V-1.1z M1395.6,35.1h-28.4c-1.8,0-3.6-0.3-5.2-1c-1.6-0.6-3-1.5-4.3-2.7
			c-1.2-1.2-2.1-2.6-2.8-4.2c-0.7-1.6-1-3.4-1-5.4V4.5h36.1v8.8h-19c0,1.5,0.2,2.6,0.7,3.4c0.4,0.8,1.6,1.2,3.4,1.2h20.4V35.1z
			 M1354.5-9.5c0-0.1,0-0.2,0.1-0.5c0.1-0.3,0.1-0.4,0.2-0.5h40.9v1H1354.5z M1355.3-11.7c0.1-0.1,0.2-0.2,0.3-0.5
			c0.1-0.3,0.2-0.4,0.3-0.5h39.7v1H1355.3z M1395.6-15v1h-38.6c0.1-0.1,0.3-0.3,0.5-0.5c0.2-0.2,0.4-0.3,0.5-0.5H1395.6z
			 M1395.6-17.2v1h-35.4c0.9-0.4,1.7-0.6,2.5-0.8c0.8-0.1,1.6-0.2,2.5-0.2H1395.6z"/>
	</g>
</g>
</svg>
