<?xml version="1.0" encoding="utf-8"?>
<!-- Generator: Adobe Illustrator 19.0.0, SVG Export Plug-In . SVG Version: 6.00 Build 0)  -->
<svg version="1.1" id="Capa_1" xmlns="http://www.w3.org/2000/svg" xmlns:xlink="http://www.w3.org/1999/xlink" x="0px" y="0px"
	 viewBox="-7.9 -31.8 1486.2 84.8" style="enable-background:new -7.9 -31.8 1486.2 84.8;" xml:space="preserve">
<style type="text/css">
	.st0{display:none;}
	.st1{display:inline;fill:#161616;}
	.st2{fill:#FBBF24;}
	.st3{fill:none;stroke:#FBBF24;stroke-width:1.6;stroke-miterlimit:10;}
	.st4{clip-path:url(#XMLID_16_);}
</style>
<g id="Capa_5" class="st0">
	<rect id="XMLID_171_" x="-377.4" y="-127.2" class="st1" width="1970.8" height="316.5"/>
</g>
<g id="Capa_3">
	<rect id="XMLID_11_" x="1395.3" y="4.4" class="st2" width="83" height="30.7"/>
	<rect id="XMLID_13_" x="-7.9" y="4.5" class="st2" width="1113.6" height="30.7"/>
</g>
<g id="Capa_7">
	<line id="XMLID_188_" class="st3" x1="-7.9" y1="-2.9" x2="1132.5" y2="-2.9"/>
	<line id="XMLID_187_" class="st3" x1="-7.9" y1="-7.4" x2="1132.5" y2="-7.4"/>
	<line id="XMLID_186_" class="st3" x1="-7.9" y1="-11.9" x2="1132.5" y2="-11.9"/>
	<line id="XMLID_185_" class="st3" x1="-7.9" y1="-16.4" x2="1132.5" y2="-16.4"/>
</g>
<g id="Capa_8_2_">
	<line id="XMLID_26_" class="st3" x1="1140" y1="-2.9" x2="1207" y2="-2.9"/>
	<line id="XMLID_25_" class="st3" x1="1140" y1="-7.4" x2="1207" y2="-7.4"/>
	<line id="XMLID_24_" class="st3" x1="1140" y1="-11.9" x2="1205.1" y2="-11.9"/>
	<line id="XMLID_23_" class="st3" x1="1140" y1="-16.4" x2="1197.8" y2="-16.4"/>
	<g id="XMLID_22_">
	</g>
	<g id="XMLID_21_">
	</g>
	<g id="XMLID_20_">
	</g>
	<g id="XMLID_19_">
	</g>
	<g id="XMLID_18_">
	</g>
	<g id="XMLID_17_">
	</g>
</g>
<g id="Capa_8_1_">
	<line id="XMLID_14_" class="st3" x1="1319" y1="-20.9" x2="1335.8" y2="-20.9"/>
	<line id="XMLID_12_" class="st3" x1="1319" y1="-25.4" x2="1335.8" y2="-25.4"/>
	<line id="XMLID_10_" class="st3" x1="1319" y1="-29.9" x2="1335.8" y2="-29.9"/>
	<g id="XMLID_9_">
	</g>
	<g id="XMLID_8_">
	</g>
	<g id="XMLID_7_">
	</g>
	<g id="XMLID_6_">
	</g>
	<g id="XMLID_3_">
	</g>
	<g id="XMLID_1_">
	</g>
</g>
<g id="Capa_8">
	<line id="XMLID_192_" class="st3" x1="1214.7" y1="-2.9" x2="1257.9" y2="-2.9"/>
	<line id="XMLID_191_" class="st3" x1="1214.7" y1="-7.4" x2="1257.9" y2="-7.4"/>
	<line id="XMLID_190_" class="st3" x1="1214.7" y1="-11.9" x2="1255.7" y2="-11.9"/>
	<line id="XMLID_189_" class="st3" x1="1214.7" y1="-16.4" x2="1248.4" y2="-16.4"/>
	<g id="XMLID_2_">
	</g>
	<g id="XMLID_226_">
	</g>
	<g id="XMLID_227_">
	</g>
	<g id="XMLID_228_">
	</g>
	<g id="XMLID_229_">
	</g>
	<g id="XMLID_230_">
	</g>
</g>
<g id="Capa_8_8_">
	<line id="XMLID_84_" class="st3" x1="1265.4" y1="-2.9" x2="1311.3" y2="-2.9"/>
	<line id="XMLID_83_" class="st3" x1="1265.4" y1="-7.4" x2="1311.3" y2="-7.4"/>
	<line id="XMLID_82_" class="st3" x1="1267.1" y1="-11.9" x2="1311.3" y2="-11.9"/>
	<line id="XMLID_81_" class="st3" x1="1273.7" y1="-16.4" x2="1311.3" y2="-16.4"/>
	<g id="XMLID_80_">
	</g>
	<g id="XMLID_79_">
	</g>
	<g id="XMLID_78_">
	</g>
	<g id="XMLID_77_">
	</g>
	<g id="XMLID_76_">
	</g>
	<g id="XMLID_75_">
	</g>
</g>
<g id="Capa_8_7_">
	<line id="XMLID_74_" class="st3" x1="1319" y1="-2.9" x2="1346.2" y2="-2.9"/>
	<line id="XMLID_73_" class="st3" x1="1319" y1="-7.4" x2="1346.2" y2="-7.4"/>
	<line id="XMLID_72_" class="st3" x1="1319" y1="-11.9" x2="1346.2" y2="-11.9"/>
	<line id="XMLID_71_" class="st3" x1="1319" y1="-16.4" x2="1346.2" y2="-16.4"/>
	<g id="XMLID_70_">
	</g>
	<g id="XMLID_69_">
	</g>
	<g id="XMLID_68_">
	</g>
	<g id="XMLID_39_">
	</g>
	<g id="XMLID_38_">
	</g>
	<g id="XMLID_37_">
	</g>
</g>
<g id="Capa_8_3_">
	<line id="XMLID_36_" class="st3" x1="1354.1" y1="-2.9" x2="1478.3" y2="-2.9"/>
	<line id="XMLID_35_" class="st3" x1="1354.1" y1="-7.4" x2="1478.3" y2="-7.4"/>
	<line id="XMLID_34_" class="st3" x1="1355.8" y1="-11.9" x2="1478.3" y2="-11.9"/>
	<line id="XMLID_33_" class="st3" x1="1363.5" y1="-16.4" x2="1478.3" y2="-16.4"/>
	<g id="XMLID_32_">
	</g>
	<g id="XMLID_31_">
	</g>
	<g id="XMLID_30_">
	</g>
	<g id="XMLID_29_">
	</g>
	<g id="XMLID_28_">
	</g>
	<g id="XMLID_27_">
	</g>
</g>
<g id="XMLID_4_">
	<defs>
		<rect id="XMLID_169_" x="957.7" y="1.7" width="443.6" height="63.5"/>
	</defs>
	<clipPath id="XMLID_16_">
		<use xlink:href="#XMLID_169_"  style="overflow:visible;"/>
	</clipPath>
	<g id="XMLID_5_" class="st4">
		<path class="st2" d="M1090.8-7.2c0-0.1,0-0.2,0.1-0.5c0.1-0.3,0.1-0.4,0.1-0.5h41.5v1H1090.8z M1090.8-5.8h41.6v1h-41.6V-5.8z
			 M1090.8-3.5h41.6v1h-41.6V-3.5z M1090.8-1.1h41.6v1h-41.6V-1.1z M1132.5,35.1h-28.4c-1.8,0-3.6-0.3-5.2-1c-1.6-0.6-3-1.5-4.3-2.7
			c-1.2-1.2-2.1-2.6-2.8-4.2c-0.7-1.6-1-3.4-1-5.4V4.5h36.1v8.8h-19c0,1.5,0.2,2.6,0.7,3.4c0.4,0.8,1.6,1.2,3.4,1.2h20.4V35.1z
			 M1091.3-9.5c0-0.1,0-0.2,0.1-0.5c0.1-0.3,0.1-0.4,0.2-0.5h40.9v1H1091.3z M1092.2-11.7c0.1-0.1,0.2-0.2,0.3-0.5
			c0.1-0.3,0.2-0.4,0.3-0.5h39.7v1H1092.2z M1132.5-15v1h-38.6c0.1-0.1,0.3-0.3,0.5-0.5c0.2-0.2,0.4-0.3,0.5-0.5H1132.5z
			 M1132.5-17.2v1h-35.4c0.9-0.4,1.7-0.6,2.5-0.8c0.8-0.1,1.6-0.2,2.5-0.2H1132.5z"/>
		<path class="st2" d="M1140-17.2h55.7c0.8,0,1.5,0,2.2,0.1c0.7,0.1,1.6,0.4,2.7,0.8H1140V-17.2z M1140-15h62.8
			c0.1,0.1,0.3,0.3,0.6,0.5c0.3,0.2,0.4,0.4,0.6,0.5H1140V-15z M1205-12.6c0.1,0.1,0.2,0.2,0.3,0.5c0.1,0.3,0.2,0.4,0.3,0.5H1140v-1
			H1205z M1206.1-10.4c0.1,0.1,0.1,0.2,0.2,0.5c0.1,0.3,0.1,0.4,0.1,0.5H1140v-1H1206.1z M1206.8-8.2l0.1,1H1140v-1H1206.8z
			 M1207.1-5.8v1H1140v-1H1207.1z M1207.1-3.5v1H1140v-1H1207.1z M1207.1-1.1v1H1140v-1H1207.1z M1140,3.8h17.4v31.3H1140V3.8z
			 M1165,3.8h17v31.3h-17V3.8z M1189.7,3.8h17.4v31.3h-17.4V3.8z"/>
		<path class="st2" d="M1214.6-17.2h31.9c0.8,0,1.5,0,2.2,0.1c0.7,0.1,1.6,0.4,2.7,0.8h-36.9V-17.2z M1214.6-15h39
			c0.1,0.1,0.3,0.3,0.5,0.5c0.2,0.2,0.4,0.4,0.5,0.5h-40V-15z M1255.8-12.6c0.1,0.1,0.2,0.2,0.3,0.5c0.1,0.3,0.2,0.4,0.3,0.5h-41.7
			v-1H1255.8z M1257-10.4c0.1,0.1,0.1,0.2,0.2,0.5c0.1,0.3,0.1,0.4,0.1,0.5h-42.6v-1H1257z M1257.6-8.2l0.1,1h-43.1v-1H1257.6z
			 M1257.7-5.8v1h-43.1v-1H1257.7z M1257.7-3.5v1h-43.1v-1H1257.7z M1257.7-1.1v1h-43.1v-1H1257.7z M1257.7,3.7v18.1
			c0,2-0.3,3.8-1,5.4c-0.7,1.6-1.6,3-2.8,4.2c-1.2,1.1-2.6,2-4.2,2.7c-1.6,0.6-3.4,1-5.2,1h-13.2v17.5h-16.7V3.7h16.7v14h4.7
			c1.7,0,3-0.4,3.9-1.1c0.9-0.7,1.4-1.4,1.5-2.1c0.1-0.3,0.1-0.6,0.1-1.1c0-0.5,0-0.9,0-1.2V3.7H1257.7z"/>
		<path class="st2" d="M1265.4-7.2c0-0.1,0-0.2,0.1-0.5c0.1-0.3,0.1-0.4,0.1-0.5h45.8v1H1265.4z M1265.4-5.8h45.9v1h-45.9V-5.8z
			 M1265.4-3.5h45.9v1h-45.9V-3.5z M1265.4-1.1h45.9v1h-45.9V-1.1z M1282.7,3.8v7.6c0,4.3,2.1,6.4,6.3,6.4h4.9v-14h17.4v31.3h-32.7
			c-1.8,0-3.6-0.3-5.2-1c-1.6-0.6-3-1.5-4.3-2.7c-1.2-1.2-2.1-2.6-2.8-4.2c-0.7-1.6-1-3.4-1-5.4V3.8H1282.7z M1265.8-9.5
			c0-0.1,0-0.2,0.1-0.5c0.1-0.3,0.1-0.4,0.2-0.5h45.2v1H1265.8z M1266.7-11.7c0.1-0.1,0.2-0.2,0.3-0.5c0.1-0.3,0.2-0.4,0.3-0.5h44v1
			H1266.7z M1311.3-15v1h-42.9c0.1-0.1,0.3-0.3,0.5-0.5c0.2-0.2,0.4-0.3,0.5-0.5H1311.3z M1311.3-17.2v1h-39.7
			c0.9-0.4,1.7-0.6,2.5-0.8c0.8-0.1,1.6-0.2,2.5-0.2H1311.3z"/>
		<path class="st2" d="M1318.9-28.6h16.7v1h-16.7V-28.6z M1318.9-26.4h16.7v1h-16.7V-26.4z M1318.9-24.1h16.7v1h-16.7V-24.1z
			 M1318.9-21.9h16.7v1h-16.7V-21.9z M1318.9-19.5h16.7v1h-16.7V-19.5z M1346.4-17.2v1h-27.4v-1H1346.4z M1346.4-14.9v1h-27.4v-1
			H1346.4z M1346.4-12.7v1h-27.4v-1H1346.4z M1346.4-10.4v1h-27.4v-1H1346.4z M1346.4-8.2v1h-27.4v-1H1346.4z M1346.4-5.8v1h-27.4
			v-1H1346.4z M1346.4-3.5v1h-27.4v-1H1346.4z M1346.4-1.1v1h-27.4v-1H1346.4z M1318.9,3.9h16.7V12c0,2,0.4,3.5,1.1,4.4
			c0.7,0.9,2.2,1.4,4.4,1.4h5.2v17.3h-14.4c-1.7,0-3.4-0.3-4.9-0.9c-1.6-0.6-2.9-1.4-4.2-2.6c-1.2-1.1-2.2-2.6-2.9-4.3
			c-0.7-1.7-1.1-3.7-1.1-6V3.9z"/>
		<path class="st2" d="M1354-7.2c0-0.1,0-0.2,0.1-0.5c0.1-0.3,0.1-0.4,0.1-0.5h41.5v1H1354z M1354-5.8h41.6v1H1354V-5.8z M1354-3.5
			h41.6v1H1354V-3.5z M1354-1.1h41.6v1H1354V-1.1z M1395.6,35.1h-28.4c-1.8,0-3.6-0.3-5.2-1c-1.6-0.6-3-1.5-4.3-2.7
			c-1.2-1.2-2.1-2.6-2.8-4.2c-0.7-1.6-1-3.4-1-5.4V4.5h36.1v8.8h-19c0,1.5,0.2,2.6,0.7,3.4c0.4,0.8,1.6,1.2,3.4,1.2h20.4V35.1z
			 M1354.5-9.5c0-0.1,0-0.2,0.1-0.5c0.1-0.3,0.1-0.4,0.2-0.5h40.9v1H1354.5z M1355.3-11.7c0.1-0.1,0.2-0.2,0.3-0.5
			c0.1-0.3,0.2-0.4,0.3-0.5h39.7v1H1355.3z M1395.6-15v1h-38.6c0.1-0.1,0.3-0.3,0.5-0.5c0.2-0.2,0.4-0.3,0.5-0.5H1395.6z
			 M1395.6-17.2v1h-35.4c0.9-0.4,1.7-0.6,2.5-0.8c0.8-0.1,1.6-0.2,2.5-0.2H1395.6z"/>
	</g>
</g>
</svg>
