<?xml version="1.0" encoding="utf-8"?>
<!-- Generator: Adobe Illustrator 19.0.0, SVG Export Plug-In . SVG Version: 6.00 Build 0)  -->
<svg version="1.1" id="Capa_1" xmlns="http://www.w3.org/2000/svg" xmlns:xlink="http://www.w3.org/1999/xlink" x="0px" y="0px"
	 viewBox="-321.7 -31.8 1800 84.8" style="enable-background:new -321.7 -31.8 1800 84.8;" xml:space="preserve">
<style type="text/css">
	.st0{display:none;}
	.st1{display:inline;fill:#161616;}
	.st2{fill:#FFF8E3;}
	.st3{fill:none;stroke:#FFF8E3;stroke-width:1.6;stroke-miterlimit:10;}
	.st4{clip-path:url(#XMLID_75_);}
</style>
<g id="Capa_5" class="st0">
	<rect id="XMLID_171_" x="-377.4" y="-127.2" class="st1" width="1970.8" height="316.5"/>
</g>
<g id="Capa_3">
	<rect id="XMLID_11_" x="1379.9" y="3.9" class="st2" width="98.4" height="31.2"/>
	<rect id="XMLID_13_" x="-321.7" y="3.8" class="st2" width="1429.2" height="31.3"/>
</g>
<g id="Capa_8_7_">
	<line id="XMLID_73_" class="st3" x1="1138.4" y1="-2.9" x2="-321.7" y2="-2.9"/>
	<line id="XMLID_72_" class="st3" x1="1138.4" y1="-7.4" x2="-321.7" y2="-7.4"/>
	<line id="XMLID_71_" class="st3" x1="1136.9" y1="-11.9" x2="-321.7" y2="-11.9"/>
	<line id="XMLID_70_" class="st3" x1="1130.7" y1="-16.4" x2="-321.7" y2="-16.4"/>
	<g id="XMLID_69_">
	</g>
	<g id="XMLID_68_">
	</g>
	<g id="XMLID_67_">
	</g>
	<g id="XMLID_66_">
	</g>
	<g id="XMLID_65_">
	</g>
	<g id="XMLID_1_">
	</g>
</g>
<g id="Capa_7">
	<line id="XMLID_188_" class="st3" x1="1146.1" y1="-2.9" x2="1162.7" y2="-2.9"/>
	<line id="XMLID_187_" class="st3" x1="1146.1" y1="-7.4" x2="1162.7" y2="-7.4"/>
	<line id="XMLID_186_" class="st3" x1="1146.1" y1="-11.9" x2="1162.7" y2="-11.9"/>
	<line id="XMLID_185_" class="st3" x1="1146.1" y1="-16.4" x2="1162.7" y2="-16.4"/>
</g>
<g id="Capa_8_1_">
	<line id="XMLID_16_" class="st3" x1="1170.4" y1="-2.9" x2="1187.1" y2="-2.9"/>
	<line id="XMLID_15_" class="st3" x1="1170.4" y1="-7.4" x2="1187.1" y2="-7.4"/>
	<line id="XMLID_14_" class="st3" x1="1170.4" y1="-11.9" x2="1187.1" y2="-11.9"/>
	<line id="XMLID_12_" class="st3" x1="1170.4" y1="-16.4" x2="1187.1" y2="-16.4"/>
	<g id="XMLID_10_">
	</g>
	<g id="XMLID_9_">
	</g>
	<g id="XMLID_8_">
	</g>
	<g id="XMLID_7_">
	</g>
	<g id="XMLID_6_">
	</g>
	<g id="XMLID_3_">
	</g>
</g>
<g id="Capa_8_4_">
	<line id="XMLID_45_" class="st3" x1="1198.4" y1="-2.9" x2="1215.1" y2="-2.9"/>
	<line id="XMLID_44_" class="st3" x1="1198.4" y1="-7.4" x2="1215.1" y2="-7.4"/>
	<line id="XMLID_43_" class="st3" x1="1198.4" y1="-11.9" x2="1215.1" y2="-11.9"/>
	<line id="XMLID_42_" class="st3" x1="1198.4" y1="-16.4" x2="1215.1" y2="-16.4"/>
	<g id="XMLID_41_">
	</g>
	<g id="XMLID_40_">
	</g>
	<g id="XMLID_39_">
	</g>
	<g id="XMLID_38_">
	</g>
	<g id="XMLID_37_">
	</g>
	<g id="XMLID_2_">
	</g>
</g>
<g id="Capa_8_2_">
	<line id="XMLID_26_" class="st3" x1="1223.6" y1="-2.9" x2="1260.8" y2="-2.9"/>
	<line id="XMLID_25_" class="st3" x1="1223.6" y1="-7.4" x2="1260.8" y2="-7.4"/>
	<line id="XMLID_24_" class="st3" x1="1225.1" y1="-11.9" x2="1260.8" y2="-11.9"/>
	<line id="XMLID_23_" class="st3" x1="1231.3" y1="-16.4" x2="1260.8" y2="-16.4"/>
	<g id="XMLID_22_">
	</g>
	<g id="XMLID_21_">
	</g>
	<g id="XMLID_20_">
	</g>
	<g id="XMLID_19_">
	</g>
	<g id="XMLID_18_">
	</g>
	<g id="XMLID_17_">
	</g>
</g>
<g id="Capa_8_5_">
	<line id="XMLID_55_" class="st3" x1="1270.9" y1="-2.9" x2="1298.3" y2="-2.9"/>
	<line id="XMLID_54_" class="st3" x1="1270.9" y1="-7.4" x2="1298.3" y2="-7.4"/>
	<line id="XMLID_53_" class="st3" x1="1270.9" y1="-11.9" x2="1298.3" y2="-11.9"/>
	<line id="XMLID_52_" class="st3" x1="1270.9" y1="-16.4" x2="1298.3" y2="-16.4"/>
	<g id="XMLID_51_">
	</g>
	<g id="XMLID_50_">
	</g>
	<g id="XMLID_49_">
	</g>
	<g id="XMLID_48_">
	</g>
	<g id="XMLID_47_">
	</g>
	<g id="XMLID_46_">
	</g>
</g>
<g id="Capa_8_6_">
	<line id="XMLID_64_" class="st3" x1="1270.9" y1="-20.9" x2="1287.6" y2="-20.9"/>
	<line id="XMLID_63_" class="st3" x1="1270.9" y1="-25.4" x2="1287.6" y2="-25.4"/>
	<line id="XMLID_62_" class="st3" x1="1270.9" y1="-29.9" x2="1287.6" y2="-29.9"/>
	<g id="XMLID_61_">
	</g>
	<g id="XMLID_60_">
	</g>
	<g id="XMLID_59_">
	</g>
	<g id="XMLID_58_">
	</g>
	<g id="XMLID_57_">
	</g>
	<g id="XMLID_56_">
	</g>
</g>
<g id="Capa_8_3_">
	<line id="XMLID_36_" class="st3" x1="1306" y1="-2.9" x2="1347.6" y2="-2.9"/>
	<line id="XMLID_35_" class="st3" x1="1306" y1="-7.4" x2="1347.6" y2="-7.4"/>
	<line id="XMLID_34_" class="st3" x1="1307.6" y1="-11.9" x2="1347.6" y2="-11.9"/>
	<line id="XMLID_33_" class="st3" x1="1313.5" y1="-16.4" x2="1347.6" y2="-16.4"/>
	<g id="XMLID_32_">
	</g>
	<g id="XMLID_31_">
	</g>
	<g id="XMLID_30_">
	</g>
	<g id="XMLID_29_">
	</g>
	<g id="XMLID_28_">
	</g>
	<g id="XMLID_27_">
	</g>
</g>
<g id="Capa_6">
	<line id="XMLID_180_" class="st3" x1="1356" y1="-2.9" x2="1478.3" y2="-2.9"/>
	<line id="XMLID_179_" class="st3" x1="1355.8" y1="-7.4" x2="1478.3" y2="-7.4"/>
	<line id="XMLID_178_" class="st3" x1="1357.4" y1="-11.9" x2="1478.3" y2="-11.9"/>
	<line id="XMLID_177_" class="st3" x1="1363.1" y1="-16.4" x2="1478.3" y2="-16.4"/>
</g>
<g id="XMLID_4_">
	<defs>
		<rect id="XMLID_169_" x="1033.7" y="2.2" width="367.6" height="63"/>
	</defs>
	<clipPath id="XMLID_75_">
		<use xlink:href="#XMLID_169_"  style="overflow:visible;"/>
	</clipPath>
	<g id="XMLID_5_" class="st4">
		<path class="st2" d="M1092.5-7.2c0-0.1,0-0.2,0.1-0.5c0.1-0.3,0.1-0.4,0.1-0.5h45.8v1H1092.5z M1092.5-5.8h45.9v1h-45.9V-5.8z
			 M1092.5-3.5h45.9v1h-45.9V-3.5z M1092.5-1.1h45.9v1h-45.9V-1.1z M1109.9,3.8v7.6c0,4.3,2.1,6.4,6.3,6.4h4.9v-14h17.4v31.3h-32.7
			c-1.8,0-3.6-0.3-5.2-1c-1.6-0.6-3-1.5-4.3-2.7c-1.2-1.2-2.1-2.6-2.8-4.2c-0.7-1.6-1-3.4-1-5.4V3.8H1109.9z M1093-9.5
			c0-0.1,0-0.2,0.1-0.5c0.1-0.3,0.1-0.4,0.2-0.5h45.2v1H1093z M1093.8-11.7c0.1-0.1,0.2-0.2,0.3-0.5c0.1-0.3,0.2-0.4,0.3-0.5h44v1
			H1093.8z M1138.4-15v1h-42.9c0.1-0.1,0.3-0.3,0.5-0.5c0.2-0.2,0.4-0.3,0.5-0.5H1138.4z M1138.4-17.2v1h-39.7
			c0.9-0.4,1.7-0.6,2.5-0.8c0.8-0.1,1.6-0.2,2.5-0.2H1138.4z"/>
		<path class="st2" d="M1162.8-17.2v1h-16.7v-1H1162.8z M1162.8-14.9v1h-16.7v-1H1162.8z M1162.8-12.7v1h-16.7v-1H1162.8z
			 M1162.8-10.4v1h-16.7v-1H1162.8z M1162.8-8.2v1h-16.7v-1H1162.8z M1162.8-5.8v1h-16.7v-1H1162.8z M1162.8-3.5v1h-16.7v-1H1162.8z
			 M1162.8-1.1v1h-16.7v-1H1162.8z M1146.1,4.5h16.7v48.1h-16.7V4.5z"/>
		<path class="st2" d="M1187.1-17.2v1h-16.7v-1H1187.1z M1187.1-14.9v1h-16.7v-1H1187.1z M1187.1-12.7v1h-16.7v-1H1187.1z
			 M1187.1-10.4v1h-16.7v-1H1187.1z M1187.1-8.2v1h-16.7v-1H1187.1z M1187.1-5.8v1h-16.7v-1H1187.1z M1187.1-3.5v1h-16.7v-1H1187.1z
			 M1187.1-1.1v1h-16.7v-1H1187.1z M1215.1,3.7v18.1c0,2-0.3,3.8-1,5.4c-0.7,1.6-1.6,3-2.8,4.2c-1.2,1.1-2.6,2-4.2,2.7
			c-1.6,0.6-3.4,1-5.2,1h-18.2c-1.8,0-3.6-0.3-5.2-1c-1.6-0.6-3-1.5-4.3-2.7c-1.2-1.1-2.1-2.5-2.8-4.2c-0.7-1.6-1-3.4-1-5.4V3.7
			h16.7v8.4c0,3.8,1.6,5.6,4.8,5.6h1.8c1.8,0,3.1-0.5,3.7-1.6c0.6-1.1,1-2.4,1-4.1V3.7H1215.1z M1215.1-17.2v1h-16.7v-1H1215.1z
			 M1215.1-14.9v1h-16.7v-1H1215.1z M1215.1-12.7v1h-16.7v-1H1215.1z M1215.1-10.4v1h-16.7v-1H1215.1z M1215.1-8.2v1h-16.7v-1
			H1215.1z M1215.1-5.8v1h-16.7v-1H1215.1z M1215.1-3.5v1h-16.7v-1H1215.1z M1215.1-1.1v1h-16.7v-1H1215.1z"/>
		<path class="st2" d="M1227.5,3.9h23l9.2,9.9c1.3,1.3,2.2,2.7,2.7,4.2c0.5,1.4,0.8,3,0.8,4.7c0,3.6-1.2,6.5-3.6,8.9
			c-2.4,2.4-5.9,3.5-10.5,3.5h-26.3V17.8h17.9L1227.5,3.9z M1223.3-5.8h37.5v1h-37.5V-5.8z M1223.5-8.2h37.3v1h-37.4L1223.5-8.2z
			 M1223.5-3.5h37.3v1h-37.3L1223.5-3.5z M1223.8-9.5c0-0.1,0.1-0.2,0.2-0.5c0.1-0.3,0.2-0.4,0.2-0.5h36.7v1H1223.8z M1224.5-0.1
			c-0.1-0.1-0.1-0.2-0.2-0.4c-0.1-0.2-0.1-0.4-0.2-0.5h36.8v1H1224.5z M1224.7-11.7c0.1-0.1,0.2-0.2,0.3-0.5
			c0.1-0.3,0.2-0.4,0.3-0.5h35.6v1H1224.7z M1260.9-15v1h-34.5c0.1-0.1,0.3-0.3,0.5-0.5c0.2-0.2,0.4-0.3,0.5-0.5H1260.9z
			 M1260.9-17.2v1h-31.2c1.1-0.4,2-0.7,2.7-0.8c0.7-0.1,1.5-0.1,2.2-0.1H1260.9z"/>
		<path class="st2" d="M1270.9-28.6h16.7v1h-16.7V-28.6z M1270.9-26.4h16.7v1h-16.7V-26.4z M1270.9-24.1h16.7v1h-16.7V-24.1z
			 M1270.9-21.9h16.7v1h-16.7V-21.9z M1270.9-19.5h16.7v1h-16.7V-19.5z M1298.3-17.2v1h-27.4v-1H1298.3z M1298.3-14.9v1h-27.4v-1
			H1298.3z M1298.3-12.7v1h-27.4v-1H1298.3z M1298.3-10.4v1h-27.4v-1H1298.3z M1298.3-8.2v1h-27.4v-1H1298.3z M1298.3-5.8v1h-27.4
			v-1H1298.3z M1298.3-3.5v1h-27.4v-1H1298.3z M1298.3-1.1v1h-27.4v-1H1298.3z M1270.9,3.9h16.7V12c0,2,0.4,3.5,1.1,4.4
			c0.7,0.9,2.2,1.4,4.4,1.4h5.2v17.3h-14.4c-1.7,0-3.4-0.3-4.9-0.9c-1.6-0.6-2.9-1.4-4.2-2.6c-1.2-1.1-2.2-2.6-2.9-4.3
			c-0.7-1.7-1.1-3.7-1.1-6V3.9z"/>
		<path class="st2" d="M1306-7.2c0-0.1,0-0.2,0.1-0.5c0.1-0.3,0.1-0.4,0.1-0.5h41.5v1H1306z M1306-5.8h41.6v1H1306V-5.8z M1306-3.5
			h41.6v1H1306V-3.5z M1306-1.1h41.6v1H1306V-1.1z M1347.6,35.1h-28.4c-1.8,0-3.6-0.3-5.2-1c-1.6-0.6-3-1.5-4.3-2.7
			c-1.2-1.2-2.1-2.6-2.8-4.2c-0.7-1.6-1-3.4-1-5.4V4.5h36.1v8.8h-19c0,1.5,0.2,2.6,0.7,3.4c0.4,0.8,1.6,1.2,3.4,1.2h20.4V35.1z
			 M1306.4-9.5c0-0.1,0-0.2,0.1-0.5c0.1-0.3,0.1-0.4,0.2-0.5h40.9v1H1306.4z M1307.3-11.7c0.1-0.1,0.2-0.2,0.3-0.5
			c0.1-0.3,0.2-0.4,0.3-0.5h39.7v1H1307.3z M1347.6-15v1H1309c0.1-0.1,0.3-0.3,0.5-0.5c0.2-0.2,0.4-0.3,0.5-0.5H1347.6z
			 M1347.6-17.2v1h-35.4c0.9-0.4,1.7-0.6,2.5-0.8c0.8-0.1,1.6-0.2,2.5-0.2H1347.6z"/>
		<path class="st2" d="M1359.8,3.9h23l9.2,9.9c1.3,1.3,2.2,2.7,2.7,4.2c0.5,1.4,0.8,3,0.8,4.7c0,3.6-1.2,6.5-3.6,8.9
			c-2.4,2.4-5.9,3.5-10.5,3.5h-26.3V17.8h17.9L1359.8,3.9z M1355.6-5.8h37.5v1h-37.5V-5.8z M1355.8-8.2h37.3v1h-37.4L1355.8-8.2z
			 M1355.8-3.5h37.3v1h-37.3L1355.8-3.5z M1356.1-9.5c0-0.1,0.1-0.2,0.2-0.5c0.1-0.3,0.2-0.4,0.2-0.5h36.7v1H1356.1z M1356.8-0.1
			c-0.1-0.1-0.1-0.2-0.2-0.4c-0.1-0.2-0.1-0.4-0.2-0.5h36.8v1H1356.8z M1357-11.7c0.1-0.1,0.2-0.2,0.3-0.5c0.1-0.3,0.2-0.4,0.3-0.5
			h35.6v1H1357z M1393.2-15v1h-34.5c0.1-0.1,0.3-0.3,0.5-0.5c0.2-0.2,0.4-0.3,0.5-0.5H1393.2z M1393.2-17.2v1h-31.2
			c1.1-0.4,2-0.7,2.7-0.8c0.7-0.1,1.5-0.1,2.2-0.1H1393.2z"/>
	</g>
</g>
</svg>
