<?xml version="1.0" encoding="utf-8"?>
<!-- Generator: Adobe Illustrator 19.0.0, SVG Export Plug-In . SVG Version: 6.00 Build 0)  -->
<svg version="1.1" id="Capa_1" xmlns="http://www.w3.org/2000/svg" xmlns:xlink="http://www.w3.org/1999/xlink" x="0px" y="0px"
	 viewBox="-321.7 -31.8 1800 84.8" style="enable-background:new -321.7 -31.8 1800 84.8;" xml:space="preserve">
<style type="text/css">
	.st0{display:none;}
	.st1{display:inline;fill:#161616;}
	.st2{fill:#FFF8E3;}
	.st3{fill:none;stroke:#FFF8E3;stroke-width:1.6;stroke-miterlimit:10;}
	.st4{clip-path:url(#XMLID_16_);}
</style>
<g id="Capa_5" class="st0">
	<rect id="XMLID_171_" x="-377.4" y="-127.2" class="st1" width="1970.8" height="316.5"/>
</g>
<g id="Capa_3">
	<rect id="XMLID_11_" x="1395.2" y="4.4" class="st2" width="83.1" height="30.7"/>
	<rect id="XMLID_13_" x="-321.7" y="4.5" class="st2" width="1553.2" height="30.6"/>
</g>
<g id="Capa_7">
	<line id="XMLID_188_" class="st3" x1="-321.7" y1="-2.9" x2="1255.7" y2="-2.9"/>
	<line id="XMLID_187_" class="st3" x1="-321.7" y1="-7.4" x2="1255.7" y2="-7.4"/>
	<line id="XMLID_186_" class="st3" x1="-321.7" y1="-11.9" x2="1255.7" y2="-11.9"/>
	<line id="XMLID_185_" class="st3" x1="-321.7" y1="-16.4" x2="1255.7" y2="-16.4"/>
</g>
<g id="Capa_8_2_">
	<line id="XMLID_26_" class="st3" x1="1263.3" y1="-2.9" x2="1307" y2="-2.9"/>
	<line id="XMLID_25_" class="st3" x1="1263.3" y1="-7.4" x2="1306.8" y2="-7.4"/>
	<line id="XMLID_24_" class="st3" x1="1263.3" y1="-11.9" x2="1305.2" y2="-11.9"/>
	<line id="XMLID_23_" class="st3" x1="1263.3" y1="-16.4" x2="1298.8" y2="-16.4"/>
	<g id="XMLID_22_">
	</g>
	<g id="XMLID_21_">
	</g>
	<g id="XMLID_20_">
	</g>
	<g id="XMLID_19_">
	</g>
	<g id="XMLID_18_">
	</g>
	<g id="XMLID_17_">
	</g>
</g>
<g id="Capa_8_1_">
	<line id="XMLID_14_" class="st3" x1="1263.3" y1="-20.9" x2="1280.1" y2="-20.9"/>
	<line id="XMLID_12_" class="st3" x1="1263.3" y1="-25.4" x2="1280.1" y2="-25.4"/>
	<line id="XMLID_10_" class="st3" x1="1263.3" y1="-29.9" x2="1280.1" y2="-29.9"/>
	<g id="XMLID_9_">
	</g>
	<g id="XMLID_8_">
	</g>
	<g id="XMLID_7_">
	</g>
	<g id="XMLID_6_">
	</g>
	<g id="XMLID_3_">
	</g>
	<g id="XMLID_1_">
	</g>
</g>
<g id="Capa_8">
	<line id="XMLID_192_" class="st3" x1="1314.6" y1="-2.9" x2="1360.6" y2="-2.9"/>
	<line id="XMLID_191_" class="st3" x1="1314.8" y1="-7.4" x2="1360.6" y2="-7.4"/>
	<line id="XMLID_190_" class="st3" x1="1316.4" y1="-11.9" x2="1360.6" y2="-11.9"/>
	<line id="XMLID_189_" class="st3" x1="1322.9" y1="-16.4" x2="1360.6" y2="-16.4"/>
	<g id="XMLID_2_">
	</g>
	<g id="XMLID_226_">
	</g>
	<g id="XMLID_227_">
	</g>
	<g id="XMLID_228_">
	</g>
	<g id="XMLID_229_">
	</g>
	<g id="XMLID_230_">
	</g>
</g>
<g id="Capa_8_3_">
	<line id="XMLID_36_" class="st3" x1="1368.1" y1="-2.9" x2="1478.3" y2="-2.9"/>
	<line id="XMLID_35_" class="st3" x1="1368.1" y1="-7.4" x2="1478.3" y2="-7.4"/>
	<line id="XMLID_34_" class="st3" x1="1368.1" y1="-11.9" x2="1478.3" y2="-11.9"/>
	<line id="XMLID_33_" class="st3" x1="1368.1" y1="-16.4" x2="1478.3" y2="-16.4"/>
	<line id="XMLID_37_" class="st3" x1="1368.1" y1="-20.8" x2="1384.8" y2="-20.8"/>
	<line id="XMLID_38_" class="st3" x1="1368.1" y1="-25.4" x2="1384.8" y2="-25.4"/>
	<line id="XMLID_39_" class="st3" x1="1368.1" y1="-29.7" x2="1384.8" y2="-29.7"/>
	<g id="XMLID_32_">
	</g>
	<g id="XMLID_31_">
	</g>
	<g id="XMLID_30_">
	</g>
	<g id="XMLID_29_">
	</g>
	<g id="XMLID_28_">
	</g>
	<g id="XMLID_27_">
	</g>
</g>
<g id="XMLID_4_">
	<defs>
		<rect id="XMLID_169_" x="1080" y="1.9" width="321.3" height="63.4"/>
	</defs>
	<clipPath id="XMLID_16_">
		<use xlink:href="#XMLID_169_"  style="overflow:visible;"/>
	</clipPath>
	<g id="XMLID_5_" class="st4">
		<path class="st2" d="M1218.2-7.2c0-0.1,0-0.2,0.1-0.5c0.1-0.3,0.1-0.4,0.1-0.5h37.3v1H1218.2z M1218.3-5.8h37.4v1h-37.4V-5.8z
			 M1218.3-3.5h37.4v1h-37.4V-3.5z M1218.3-1.1h37.4v1h-37.4V-1.1z M1255.7,17.8v17.3h-24.3c-1.8,0-3.6-0.3-5.2-1
			c-1.6-0.6-3-1.5-4.2-2.7c-1.2-1.2-2.1-2.6-2.8-4.2c-0.7-1.6-1-3.4-1-5.4V4.5h16.7v7c0,1.8,0.6,3.4,1.7,4.6
			c1.1,1.2,2.6,1.8,4.5,1.8H1255.7z M1218.7-9.5c0-0.1,0-0.2,0.1-0.5c0.1-0.3,0.1-0.4,0.2-0.5h36.8v1H1218.7z M1219.5-11.7
			c0.1-0.1,0.2-0.2,0.3-0.5c0.1-0.3,0.2-0.4,0.3-0.5h35.6v1H1219.5z M1255.7-15v1h-34.5c0.1-0.1,0.3-0.3,0.5-0.5
			c0.2-0.2,0.4-0.3,0.5-0.5H1255.7z M1255.7-17.2v1h-31.3c1.1-0.4,2-0.7,2.8-0.8c0.8-0.1,1.5-0.1,2.3-0.1H1255.7z"/>
		<path class="st2" d="M1263.4-28.6h16.7v1h-16.7V-28.6z M1263.4-26.4h16.7v1h-16.7V-26.4z M1263.4-24.1h16.7v1h-16.7V-24.1z
			 M1263.4-21.9h16.7v1h-16.7V-21.9z M1263.4-19.5h16.7v1h-16.7V-19.5z M1263.4-17.2h32.4c0.8,0,1.5,0,2.2,0.1
			c0.7,0.1,1.6,0.4,2.7,0.8h-37.3V-17.2z M1263.4-15h39.4c0.1,0.1,0.3,0.3,0.5,0.5c0.2,0.2,0.4,0.4,0.5,0.5h-40.5V-15z M1305-12.6
			c0.1,0.1,0.2,0.2,0.3,0.5c0.1,0.3,0.2,0.4,0.3,0.5h-42.2v-1H1305z M1306.1-10.4c0.1,0.1,0.1,0.2,0.2,0.5c0.1,0.3,0.1,0.4,0.1,0.5
			h-43.1v-1H1306.1z M1306.8-8.2l0.1,1h-43.6v-1H1306.8z M1307-5.8v1h-43.7v-1H1307z M1307-3.5v1h-43.7v-1H1307z M1307-1.1v1h-43.7
			v-1H1307z M1263.4,3.8h16.7v31.3h-16.7V3.8z M1290.3,3.8h16.7v31.3h-16.7V3.8z"/>
		<path class="st2" d="M1314.6-7.2c0-0.1,0-0.2,0.1-0.5c0.1-0.3,0.1-0.4,0.1-0.5h45.8v1H1314.6z M1314.6-5.8h45.9v1h-45.9V-5.8z
			 M1314.6-3.5h45.9v1h-45.9V-3.5z M1314.6-1.1h45.9v1h-45.9V-1.1z M1331.9,3.8v7.6c0,4.3,2.1,6.4,6.3,6.4h4.9v-14h17.4v31.3h-32.7
			c-1.8,0-3.6-0.3-5.2-1c-1.6-0.6-3-1.5-4.3-2.7c-1.2-1.2-2.1-2.6-2.8-4.2c-0.7-1.6-1-3.4-1-5.4V3.8H1331.9z M1315-9.5
			c0-0.1,0-0.2,0.1-0.5c0.1-0.3,0.1-0.4,0.2-0.5h45.2v1H1315z M1315.9-11.7c0.1-0.1,0.2-0.2,0.3-0.5c0.1-0.3,0.2-0.4,0.3-0.5h44v1
			H1315.9z M1360.5-15v1h-42.9c0.1-0.1,0.3-0.3,0.5-0.5c0.2-0.2,0.4-0.3,0.5-0.5H1360.5z M1360.5-17.2v1h-39.7
			c0.9-0.4,1.7-0.6,2.5-0.8c0.8-0.1,1.6-0.2,2.5-0.2H1360.5z"/>
		<path class="st2" d="M1368.1-28.6h16.7v1h-16.7V-28.6z M1368.1-26.4h16.7v1h-16.7V-26.4z M1368.1-24.1h16.7v1h-16.7V-24.1z
			 M1368.1-21.9h16.7v1h-16.7V-21.9z M1368.1-19.5h16.7v1h-16.7V-19.5z M1395.5-17.2v1h-27.4v-1H1395.5z M1395.5-14.9v1h-27.4v-1
			H1395.5z M1395.5-12.7v1h-27.4v-1H1395.5z M1395.5-10.4v1h-27.4v-1H1395.5z M1395.5-8.2v1h-27.4v-1H1395.5z M1395.5-5.8v1h-27.4
			v-1H1395.5z M1395.5-3.5v1h-27.4v-1H1395.5z M1395.5-1.1v1h-27.4v-1H1395.5z M1368.1,3.9h16.7V12c0,2,0.4,3.5,1.1,4.4
			c0.7,0.9,2.2,1.4,4.4,1.4h5.2v17.3h-14.4c-1.7,0-3.4-0.3-4.9-0.9c-1.6-0.6-2.9-1.4-4.2-2.6c-1.2-1.1-2.2-2.6-2.9-4.3
			c-0.7-1.7-1.1-3.7-1.1-6V3.9z"/>
	</g>
</g>
</svg>
