<?xml version="1.0" encoding="utf-8"?>
<!-- Generator: Adobe Illustrator 19.0.0, SVG Export Plug-In . SVG Version: 6.00 Build 0)  -->
<svg version="1.1" id="Capa_1" xmlns="http://www.w3.org/2000/svg" xmlns:xlink="http://www.w3.org/1999/xlink" x="0px" y="0px"
	 viewBox="-7.9 -31.8 1486.2 84.8" style="enable-background:new -7.9 -31.8 1486.2 84.8;" xml:space="preserve">
<style type="text/css">
	.st0{display:none;}
	.st1{display:inline;fill:#161616;}
	.st2{fill:#FBBF24;}
	.st3{fill:none;stroke:#FBBF24;stroke-width:1.6;stroke-miterlimit:10;}
	.st4{clip-path:url(#XMLID_46_);}
</style>
<g id="Capa_5" class="st0">
	<rect id="XMLID_171_" x="-377.4" y="-127.2" class="st1" width="1970.8" height="316.5"/>
</g>
<g id="Capa_3">
	<rect id="XMLID_11_" x="1383.3" y="3.8" class="st2" width="95" height="31.3"/>
	<rect id="XMLID_13_" x="-7.9" y="3.7" class="st2" width="1106" height="31.3"/>
</g>
<g id="Capa_7">
	<line id="XMLID_188_" class="st3" x1="-7.9" y1="-2.9" x2="1128.6" y2="-2.9"/>
	<line id="XMLID_187_" class="st3" x1="-7.9" y1="-7.4" x2="1128.6" y2="-7.4"/>
	<line id="XMLID_186_" class="st3" x1="-7.9" y1="-11.9" x2="1128.6" y2="-11.9"/>
	<line id="XMLID_185_" class="st3" x1="-7.9" y1="-16.4" x2="1128.6" y2="-16.4"/>
</g>
<g id="Capa_7_1_">
	<line id="XMLID_87_" class="st3" x1="1111.9" y1="-20.9" x2="1128.6" y2="-20.9"/>
	<line id="XMLID_86_" class="st3" x1="1111.9" y1="-25.4" x2="1128.6" y2="-25.4"/>
	<line id="XMLID_85_" class="st3" x1="1111.9" y1="-29.9" x2="1128.6" y2="-29.9"/>
</g>
<g id="Capa_8_6_">
	<line id="XMLID_67_" class="st3" x1="1136.2" y1="-2.9" x2="1177.7" y2="-2.9"/>
	<line id="XMLID_66_" class="st3" x1="1136.2" y1="-7.4" x2="1177.7" y2="-7.4"/>
	<line id="XMLID_65_" class="st3" x1="1137.9" y1="-11.9" x2="1177.7" y2="-11.9"/>
	<line id="XMLID_64_" class="st3" x1="1144.5" y1="-16.4" x2="1177.7" y2="-16.4"/>
	<g id="XMLID_63_">
	</g>
	<g id="XMLID_62_">
	</g>
	<g id="XMLID_61_">
	</g>
	<g id="XMLID_60_">
	</g>
	<g id="XMLID_59_">
	</g>
	<g id="XMLID_58_">
	</g>
</g>
<g id="Capa_8_2_">
	<line id="XMLID_26_" class="st3" x1="1192.3" y1="-2.9" x2="1219.6" y2="-2.9"/>
	<line id="XMLID_25_" class="st3" x1="1192.3" y1="-7.4" x2="1219.6" y2="-7.4"/>
	<line id="XMLID_24_" class="st3" x1="1193.9" y1="-11.9" x2="1219.6" y2="-11.9"/>
	<line id="XMLID_23_" class="st3" x1="1200.5" y1="-16.4" x2="1219.6" y2="-16.4"/>
	<g id="XMLID_22_">
	</g>
	<g id="XMLID_21_">
	</g>
	<g id="XMLID_20_">
	</g>
	<g id="XMLID_19_">
	</g>
	<g id="XMLID_18_">
	</g>
	<g id="XMLID_17_">
	</g>
</g>
<g id="Capa_8_4_">
	<line id="XMLID_44_" class="st3" x1="1227.2" y1="-2.9" x2="1254.6" y2="-2.9"/>
	<line id="XMLID_43_" class="st3" x1="1227.2" y1="-7.4" x2="1254.6" y2="-7.4"/>
	<line id="XMLID_42_" class="st3" x1="1228.9" y1="-11.9" x2="1254.6" y2="-11.9"/>
	<line id="XMLID_41_" class="st3" x1="1235.4" y1="-16.4" x2="1254.6" y2="-16.4"/>
	<g id="XMLID_40_">
	</g>
	<g id="XMLID_39_">
	</g>
	<g id="XMLID_38_">
	</g>
	<g id="XMLID_37_">
	</g>
	<g id="XMLID_36_">
	</g>
	<g id="XMLID_16_">
	</g>
</g>
<g id="Capa_8">
	<line id="XMLID_192_" class="st3" x1="1262.1" y1="-2.9" x2="1306.8" y2="-2.9"/>
	<line id="XMLID_191_" class="st3" x1="1262.4" y1="-7.4" x2="1306.8" y2="-7.4"/>
	<line id="XMLID_190_" class="st3" x1="1264.1" y1="-11.9" x2="1305.2" y2="-11.9"/>
	<line id="XMLID_189_" class="st3" x1="1271" y1="-16.4" x2="1298.1" y2="-16.4"/>
	<g id="XMLID_2_">
	</g>
	<g id="XMLID_226_">
	</g>
	<g id="XMLID_227_">
	</g>
	<g id="XMLID_228_">
	</g>
	<g id="XMLID_229_">
	</g>
	<g id="XMLID_230_">
	</g>
</g>
<g id="Capa_8_1_">
	<line id="XMLID_15_" class="st3" x1="1314.6" y1="-2.9" x2="1342" y2="-2.9"/>
	<line id="XMLID_14_" class="st3" x1="1314.6" y1="-7.4" x2="1342" y2="-7.4"/>
	<line id="XMLID_12_" class="st3" x1="1314.6" y1="-11.9" x2="1342" y2="-11.9"/>
	<line id="XMLID_10_" class="st3" x1="1314.6" y1="-16.4" x2="1342" y2="-16.4"/>
	<g id="XMLID_9_">
	</g>
	<g id="XMLID_8_">
	</g>
	<g id="XMLID_7_">
	</g>
	<g id="XMLID_6_">
	</g>
	<g id="XMLID_3_">
	</g>
	<g id="XMLID_1_">
	</g>
</g>
<g id="Capa_8_3_">
	<line id="XMLID_35_" class="st3" x1="1314.6" y1="-20.9" x2="1331.2" y2="-20.9"/>
	<line id="XMLID_34_" class="st3" x1="1314.6" y1="-25.4" x2="1331.2" y2="-25.4"/>
	<line id="XMLID_33_" class="st3" x1="1314.6" y1="-29.9" x2="1331.2" y2="-29.9"/>
	<g id="XMLID_32_">
	</g>
	<g id="XMLID_31_">
	</g>
	<g id="XMLID_30_">
	</g>
	<g id="XMLID_29_">
	</g>
	<g id="XMLID_28_">
	</g>
	<g id="XMLID_27_">
	</g>
</g>
<g id="Capa_8_8_">
	<line id="XMLID_84_" class="st3" x1="1349.7" y1="-2.9" x2="1478.3" y2="-2.9"/>
	<line id="XMLID_83_" class="st3" x1="1349.7" y1="-7.4" x2="1478.3" y2="-7.4"/>
	<line id="XMLID_82_" class="st3" x1="1351.4" y1="-11.9" x2="1478.3" y2="-11.9"/>
	<line id="XMLID_81_" class="st3" x1="1357.7" y1="-16.4" x2="1478.3" y2="-16.4"/>
	<g id="XMLID_80_">
	</g>
	<g id="XMLID_79_">
	</g>
	<g id="XMLID_78_">
	</g>
	<g id="XMLID_77_">
	</g>
	<g id="XMLID_76_">
	</g>
	<g id="XMLID_75_">
	</g>
</g>
<g id="XMLID_4_">
	<defs>
		<rect id="XMLID_169_" x="957.7" y="1.9" width="443.6" height="63.3"/>
	</defs>
	<clipPath id="XMLID_46_">
		<use xlink:href="#XMLID_169_"  style="overflow:visible;"/>
	</clipPath>
	<g id="XMLID_5_" class="st4">
		<path class="st2" d="M1083.8-7.2c0-0.1,0-0.2,0.1-0.5c0.1-0.3,0.1-0.4,0.1-0.5h44.6v1H1083.8z M1083.9-5.8h44.7v1h-44.7V-5.8z
			 M1083.9-3.5h44.7v1h-44.7V-3.5z M1083.9-1.1h44.7v1h-44.7V-1.1z M1128.6,3.7v17.9c0,4.4-1.3,7.7-3.8,10c-2.5,2.3-6,3.4-10.5,3.4
			h-16.7c-4.1,0-7.5-1.2-10-3.7c-2.5-2.5-3.8-5.8-3.8-10.2V3.7h16.7v8.4c0,1.7,0.3,3.1,1.1,4.1c0.7,1,1.9,1.5,3.6,1.5h1.8
			c3.2,0,4.8-1.9,4.8-5.6V3.7H1128.6z M1084.3-9.5c0-0.1,0-0.2,0.1-0.5c0.1-0.3,0.1-0.4,0.2-0.5h44v1H1084.3z M1085.1-11.7
			c0.1-0.1,0.2-0.2,0.3-0.5c0.1-0.3,0.2-0.4,0.3-0.5h42.9v1H1085.1z M1128.6-15v1h-41.7c0.1-0.1,0.3-0.3,0.5-0.5
			c0.2-0.2,0.4-0.3,0.5-0.5H1128.6z M1128.6-17.2v1H1090c1.1-0.4,2-0.7,2.8-0.8c0.8-0.1,1.5-0.1,2.3-0.1H1128.6z M1128.6-28.6v1
			h-16.7v-1H1128.6z M1128.6-26.4v1h-16.7v-1H1128.6z M1128.6-24.1v1h-16.7v-1H1128.6z M1128.6-21.9v1h-16.7v-1H1128.6z
			 M1128.6-19.5v1h-16.7v-1H1128.6z"/>
		<path class="st2" d="M1136.2-7.2c0-0.1,0-0.2,0.1-0.5c0.1-0.3,0.1-0.4,0.1-0.5h41.5v1H1136.2z M1136.2-5.8h41.6v1h-41.6V-5.8z
			 M1136.2-3.5h41.6v1h-41.6V-3.5z M1136.2-1.1h41.6v1h-41.6V-1.1z M1177.9,35.1h-28.4c-1.8,0-3.6-0.3-5.2-1c-1.6-0.6-3-1.5-4.3-2.7
			c-1.2-1.2-2.1-2.6-2.8-4.2c-0.7-1.6-1-3.4-1-5.4V4.5h36.1v8.8h-19c0,1.5,0.2,2.6,0.7,3.4c0.4,0.8,1.6,1.2,3.4,1.2h20.4V35.1z
			 M1136.7-9.5c0-0.1,0-0.2,0.1-0.5c0.1-0.3,0.1-0.4,0.2-0.5h40.9v1H1136.7z M1137.6-11.7c0.1-0.1,0.2-0.2,0.3-0.5
			c0.1-0.3,0.2-0.4,0.3-0.5h39.7v1H1137.6z M1177.9-15v1h-38.6c0.1-0.1,0.3-0.3,0.5-0.5c0.2-0.2,0.4-0.3,0.5-0.5H1177.9z
			 M1177.9-17.2v1h-35.4c0.9-0.4,1.7-0.6,2.5-0.8c0.8-0.1,1.6-0.2,2.5-0.2H1177.9z"/>
		<path class="st2" d="M1192.3-5.8h27.3v1h-27.3V-5.8z M1192.3-3.5h27.3v1h-27.3V-3.5z M1192.3-1.1h27.3v1h-27.3V-1.1z M1192.3,3.9
			h16.7v31.2h-16.7V3.9z M1192.4-7.2c0-0.1,0-0.2,0.1-0.5c0.1-0.3,0.1-0.4,0.1-0.5h27v1H1192.4z M1192.9-9.5c0-0.1,0-0.2,0.1-0.5
			c0.1-0.3,0.1-0.4,0.2-0.5h26.5v1H1192.9z M1193.7-11.7c0.1-0.1,0.2-0.2,0.3-0.5c0.1-0.3,0.2-0.4,0.3-0.5h25.3v1H1193.7z
			 M1219.6-15v1h-24.2c0.1-0.1,0.3-0.3,0.5-0.5c0.2-0.2,0.4-0.3,0.5-0.5H1219.6z M1219.6-17.2v1h-21c1.1-0.4,2-0.7,2.8-0.8
			c0.8-0.1,1.5-0.1,2.3-0.1H1219.6z"/>
		<path class="st2" d="M1227.2-5.8h27.3v1h-27.3V-5.8z M1227.2-3.5h27.3v1h-27.3V-3.5z M1227.2-1.1h27.3v1h-27.3V-1.1z M1227.2,3.9
			h16.7v31.2h-16.7V3.9z M1227.2-7.2c0-0.1,0-0.2,0.1-0.5c0.1-0.3,0.1-0.4,0.1-0.5h27v1H1227.2z M1227.7-9.5c0-0.1,0-0.2,0.1-0.5
			c0.1-0.3,0.1-0.4,0.2-0.5h26.5v1H1227.7z M1228.6-11.7c0.1-0.1,0.2-0.2,0.3-0.5c0.1-0.3,0.2-0.4,0.3-0.5h25.3v1H1228.6z
			 M1254.5-15v1h-24.2c0.1-0.1,0.3-0.3,0.5-0.5c0.2-0.2,0.4-0.3,0.5-0.5H1254.5z M1254.5-17.2v1h-21c1.1-0.4,2-0.7,2.8-0.8
			c0.8-0.1,1.5-0.1,2.3-0.1H1254.5z"/>
		<path class="st2" d="M1306.8-7.2h-44.7c0-0.1,0-0.2,0.1-0.5c0.1-0.3,0.1-0.4,0.1-0.5h44.4L1306.8-7.2z M1306.8-4.8h-44.7v-1h44.7
			V-4.8z M1306.8-2.5h-44.7v-1h44.7V-2.5z M1306.8-0.1h-44.7v-1h44.7V-0.1z M1306.8,3.7v18.1c0,2-0.3,3.8-1,5.4
			c-0.7,1.6-1.6,3-2.8,4.2c-1.2,1.1-2.6,2-4.2,2.7c-1.6,0.6-3.4,1-5.2,1h-18.2c-1.8,0-3.6-0.3-5.2-1c-1.6-0.6-3-1.5-4.3-2.7
			c-1.2-1.1-2.1-2.5-2.8-4.2c-0.7-1.6-1-3.4-1-5.4V3.7h16.7v8.4c0,3.8,1.6,5.6,4.8,5.6h1.8c1.8,0,3.1-0.5,3.7-1.6
			c0.6-1.1,1-2.4,1-4.1V3.7H1306.8z M1306.1-10.4c0.1,0.1,0.1,0.2,0.2,0.5c0.1,0.3,0.1,0.4,0.1,0.5h-43.8c0-0.1,0-0.2,0.1-0.5
			c0.1-0.3,0.1-0.4,0.2-0.5H1306.1z M1305-12.6c0.1,0.1,0.2,0.2,0.3,0.5c0.1,0.3,0.2,0.4,0.3,0.5h-42.1c0.1-0.1,0.2-0.2,0.3-0.5
			c0.1-0.3,0.2-0.4,0.3-0.5H1305z M1302.8-15c0.1,0.1,0.3,0.3,0.5,0.5c0.2,0.2,0.4,0.4,0.5,0.5h-38.7c0.1-0.1,0.3-0.3,0.5-0.5
			c0.2-0.2,0.4-0.3,0.5-0.5H1302.8z M1296.4-17.2c0.8,0,1.6,0.1,2.3,0.3c0.7,0.2,1.3,0.4,1.9,0.7h-32.3c0.6-0.3,1.2-0.5,2-0.7
			c0.7-0.2,1.5-0.3,2.3-0.3H1296.4z"/>
		<path class="st2" d="M1314.6-28.6h16.7v1h-16.7V-28.6z M1314.6-26.4h16.7v1h-16.7V-26.4z M1314.6-24.1h16.7v1h-16.7V-24.1z
			 M1314.6-21.9h16.7v1h-16.7V-21.9z M1314.6-19.5h16.7v1h-16.7V-19.5z M1342-17.2v1h-27.4v-1H1342z M1342-14.9v1h-27.4v-1H1342z
			 M1342-12.7v1h-27.4v-1H1342z M1342-10.4v1h-27.4v-1H1342z M1342-8.2v1h-27.4v-1H1342z M1342-5.8v1h-27.4v-1H1342z M1342-3.5v1
			h-27.4v-1H1342z M1342-1.1v1h-27.4v-1H1342z M1314.6,3.9h16.7V12c0,2,0.4,3.5,1.1,4.4c0.7,0.9,2.2,1.4,4.4,1.4h5.2v17.3h-14.4
			c-1.7,0-3.4-0.3-4.9-0.9c-1.6-0.6-2.9-1.4-4.2-2.6c-1.2-1.1-2.2-2.6-2.9-4.3c-0.7-1.7-1.1-3.7-1.1-6V3.9z"/>
		<path class="st2" d="M1349.6-7.2c0-0.1,0-0.2,0.1-0.5c0.1-0.3,0.1-0.4,0.1-0.5h45.8v1H1349.6z M1349.6-5.8h45.9v1h-45.9V-5.8z
			 M1349.6-3.5h45.9v1h-45.9V-3.5z M1349.6-1.1h45.9v1h-45.9V-1.1z M1367,3.8v7.6c0,4.3,2.1,6.4,6.3,6.4h4.9v-14h17.4v31.3h-32.7
			c-1.8,0-3.6-0.3-5.2-1c-1.6-0.6-3-1.5-4.3-2.7c-1.2-1.2-2.1-2.6-2.8-4.2c-0.7-1.6-1-3.4-1-5.4V3.8H1367z M1350.1-9.5
			c0-0.1,0-0.2,0.1-0.5c0.1-0.3,0.1-0.4,0.2-0.5h45.2v1H1350.1z M1350.9-11.7c0.1-0.1,0.2-0.2,0.3-0.5c0.1-0.3,0.2-0.4,0.3-0.5h44v1
			H1350.9z M1395.5-15v1h-42.9c0.1-0.1,0.3-0.3,0.5-0.5c0.2-0.2,0.4-0.3,0.5-0.5H1395.5z M1395.5-17.2v1h-39.7
			c0.9-0.4,1.7-0.6,2.5-0.8c0.8-0.1,1.6-0.2,2.5-0.2H1395.5z"/>
	</g>
</g>
</svg>
