<?xml version="1.0" encoding="utf-8"?>
<!-- Generator: Adobe Illustrator 19.0.0, SVG Export Plug-In . SVG Version: 6.00 Build 0)  -->
<svg version="1.1" id="Capa_1" xmlns="http://www.w3.org/2000/svg" xmlns:xlink="http://www.w3.org/1999/xlink" x="0px" y="0px"
	 viewBox="-7.9 -31.8 1486.2 84.8" style="enable-background:new -7.9 -31.8 1486.2 84.8;" xml:space="preserve">
<style type="text/css">
	.st0{display:none;}
	.st1{display:inline;fill:#161616;}
	.st2{fill:#FFF8E3;}
	.st3{fill:none;stroke:#FFF8E3;stroke-width:1.6;stroke-miterlimit:10;}
	.st4{clip-path:url(#XMLID_16_);}
</style>
<g id="Capa_5" class="st0">
	<rect id="XMLID_171_" x="-377.4" y="-127.2" class="st1" width="1970.8" height="316.5"/>
</g>
<g id="Capa_3">
	<rect id="XMLID_11_" x="1395.3" y="4.4" class="st2" width="83" height="30.7"/>
	<rect id="XMLID_13_" x="-7.9" y="4.5" class="st2" width="1163.8" height="30.7"/>
</g>
<g id="Capa_7">
	<line id="XMLID_188_" class="st3" x1="-7.9" y1="-2.9" x2="1181.5" y2="-2.9"/>
	<line id="XMLID_187_" class="st3" x1="-7.9" y1="-7.4" x2="1181.5" y2="-7.4"/>
	<line id="XMLID_186_" class="st3" x1="-7.9" y1="-11.9" x2="1181.5" y2="-11.9"/>
	<line id="XMLID_185_" class="st3" x1="-7.9" y1="-16.4" x2="1181.5" y2="-16.4"/>
</g>
<g id="Capa_8_2_">
	<line id="XMLID_26_" class="st3" x1="1189" y1="-2.9" x2="1256" y2="-2.9"/>
	<line id="XMLID_25_" class="st3" x1="1189" y1="-7.4" x2="1256" y2="-7.4"/>
	<line id="XMLID_24_" class="st3" x1="1189" y1="-11.9" x2="1254.1" y2="-11.9"/>
	<line id="XMLID_23_" class="st3" x1="1189" y1="-16.4" x2="1246.7" y2="-16.4"/>
	<g id="XMLID_22_">
	</g>
	<g id="XMLID_21_">
	</g>
	<g id="XMLID_20_">
	</g>
	<g id="XMLID_19_">
	</g>
	<g id="XMLID_18_">
	</g>
	<g id="XMLID_17_">
	</g>
</g>
<g id="Capa_8_1_">
	<line id="XMLID_14_" class="st3" x1="1368" y1="-20.9" x2="1384.7" y2="-20.9"/>
	<line id="XMLID_12_" class="st3" x1="1368" y1="-25.4" x2="1384.7" y2="-25.4"/>
	<line id="XMLID_10_" class="st3" x1="1368" y1="-29.9" x2="1384.7" y2="-29.9"/>
	<g id="XMLID_9_">
	</g>
	<g id="XMLID_8_">
	</g>
	<g id="XMLID_7_">
	</g>
	<g id="XMLID_6_">
	</g>
	<g id="XMLID_3_">
	</g>
	<g id="XMLID_1_">
	</g>
</g>
<g id="Capa_8">
	<line id="XMLID_192_" class="st3" x1="1263.6" y1="-2.9" x2="1306.9" y2="-2.9"/>
	<line id="XMLID_191_" class="st3" x1="1263.6" y1="-7.4" x2="1306.9" y2="-7.4"/>
	<line id="XMLID_190_" class="st3" x1="1263.6" y1="-11.9" x2="1304.7" y2="-11.9"/>
	<line id="XMLID_189_" class="st3" x1="1263.6" y1="-16.4" x2="1297.4" y2="-16.4"/>
	<g id="XMLID_2_">
	</g>
	<g id="XMLID_226_">
	</g>
	<g id="XMLID_227_">
	</g>
	<g id="XMLID_228_">
	</g>
	<g id="XMLID_229_">
	</g>
	<g id="XMLID_230_">
	</g>
</g>
<g id="Capa_8_8_">
	<line id="XMLID_84_" class="st3" x1="1314.4" y1="-2.9" x2="1360.2" y2="-2.9"/>
	<line id="XMLID_83_" class="st3" x1="1314.4" y1="-7.4" x2="1360.2" y2="-7.4"/>
	<line id="XMLID_82_" class="st3" x1="1316.1" y1="-11.9" x2="1360.2" y2="-11.9"/>
	<line id="XMLID_81_" class="st3" x1="1322.7" y1="-16.4" x2="1360.2" y2="-16.4"/>
	<g id="XMLID_80_">
	</g>
	<g id="XMLID_79_">
	</g>
	<g id="XMLID_78_">
	</g>
	<g id="XMLID_77_">
	</g>
	<g id="XMLID_76_">
	</g>
	<g id="XMLID_75_">
	</g>
</g>
<g id="Capa_8_7_">
	<line id="XMLID_74_" class="st3" x1="1368" y1="-2.9" x2="1478.3" y2="-2.9"/>
	<line id="XMLID_73_" class="st3" x1="1368" y1="-7.4" x2="1478.3" y2="-7.4"/>
	<line id="XMLID_72_" class="st3" x1="1368" y1="-11.9" x2="1478.3" y2="-11.9"/>
	<line id="XMLID_71_" class="st3" x1="1368" y1="-16.4" x2="1478.3" y2="-16.4"/>
	<g id="XMLID_70_">
	</g>
	<g id="XMLID_69_">
	</g>
	<g id="XMLID_68_">
	</g>
	<g id="XMLID_39_">
	</g>
	<g id="XMLID_38_">
	</g>
	<g id="XMLID_37_">
	</g>
</g>
<g id="XMLID_4_">
	<defs>
		<rect id="XMLID_169_" x="957.7" y="1" width="443.6" height="64.2"/>
	</defs>
	<clipPath id="XMLID_16_">
		<use xlink:href="#XMLID_169_"  style="overflow:visible;"/>
	</clipPath>
	<g id="XMLID_5_" class="st4">
		<path class="st2" d="M1140-7.2c0-0.1,0-0.2,0.1-0.5c0.1-0.3,0.1-0.4,0.1-0.5h41.5v1H1140z M1140-5.8h41.6v1H1140V-5.8z M1140-3.5
			h41.6v1H1140V-3.5z M1140-1.1h41.6v1H1140V-1.1z M1181.7,35.1h-28.4c-1.8,0-3.6-0.3-5.2-1c-1.6-0.6-3-1.5-4.3-2.7
			c-1.2-1.2-2.1-2.6-2.8-4.2c-0.7-1.6-1-3.4-1-5.4V4.5h36.1v8.8h-19c0,1.5,0.2,2.6,0.7,3.4c0.4,0.8,1.6,1.2,3.4,1.2h20.4V35.1z
			 M1140.5-9.5c0-0.1,0-0.2,0.1-0.5c0.1-0.3,0.1-0.4,0.2-0.5h40.9v1H1140.5z M1141.4-11.7c0.1-0.1,0.2-0.2,0.3-0.5
			c0.1-0.3,0.2-0.4,0.3-0.5h39.7v1H1141.4z M1181.7-15v1h-38.6c0.1-0.1,0.3-0.3,0.5-0.5c0.2-0.2,0.4-0.3,0.5-0.5H1181.7z
			 M1181.7-17.2v1h-35.4c0.9-0.4,1.7-0.6,2.5-0.8c0.8-0.1,1.6-0.2,2.5-0.2H1181.7z"/>
		<path class="st2" d="M1189.2-17.2h55.7c0.8,0,1.5,0,2.2,0.1c0.7,0.1,1.6,0.4,2.7,0.8h-60.7V-17.2z M1189.2-15h62.8
			c0.1,0.1,0.3,0.3,0.6,0.5c0.3,0.2,0.4,0.4,0.6,0.5h-63.9V-15z M1254.2-12.6c0.1,0.1,0.2,0.2,0.3,0.5c0.1,0.3,0.2,0.4,0.3,0.5
			h-65.5v-1H1254.2z M1255.3-10.4c0.1,0.1,0.1,0.2,0.2,0.5c0.1,0.3,0.1,0.4,0.1,0.5h-66.5v-1H1255.3z M1256-8.2l0.1,1h-66.9v-1H1256
			z M1256.3-5.8v1h-67.1v-1H1256.3z M1256.3-3.5v1h-67.1v-1H1256.3z M1256.3-1.1v1h-67.1v-1H1256.3z M1189.2,3.8h17.4v31.3h-17.4
			V3.8z M1214.2,3.8h17v31.3h-17V3.8z M1238.9,3.8h17.4v31.3h-17.4V3.8z"/>
		<path class="st2" d="M1263.8-17.2h31.9c0.8,0,1.5,0,2.2,0.1c0.7,0.1,1.6,0.4,2.7,0.8h-36.9V-17.2z M1263.8-15h39
			c0.1,0.1,0.3,0.3,0.5,0.5c0.2,0.2,0.4,0.4,0.5,0.5h-40V-15z M1305-12.6c0.1,0.1,0.2,0.2,0.3,0.5c0.1,0.3,0.2,0.4,0.3,0.5h-41.7v-1
			H1305z M1306.1-10.4c0.1,0.1,0.1,0.2,0.2,0.5c0.1,0.3,0.1,0.4,0.1,0.5h-42.6v-1H1306.1z M1306.8-8.2l0.1,1h-43.1v-1H1306.8z
			 M1306.9-5.8v1h-43.1v-1H1306.9z M1306.9-3.5v1h-43.1v-1H1306.9z M1306.9-1.1v1h-43.1v-1H1306.9z M1306.9,3.7v18.1
			c0,2-0.3,3.8-1,5.4c-0.7,1.6-1.6,3-2.8,4.2c-1.2,1.1-2.6,2-4.2,2.7c-1.6,0.6-3.4,1-5.2,1h-13.2v17.5h-16.7V3.7h16.7v14h4.7
			c1.7,0,3-0.4,3.9-1.1c0.9-0.7,1.4-1.4,1.5-2.1c0.1-0.3,0.1-0.6,0.1-1.1c0-0.5,0-0.9,0-1.2V3.7H1306.9z"/>
		<path class="st2" d="M1314.6-7.2c0-0.1,0-0.2,0.1-0.5c0.1-0.3,0.1-0.4,0.1-0.5h45.8v1H1314.6z M1314.6-5.8h45.9v1h-45.9V-5.8z
			 M1314.6-3.5h45.9v1h-45.9V-3.5z M1314.6-1.1h45.9v1h-45.9V-1.1z M1331.9,3.8v7.6c0,4.3,2.1,6.4,6.3,6.4h4.9v-14h17.4v31.3h-32.7
			c-1.8,0-3.6-0.3-5.2-1c-1.6-0.6-3-1.5-4.3-2.7c-1.2-1.2-2.1-2.6-2.8-4.2c-0.7-1.6-1-3.4-1-5.4V3.8H1331.9z M1315-9.5
			c0-0.1,0-0.2,0.1-0.5c0.1-0.3,0.1-0.4,0.2-0.5h45.2v1H1315z M1315.9-11.7c0.1-0.1,0.2-0.2,0.3-0.5c0.1-0.3,0.2-0.4,0.3-0.5h44v1
			H1315.9z M1360.5-15v1h-42.9c0.1-0.1,0.3-0.3,0.5-0.5c0.2-0.2,0.4-0.3,0.5-0.5H1360.5z M1360.5-17.2v1h-39.7
			c0.9-0.4,1.7-0.6,2.5-0.8c0.8-0.1,1.6-0.2,2.5-0.2H1360.5z"/>
		<path class="st2" d="M1368.1-28.6h16.7v1h-16.7V-28.6z M1368.1-26.4h16.7v1h-16.7V-26.4z M1368.1-24.1h16.7v1h-16.7V-24.1z
			 M1368.1-21.9h16.7v1h-16.7V-21.9z M1368.1-19.5h16.7v1h-16.7V-19.5z M1395.5-17.2v1h-27.4v-1H1395.5z M1395.5-14.9v1h-27.4v-1
			H1395.5z M1395.5-12.7v1h-27.4v-1H1395.5z M1395.5-10.4v1h-27.4v-1H1395.5z M1395.5-8.2v1h-27.4v-1H1395.5z M1395.5-5.8v1h-27.4
			v-1H1395.5z M1395.5-3.5v1h-27.4v-1H1395.5z M1395.5-1.1v1h-27.4v-1H1395.5z M1368.1,3.9h16.7V12c0,2,0.4,3.5,1.1,4.4
			c0.7,0.9,2.2,1.4,4.4,1.4h5.2v17.3h-14.4c-1.7,0-3.4-0.3-4.9-0.9c-1.6-0.6-2.9-1.4-4.2-2.6c-1.2-1.1-2.2-2.6-2.9-4.3
			c-0.7-1.7-1.1-3.7-1.1-6V3.9z"/>
	</g>
</g>
</svg>
