<?xml version="1.0" encoding="utf-8"?>
<!-- Generator: Adobe Illustrator 19.0.0, SVG Export Plug-In . SVG Version: 6.00 Build 0)  -->
<svg version="1.1" id="Capa_1" xmlns="http://www.w3.org/2000/svg" xmlns:xlink="http://www.w3.org/1999/xlink" x="0px" y="0px"
	 viewBox="-321.7 -31.8 1800 84.8" style="enable-background:new -321.7 -31.8 1800 84.8;" xml:space="preserve">
<style type="text/css">
	.st0{display:none;}
	.st1{display:inline;fill:#161616;}
	.st2{fill:#FFF8E3;}
	.st3{fill:none;stroke:#FFF8E3;stroke-width:1.6;stroke-miterlimit:10;}
	.st4{clip-path:url(#XMLID_93_);}
</style>
<g id="Capa_5" class="st0">
	<rect id="XMLID_171_" x="-377.4" y="-127.2" class="st1" width="1970.8" height="316.5"/>
</g>
<g id="Capa_3">
	<rect id="XMLID_11_" x="1377.6" y="3.9" class="st2" width="100.7" height="31.2"/>
	<rect id="XMLID_13_" x="-321.7" y="3.9" class="st2" width="1280.7" height="31.2"/>
</g>
<g id="Capa_4">
	<line id="XMLID_1_" class="st3" x1="980" y1="-2.9" x2="-321.7" y2="-2.9"/>
	<line id="XMLID_172_" class="st3" x1="980" y1="-7.4" x2="-321.7" y2="-7.4"/>
	<line id="XMLID_173_" class="st3" x1="980" y1="-11.9" x2="-321.7" y2="-11.9"/>
	<line id="XMLID_175_" class="st3" x1="980" y1="-16.4" x2="-321.7" y2="-16.4"/>
</g>
<g id="Capa_7">
	<line id="XMLID_188_" class="st3" x1="987.8" y1="-2.9" x2="1029.1" y2="-2.9"/>
	<line id="XMLID_187_" class="st3" x1="988.1" y1="-7.4" x2="1029.1" y2="-7.4"/>
	<line id="XMLID_186_" class="st3" x1="989.6" y1="-11.9" x2="1029.1" y2="-11.9"/>
	<line id="XMLID_185_" class="st3" x1="995.4" y1="-16.4" x2="1029.1" y2="-16.4"/>
</g>
<g id="Capa_8_1_">
	<line id="XMLID_16_" class="st3" x1="1037.6" y1="-2.9" x2="1074.8" y2="-2.9"/>
	<line id="XMLID_15_" class="st3" x1="1037.7" y1="-7.4" x2="1074.8" y2="-7.4"/>
	<line id="XMLID_14_" class="st3" x1="1039.2" y1="-11.9" x2="1074.8" y2="-11.9"/>
	<line id="XMLID_12_" class="st3" x1="1045.5" y1="-16.4" x2="1074.8" y2="-16.4"/>
	<g id="XMLID_10_">
	</g>
	<g id="XMLID_9_">
	</g>
	<g id="XMLID_8_">
	</g>
	<g id="XMLID_7_">
	</g>
	<g id="XMLID_6_">
	</g>
	<g id="XMLID_3_">
	</g>
</g>
<g id="Capa_8_2_">
	<line id="XMLID_26_" class="st3" x1="1084.9" y1="-2.9" x2="1101.5" y2="-2.9"/>
	<line id="XMLID_25_" class="st3" x1="1084.9" y1="-7.4" x2="1101.5" y2="-7.4"/>
	<line id="XMLID_24_" class="st3" x1="1084.9" y1="-11.9" x2="1101.5" y2="-11.9"/>
	<line id="XMLID_23_" class="st3" x1="1084.9" y1="-16.4" x2="1101.5" y2="-16.4"/>
	<g id="XMLID_22_">
	</g>
	<g id="XMLID_21_">
	</g>
	<g id="XMLID_20_">
	</g>
	<g id="XMLID_19_">
	</g>
	<g id="XMLID_18_">
	</g>
	<g id="XMLID_17_">
	</g>
</g>
<g id="Capa_8_4_">
	<line id="XMLID_49_" class="st3" x1="1112.9" y1="-2.9" x2="1129.5" y2="-2.9"/>
	<line id="XMLID_48_" class="st3" x1="1112.9" y1="-7.4" x2="1129.5" y2="-7.4"/>
	<line id="XMLID_47_" class="st3" x1="1112.9" y1="-11.9" x2="1129.5" y2="-11.9"/>
	<line id="XMLID_46_" class="st3" x1="1112.9" y1="-16.4" x2="1129.5" y2="-16.4"/>
	<g id="XMLID_45_">
	</g>
	<g id="XMLID_44_">
	</g>
	<g id="XMLID_43_">
	</g>
	<g id="XMLID_42_">
	</g>
	<g id="XMLID_41_">
	</g>
	<g id="XMLID_40_">
	</g>
</g>
<g id="Capa_8">
	<line id="XMLID_192_" class="st3" x1="1137.5" y1="-2.9" x2="1154" y2="-2.9"/>
	<line id="XMLID_191_" class="st3" x1="1137.5" y1="-7.4" x2="1154" y2="-7.4"/>
	<line id="XMLID_190_" class="st3" x1="1137.4" y1="-11.9" x2="1154" y2="-11.9"/>
	<line id="XMLID_189_" class="st3" x1="1137.5" y1="-16.4" x2="1154" y2="-16.4"/>
	<g id="XMLID_2_">
	</g>
	<g id="XMLID_226_">
	</g>
	<g id="XMLID_227_">
	</g>
	<g id="XMLID_228_">
	</g>
	<g id="XMLID_229_">
	</g>
	<g id="XMLID_230_">
	</g>
</g>
<g id="Capa_8_5_">
	<line id="XMLID_58_" class="st3" x1="1137.5" y1="-20.9" x2="1154" y2="-20.9"/>
	<line id="XMLID_57_" class="st3" x1="1137.4" y1="-25.4" x2="1154" y2="-25.4"/>
	<line id="XMLID_56_" class="st3" x1="1137.5" y1="-29.9" x2="1154" y2="-29.9"/>
	<g id="XMLID_55_">
	</g>
	<g id="XMLID_54_">
	</g>
	<g id="XMLID_53_">
	</g>
	<g id="XMLID_52_">
	</g>
	<g id="XMLID_51_">
	</g>
	<g id="XMLID_50_">
	</g>
</g>
<g id="Capa_8_6_">
	<line id="XMLID_68_" class="st3" x1="1196.7" y1="-2.9" x2="1242.6" y2="-2.9"/>
	<line id="XMLID_67_" class="st3" x1="1196.9" y1="-7.4" x2="1242.6" y2="-7.4"/>
	<line id="XMLID_66_" class="st3" x1="1198.3" y1="-11.9" x2="1242.6" y2="-11.9"/>
	<line id="XMLID_65_" class="st3" x1="1204.6" y1="-16.4" x2="1242.6" y2="-16.4"/>
	<g id="XMLID_64_">
	</g>
	<g id="XMLID_63_">
	</g>
	<g id="XMLID_62_">
	</g>
	<g id="XMLID_61_">
	</g>
	<g id="XMLID_60_">
	</g>
	<g id="XMLID_59_">
	</g>
</g>
<g id="Capa_8_7_">
	<line id="XMLID_78_" class="st3" x1="1250.1" y1="-2.9" x2="1295.1" y2="-2.9"/>
	<line id="XMLID_77_" class="st3" x1="1250.2" y1="-7.4" x2="1295.1" y2="-7.4"/>
	<line id="XMLID_76_" class="st3" x1="1251.7" y1="-11.9" x2="1295.1" y2="-11.9"/>
	<line id="XMLID_75_" class="st3" x1="1258" y1="-16.4" x2="1295.1" y2="-16.4"/>
	<g id="XMLID_74_">
	</g>
	<g id="XMLID_73_">
	</g>
	<g id="XMLID_72_">
	</g>
	<g id="XMLID_71_">
	</g>
	<g id="XMLID_70_">
	</g>
	<g id="XMLID_69_">
	</g>
</g>
<g id="Capa_8_8_">
	<line id="XMLID_91_" class="st3" x1="1302.6" y1="-2.9" x2="1347.6" y2="-2.9"/>
	<line id="XMLID_90_" class="st3" x1="1302.7" y1="-7.4" x2="1347.6" y2="-7.4"/>
	<line id="XMLID_89_" class="st3" x1="1304.2" y1="-11.9" x2="1345.4" y2="-11.9"/>
	<line id="XMLID_88_" class="st3" x1="1310.5" y1="-16.4" x2="1339.3" y2="-16.4"/>
	<g id="XMLID_87_">
	</g>
	<g id="XMLID_86_">
	</g>
	<g id="XMLID_85_">
	</g>
	<g id="XMLID_84_">
	</g>
	<g id="XMLID_83_">
	</g>
	<g id="XMLID_82_">
	</g>
</g>
<g id="Capa_8_3_">
	<line id="XMLID_36_" class="st3" x1="1161.7" y1="-2.9" x2="1189" y2="-2.9"/>
	<line id="XMLID_35_" class="st3" x1="1161.7" y1="-7.4" x2="1189" y2="-7.4"/>
	<line id="XMLID_34_" class="st3" x1="1161.7" y1="-11.9" x2="1189" y2="-11.9"/>
	<line id="XMLID_33_" class="st3" x1="1161.7" y1="-16.4" x2="1189" y2="-16.4"/>
	<line id="XMLID_37_" class="st3" x1="1161.7" y1="-20.8" x2="1178.3" y2="-20.8"/>
	<line id="XMLID_38_" class="st3" x1="1161.7" y1="-25.4" x2="1178.3" y2="-25.4"/>
	<line id="XMLID_39_" class="st3" x1="1161.7" y1="-29.7" x2="1178.3" y2="-29.7"/>
	<line id="XMLID_81_" class="st3" x1="1278.4" y1="-20.8" x2="1295.1" y2="-20.8"/>
	<line id="XMLID_80_" class="st3" x1="1278.4" y1="-25.4" x2="1295.1" y2="-25.4"/>
	<line id="XMLID_79_" class="st3" x1="1278.4" y1="-29.7" x2="1295.1" y2="-29.7"/>
	<g id="XMLID_32_">
	</g>
	<g id="XMLID_31_">
	</g>
	<g id="XMLID_30_">
	</g>
	<g id="XMLID_29_">
	</g>
	<g id="XMLID_28_">
	</g>
	<g id="XMLID_27_">
	</g>
</g>
<g id="Capa_6">
	<line id="XMLID_180_" class="st3" x1="1356.1" y1="-2.9" x2="1478.3" y2="-2.9"/>
	<line id="XMLID_179_" class="st3" x1="1355.8" y1="-7.4" x2="1478.3" y2="-7.4"/>
	<line id="XMLID_178_" class="st3" x1="1357.5" y1="-11.9" x2="1478.3" y2="-11.9"/>
	<line id="XMLID_177_" class="st3" x1="1363.2" y1="-16.4" x2="1478.3" y2="-16.4"/>
</g>
<g id="XMLID_4_">
	<defs>
		<rect id="XMLID_169_" x="936.3" y="0.7" width="464.9" height="64.5"/>
	</defs>
	<clipPath id="XMLID_93_">
		<use xlink:href="#XMLID_169_"  style="overflow:visible;"/>
	</clipPath>
	<g id="XMLID_5_" class="st4">
		<path class="st2" d="M952.6-5.8H980v1h-27.3V-5.8z M952.6-3.5H980v1h-27.3V-3.5z M952.6-1.1H980v1h-27.3V-1.1z M952.6,3.9h16.7
			v31.2h-16.7V3.9z M952.7-7.2c0-0.1,0-0.2,0.1-0.5c0.1-0.3,0.1-0.4,0.1-0.5h27v1H952.7z M953.2-9.5c0-0.1,0-0.2,0.1-0.5
			c0.1-0.3,0.1-0.4,0.2-0.5H980v1H953.2z M954.1-11.7c0.1-0.1,0.2-0.2,0.3-0.5c0.1-0.3,0.2-0.4,0.3-0.5H980v1H954.1z M980-15v1
			h-24.2c0.1-0.1,0.3-0.3,0.5-0.5c0.2-0.2,0.4-0.3,0.5-0.5H980z M980-17.2v1h-21c1.1-0.4,2-0.7,2.8-0.8c0.8-0.1,1.5-0.1,2.3-0.1H980
			z"/>
		<path class="st2" d="M987.6-7.2c0-0.1,0-0.2,0.1-0.5c0.1-0.3,0.1-0.4,0.1-0.5h41.5v1H987.6z M987.6-5.8h41.6v1h-41.6V-5.8z
			 M987.6-3.5h41.6v1h-41.6V-3.5z M987.6-1.1h41.6v1h-41.6V-1.1z M1029.2,35.1h-28.4c-1.8,0-3.6-0.3-5.2-1c-1.6-0.6-3-1.5-4.3-2.7
			c-1.2-1.2-2.1-2.6-2.8-4.2c-0.7-1.6-1-3.4-1-5.4V4.5h36.1v8.8h-19c0,1.5,0.2,2.6,0.7,3.4c0.4,0.8,1.6,1.2,3.4,1.2h20.4V35.1z
			 M988.1-9.5c0-0.1,0-0.2,0.1-0.5c0.1-0.3,0.1-0.4,0.2-0.5h40.9v1H988.1z M988.9-11.7c0.1-0.1,0.2-0.2,0.3-0.5
			c0.1-0.3,0.2-0.4,0.3-0.5h39.7v1H988.9z M1029.2-15v1h-38.6c0.1-0.1,0.3-0.3,0.5-0.5c0.2-0.2,0.4-0.3,0.5-0.5H1029.2z
			 M1029.2-17.2v1h-35.4c0.9-0.4,1.7-0.6,2.5-0.8c0.8-0.1,1.6-0.2,2.5-0.2H1029.2z"/>
		<path class="st2" d="M1041.5,3.9h23l9.2,9.9c1.3,1.3,2.2,2.7,2.7,4.2c0.5,1.4,0.8,3,0.8,4.7c0,3.6-1.2,6.5-3.6,8.9
			c-2.4,2.4-5.9,3.5-10.5,3.5h-26.3V17.8h17.9L1041.5,3.9z M1037.3-5.8h37.5v1h-37.5V-5.8z M1037.5-8.2h37.3v1h-37.4L1037.5-8.2z
			 M1037.5-3.5h37.3v1h-37.3L1037.5-3.5z M1037.7-9.5c0-0.1,0.1-0.2,0.2-0.5c0.1-0.3,0.2-0.4,0.2-0.5h36.7v1H1037.7z M1038.4-0.1
			c-0.1-0.1-0.1-0.2-0.2-0.4c-0.1-0.2-0.1-0.4-0.2-0.5h36.8v1H1038.4z M1038.6-11.7c0.1-0.1,0.2-0.2,0.3-0.5
			c0.1-0.3,0.2-0.4,0.3-0.5h35.6v1H1038.6z M1074.8-15v1h-34.5c0.1-0.1,0.3-0.3,0.5-0.5c0.2-0.2,0.4-0.3,0.5-0.5H1074.8z
			 M1074.8-17.2v1h-31.2c1.1-0.4,2-0.7,2.7-0.8c0.7-0.1,1.5-0.1,2.2-0.1H1074.8z"/>
		<path class="st2" d="M1101.6-17.2v1h-16.7v-1H1101.6z M1101.6-14.9v1h-16.7v-1H1101.6z M1101.6-12.7v1h-16.7v-1H1101.6z
			 M1101.6-10.4v1h-16.7v-1H1101.6z M1101.6-8.2v1h-16.7v-1H1101.6z M1101.6-5.8v1h-16.7v-1H1101.6z M1101.6-3.5v1h-16.7v-1H1101.6z
			 M1101.6-1.1v1h-16.7v-1H1101.6z M1129.5,3.7v18.1c0,2-0.3,3.8-1,5.4c-0.7,1.6-1.6,3-2.8,4.2c-1.2,1.1-2.6,2-4.2,2.7
			c-1.6,0.6-3.4,1-5.2,1h-18.2c-1.8,0-3.6-0.3-5.2-1c-1.6-0.6-3-1.5-4.3-2.7c-1.2-1.1-2.1-2.5-2.8-4.2c-0.7-1.6-1-3.4-1-5.4V3.7
			h16.7v8.4c0,3.8,1.6,5.6,4.8,5.6h1.8c1.8,0,3.1-0.5,3.7-1.6c0.6-1.1,1-2.4,1-4.1V3.7H1129.5z M1129.5-17.2v1h-16.7v-1H1129.5z
			 M1129.5-14.9v1h-16.7v-1H1129.5z M1129.5-12.7v1h-16.7v-1H1129.5z M1129.5-10.4v1h-16.7v-1H1129.5z M1129.5-8.2v1h-16.7v-1
			H1129.5z M1129.5-5.8v1h-16.7v-1H1129.5z M1129.5-3.5v1h-16.7v-1H1129.5z M1129.5-1.1v1h-16.7v-1H1129.5z"/>
		<path class="st2" d="M1137.3-28.6h16.7v1h-16.7V-28.6z M1137.3-26.4h16.7v1h-16.7V-26.4z M1137.3-24.1h16.7v1h-16.7V-24.1z
			 M1137.3-21.9h16.7v1h-16.7V-21.9z M1137.3-19.5h16.7v1h-16.7V-19.5z M1154-17.2v1h-16.7v-1H1154z M1154-14.9v1h-16.7v-1H1154z
			 M1154-12.7v1h-16.7v-1H1154z M1154-10.4v1h-16.7v-1H1154z M1154-8.2v1h-16.7v-1H1154z M1154-5.8v1h-16.7v-1H1154z M1154-3.5v1
			h-16.7v-1H1154z M1154-1.1v1h-16.7v-1H1154z M1137.3,3.8h16.7v31.3h-16.7V3.8z"/>
		<path class="st2" d="M1161.6-28.6h16.7v1h-16.7V-28.6z M1161.6-26.4h16.7v1h-16.7V-26.4z M1161.6-24.1h16.7v1h-16.7V-24.1z
			 M1161.6-21.9h16.7v1h-16.7V-21.9z M1161.6-19.5h16.7v1h-16.7V-19.5z M1189-17.2v1h-27.4v-1H1189z M1189-14.9v1h-27.4v-1H1189z
			 M1189-12.7v1h-27.4v-1H1189z M1189-10.4v1h-27.4v-1H1189z M1189-8.2v1h-27.4v-1H1189z M1189-5.8v1h-27.4v-1H1189z M1189-3.5v1
			h-27.4v-1H1189z M1189-1.1v1h-27.4v-1H1189z M1161.6,3.9h16.7V12c0,2,0.4,3.5,1.1,4.4c0.7,0.9,2.2,1.4,4.4,1.4h5.2v17.3h-14.4
			c-1.7,0-3.4-0.3-4.9-0.9c-1.6-0.6-2.9-1.4-4.2-2.6c-1.2-1.1-2.2-2.6-2.9-4.3c-0.7-1.7-1.1-3.7-1.1-6V3.9z"/>
		<path class="st2" d="M1196.7-7.2c0-0.1,0-0.2,0.1-0.5c0.1-0.3,0.1-0.4,0.1-0.5h45.8v1H1196.7z M1196.7-5.8h45.9v1h-45.9V-5.8z
			 M1196.7-3.5h45.9v1h-45.9V-3.5z M1196.7-1.1h45.9v1h-45.9V-1.1z M1214.1,3.8v7.6c0,4.3,2.1,6.4,6.3,6.4h4.9v-14h17.4v31.3H1210
			c-1.8,0-3.6-0.3-5.2-1c-1.6-0.6-3-1.5-4.3-2.7c-1.2-1.2-2.1-2.6-2.8-4.2c-0.7-1.6-1-3.4-1-5.4V3.8H1214.1z M1197.2-9.5
			c0-0.1,0-0.2,0.1-0.5c0.1-0.3,0.1-0.4,0.2-0.5h45.2v1H1197.2z M1198-11.7c0.1-0.1,0.2-0.2,0.3-0.5c0.1-0.3,0.2-0.4,0.3-0.5h44v1
			H1198z M1242.6-15v1h-42.9c0.1-0.1,0.3-0.3,0.5-0.5c0.2-0.2,0.4-0.3,0.5-0.5H1242.6z M1242.6-17.2v1h-39.7
			c0.9-0.4,1.7-0.6,2.5-0.8c0.8-0.1,1.6-0.2,2.5-0.2H1242.6z"/>
		<path class="st2" d="M1250.3-7.2c0-0.1,0-0.2,0.1-0.5c0.1-0.3,0.1-0.4,0.1-0.5h44.6v1H1250.3z M1250.4-5.8h44.7v1h-44.7V-5.8z
			 M1250.4-3.5h44.7v1h-44.7V-3.5z M1250.4-1.1h44.7v1h-44.7V-1.1z M1295.1,3.7v17.9c0,4.4-1.3,7.7-3.8,10c-2.5,2.3-6,3.4-10.5,3.4
			h-16.7c-4.1,0-7.5-1.2-10-3.7c-2.5-2.5-3.8-5.8-3.8-10.2V3.7h16.7v8.4c0,1.7,0.3,3.1,1.1,4.1c0.7,1,1.9,1.5,3.6,1.5h1.8
			c3.2,0,4.8-1.9,4.8-5.6V3.7H1295.1z M1250.7-9.5c0-0.1,0-0.2,0.1-0.5c0.1-0.3,0.1-0.4,0.2-0.5h44v1H1250.7z M1251.6-11.7
			c0.1-0.1,0.2-0.2,0.3-0.5c0.1-0.3,0.2-0.4,0.3-0.5h42.9v1H1251.6z M1295.1-15v1h-41.7c0.1-0.1,0.3-0.3,0.5-0.5
			c0.2-0.2,0.4-0.3,0.5-0.5H1295.1z M1295.1-17.2v1h-38.6c1.1-0.4,2-0.7,2.8-0.8c0.8-0.1,1.5-0.1,2.3-0.1H1295.1z M1295.1-28.6v1
			h-16.7v-1H1295.1z M1295.1-26.4v1h-16.7v-1H1295.1z M1295.1-24.1v1h-16.7v-1H1295.1z M1295.1-21.9v1h-16.7v-1H1295.1z
			 M1295.1-19.5v1h-16.7v-1H1295.1z"/>
		<path class="st2" d="M1347.4-7.2h-44.7c0-0.1,0-0.2,0.1-0.5c0.1-0.3,0.1-0.4,0.1-0.5h44.4L1347.4-7.2z M1347.4-4.8h-44.7v-1h44.7
			V-4.8z M1347.4-2.5h-44.7v-1h44.7V-2.5z M1347.4-0.1h-44.7v-1h44.7V-0.1z M1347.4,3.7v18.1c0,2-0.3,3.8-1,5.4
			c-0.7,1.6-1.6,3-2.8,4.2c-1.2,1.1-2.6,2-4.2,2.7c-1.6,0.6-3.4,1-5.2,1H1316c-1.8,0-3.6-0.3-5.2-1c-1.6-0.6-3-1.5-4.3-2.7
			c-1.2-1.1-2.1-2.5-2.8-4.2c-0.7-1.6-1-3.4-1-5.4V3.7h16.7v8.4c0,3.8,1.6,5.6,4.8,5.6h1.8c1.8,0,3.1-0.5,3.7-1.6
			c0.6-1.1,1-2.4,1-4.1V3.7H1347.4z M1346.6-10.4c0.1,0.1,0.1,0.2,0.2,0.5c0.1,0.3,0.1,0.4,0.1,0.5h-43.8c0-0.1,0-0.2,0.1-0.5
			c0.1-0.3,0.1-0.4,0.2-0.5H1346.6z M1345.6-12.6c0.1,0.1,0.2,0.2,0.3,0.5c0.1,0.3,0.2,0.4,0.3,0.5H1304c0.1-0.1,0.2-0.2,0.3-0.5
			c0.1-0.3,0.2-0.4,0.3-0.5H1345.6z M1343.4-15c0.1,0.1,0.3,0.3,0.5,0.5c0.2,0.2,0.4,0.4,0.5,0.5h-38.7c0.1-0.1,0.3-0.3,0.5-0.5
			c0.2-0.2,0.4-0.3,0.5-0.5H1343.4z M1337-17.2c0.8,0,1.6,0.1,2.3,0.3c0.7,0.2,1.3,0.4,1.9,0.7h-32.3c0.6-0.3,1.2-0.5,2-0.7
			c0.7-0.2,1.5-0.3,2.3-0.3H1337z"/>
		<path class="st2" d="M1359.8,3.9h23l9.2,9.9c1.3,1.3,2.2,2.7,2.7,4.2c0.5,1.4,0.8,3,0.8,4.7c0,3.6-1.2,6.5-3.6,8.9
			c-2.4,2.4-5.9,3.5-10.5,3.5h-26.3V17.8h17.9L1359.8,3.9z M1355.6-5.8h37.5v1h-37.5V-5.8z M1355.8-8.2h37.3v1h-37.4L1355.8-8.2z
			 M1355.8-3.5h37.3v1h-37.3L1355.8-3.5z M1356.1-9.5c0-0.1,0.1-0.2,0.2-0.5c0.1-0.3,0.2-0.4,0.2-0.5h36.7v1H1356.1z M1356.8-0.1
			c-0.1-0.1-0.1-0.2-0.2-0.4c-0.1-0.2-0.1-0.4-0.2-0.5h36.8v1H1356.8z M1357-11.7c0.1-0.1,0.2-0.2,0.3-0.5c0.1-0.3,0.2-0.4,0.3-0.5
			h35.6v1H1357z M1393.2-15v1h-34.5c0.1-0.1,0.3-0.3,0.5-0.5c0.2-0.2,0.4-0.3,0.5-0.5H1393.2z M1393.2-17.2v1h-31.2
			c1.1-0.4,2-0.7,2.7-0.8c0.7-0.1,1.5-0.1,2.2-0.1H1393.2z"/>
	</g>
</g>
</svg>
