<?xml version="1.0" encoding="utf-8"?>
<!-- Generator: Adobe Illustrator 19.0.0, SVG Export Plug-In . SVG Version: 6.00 Build 0)  -->
<svg version="1.1" id="Capa_1" xmlns="http://www.w3.org/2000/svg" xmlns:xlink="http://www.w3.org/1999/xlink" x="0px" y="0px"
	 viewBox="-321.7 -31.8 1800 84.8" style="enable-background:new -321.7 -31.8 1800 84.8;" xml:space="preserve">
<style type="text/css">
	.st0{display:none;}
	.st1{display:inline;fill:#161616;}
	.st2{fill:#FFF8E3;}
	.st3{fill:none;stroke:#FFF8E3;stroke-width:1.6;stroke-miterlimit:10;}
	.st4{clip-path:url(#XMLID_60_);}
</style>
<g id="Capa_5" class="st0">
	<rect id="XMLID_171_" x="-377.4" y="-127.2" class="st1" width="1970.8" height="316.5"/>
</g>
<g id="Capa_3">
	<rect id="XMLID_11_" x="1381" y="3.9" class="st2" width="97.3" height="31.5"/>
	<rect id="XMLID_13_" x="-321.7" y="3.8" class="st2" width="1437.2" height="31.3"/>
</g>
<g id="Capa_4">
	<line id="XMLID_1_" class="st3" x1="1146" y1="-2.9" x2="-321.7" y2="-2.9"/>
	<line id="XMLID_172_" class="st3" x1="1145.8" y1="-7.4" x2="-321.7" y2="-7.4"/>
	<line id="XMLID_173_" class="st3" x1="1143.7" y1="-11.9" x2="-321.7" y2="-11.9"/>
	<line id="XMLID_175_" class="st3" x1="1136.8" y1="-16.4" x2="-321.7" y2="-16.4"/>
</g>
<g id="Capa_4_1_">
	<line id="XMLID_42_" class="st3" x1="1118.9" y1="-20.9" x2="1102.3" y2="-20.9"/>
	<line id="XMLID_41_" class="st3" x1="1118.9" y1="-25.4" x2="1102.3" y2="-25.4"/>
	<line id="XMLID_40_" class="st3" x1="1118.9" y1="-29.9" x2="1102.3" y2="-29.9"/>
</g>
<g id="Capa_7">
	<line id="XMLID_188_" class="st3" x1="1153.4" y1="-2.9" x2="1170.1" y2="-2.9"/>
	<line id="XMLID_187_" class="st3" x1="1153.4" y1="-7.4" x2="1170.1" y2="-7.4"/>
	<line id="XMLID_186_" class="st3" x1="1153.4" y1="-11.9" x2="1170.1" y2="-11.9"/>
	<line id="XMLID_185_" class="st3" x1="1153.4" y1="-16.4" x2="1170.1" y2="-16.4"/>
</g>
<g id="Capa_8_1_">
	<line id="XMLID_16_" class="st3" x1="1178.5" y1="-2.9" x2="1215.9" y2="-2.9"/>
	<line id="XMLID_15_" class="st3" x1="1178.6" y1="-7.4" x2="1215.9" y2="-7.4"/>
	<line id="XMLID_14_" class="st3" x1="1180.1" y1="-11.9" x2="1215.9" y2="-11.9"/>
	<line id="XMLID_12_" class="st3" x1="1186.3" y1="-16.4" x2="1215.9" y2="-16.4"/>
	<g id="XMLID_10_">
	</g>
	<g id="XMLID_9_">
	</g>
	<g id="XMLID_8_">
	</g>
	<g id="XMLID_7_">
	</g>
	<g id="XMLID_6_">
	</g>
	<g id="XMLID_3_">
	</g>
</g>
<g id="Capa_8_2_">
	<line id="XMLID_26_" class="st3" x1="1225.8" y1="-2.9" x2="1253.3" y2="-2.9"/>
	<line id="XMLID_25_" class="st3" x1="1225.8" y1="-7.4" x2="1253.3" y2="-7.4"/>
	<line id="XMLID_24_" class="st3" x1="1225.8" y1="-11.9" x2="1253.3" y2="-11.9"/>
	<line id="XMLID_23_" class="st3" x1="1225.8" y1="-16.4" x2="1253.3" y2="-16.4"/>
	<g id="XMLID_22_">
	</g>
	<g id="XMLID_21_">
	</g>
	<g id="XMLID_20_">
	</g>
	<g id="XMLID_19_">
	</g>
	<g id="XMLID_18_">
	</g>
	<g id="XMLID_17_">
	</g>
</g>
<g id="Capa_8_4_">
	<line id="XMLID_51_" class="st3" x1="1225.8" y1="-20.9" x2="1242.6" y2="-20.9"/>
	<line id="XMLID_50_" class="st3" x1="1225.8" y1="-25.4" x2="1242.6" y2="-25.4"/>
	<line id="XMLID_49_" class="st3" x1="1225.8" y1="-29.9" x2="1242.6" y2="-29.9"/>
	<g id="XMLID_48_">
	</g>
	<g id="XMLID_47_">
	</g>
	<g id="XMLID_46_">
	</g>
	<g id="XMLID_45_">
	</g>
	<g id="XMLID_44_">
	</g>
	<g id="XMLID_43_">
	</g>
</g>
<g id="Capa_8">
	<line id="XMLID_192_" class="st3" x1="1260.9" y1="-2.9" x2="1305.4" y2="-2.9"/>
	<line id="XMLID_191_" class="st3" x1="1260.9" y1="-7.4" x2="1305.4" y2="-7.4"/>
	<line id="XMLID_190_" class="st3" x1="1262.6" y1="-11.9" x2="1303.8" y2="-11.9"/>
	<line id="XMLID_189_" class="st3" x1="1268.9" y1="-16.4" x2="1297.1" y2="-16.4"/>
	<g id="XMLID_2_">
	</g>
	<g id="XMLID_226_">
	</g>
	<g id="XMLID_227_">
	</g>
	<g id="XMLID_228_">
	</g>
	<g id="XMLID_229_">
	</g>
	<g id="XMLID_230_">
	</g>
</g>
<g id="Capa_8_3_">
	<line id="XMLID_36_" class="st3" x1="1315.5" y1="-2.9" x2="1342.9" y2="-2.9"/>
	<line id="XMLID_35_" class="st3" x1="1315.5" y1="-7.4" x2="1342.9" y2="-7.4"/>
	<line id="XMLID_34_" class="st3" x1="1317.4" y1="-11.9" x2="1342.9" y2="-11.9"/>
	<line id="XMLID_33_" class="st3" x1="1323.4" y1="-16.4" x2="1342.9" y2="-16.4"/>
	<g id="XMLID_32_">
	</g>
	<g id="XMLID_31_">
	</g>
	<g id="XMLID_30_">
	</g>
	<g id="XMLID_29_">
	</g>
	<g id="XMLID_28_">
	</g>
	<g id="XMLID_27_">
	</g>
</g>
<g id="Capa_8_5_">
	<line id="XMLID_58_" class="st3" x1="1350.5" y1="-2.9" x2="1367.7" y2="-2.9"/>
	<line id="XMLID_57_" class="st3" x1="1350.5" y1="-7.4" x2="1367.7" y2="-7.4"/>
	<line id="XMLID_56_" class="st3" x1="1350.5" y1="-11.9" x2="1367.7" y2="-11.9"/>
	<line id="XMLID_55_" class="st3" x1="1350.5" y1="-16.4" x2="1367.7" y2="-16.4"/>
	<g id="XMLID_54_">
	</g>
	<g id="XMLID_53_">
	</g>
	<g id="XMLID_52_">
	</g>
	<g id="XMLID_39_">
	</g>
	<g id="XMLID_38_">
	</g>
	<g id="XMLID_37_">
	</g>
</g>
<g id="Capa_6">
	<line id="XMLID_180_" class="st3" x1="1378.4" y1="-2.9" x2="1478.3" y2="-2.9"/>
	<line id="XMLID_179_" class="st3" x1="1378.4" y1="-7.4" x2="1478.3" y2="-7.4"/>
	<line id="XMLID_178_" class="st3" x1="1378.4" y1="-11.9" x2="1478.3" y2="-11.9"/>
	<line id="XMLID_177_" class="st3" x1="1378.4" y1="-16.4" x2="1478.3" y2="-16.4"/>
</g>
<g id="XMLID_4_">
	<defs>
		<rect id="XMLID_169_" x="915" y="1.7" width="486.3" height="63.5"/>
	</defs>
	<clipPath id="XMLID_60_">
		<use xlink:href="#XMLID_169_"  style="overflow:visible;"/>
	</clipPath>
	<g id="XMLID_5_" class="st4">
		<path class="st2" d="M1102.2-28.6h16.7v1h-16.7V-28.6z M1102.2-26.4h16.7v1h-16.7V-26.4z M1102.2-24.1h16.7v1h-16.7V-24.1z
			 M1102.2-21.9h16.7v1h-16.7V-21.9z M1102.2-19.5h16.7v1h-16.7V-19.5z M1102.2-17.2h32.4c0.8,0,1.5,0,2.2,0.1
			c0.7,0.1,1.6,0.4,2.7,0.8h-37.3V-17.2z M1102.2-15h39.4c0.1,0.1,0.3,0.3,0.5,0.5c0.2,0.2,0.4,0.4,0.5,0.5h-40.5V-15z M1143.9-12.6
			c0.1,0.1,0.2,0.2,0.3,0.5c0.1,0.3,0.2,0.4,0.3,0.5h-42.2v-1H1143.9z M1145-10.4c0.1,0.1,0.1,0.2,0.2,0.5c0.1,0.3,0.1,0.4,0.1,0.5
			h-43.1v-1H1145z M1145.7-8.2l0.1,1h-43.6v-1H1145.7z M1145.9-5.8v1h-43.7v-1H1145.9z M1145.9-3.5v1h-43.7v-1H1145.9z M1145.9-1.1
			v1h-43.7v-1H1145.9z M1102.2,3.8h16.7v31.3h-16.7V3.8z M1129.2,3.8h16.7v31.3h-16.7V3.8z"/>
		<path class="st2" d="M1170.1-17.2v1h-16.7v-1H1170.1z M1170.1-14.9v1h-16.7v-1H1170.1z M1170.1-12.7v1h-16.7v-1H1170.1z
			 M1170.1-10.4v1h-16.7v-1H1170.1z M1170.1-8.2v1h-16.7v-1H1170.1z M1170.1-5.8v1h-16.7v-1H1170.1z M1170.1-3.5v1h-16.7v-1H1170.1z
			 M1170.1-1.1v1h-16.7v-1H1170.1z M1153.4,3.8h16.7v31.3h-16.7V3.8z"/>
		<path class="st2" d="M1182.5,3.9h23l9.2,9.9c1.3,1.3,2.2,2.7,2.7,4.2c0.5,1.4,0.8,3,0.8,4.7c0,3.6-1.2,6.5-3.6,8.9
			c-2.4,2.4-5.9,3.5-10.5,3.5h-26.3V17.8h17.9L1182.5,3.9z M1178.3-5.8h37.5v1h-37.5V-5.8z M1178.4-8.2h37.3v1h-37.4L1178.4-8.2z
			 M1178.4-3.5h37.3v1h-37.3L1178.4-3.5z M1178.7-9.5c0-0.1,0.1-0.2,0.2-0.5c0.1-0.3,0.2-0.4,0.2-0.5h36.7v1H1178.7z M1179.4-0.1
			c-0.1-0.1-0.1-0.2-0.2-0.4c-0.1-0.2-0.1-0.4-0.2-0.5h36.8v1H1179.4z M1179.6-11.7c0.1-0.1,0.2-0.2,0.3-0.5
			c0.1-0.3,0.2-0.4,0.3-0.5h35.6v1H1179.6z M1215.8-15v1h-34.5c0.1-0.1,0.3-0.3,0.5-0.5c0.2-0.2,0.4-0.3,0.5-0.5H1215.8z
			 M1215.8-17.2v1h-31.2c1.1-0.4,2-0.7,2.7-0.8c0.7-0.1,1.5-0.1,2.2-0.1H1215.8z"/>
		<path class="st2" d="M1225.8-28.6h16.7v1h-16.7V-28.6z M1225.8-26.4h16.7v1h-16.7V-26.4z M1225.8-24.1h16.7v1h-16.7V-24.1z
			 M1225.8-21.9h16.7v1h-16.7V-21.9z M1225.8-19.5h16.7v1h-16.7V-19.5z M1253.2-17.2v1h-27.4v-1H1253.2z M1253.2-14.9v1h-27.4v-1
			H1253.2z M1253.2-12.7v1h-27.4v-1H1253.2z M1253.2-10.4v1h-27.4v-1H1253.2z M1253.2-8.2v1h-27.4v-1H1253.2z M1253.2-5.8v1h-27.4
			v-1H1253.2z M1253.2-3.5v1h-27.4v-1H1253.2z M1253.2-1.1v1h-27.4v-1H1253.2z M1225.8,3.9h16.7V12c0,2,0.4,3.5,1.1,4.4
			c0.7,0.9,2.2,1.4,4.4,1.4h5.2v17.3h-14.4c-1.7,0-3.4-0.3-4.9-0.9c-1.6-0.6-2.9-1.4-4.2-2.6c-1.2-1.1-2.2-2.6-2.9-4.3
			c-0.7-1.7-1.1-3.7-1.1-6V3.9z"/>
		<path class="st2" d="M1305.6-7.2h-44.7c0-0.1,0-0.2,0.1-0.5c0.1-0.3,0.1-0.4,0.1-0.5h44.4L1305.6-7.2z M1305.6-4.8h-44.7v-1h44.7
			V-4.8z M1305.6-2.5h-44.7v-1h44.7V-2.5z M1305.6-0.1h-44.7v-1h44.7V-0.1z M1305.6,3.7v18.1c0,2-0.3,3.8-1,5.4
			c-0.7,1.6-1.6,3-2.8,4.2c-1.2,1.1-2.6,2-4.2,2.7c-1.6,0.6-3.4,1-5.2,1h-18.2c-1.8,0-3.6-0.3-5.2-1c-1.6-0.6-3-1.5-4.3-2.7
			c-1.2-1.1-2.1-2.5-2.8-4.2c-0.7-1.6-1-3.4-1-5.4V3.7h16.7v8.4c0,3.8,1.6,5.6,4.8,5.6h1.8c1.8,0,3.1-0.5,3.7-1.6
			c0.6-1.1,1-2.4,1-4.1V3.7H1305.6z M1304.8-10.4c0.1,0.1,0.1,0.2,0.2,0.5c0.1,0.3,0.1,0.4,0.1,0.5h-43.8c0-0.1,0-0.2,0.1-0.5
			c0.1-0.3,0.1-0.4,0.2-0.5H1304.8z M1303.8-12.6c0.1,0.1,0.2,0.2,0.3,0.5c0.1,0.3,0.2,0.4,0.3,0.5h-42.1c0.1-0.1,0.2-0.2,0.3-0.5
			c0.1-0.3,0.2-0.4,0.3-0.5H1303.8z M1301.6-15c0.1,0.1,0.3,0.3,0.5,0.5c0.2,0.2,0.4,0.4,0.5,0.5h-38.7c0.1-0.1,0.3-0.3,0.5-0.5
			c0.2-0.2,0.4-0.3,0.5-0.5H1301.6z M1295.2-17.2c0.8,0,1.6,0.1,2.3,0.3c0.7,0.2,1.3,0.4,1.9,0.7h-32.3c0.6-0.3,1.2-0.5,2-0.7
			c0.7-0.2,1.5-0.3,2.3-0.3H1295.2z"/>
		<path class="st2" d="M1315.5-5.8h27.3v1h-27.3V-5.8z M1315.5-3.5h27.3v1h-27.3V-3.5z M1315.5-1.1h27.3v1h-27.3V-1.1z M1315.5,3.9
			h16.7v31.2h-16.7V3.9z M1315.6-7.2c0-0.1,0-0.2,0.1-0.5c0.1-0.3,0.1-0.4,0.1-0.5h27v1H1315.6z M1316.1-9.5c0-0.1,0-0.2,0.1-0.5
			c0.1-0.3,0.1-0.4,0.2-0.5h26.5v1H1316.1z M1316.9-11.7c0.1-0.1,0.2-0.2,0.3-0.5c0.1-0.3,0.2-0.4,0.3-0.5h25.3v1H1316.9z
			 M1342.8-15v1h-24.2c0.1-0.1,0.3-0.3,0.5-0.5c0.2-0.2,0.4-0.3,0.5-0.5H1342.8z M1342.8-17.2v1h-21c1.1-0.4,2-0.7,2.8-0.8
			c0.8-0.1,1.5-0.1,2.3-0.1H1342.8z"/>
		<path class="st2" d="M1367.8-17.2v1h-17.4v-1H1367.8z M1367.8-14.9v1h-17.4v-1H1367.8z M1367.8-12.7v1h-17.4v-1H1367.8z
			 M1367.8-10.4v1h-17.4v-1H1367.8z M1367.8-8.2v1h-17.4v-1H1367.8z M1367.8-5.8v1h-17.4v-1H1367.8z M1367.8-3.5v1h-17.4v-1H1367.8z
			 M1367.8-1.1v1h-17.4v-1H1367.8z M1350.4,21.8v-18h17.4v7.7c0,2.2,0.4,3.8,1.3,4.8c0.9,1,1.9,1.4,3.1,1.4h1.6
			c1.1,0,2.2-0.4,3.1-1.1c0.9-0.7,1.4-1.4,1.4-2.1c0.1-0.3,0.1-0.7,0.1-1.3c0-0.5,0-1,0-1.5v-8h17.1v18c0,3.9-1.2,7.1-3.5,9.4
			c-2.3,2.3-5.8,3.7-10.6,4.2v17.3h-17V35.4c-4.4-0.2-7.8-1.5-10.4-3.9C1351.6,29.1,1350.4,25.8,1350.4,21.8z M1395.5-17.2v1h-17.1
			v-1H1395.5z M1395.5-14.9v1h-17.1v-1H1395.5z M1395.5-12.7v1h-17.1v-1H1395.5z M1395.5-10.4v1h-17.1v-1H1395.5z M1395.5-8.2v1
			h-17.1v-1H1395.5z M1395.5-5.8v1h-17.1v-1H1395.5z M1395.5-3.5v1h-17.1v-1H1395.5z M1395.5-1.1v1h-17.1v-1H1395.5z"/>
	</g>
</g>
</svg>
