<?xml version="1.0" encoding="utf-8"?>
<!-- Generator: Adobe Illustrator 19.0.0, SVG Export Plug-In . SVG Version: 6.00 Build 0)  -->
<svg version="1.1" id="Capa_1" xmlns="http://www.w3.org/2000/svg" xmlns:xlink="http://www.w3.org/1999/xlink" x="0px" y="0px"
	 viewBox="-321.7 -31.8 1800 84.8" style="enable-background:new -321.7 -31.8 1800 84.8;" xml:space="preserve">
<style type="text/css">
	.st0{display:none;}
	.st1{display:inline;fill:#161616;}
	.st2{fill:#FFF8E3;}
	.st3{fill:none;stroke:#FFF8E3;stroke-width:1.6;stroke-miterlimit:10;}
	.st4{clip-path:url(#XMLID_51_);}
</style>
<g id="Capa_5" class="st0">
	<rect id="XMLID_171_" x="-377.4" y="-127.2" class="st1" width="1970.8" height="316.5"/>
</g>
<g id="Capa_3">
	<rect id="XMLID_11_" x="1374.8" y="3.9" class="st2" width="103.5" height="31.2"/>
	<rect id="XMLID_13_" x="-321.7" y="3.9" class="st2" width="1242.3" height="31.2"/>
</g>
<g id="Capa_4">
	<line id="XMLID_1_" class="st3" x1="937.2" y1="-2.9" x2="-321.7" y2="-2.9"/>
	<line id="XMLID_172_" class="st3" x1="937.2" y1="-7.4" x2="-321.7" y2="-7.4"/>
	<line id="XMLID_173_" class="st3" x1="937.2" y1="-11.9" x2="-321.7" y2="-11.9"/>
	<line id="XMLID_175_" class="st3" x1="937.2" y1="-16.4" x2="-321.7" y2="-16.4"/>
</g>
<g id="Capa_7">
	<line id="XMLID_188_" class="st3" x1="947.2" y1="-2.9" x2="974.6" y2="-2.9"/>
	<line id="XMLID_187_" class="st3" x1="947.2" y1="-7.4" x2="974.6" y2="-7.4"/>
	<line id="XMLID_186_" class="st3" x1="947.2" y1="-11.9" x2="974.6" y2="-11.9"/>
	<line id="XMLID_185_" class="st3" x1="947.2" y1="-16.4" x2="974.6" y2="-16.4"/>
</g>
<g id="Capa_7_1_">
	<line id="XMLID_42_" class="st3" x1="947.2" y1="-20.9" x2="963.9" y2="-20.9"/>
	<line id="XMLID_41_" class="st3" x1="947.2" y1="-25.4" x2="963.9" y2="-25.4"/>
	<line id="XMLID_40_" class="st3" x1="947.2" y1="-29.9" x2="963.9" y2="-29.9"/>
</g>
<g id="asdasd">
	<line id="XMLID_30_" class="st3" x1="982.3" y1="-2.9" x2="1028.2" y2="-2.9"/>
	<line id="XMLID_29_" class="st3" x1="982.3" y1="-7.4" x2="1028.2" y2="-7.4"/>
	<line id="XMLID_28_" class="st3" x1="983.8" y1="-11.9" x2="1028.2" y2="-11.9"/>
	<line id="XMLID_27_" class="st3" x1="989.9" y1="-16.4" x2="1028.2" y2="-16.4"/>
</g>
<g id="Capa_7_5_">
	<line id="XMLID_78_" class="st3" x1="1035.8" y1="-2.9" x2="1063.2" y2="-2.9"/>
	<line id="XMLID_77_" class="st3" x1="1035.8" y1="-7.4" x2="1063.2" y2="-7.4"/>
	<line id="XMLID_66_" class="st3" x1="1035.8" y1="-11.9" x2="1063.2" y2="-11.9"/>
	<line id="XMLID_65_" class="st3" x1="1035.8" y1="-16.4" x2="1063.2" y2="-16.4"/>
</g>
<g id="Capa_7_9_">
	<line id="XMLID_81_" class="st3" x1="1035.8" y1="-20.9" x2="1052.6" y2="-20.9"/>
	<line id="XMLID_80_" class="st3" x1="1035.8" y1="-25.4" x2="1052.6" y2="-25.4"/>
	<line id="XMLID_79_" class="st3" x1="1035.8" y1="-29.9" x2="1052.6" y2="-29.9"/>
</g>
<g id="Capa_7_2_">
	<line id="XMLID_46_" class="st3" x1="1070.8" y1="-2.9" x2="1087.7" y2="-2.9"/>
	<line id="XMLID_45_" class="st3" x1="1070.8" y1="-7.4" x2="1087.7" y2="-7.4"/>
	<line id="XMLID_44_" class="st3" x1="1070.8" y1="-11.9" x2="1087.7" y2="-11.9"/>
	<line id="XMLID_43_" class="st3" x1="1070.8" y1="-16.4" x2="1087.7" y2="-16.4"/>
</g>
<g id="Capa_8_1_">
	<line id="XMLID_16_" class="st3" x1="1095.8" y1="-2.9" x2="1133.1" y2="-2.9"/>
	<line id="XMLID_15_" class="st3" x1="1095.9" y1="-7.4" x2="1133.1" y2="-7.4"/>
	<line id="XMLID_14_" class="st3" x1="1097.4" y1="-11.9" x2="1133.1" y2="-11.9"/>
	<line id="XMLID_12_" class="st3" x1="1103.6" y1="-16.4" x2="1133.1" y2="-16.4"/>
	<g id="XMLID_10_">
	</g>
	<g id="XMLID_9_">
	</g>
	<g id="XMLID_8_">
	</g>
	<g id="XMLID_7_">
	</g>
	<g id="XMLID_6_">
	</g>
	<g id="XMLID_3_">
	</g>
</g>
<g id="Capa_7_10_">
	<line id="XMLID_85_" class="st3" x1="1143.3" y1="-2.9" x2="1170.7" y2="-2.9"/>
	<line id="XMLID_84_" class="st3" x1="1143.3" y1="-7.4" x2="1170.7" y2="-7.4"/>
	<line id="XMLID_83_" class="st3" x1="1143.3" y1="-11.9" x2="1170.7" y2="-11.9"/>
	<line id="XMLID_82_" class="st3" x1="1143.3" y1="-16.4" x2="1170.7" y2="-16.4"/>
</g>
<g id="Capa_7_11_">
	<line id="XMLID_88_" class="st3" x1="1143.3" y1="-20.9" x2="1160" y2="-20.9"/>
	<line id="XMLID_87_" class="st3" x1="1143.3" y1="-25.4" x2="1160" y2="-25.4"/>
	<line id="XMLID_86_" class="st3" x1="1143.3" y1="-29.9" x2="1160" y2="-29.9"/>
</g>
<g id="Capa_7_3_">
	<line id="XMLID_20_" class="st3" x1="1178.3" y1="-2.9" x2="1195.1" y2="-2.9"/>
	<line id="XMLID_19_" class="st3" x1="1178.3" y1="-7.4" x2="1195.1" y2="-7.4"/>
	<line id="XMLID_18_" class="st3" x1="1178.3" y1="-11.9" x2="1195.1" y2="-11.9"/>
	<line id="XMLID_17_" class="st3" x1="1178.3" y1="-16.4" x2="1195.1" y2="-16.4"/>
</g>
<g id="Capa_7_4_">
	<line id="XMLID_63_" class="st3" x1="1202.8" y1="-2.9" x2="1245.9" y2="-2.9"/>
	<line id="XMLID_62_" class="st3" x1="1202.8" y1="-7.4" x2="1245.9" y2="-7.4"/>
	<line id="XMLID_61_" class="st3" x1="1204.5" y1="-11.9" x2="1245.9" y2="-11.9"/>
	<line id="XMLID_60_" class="st3" x1="1210.9" y1="-16.4" x2="1245.9" y2="-16.4"/>
</g>
<g id="Capa_8_2_">
	<line id="XMLID_64_" class="st3" x1="1253.5" y1="-2.9" x2="1270.2" y2="-2.9"/>
	<line id="XMLID_49_" class="st3" x1="1253.5" y1="-7.4" x2="1270.2" y2="-7.4"/>
	<line id="XMLID_48_" class="st3" x1="1253.5" y1="-11.9" x2="1270.2" y2="-11.9"/>
	<line id="XMLID_47_" class="st3" x1="1253.5" y1="-16.4" x2="1270.2" y2="-16.4"/>
	<g id="XMLID_39_">
	</g>
	<g id="XMLID_38_">
	</g>
	<g id="XMLID_26_">
	</g>
	<g id="XMLID_25_">
	</g>
	<g id="XMLID_24_">
	</g>
	<g id="XMLID_2_">
	</g>
</g>
<g id="Capa_8_3_">
	<line id="XMLID_37_" class="st3" x1="1281.5" y1="-2.9" x2="1298.2" y2="-2.9"/>
	<line id="XMLID_36_" class="st3" x1="1281.5" y1="-7.4" x2="1298.2" y2="-7.4"/>
	<line id="XMLID_35_" class="st3" x1="1281.5" y1="-11.9" x2="1298.2" y2="-11.9"/>
	<line id="XMLID_34_" class="st3" x1="1281.5" y1="-16.4" x2="1298.2" y2="-16.4"/>
	<g id="XMLID_33_">
	</g>
	<g id="XMLID_32_">
	</g>
	<g id="XMLID_31_">
	</g>
	<g id="XMLID_23_">
	</g>
	<g id="XMLID_22_">
	</g>
	<g id="XMLID_21_">
	</g>
</g>
<g id="Capa_8_5_">
	<line id="XMLID_76_" class="st3" x1="1306.1" y1="-2.9" x2="1347.6" y2="-2.9"/>
	<line id="XMLID_75_" class="st3" x1="1306.1" y1="-7.4" x2="1347.6" y2="-7.4"/>
	<line id="XMLID_74_" class="st3" x1="1307.9" y1="-11.9" x2="1347.6" y2="-11.9"/>
	<line id="XMLID_73_" class="st3" x1="1314.1" y1="-16.4" x2="1347.6" y2="-16.4"/>
	<g id="XMLID_72_">
	</g>
	<g id="XMLID_71_">
	</g>
	<g id="XMLID_70_">
	</g>
	<g id="XMLID_69_">
	</g>
	<g id="XMLID_68_">
	</g>
	<g id="XMLID_67_">
	</g>
</g>
<g id="Capa_6">
	<line id="XMLID_180_" class="st3" x1="1356" y1="-2.9" x2="1478.3" y2="-2.9"/>
	<line id="XMLID_179_" class="st3" x1="1355.8" y1="-7.4" x2="1478.3" y2="-7.4"/>
	<line id="XMLID_178_" class="st3" x1="1357.4" y1="-11.9" x2="1478.3" y2="-11.9"/>
	<line id="XMLID_177_" class="st3" x1="1364.3" y1="-16.4" x2="1478.3" y2="-16.4"/>
</g>
<g id="XMLID_4_">
	<defs>
		<rect id="XMLID_169_" x="799.3" y="1.7" width="601.9" height="63.5"/>
	</defs>
	<clipPath id="XMLID_51_">
		<use xlink:href="#XMLID_169_"  style="overflow:visible;"/>
	</clipPath>
	<g id="XMLID_5_" class="st4">
		<path class="st2" d="M903.8,3.9h23l9.2,9.9c1.3,1.3,2.2,2.7,2.7,4.2c0.5,1.4,0.8,3,0.8,4.7c0,3.6-1.2,6.5-3.6,8.9
			c-2.4,2.4-5.9,3.5-10.5,3.5h-26.3V17.8H917L903.8,3.9z M899.6-5.8h37.5v1h-37.5V-5.8z M899.8-8.2h37.3v1h-37.4L899.8-8.2z
			 M899.8-3.5h37.3v1h-37.3L899.8-3.5z M900.1-9.5c0-0.1,0.1-0.2,0.2-0.5c0.1-0.3,0.2-0.4,0.2-0.5h36.7v1H900.1z M900.8-0.1
			c-0.1-0.1-0.1-0.2-0.2-0.4c-0.1-0.2-0.1-0.4-0.2-0.5h36.8v1H900.8z M901-11.7c0.1-0.1,0.2-0.2,0.3-0.5c0.1-0.3,0.2-0.4,0.3-0.5
			h35.6v1H901z M937.2-15v1h-34.5c0.1-0.1,0.3-0.3,0.5-0.5c0.2-0.2,0.4-0.3,0.5-0.5H937.2z M937.2-17.2v1h-31.2
			c1.1-0.4,2-0.7,2.7-0.8c0.7-0.1,1.5-0.1,2.2-0.1H937.2z"/>
		<path class="st2" d="M947.2-28.6h16.7v1h-16.7V-28.6z M947.2-26.4h16.7v1h-16.7V-26.4z M947.2-24.1h16.7v1h-16.7V-24.1z
			 M947.2-21.9h16.7v1h-16.7V-21.9z M947.2-19.5h16.7v1h-16.7V-19.5z M974.6-17.2v1h-27.4v-1H974.6z M974.6-14.9v1h-27.4v-1H974.6z
			 M974.6-12.7v1h-27.4v-1H974.6z M974.6-10.4v1h-27.4v-1H974.6z M974.6-8.2v1h-27.4v-1H974.6z M974.6-5.8v1h-27.4v-1H974.6z
			 M974.6-3.5v1h-27.4v-1H974.6z M974.6-1.1v1h-27.4v-1H974.6z M947.2,3.9h16.7V12c0,2,0.4,3.5,1.1,4.4c0.7,0.9,2.2,1.4,4.4,1.4h5.2
			v17.3h-14.4c-1.7,0-3.4-0.3-4.9-0.9c-1.6-0.6-2.9-1.4-4.2-2.6c-1.2-1.1-2.2-2.6-2.9-4.3c-0.7-1.7-1.1-3.7-1.1-6V3.9z"/>
		<path class="st2" d="M982.3-7.2c0-0.1,0-0.2,0.1-0.5c0.1-0.3,0.1-0.4,0.1-0.5h45.8v1H982.3z M982.3-5.8h45.9v1h-45.9V-5.8z
			 M982.3-3.5h45.9v1h-45.9V-3.5z M982.3-1.1h45.9v1h-45.9V-1.1z M999.6,3.8v7.6c0,4.3,2.1,6.4,6.3,6.4h4.9v-14h17.4v31.3h-32.7
			c-1.8,0-3.6-0.3-5.2-1c-1.6-0.6-3-1.5-4.3-2.7c-1.2-1.2-2.1-2.6-2.8-4.2s-1-3.4-1-5.4V3.8H999.6z M982.7-9.5c0-0.1,0-0.2,0.1-0.5
			c0.1-0.3,0.1-0.4,0.2-0.5h45.2v1H982.7z M983.6-11.7c0.1-0.1,0.2-0.2,0.3-0.5c0.1-0.3,0.2-0.4,0.3-0.5h44v1H983.6z M1028.2-15v1
			h-42.9c0.1-0.1,0.3-0.3,0.5-0.5c0.2-0.2,0.4-0.3,0.5-0.5H1028.2z M1028.2-17.2v1h-39.7c0.9-0.4,1.7-0.6,2.5-0.8
			c0.8-0.1,1.6-0.2,2.5-0.2H1028.2z"/>
		<path class="st2" d="M1035.8-28.6h16.7v1h-16.7V-28.6z M1035.8-26.4h16.7v1h-16.7V-26.4z M1035.8-24.1h16.7v1h-16.7V-24.1z
			 M1035.8-21.9h16.7v1h-16.7V-21.9z M1035.8-19.5h16.7v1h-16.7V-19.5z M1063.3-17.2v1h-27.4v-1H1063.3z M1063.3-14.9v1h-27.4v-1
			H1063.3z M1063.3-12.7v1h-27.4v-1H1063.3z M1063.3-10.4v1h-27.4v-1H1063.3z M1063.3-8.2v1h-27.4v-1H1063.3z M1063.3-5.8v1h-27.4
			v-1H1063.3z M1063.3-3.5v1h-27.4v-1H1063.3z M1063.3-1.1v1h-27.4v-1H1063.3z M1035.8,3.9h16.7V12c0,2,0.4,3.5,1.1,4.4
			c0.7,0.9,2.2,1.4,4.4,1.4h5.2v17.3h-14.4c-1.7,0-3.4-0.3-4.9-0.9c-1.6-0.6-2.9-1.4-4.2-2.6c-1.2-1.1-2.2-2.6-2.9-4.3
			c-0.7-1.7-1.1-3.7-1.1-6V3.9z"/>
		<path class="st2" d="M1087.6-17.2v1h-16.7v-1H1087.6z M1087.6-14.9v1h-16.7v-1H1087.6z M1087.6-12.7v1h-16.7v-1H1087.6z
			 M1087.6-10.4v1h-16.7v-1H1087.6z M1087.6-8.2v1h-16.7v-1H1087.6z M1087.6-5.8v1h-16.7v-1H1087.6z M1087.6-3.5v1h-16.7v-1H1087.6z
			 M1087.6-1.1v1h-16.7v-1H1087.6z M1070.9,3.8h16.7v31.3h-16.7V3.8z"/>
		<path class="st2" d="M1099.9,3.9h23l9.2,9.9c1.3,1.3,2.2,2.7,2.7,4.2c0.5,1.4,0.8,3,0.8,4.7c0,3.6-1.2,6.5-3.6,8.9
			c-2.4,2.4-5.9,3.5-10.5,3.5h-26.3V17.8h17.9L1099.9,3.9z M1095.7-5.8h37.5v1h-37.5V-5.8z M1095.9-8.2h37.3v1h-37.4L1095.9-8.2z
			 M1095.9-3.5h37.3v1H1096L1095.9-3.5z M1096.2-9.5c0-0.1,0.1-0.2,0.2-0.5c0.1-0.3,0.2-0.4,0.2-0.5h36.7v1H1096.2z M1096.9-0.1
			c-0.1-0.1-0.1-0.2-0.2-0.4c-0.1-0.2-0.1-0.4-0.2-0.5h36.8v1H1096.9z M1097.1-11.7c0.1-0.1,0.2-0.2,0.3-0.5
			c0.1-0.3,0.2-0.4,0.3-0.5h35.6v1H1097.1z M1133.3-15v1h-34.5c0.1-0.1,0.3-0.3,0.5-0.5c0.2-0.2,0.4-0.3,0.5-0.5H1133.3z
			 M1133.3-17.2v1H1102c1.1-0.4,2-0.7,2.7-0.8c0.7-0.1,1.5-0.1,2.2-0.1H1133.3z"/>
		<path class="st2" d="M1143.3-28.6h16.7v1h-16.7V-28.6z M1143.3-26.4h16.7v1h-16.7V-26.4z M1143.3-24.1h16.7v1h-16.7V-24.1z
			 M1143.3-21.9h16.7v1h-16.7V-21.9z M1143.3-19.5h16.7v1h-16.7V-19.5z M1170.7-17.2v1h-27.4v-1H1170.7z M1170.7-14.9v1h-27.4v-1
			H1170.7z M1170.7-12.7v1h-27.4v-1H1170.7z M1170.7-10.4v1h-27.4v-1H1170.7z M1170.7-8.2v1h-27.4v-1H1170.7z M1170.7-5.8v1h-27.4
			v-1H1170.7z M1170.7-3.5v1h-27.4v-1H1170.7z M1170.7-1.1v1h-27.4v-1H1170.7z M1143.3,3.9h16.7V12c0,2,0.4,3.5,1.1,4.4
			c0.7,0.9,2.2,1.4,4.4,1.4h5.2v17.3h-14.4c-1.7,0-3.4-0.3-4.9-0.9c-1.6-0.6-2.9-1.4-4.2-2.6c-1.2-1.1-2.2-2.6-2.9-4.3
			c-0.7-1.7-1.1-3.7-1.1-6V3.9z"/>
		<path class="st2" d="M1195.1-17.2v1h-16.7v-1H1195.1z M1195.1-14.9v1h-16.7v-1H1195.1z M1195.1-12.7v1h-16.7v-1H1195.1z
			 M1195.1-10.4v1h-16.7v-1H1195.1z M1195.1-8.2v1h-16.7v-1H1195.1z M1195.1-5.8v1h-16.7v-1H1195.1z M1195.1-3.5v1h-16.7v-1H1195.1z
			 M1195.1-1.1v1h-16.7v-1H1195.1z M1178.3,3.8h16.7v31.3h-16.7V3.8z"/>
		<path class="st2" d="M1202.7-7.2c0-0.1,0-0.2,0.1-0.5c0.1-0.3,0.1-0.4,0.1-0.5h43v1H1202.7z M1202.7-5.8h43.2v1h-43.2V-5.8z
			 M1202.7-3.5h43.2v1h-43.2V-3.5z M1202.7-1.1h43.2v1h-43.2V-1.1z M1202.7,3.7h16.1v8.4c0,3.8,1.9,5.6,5.6,5.6h4.7v-14h16.7v48.8
			h-16.7V35H1216c-1.8,0-3.6-0.3-5.2-1c-1.6-0.6-3-1.5-4.3-2.7c-1.2-1.1-2.1-2.5-2.8-4.2c-0.7-1.6-1-3.4-1-5.4V3.7z M1203.2-9.5
			c0-0.1,0-0.2,0.1-0.5c0.1-0.3,0.1-0.4,0.2-0.5h42.4v1H1203.2z M1204-11.7c0.1-0.1,0.2-0.2,0.3-0.5c0.1-0.3,0.2-0.4,0.3-0.5h41.3v1
			H1204z M1245.9-15v1h-40.1c0.1-0.1,0.3-0.3,0.5-0.5c0.2-0.2,0.4-0.3,0.5-0.5H1245.9z M1245.9-17.2v1h-37c1.1-0.4,2-0.7,2.8-0.8
			c0.8-0.1,1.5-0.1,2.3-0.1H1245.9z"/>
		<path class="st2" d="M1270.2-17.2v1h-16.7v-1H1270.2z M1270.2-14.9v1h-16.7v-1H1270.2z M1270.2-12.7v1h-16.7v-1H1270.2z
			 M1270.2-10.4v1h-16.7v-1H1270.2z M1270.2-8.2v1h-16.7v-1H1270.2z M1270.2-5.8v1h-16.7v-1H1270.2z M1270.2-3.5v1h-16.7v-1H1270.2z
			 M1270.2-1.1v1h-16.7v-1H1270.2z M1298.2,3.7v18.1c0,2-0.3,3.8-1,5.4c-0.7,1.6-1.6,3-2.8,4.2c-1.2,1.1-2.6,2-4.2,2.7
			c-1.6,0.6-3.4,1-5.2,1h-18.2c-1.8,0-3.6-0.3-5.2-1c-1.6-0.6-3-1.5-4.3-2.7c-1.2-1.1-2.1-2.5-2.8-4.2c-0.7-1.6-1-3.4-1-5.4V3.7
			h16.7v8.4c0,3.8,1.6,5.6,4.8,5.6h1.8c1.8,0,3.1-0.5,3.7-1.6c0.6-1.1,1-2.4,1-4.1V3.7H1298.2z M1298.2-17.2v1h-16.7v-1H1298.2z
			 M1298.2-14.9v1h-16.7v-1H1298.2z M1298.2-12.7v1h-16.7v-1H1298.2z M1298.2-10.4v1h-16.7v-1H1298.2z M1298.2-8.2v1h-16.7v-1
			H1298.2z M1298.2-5.8v1h-16.7v-1H1298.2z M1298.2-3.5v1h-16.7v-1H1298.2z M1298.2-1.1v1h-16.7v-1H1298.2z"/>
		<path class="st2" d="M1306-7.2c0-0.1,0-0.2,0.1-0.5c0.1-0.3,0.1-0.4,0.1-0.5h41.5v1H1306z M1306-5.8h41.6v1H1306V-5.8z M1306-3.5
			h41.6v1H1306V-3.5z M1306-1.1h41.6v1H1306V-1.1z M1347.6,35.1h-28.4c-1.8,0-3.6-0.3-5.2-1c-1.6-0.6-3-1.5-4.3-2.7
			c-1.2-1.2-2.1-2.6-2.8-4.2c-0.7-1.6-1-3.4-1-5.4V4.5h36.1v8.8h-19c0,1.5,0.2,2.6,0.7,3.4c0.4,0.8,1.6,1.2,3.4,1.2h20.4V35.1z
			 M1306.4-9.5c0-0.1,0-0.2,0.1-0.5c0.1-0.3,0.1-0.4,0.2-0.5h40.9v1H1306.4z M1307.3-11.7c0.1-0.1,0.2-0.2,0.3-0.5
			c0.1-0.3,0.2-0.4,0.3-0.5h39.7v1H1307.3z M1347.6-15v1H1309c0.1-0.1,0.3-0.3,0.5-0.5c0.2-0.2,0.4-0.3,0.5-0.5H1347.6z
			 M1347.6-17.2v1h-35.4c0.9-0.4,1.7-0.6,2.5-0.8c0.8-0.1,1.6-0.2,2.5-0.2H1347.6z"/>
		<path class="st2" d="M1359.8,3.9h23l9.2,9.9c1.3,1.3,2.2,2.7,2.7,4.2c0.5,1.4,0.8,3,0.8,4.7c0,3.6-1.2,6.5-3.6,8.9
			c-2.4,2.4-5.9,3.5-10.5,3.5h-26.3V17.8h17.9L1359.8,3.9z M1355.6-5.8h37.5v1h-37.5V-5.8z M1355.8-8.2h37.3v1h-37.4L1355.8-8.2z
			 M1355.8-3.5h37.3v1h-37.3L1355.8-3.5z M1356.1-9.5c0-0.1,0.1-0.2,0.2-0.5c0.1-0.3,0.2-0.4,0.2-0.5h36.7v1H1356.1z M1356.8-0.1
			c-0.1-0.1-0.1-0.2-0.2-0.4c-0.1-0.2-0.1-0.4-0.2-0.5h36.8v1H1356.8z M1357-11.7c0.1-0.1,0.2-0.2,0.3-0.5c0.1-0.3,0.2-0.4,0.3-0.5
			h35.6v1H1357z M1393.2-15v1h-34.5c0.1-0.1,0.3-0.3,0.5-0.5c0.2-0.2,0.4-0.3,0.5-0.5H1393.2z M1393.2-17.2v1h-31.2
			c1.1-0.4,2-0.7,2.7-0.8c0.7-0.1,1.5-0.1,2.2-0.1H1393.2z"/>
	</g>
</g>
</svg>
