<?xml version="1.0" encoding="utf-8"?>
<!-- Generator: Adobe Illustrator 19.0.0, SVG Export Plug-In . SVG Version: 6.00 Build 0)  -->
<svg version="1.1" id="Capa_1" xmlns="http://www.w3.org/2000/svg" xmlns:xlink="http://www.w3.org/1999/xlink" x="0px" y="0px"
	 viewBox="-321.7 -31.8 1800 84.8" style="enable-background:new -321.7 -31.8 1800 84.8;" xml:space="preserve">
<style type="text/css">
	.st0{display:none;}
	.st1{display:inline;fill:#161616;}
	.st2{fill:#FFF8E3;}
	.st3{fill:none;stroke:#FFF8E3;stroke-width:1.6;stroke-miterlimit:10;}
	.st4{clip-path:url(#XMLID_71_);}
</style>
<g id="Capa_5" class="st0">
	<rect id="XMLID_171_" x="-377.4" y="-127.2" class="st1" width="1970.8" height="316.5"/>
</g>
<g id="Capa_3">
	<rect id="XMLID_11_" x="1379.9" y="3.9" class="st2" width="98.4" height="31.2"/>
	<rect id="XMLID_13_" x="-321.7" y="3.7" class="st2" width="1236.9" height="31.4"/>
</g>
<g id="Capa_4">
	<line id="XMLID_1_" class="st3" x1="958.1" y1="-2.9" x2="-321.7" y2="-2.9"/>
	<line id="XMLID_172_" class="st3" x1="957.8" y1="-7.4" x2="-321.7" y2="-7.4"/>
	<line id="XMLID_173_" class="st3" x1="956.3" y1="-11.9" x2="-321.7" y2="-11.9"/>
	<line id="XMLID_175_" class="st3" x1="949.9" y1="-16.4" x2="-321.7" y2="-16.4"/>
</g>
<g id="Capa_7">
	<line id="XMLID_188_" class="st3" x1="965.7" y1="-2.9" x2="1011.7" y2="-2.9"/>
	<line id="XMLID_187_" class="st3" x1="966" y1="-7.4" x2="1011.7" y2="-7.4"/>
	<line id="XMLID_186_" class="st3" x1="967.5" y1="-11.9" x2="1011.7" y2="-11.9"/>
	<line id="XMLID_185_" class="st3" x1="973.3" y1="-16.4" x2="1011.7" y2="-16.4"/>
</g>
<g id="Capa_8">
	<line id="XMLID_192_" class="st3" x1="1019.1" y1="-2.9" x2="1046.5" y2="-2.9"/>
	<line id="XMLID_191_" class="st3" x1="1019.4" y1="-7.4" x2="1046.5" y2="-7.4"/>
	<line id="XMLID_190_" class="st3" x1="1021" y1="-11.9" x2="1046.5" y2="-11.9"/>
	<line id="XMLID_189_" class="st3" x1="1027.4" y1="-16.4" x2="1046.5" y2="-16.4"/>
	<g id="XMLID_2_">
	</g>
	<g id="XMLID_226_">
	</g>
	<g id="XMLID_227_">
	</g>
	<g id="XMLID_228_">
	</g>
	<g id="XMLID_229_">
	</g>
	<g id="XMLID_230_">
	</g>
</g>
<g id="Capa_8_5_">
	<line id="XMLID_58_" class="st3" x1="1054.2" y1="-2.9" x2="1100.1" y2="-2.9"/>
	<line id="XMLID_57_" class="st3" x1="1054.2" y1="-7.4" x2="1100.1" y2="-7.4"/>
	<line id="XMLID_56_" class="st3" x1="1055.8" y1="-11.9" x2="1100.1" y2="-11.9"/>
	<line id="XMLID_55_" class="st3" x1="1062.6" y1="-16.4" x2="1100.1" y2="-16.4"/>
	<g id="XMLID_54_">
	</g>
	<g id="XMLID_53_">
	</g>
	<g id="XMLID_52_">
	</g>
	<g id="XMLID_51_">
	</g>
	<g id="XMLID_50_">
	</g>
	<g id="XMLID_49_">
	</g>
</g>
<g id="Capa_8_1_">
	<line id="XMLID_16_" class="st3" x1="1110.1" y1="-2.9" x2="1177.1" y2="-2.9"/>
	<line id="XMLID_15_" class="st3" x1="1110.1" y1="-7.4" x2="1177.1" y2="-7.4"/>
	<line id="XMLID_14_" class="st3" x1="1110.1" y1="-11.9" x2="1175.2" y2="-11.9"/>
	<line id="XMLID_12_" class="st3" x1="1110.1" y1="-16.4" x2="1168.1" y2="-16.4"/>
	<g id="XMLID_10_">
	</g>
	<g id="XMLID_9_">
	</g>
	<g id="XMLID_8_">
	</g>
	<g id="XMLID_7_">
	</g>
	<g id="XMLID_6_">
	</g>
	<g id="XMLID_3_">
	</g>
</g>
<g id="Capa_8_2_">
	<line id="XMLID_26_" class="st3" x1="1226.2" y1="-2.9" x2="1184.7" y2="-2.9"/>
	<line id="XMLID_25_" class="st3" x1="1226.2" y1="-7.4" x2="1184.7" y2="-7.4"/>
	<line id="XMLID_24_" class="st3" x1="1226.2" y1="-11.9" x2="1186.4" y2="-11.9"/>
	<line id="XMLID_23_" class="st3" x1="1226.2" y1="-16.4" x2="1192.7" y2="-16.4"/>
	<g id="XMLID_22_">
	</g>
	<g id="XMLID_21_">
	</g>
	<g id="XMLID_20_">
	</g>
	<g id="XMLID_19_">
	</g>
	<g id="XMLID_18_">
	</g>
	<g id="XMLID_17_">
	</g>
</g>
<g id="Capa_8_6_">
	<line id="XMLID_66_" class="st3" x1="1233.6" y1="-2.9" x2="1261.1" y2="-2.9"/>
	<line id="XMLID_65_" class="st3" x1="1233.6" y1="-7.4" x2="1261.1" y2="-7.4"/>
	<line id="XMLID_64_" class="st3" x1="1233.6" y1="-11.9" x2="1261.1" y2="-11.9"/>
	<line id="XMLID_63_" class="st3" x1="1233.6" y1="-16.4" x2="1261.1" y2="-16.4"/>
	<line id="XMLID_68_" class="st3" x1="1233.6" y1="-20.9" x2="1250.5" y2="-20.9"/>
	<line id="XMLID_67_" class="st3" x1="1233.6" y1="-25.4" x2="1250.5" y2="-25.4"/>
	<line id="XMLID_69_" class="st3" x1="1233.6" y1="-29.9" x2="1250.5" y2="-29.9"/>
	<g id="XMLID_62_">
	</g>
	<g id="XMLID_61_">
	</g>
	<g id="XMLID_60_">
	</g>
	<g id="XMLID_59_">
	</g>
	<g id="XMLID_48_">
	</g>
	<g id="XMLID_47_">
	</g>
</g>
<g id="Capa_8_4_">
	<line id="XMLID_46_" class="st3" x1="1271" y1="-2.9" x2="1298.5" y2="-2.9"/>
	<line id="XMLID_45_" class="st3" x1="1271" y1="-7.4" x2="1298.5" y2="-7.4"/>
	<line id="XMLID_44_" class="st3" x1="1272.6" y1="-11.9" x2="1298.5" y2="-11.9"/>
	<line id="XMLID_43_" class="st3" x1="1278.5" y1="-16.4" x2="1298.5" y2="-16.4"/>
	<g id="XMLID_42_">
	</g>
	<g id="XMLID_41_">
	</g>
	<g id="XMLID_40_">
	</g>
	<g id="XMLID_39_">
	</g>
	<g id="XMLID_38_">
	</g>
	<g id="XMLID_37_">
	</g>
</g>
<g id="Capa_8_3_">
	<line id="XMLID_36_" class="st3" x1="1306" y1="-2.9" x2="1347.6" y2="-2.9"/>
	<line id="XMLID_35_" class="st3" x1="1306" y1="-7.4" x2="1347.6" y2="-7.4"/>
	<line id="XMLID_34_" class="st3" x1="1307.6" y1="-11.9" x2="1347.6" y2="-11.9"/>
	<line id="XMLID_33_" class="st3" x1="1313.5" y1="-16.4" x2="1347.6" y2="-16.4"/>
	<g id="XMLID_32_">
	</g>
	<g id="XMLID_31_">
	</g>
	<g id="XMLID_30_">
	</g>
	<g id="XMLID_29_">
	</g>
	<g id="XMLID_28_">
	</g>
	<g id="XMLID_27_">
	</g>
</g>
<g id="Capa_6">
	<line id="XMLID_180_" class="st3" x1="1356" y1="-2.9" x2="1478.3" y2="-2.9"/>
	<line id="XMLID_179_" class="st3" x1="1355.8" y1="-7.4" x2="1478.3" y2="-7.4"/>
	<line id="XMLID_178_" class="st3" x1="1357.4" y1="-11.9" x2="1478.3" y2="-11.9"/>
	<line id="XMLID_177_" class="st3" x1="1363.1" y1="-16.4" x2="1478.3" y2="-16.4"/>
</g>
<g id="XMLID_4_">
	<defs>
		<rect id="XMLID_169_" x="896.3" y="1.4" width="504.9" height="63.9"/>
	</defs>
	<clipPath id="XMLID_71_">
		<use xlink:href="#XMLID_169_"  style="overflow:visible;"/>
	</clipPath>
	<g id="XMLID_5_" class="st4">
		<path class="st2" d="M915-17.2h31.9c0.8,0,1.5,0,2.2,0.1c0.7,0.1,1.6,0.4,2.7,0.8H915V-17.2z M915-15h39c0.1,0.1,0.3,0.3,0.5,0.5
			c0.2,0.2,0.4,0.4,0.5,0.5h-40V-15z M956.2-12.6c0.1,0.1,0.2,0.2,0.3,0.5c0.1,0.3,0.2,0.4,0.3,0.5H915v-1H956.2z M957.3-10.4
			c0.1,0.1,0.1,0.2,0.2,0.5c0.1,0.3,0.1,0.4,0.1,0.5H915v-1H957.3z M958-8.2l0.1,1H915v-1H958z M958.1-5.8v1H915v-1H958.1z
			 M958.1-3.5v1H915v-1H958.1z M958.1-1.1v1H915v-1H958.1z M958.1,3.7v18.1c0,2-0.3,3.8-1,5.4c-0.7,1.6-1.6,3-2.8,4.2
			c-1.2,1.1-2.6,2-4.2,2.7c-1.6,0.6-3.4,1-5.2,1h-13.2v17.5H915V3.7h16.7v14h4.7c1.7,0,3-0.4,3.9-1.1c0.9-0.7,1.4-1.4,1.5-2.1
			c0.1-0.3,0.1-0.6,0.1-1.1c0-0.5,0-0.9,0-1.2V3.7H958.1z"/>
		<path class="st2" d="M965.7-7.2c0-0.1,0-0.2,0.1-0.5c0.1-0.3,0.1-0.4,0.1-0.5h45.8v1H965.7z M965.7-5.8h45.9v1h-45.9V-5.8z
			 M965.7-3.5h45.9v1h-45.9V-3.5z M965.7-1.1h45.9v1h-45.9V-1.1z M983.1,3.8v7.6c0,4.3,2.1,6.4,6.3,6.4h4.9v-14h17.4v31.3H979
			c-1.8,0-3.6-0.3-5.2-1c-1.6-0.6-3-1.5-4.3-2.7c-1.2-1.2-2.1-2.6-2.8-4.2s-1-3.4-1-5.4V3.8H983.1z M966.2-9.5c0-0.1,0-0.2,0.1-0.5
			c0.1-0.3,0.1-0.4,0.2-0.5h45.2v1H966.2z M967.1-11.7c0.1-0.1,0.2-0.2,0.3-0.5c0.1-0.3,0.2-0.4,0.3-0.5h44v1H967.1z M1011.7-15v1
			h-42.9c0.1-0.1,0.3-0.3,0.5-0.5c0.2-0.2,0.4-0.3,0.5-0.5H1011.7z M1011.7-17.2v1h-39.7c0.9-0.4,1.7-0.6,2.5-0.8
			c0.8-0.1,1.6-0.2,2.5-0.2H1011.7z"/>
		<path class="st2" d="M1019.2-5.8h27.3v1h-27.3V-5.8z M1019.2-3.5h27.3v1h-27.3V-3.5z M1019.2-1.1h27.3v1h-27.3V-1.1z M1019.2,3.9
			h16.7v31.2h-16.7V3.9z M1019.3-7.2c0-0.1,0-0.2,0.1-0.5c0.1-0.3,0.1-0.4,0.1-0.5h27v1H1019.3z M1019.8-9.5c0-0.1,0-0.2,0.1-0.5
			c0.1-0.3,0.1-0.4,0.2-0.5h26.5v1H1019.8z M1020.7-11.7c0.1-0.1,0.2-0.2,0.3-0.5c0.1-0.3,0.2-0.4,0.3-0.5h25.3v1H1020.7z
			 M1046.5-15v1h-24.2c0.1-0.1,0.3-0.3,0.5-0.5c0.2-0.2,0.4-0.3,0.5-0.5H1046.5z M1046.5-17.2v1h-21c1.1-0.4,2-0.7,2.8-0.8
			c0.8-0.1,1.5-0.1,2.3-0.1H1046.5z"/>
		<path class="st2" d="M1054.2-7.2c0-0.1,0-0.2,0.1-0.5c0.1-0.3,0.1-0.4,0.1-0.5h45.8v1H1054.2z M1054.2-5.8h45.9v1h-45.9V-5.8z
			 M1054.2-3.5h45.9v1h-45.9V-3.5z M1054.2-1.1h45.9v1h-45.9V-1.1z M1071.6,3.8v7.6c0,4.3,2.1,6.4,6.3,6.4h4.9v-14h17.4v31.3h-32.7
			c-1.8,0-3.6-0.3-5.2-1c-1.6-0.6-3-1.5-4.3-2.7c-1.2-1.2-2.1-2.6-2.8-4.2c-0.7-1.6-1-3.4-1-5.4V3.8H1071.6z M1054.7-9.5
			c0-0.1,0-0.2,0.1-0.5c0.1-0.3,0.1-0.4,0.2-0.5h45.2v1H1054.7z M1055.5-11.7c0.1-0.1,0.2-0.2,0.3-0.5c0.1-0.3,0.2-0.4,0.3-0.5h44v1
			H1055.5z M1100.1-15v1h-42.9c0.1-0.1,0.3-0.3,0.5-0.5c0.2-0.2,0.4-0.3,0.5-0.5H1100.1z M1100.1-17.2v1h-39.7
			c0.9-0.4,1.7-0.6,2.5-0.8c0.8-0.1,1.6-0.2,2.5-0.2H1100.1z"/>
		<path class="st2" d="M1110.1-17.2h55.7c0.8,0,1.5,0,2.2,0.1c0.7,0.1,1.6,0.4,2.7,0.8h-60.7V-17.2z M1110.1-15h62.8
			c0.1,0.1,0.3,0.3,0.6,0.5c0.3,0.2,0.4,0.4,0.6,0.5h-63.9V-15z M1175-12.6c0.1,0.1,0.2,0.2,0.3,0.5c0.1,0.3,0.2,0.4,0.3,0.5h-65.5
			v-1H1175z M1176.1-10.4c0.1,0.1,0.1,0.2,0.2,0.5c0.1,0.3,0.1,0.4,0.1,0.5h-66.5v-1H1176.1z M1176.8-8.2l0.1,1h-66.9v-1H1176.8z
			 M1177.1-5.8v1h-67.1v-1H1177.1z M1177.1-3.5v1h-67.1v-1H1177.1z M1177.1-1.1v1h-67.1v-1H1177.1z M1110.1,3.8h17.4v31.3h-17.4V3.8
			z M1135,3.8h17v31.3h-17V3.8z M1159.7,3.8h17.4v31.3h-17.4V3.8z"/>
		<path class="st2" d="M1184.6-7.2c0-0.1,0-0.2,0.1-0.5c0.1-0.3,0.1-0.4,0.1-0.5h41.5v1H1184.6z M1184.6-5.8h41.6v1h-41.6V-5.8z
			 M1184.6-3.5h41.6v1h-41.6V-3.5z M1184.6-1.1h41.6v1h-41.6V-1.1z M1226.2,35.1h-28.4c-1.8,0-3.6-0.3-5.2-1c-1.6-0.6-3-1.5-4.3-2.7
			c-1.2-1.2-2.1-2.6-2.8-4.2c-0.7-1.6-1-3.4-1-5.4V4.5h36.1v8.8h-19c0,1.5,0.2,2.6,0.7,3.4c0.4,0.8,1.6,1.2,3.4,1.2h20.4V35.1z
			 M1185-9.5c0-0.1,0-0.2,0.1-0.5c0.1-0.3,0.1-0.4,0.2-0.5h40.9v1H1185z M1185.9-11.7c0.1-0.1,0.2-0.2,0.3-0.5
			c0.1-0.3,0.2-0.4,0.3-0.5h39.7v1H1185.9z M1226.2-15v1h-38.6c0.1-0.1,0.3-0.3,0.5-0.5c0.2-0.2,0.4-0.3,0.5-0.5H1226.2z
			 M1226.2-17.2v1h-35.4c0.9-0.4,1.7-0.6,2.5-0.8c0.8-0.1,1.6-0.2,2.5-0.2H1226.2z"/>
		<path class="st2" d="M1233.7-28.6h16.7v1h-16.7V-28.6z M1233.7-26.4h16.7v1h-16.7V-26.4z M1233.7-24.1h16.7v1h-16.7V-24.1z
			 M1233.7-21.9h16.7v1h-16.7V-21.9z M1233.7-19.5h16.7v1h-16.7V-19.5z M1261.2-17.2v1h-27.4v-1H1261.2z M1261.2-14.9v1h-27.4v-1
			H1261.2z M1261.2-12.7v1h-27.4v-1H1261.2z M1261.2-10.4v1h-27.4v-1H1261.2z M1261.2-8.2v1h-27.4v-1H1261.2z M1261.2-5.8v1h-27.4
			v-1H1261.2z M1261.2-3.5v1h-27.4v-1H1261.2z M1261.2-1.1v1h-27.4v-1H1261.2z M1233.7,3.9h16.7V12c0,2,0.4,3.5,1.1,4.4
			c0.7,0.9,2.2,1.4,4.4,1.4h5.2v17.3h-14.4c-1.7,0-3.4-0.3-4.9-0.9c-1.6-0.6-2.9-1.4-4.2-2.6c-1.2-1.1-2.2-2.6-2.9-4.3
			c-0.7-1.7-1.1-3.7-1.1-6V3.9z"/>
		<path class="st2" d="M1271-5.8h27.3v1H1271V-5.8z M1271-3.5h27.3v1H1271V-3.5z M1271-1.1h27.3v1H1271V-1.1z M1271,3.9h16.7v31.2
			H1271V3.9z M1271.1-7.2c0-0.1,0-0.2,0.1-0.5c0.1-0.3,0.1-0.4,0.1-0.5h27v1H1271.1z M1271.6-9.5c0-0.1,0-0.2,0.1-0.5
			c0.1-0.3,0.1-0.4,0.2-0.5h26.5v1H1271.6z M1272.4-11.7c0.1-0.1,0.2-0.2,0.3-0.5c0.1-0.3,0.2-0.4,0.3-0.5h25.3v1H1272.4z
			 M1298.3-15v1h-24.2c0.1-0.1,0.3-0.3,0.5-0.5c0.2-0.2,0.4-0.3,0.5-0.5H1298.3z M1298.3-17.2v1h-21c1.1-0.4,2-0.7,2.8-0.8
			c0.8-0.1,1.5-0.1,2.3-0.1H1298.3z"/>
		<path class="st2" d="M1306-7.2c0-0.1,0-0.2,0.1-0.5c0.1-0.3,0.1-0.4,0.1-0.5h41.5v1H1306z M1306-5.8h41.6v1H1306V-5.8z M1306-3.5
			h41.6v1H1306V-3.5z M1306-1.1h41.6v1H1306V-1.1z M1347.6,35.1h-28.4c-1.8,0-3.6-0.3-5.2-1c-1.6-0.6-3-1.5-4.3-2.7
			c-1.2-1.2-2.1-2.6-2.8-4.2c-0.7-1.6-1-3.4-1-5.4V4.5h36.1v8.8h-19c0,1.5,0.2,2.6,0.7,3.4c0.4,0.8,1.6,1.2,3.4,1.2h20.4V35.1z
			 M1306.4-9.5c0-0.1,0-0.2,0.1-0.5c0.1-0.3,0.1-0.4,0.2-0.5h40.9v1H1306.4z M1307.3-11.7c0.1-0.1,0.2-0.2,0.3-0.5
			c0.1-0.3,0.2-0.4,0.3-0.5h39.7v1H1307.3z M1347.6-15v1H1309c0.1-0.1,0.3-0.3,0.5-0.5c0.2-0.2,0.4-0.3,0.5-0.5H1347.6z
			 M1347.6-17.2v1h-35.4c0.9-0.4,1.7-0.6,2.5-0.8c0.8-0.1,1.6-0.2,2.5-0.2H1347.6z"/>
		<path class="st2" d="M1359.8,3.9h23l9.2,9.9c1.3,1.3,2.2,2.7,2.7,4.2c0.5,1.4,0.8,3,0.8,4.7c0,3.6-1.2,6.5-3.6,8.9
			c-2.4,2.4-5.9,3.5-10.5,3.5h-26.3V17.8h17.9L1359.8,3.9z M1355.6-5.8h37.5v1h-37.5V-5.8z M1355.8-8.2h37.3v1h-37.4L1355.8-8.2z
			 M1355.8-3.5h37.3v1h-37.3L1355.8-3.5z M1356.1-9.5c0-0.1,0.1-0.2,0.2-0.5c0.1-0.3,0.2-0.4,0.2-0.5h36.7v1H1356.1z M1356.8-0.1
			c-0.1-0.1-0.1-0.2-0.2-0.4c-0.1-0.2-0.1-0.4-0.2-0.5h36.8v1H1356.8z M1357-11.7c0.1-0.1,0.2-0.2,0.3-0.5c0.1-0.3,0.2-0.4,0.3-0.5
			h35.6v1H1357z M1393.2-15v1h-34.5c0.1-0.1,0.3-0.3,0.5-0.5c0.2-0.2,0.4-0.3,0.5-0.5H1393.2z M1393.2-17.2v1h-31.2
			c1.1-0.4,2-0.7,2.7-0.8c0.7-0.1,1.5-0.1,2.2-0.1H1393.2z"/>
	</g>
</g>
</svg>
