<?xml version="1.0" encoding="utf-8"?>
<!-- Generator: Adobe Illustrator 19.0.0, SVG Export Plug-In . SVG Version: 6.00 Build 0)  -->
<svg version="1.1" id="Capa_1" xmlns="http://www.w3.org/2000/svg" xmlns:xlink="http://www.w3.org/1999/xlink" x="0px" y="0px"
	 viewBox="-321.7 -31.8 1800 84.8" style="enable-background:new -321.7 -31.8 1800 84.8;" xml:space="preserve">
<style type="text/css">
	.st0{display:none;}
	.st1{display:inline;fill:#161616;}
	.st2{fill:#FFF8E3;}
	.st3{fill:none;stroke:#FFF8E3;stroke-width:1.6;stroke-miterlimit:10;}
	.st4{clip-path:url(#XMLID_90_);}
</style>
<g id="Capa_5" class="st0">
	<rect id="XMLID_171_" x="-377.4" y="-127.2" class="st1" width="1970.8" height="316.5"/>
</g>
<g id="Capa_3">
	<rect id="XMLID_11_" x="1395.6" y="4.5" class="st2" width="82.7" height="30.7"/>
	<rect id="XMLID_13_" x="-321.7" y="3.8" class="st2" width="1311.7" height="31.3"/>
</g>
<g id="Capa_4">
	<line id="XMLID_1_" class="st3" x1="1022" y1="-2.9" x2="-321.7" y2="-2.9"/>
	<line id="XMLID_172_" class="st3" x1="1021.8" y1="-7.4" x2="-321.7" y2="-7.4"/>
	<line id="XMLID_173_" class="st3" x1="1019.7" y1="-11.9" x2="-321.7" y2="-11.9"/>
	<line id="XMLID_175_" class="st3" x1="1012.9" y1="-16.4" x2="-321.7" y2="-16.4"/>
</g>
<g id="Capa_4_1_">
	<line id="XMLID_42_" class="st3" x1="994.8" y1="-20.9" x2="978.1" y2="-20.9"/>
	<line id="XMLID_41_" class="st3" x1="994.8" y1="-25.4" x2="978.1" y2="-25.4"/>
	<line id="XMLID_40_" class="st3" x1="994.8" y1="-29.9" x2="978.1" y2="-29.9"/>
</g>
<g id="Capa_7">
	<line id="XMLID_188_" class="st3" x1="1029.4" y1="-2.9" x2="1046.1" y2="-2.9"/>
	<line id="XMLID_187_" class="st3" x1="1029.4" y1="-7.4" x2="1046.1" y2="-7.4"/>
	<line id="XMLID_186_" class="st3" x1="1029.4" y1="-11.9" x2="1046.1" y2="-11.9"/>
	<line id="XMLID_185_" class="st3" x1="1029.4" y1="-16.4" x2="1046.1" y2="-16.4"/>
</g>
<g id="Capa_8_1_">
	<line id="XMLID_16_" class="st3" x1="1054.4" y1="-2.9" x2="1091.8" y2="-2.9"/>
	<line id="XMLID_15_" class="st3" x1="1054.5" y1="-7.4" x2="1091.8" y2="-7.4"/>
	<line id="XMLID_14_" class="st3" x1="1056" y1="-11.9" x2="1091.8" y2="-11.9"/>
	<line id="XMLID_12_" class="st3" x1="1062.3" y1="-16.4" x2="1091.8" y2="-16.4"/>
	<g id="XMLID_10_">
	</g>
	<g id="XMLID_9_">
	</g>
	<g id="XMLID_8_">
	</g>
	<g id="XMLID_7_">
	</g>
	<g id="XMLID_6_">
	</g>
	<g id="XMLID_3_">
	</g>
</g>
<g id="Capa_8_2_">
	<line id="XMLID_26_" class="st3" x1="1101.7" y1="-2.9" x2="1129.2" y2="-2.9"/>
	<line id="XMLID_25_" class="st3" x1="1101.7" y1="-7.4" x2="1129.2" y2="-7.4"/>
	<line id="XMLID_24_" class="st3" x1="1101.7" y1="-11.9" x2="1129.2" y2="-11.9"/>
	<line id="XMLID_23_" class="st3" x1="1101.7" y1="-16.4" x2="1129.2" y2="-16.4"/>
	<g id="XMLID_22_">
	</g>
	<g id="XMLID_21_">
	</g>
	<g id="XMLID_20_">
	</g>
	<g id="XMLID_19_">
	</g>
	<g id="XMLID_18_">
	</g>
	<g id="XMLID_17_">
	</g>
</g>
<g id="Capa_8_4_">
	<line id="XMLID_51_" class="st3" x1="1101.7" y1="-20.9" x2="1118.5" y2="-20.9"/>
	<line id="XMLID_50_" class="st3" x1="1101.7" y1="-25.4" x2="1118.5" y2="-25.4"/>
	<line id="XMLID_49_" class="st3" x1="1101.7" y1="-29.9" x2="1118.5" y2="-29.9"/>
	<g id="XMLID_48_">
	</g>
	<g id="XMLID_47_">
	</g>
	<g id="XMLID_46_">
	</g>
	<g id="XMLID_45_">
	</g>
	<g id="XMLID_44_">
	</g>
	<g id="XMLID_43_">
	</g>
</g>
<g id="Capa_8">
	<line id="XMLID_192_" class="st3" x1="1136.8" y1="-2.9" x2="1181.4" y2="-2.9"/>
	<line id="XMLID_191_" class="st3" x1="1136.8" y1="-7.4" x2="1181.4" y2="-7.4"/>
	<line id="XMLID_190_" class="st3" x1="1138.5" y1="-11.9" x2="1179.7" y2="-11.9"/>
	<line id="XMLID_189_" class="st3" x1="1144.8" y1="-16.4" x2="1173" y2="-16.4"/>
	<g id="XMLID_2_">
	</g>
	<g id="XMLID_226_">
	</g>
	<g id="XMLID_227_">
	</g>
	<g id="XMLID_228_">
	</g>
	<g id="XMLID_229_">
	</g>
	<g id="XMLID_230_">
	</g>
</g>
<g id="Capa_8_3_">
	<line id="XMLID_36_" class="st3" x1="1191.4" y1="-2.9" x2="1218.8" y2="-2.9"/>
	<line id="XMLID_35_" class="st3" x1="1191.4" y1="-7.4" x2="1218.8" y2="-7.4"/>
	<line id="XMLID_34_" class="st3" x1="1193.3" y1="-11.9" x2="1218.8" y2="-11.9"/>
	<line id="XMLID_33_" class="st3" x1="1199.3" y1="-16.4" x2="1218.8" y2="-16.4"/>
	<g id="XMLID_32_">
	</g>
	<g id="XMLID_31_">
	</g>
	<g id="XMLID_30_">
	</g>
	<g id="XMLID_29_">
	</g>
	<g id="XMLID_28_">
	</g>
	<g id="XMLID_27_">
	</g>
</g>
<g id="Capa_8_5_">
	<line id="XMLID_58_" class="st3" x1="1226.4" y1="-2.9" x2="1243.2" y2="-2.9"/>
	<line id="XMLID_57_" class="st3" x1="1226.4" y1="-7.4" x2="1243.2" y2="-7.4"/>
	<line id="XMLID_56_" class="st3" x1="1226.4" y1="-11.9" x2="1243.2" y2="-11.9"/>
	<line id="XMLID_55_" class="st3" x1="1226.4" y1="-16.4" x2="1243.2" y2="-16.4"/>
	<g id="XMLID_54_">
	</g>
	<g id="XMLID_53_">
	</g>
	<g id="XMLID_52_">
	</g>
	<g id="XMLID_39_">
	</g>
	<g id="XMLID_38_">
	</g>
	<g id="XMLID_37_">
	</g>
</g>
<g id="Capa_8_6_">
	<line id="XMLID_68_" class="st3" x1="1250.8" y1="-2.9" x2="1293.8" y2="-2.9"/>
	<line id="XMLID_67_" class="st3" x1="1250.8" y1="-7.4" x2="1293.8" y2="-7.4"/>
	<line id="XMLID_66_" class="st3" x1="1252.5" y1="-11.9" x2="1293.8" y2="-11.9"/>
	<line id="XMLID_65_" class="st3" x1="1259.1" y1="-16.4" x2="1293.8" y2="-16.4"/>
	<g id="XMLID_64_">
	</g>
	<g id="XMLID_63_">
	</g>
	<g id="XMLID_62_">
	</g>
	<g id="XMLID_61_">
	</g>
	<g id="XMLID_60_">
	</g>
	<g id="XMLID_59_">
	</g>
</g>
<g id="Capa_8_7_">
	<line id="XMLID_78_" class="st3" x1="1301.6" y1="-2.9" x2="1318.3" y2="-2.9"/>
	<line id="XMLID_77_" class="st3" x1="1301.6" y1="-7.4" x2="1318.3" y2="-7.4"/>
	<line id="XMLID_76_" class="st3" x1="1301.6" y1="-11.9" x2="1318.3" y2="-11.9"/>
	<line id="XMLID_75_" class="st3" x1="1301.6" y1="-16.4" x2="1318.3" y2="-16.4"/>
	<g id="XMLID_74_">
	</g>
	<g id="XMLID_73_">
	</g>
	<g id="XMLID_72_">
	</g>
	<g id="XMLID_71_">
	</g>
	<g id="XMLID_70_">
	</g>
	<g id="XMLID_69_">
	</g>
</g>
<g id="Capa_8_8_">
	<line id="XMLID_88_" class="st3" x1="1329.6" y1="-2.9" x2="1346.3" y2="-2.9"/>
	<line id="XMLID_87_" class="st3" x1="1329.6" y1="-7.4" x2="1346.3" y2="-7.4"/>
	<line id="XMLID_86_" class="st3" x1="1329.6" y1="-11.9" x2="1346.3" y2="-11.9"/>
	<line id="XMLID_85_" class="st3" x1="1329.6" y1="-16.4" x2="1346.3" y2="-16.4"/>
	<g id="XMLID_84_">
	</g>
	<g id="XMLID_83_">
	</g>
	<g id="XMLID_82_">
	</g>
	<g id="XMLID_81_">
	</g>
	<g id="XMLID_80_">
	</g>
	<g id="XMLID_79_">
	</g>
</g>
<g id="Capa_6">
	<line id="XMLID_180_" class="st3" x1="1354" y1="-2.9" x2="1478.3" y2="-2.9"/>
	<line id="XMLID_179_" class="st3" x1="1354" y1="-7.4" x2="1478.3" y2="-7.4"/>
	<line id="XMLID_178_" class="st3" x1="1355.7" y1="-11.9" x2="1478.3" y2="-11.9"/>
	<line id="XMLID_177_" class="st3" x1="1362.6" y1="-16.4" x2="1478.3" y2="-16.4"/>
</g>
<g id="XMLID_4_">
	<defs>
		<rect id="XMLID_169_" x="915" y="0.7" width="486.3" height="64.5"/>
	</defs>
	<clipPath id="XMLID_90_">
		<use xlink:href="#XMLID_169_"  style="overflow:visible;"/>
	</clipPath>
	<g id="XMLID_5_" class="st4">
		<path class="st2" d="M978.1-28.6h16.7v1h-16.7V-28.6z M978.1-26.4h16.7v1h-16.7V-26.4z M978.1-24.1h16.7v1h-16.7V-24.1z
			 M978.1-21.9h16.7v1h-16.7V-21.9z M978.1-19.5h16.7v1h-16.7V-19.5z M978.1-17.2h32.4c0.8,0,1.5,0,2.2,0.1c0.7,0.1,1.6,0.4,2.7,0.8
			h-37.3V-17.2z M978.1-15h39.4c0.1,0.1,0.3,0.3,0.5,0.5c0.2,0.2,0.4,0.4,0.5,0.5h-40.5V-15z M1019.8-12.6c0.1,0.1,0.2,0.2,0.3,0.5
			c0.1,0.3,0.2,0.4,0.3,0.5h-42.2v-1H1019.8z M1020.9-10.4c0.1,0.1,0.1,0.2,0.2,0.5c0.1,0.3,0.1,0.4,0.1,0.5h-43.1v-1H1020.9z
			 M1021.6-8.2l0.1,1h-43.6v-1H1021.6z M1021.8-5.8v1h-43.7v-1H1021.8z M1021.8-3.5v1h-43.7v-1H1021.8z M1021.8-1.1v1h-43.7v-1
			H1021.8z M978.1,3.8h16.7v31.3h-16.7V3.8z M1005.1,3.8h16.7v31.3h-16.7V3.8z"/>
		<path class="st2" d="M1046.1-17.2v1h-16.7v-1H1046.1z M1046.1-14.9v1h-16.7v-1H1046.1z M1046.1-12.7v1h-16.7v-1H1046.1z
			 M1046.1-10.4v1h-16.7v-1H1046.1z M1046.1-8.2v1h-16.7v-1H1046.1z M1046.1-5.8v1h-16.7v-1H1046.1z M1046.1-3.5v1h-16.7v-1H1046.1z
			 M1046.1-1.1v1h-16.7v-1H1046.1z M1029.3,3.8h16.7v31.3h-16.7V3.8z"/>
		<path class="st2" d="M1058.4,3.9h23l9.2,9.9c1.3,1.3,2.2,2.7,2.7,4.2c0.5,1.4,0.8,3,0.8,4.7c0,3.6-1.2,6.5-3.6,8.9
			c-2.4,2.4-5.9,3.5-10.5,3.5h-26.3V17.8h17.9L1058.4,3.9z M1054.2-5.8h37.5v1h-37.5V-5.8z M1054.4-8.2h37.3v1h-37.4L1054.4-8.2z
			 M1054.4-3.5h37.3v1h-37.3L1054.4-3.5z M1054.7-9.5c0-0.1,0.1-0.2,0.2-0.5c0.1-0.3,0.2-0.4,0.2-0.5h36.7v1H1054.7z M1055.3-0.1
			c-0.1-0.1-0.1-0.2-0.2-0.4c-0.1-0.2-0.1-0.4-0.2-0.5h36.8v1H1055.3z M1055.5-11.7c0.1-0.1,0.2-0.2,0.3-0.5
			c0.1-0.3,0.2-0.4,0.3-0.5h35.6v1H1055.5z M1091.7-15v1h-34.5c0.1-0.1,0.3-0.3,0.5-0.5c0.2-0.2,0.4-0.3,0.5-0.5H1091.7z
			 M1091.7-17.2v1h-31.2c1.1-0.4,2-0.7,2.7-0.8c0.7-0.1,1.5-0.1,2.2-0.1H1091.7z"/>
		<path class="st2" d="M1101.7-28.6h16.7v1h-16.7V-28.6z M1101.7-26.4h16.7v1h-16.7V-26.4z M1101.7-24.1h16.7v1h-16.7V-24.1z
			 M1101.7-21.9h16.7v1h-16.7V-21.9z M1101.7-19.5h16.7v1h-16.7V-19.5z M1129.2-17.2v1h-27.4v-1H1129.2z M1129.2-14.9v1h-27.4v-1
			H1129.2z M1129.2-12.7v1h-27.4v-1H1129.2z M1129.2-10.4v1h-27.4v-1H1129.2z M1129.2-8.2v1h-27.4v-1H1129.2z M1129.2-5.8v1h-27.4
			v-1H1129.2z M1129.2-3.5v1h-27.4v-1H1129.2z M1129.2-1.1v1h-27.4v-1H1129.2z M1101.7,3.9h16.7V12c0,2,0.4,3.5,1.1,4.4
			c0.7,0.9,2.2,1.4,4.4,1.4h5.2v17.3h-14.4c-1.7,0-3.4-0.3-4.9-0.9c-1.6-0.6-2.9-1.4-4.2-2.6c-1.2-1.1-2.2-2.6-2.9-4.3
			c-0.7-1.7-1.1-3.7-1.1-6V3.9z"/>
		<path class="st2" d="M1181.5-7.2h-44.7c0-0.1,0-0.2,0.1-0.5c0.1-0.3,0.1-0.4,0.1-0.5h44.4L1181.5-7.2z M1181.5-4.8h-44.7v-1h44.7
			V-4.8z M1181.5-2.5h-44.7v-1h44.7V-2.5z M1181.5-0.1h-44.7v-1h44.7V-0.1z M1181.5,3.7v18.1c0,2-0.3,3.8-1,5.4
			c-0.7,1.6-1.6,3-2.8,4.2c-1.2,1.1-2.6,2-4.2,2.7c-1.6,0.6-3.4,1-5.2,1h-18.2c-1.8,0-3.6-0.3-5.2-1c-1.6-0.6-3-1.5-4.3-2.7
			c-1.2-1.1-2.1-2.5-2.8-4.2c-0.7-1.6-1-3.4-1-5.4V3.7h16.7v8.4c0,3.8,1.6,5.6,4.8,5.6h1.8c1.8,0,3.1-0.5,3.7-1.6
			c0.6-1.1,1-2.4,1-4.1V3.7H1181.5z M1180.7-10.4c0.1,0.1,0.1,0.2,0.2,0.5c0.1,0.3,0.1,0.4,0.1,0.5h-43.8c0-0.1,0-0.2,0.1-0.5
			c0.1-0.3,0.1-0.4,0.2-0.5H1180.7z M1179.7-12.6c0.1,0.1,0.2,0.2,0.3,0.5c0.1,0.3,0.2,0.4,0.3,0.5h-42.1c0.1-0.1,0.2-0.2,0.3-0.5
			c0.1-0.3,0.2-0.4,0.3-0.5H1179.7z M1177.5-15c0.1,0.1,0.3,0.3,0.5,0.5c0.2,0.2,0.4,0.4,0.5,0.5h-38.7c0.1-0.1,0.3-0.3,0.5-0.5
			c0.2-0.2,0.4-0.3,0.5-0.5H1177.5z M1171.1-17.2c0.8,0,1.6,0.1,2.3,0.3c0.7,0.2,1.3,0.4,1.9,0.7H1143c0.6-0.3,1.2-0.5,2-0.7
			c0.7-0.2,1.5-0.3,2.3-0.3H1171.1z"/>
		<path class="st2" d="M1191.4-5.8h27.3v1h-27.3V-5.8z M1191.4-3.5h27.3v1h-27.3V-3.5z M1191.4-1.1h27.3v1h-27.3V-1.1z M1191.4,3.9
			h16.7v31.2h-16.7V3.9z M1191.5-7.2c0-0.1,0-0.2,0.1-0.5c0.1-0.3,0.1-0.4,0.1-0.5h27v1H1191.5z M1192-9.5c0-0.1,0-0.2,0.1-0.5
			c0.1-0.3,0.1-0.4,0.2-0.5h26.5v1H1192z M1192.9-11.7c0.1-0.1,0.2-0.2,0.3-0.5c0.1-0.3,0.2-0.4,0.3-0.5h25.3v1H1192.9z M1218.7-15
			v1h-24.2c0.1-0.1,0.3-0.3,0.5-0.5c0.2-0.2,0.4-0.3,0.5-0.5H1218.7z M1218.7-17.2v1h-21c1.1-0.4,2-0.7,2.8-0.8
			c0.8-0.1,1.5-0.1,2.3-0.1H1218.7z"/>
		<path class="st2" d="M1243.1-17.2v1h-16.7v-1H1243.1z M1243.1-14.9v1h-16.7v-1H1243.1z M1243.1-12.7v1h-16.7v-1H1243.1z
			 M1243.1-10.4v1h-16.7v-1H1243.1z M1243.1-8.2v1h-16.7v-1H1243.1z M1243.1-5.8v1h-16.7v-1H1243.1z M1243.1-3.5v1h-16.7v-1H1243.1z
			 M1243.1-1.1v1h-16.7v-1H1243.1z M1226.4,3.8h16.7v31.3h-16.7V3.8z"/>
		<path class="st2" d="M1250.7-7.2c0-0.1,0-0.2,0.1-0.5c0.1-0.3,0.1-0.4,0.1-0.5h43v1H1250.7z M1250.7-5.8h43.2v1h-43.2V-5.8z
			 M1250.7-3.5h43.2v1h-43.2V-3.5z M1250.7-1.1h43.2v1h-43.2V-1.1z M1250.7,3.7h16.1v8.4c0,3.8,1.9,5.6,5.6,5.6h4.7v-14h16.7v48.8
			h-16.7V35H1264c-1.8,0-3.6-0.3-5.2-1c-1.6-0.6-3-1.5-4.3-2.7c-1.2-1.1-2.1-2.5-2.8-4.2c-0.7-1.6-1-3.4-1-5.4V3.7z M1251.2-9.5
			c0-0.1,0-0.2,0.1-0.5c0.1-0.3,0.1-0.4,0.2-0.5h42.4v1H1251.2z M1252.1-11.7c0.1-0.1,0.2-0.2,0.3-0.5c0.1-0.3,0.2-0.4,0.3-0.5h41.3
			v1H1252.1z M1293.9-15v1h-40.1c0.1-0.1,0.3-0.3,0.5-0.5c0.2-0.2,0.4-0.3,0.5-0.5H1293.9z M1293.9-17.2v1h-37
			c1.1-0.4,2-0.7,2.8-0.8c0.8-0.1,1.5-0.1,2.3-0.1H1293.9z"/>
		<path class="st2" d="M1318.3-17.2v1h-16.7v-1H1318.3z M1318.3-14.9v1h-16.7v-1H1318.3z M1318.3-12.7v1h-16.7v-1H1318.3z
			 M1318.3-10.4v1h-16.7v-1H1318.3z M1318.3-8.2v1h-16.7v-1H1318.3z M1318.3-5.8v1h-16.7v-1H1318.3z M1318.3-3.5v1h-16.7v-1H1318.3z
			 M1318.3-1.1v1h-16.7v-1H1318.3z M1346.3,3.7v18.1c0,2-0.3,3.8-1,5.4c-0.7,1.6-1.6,3-2.8,4.2c-1.2,1.1-2.6,2-4.2,2.7
			c-1.6,0.6-3.4,1-5.2,1h-18.2c-1.8,0-3.6-0.3-5.2-1c-1.6-0.6-3-1.5-4.3-2.7c-1.2-1.1-2.1-2.5-2.8-4.2c-0.7-1.6-1-3.4-1-5.4V3.7
			h16.7v8.4c0,3.8,1.6,5.6,4.8,5.6h1.8c1.8,0,3.1-0.5,3.7-1.6c0.6-1.1,1-2.4,1-4.1V3.7H1346.3z M1346.3-17.2v1h-16.7v-1H1346.3z
			 M1346.3-14.9v1h-16.7v-1H1346.3z M1346.3-12.7v1h-16.7v-1H1346.3z M1346.3-10.4v1h-16.7v-1H1346.3z M1346.3-8.2v1h-16.7v-1
			H1346.3z M1346.3-5.8v1h-16.7v-1H1346.3z M1346.3-3.5v1h-16.7v-1H1346.3z M1346.3-1.1v1h-16.7v-1H1346.3z"/>
		<path class="st2" d="M1354-7.2c0-0.1,0-0.2,0.1-0.5c0.1-0.3,0.1-0.4,0.1-0.5h41.5v1H1354z M1354-5.8h41.6v1H1354V-5.8z M1354-3.5
			h41.6v1H1354V-3.5z M1354-1.1h41.6v1H1354V-1.1z M1395.6,35.1h-28.4c-1.8,0-3.6-0.3-5.2-1c-1.6-0.6-3-1.5-4.3-2.7
			c-1.2-1.2-2.1-2.6-2.8-4.2c-0.7-1.6-1-3.4-1-5.4V4.5h36.1v8.8h-19c0,1.5,0.2,2.6,0.7,3.4c0.4,0.8,1.6,1.2,3.4,1.2h20.4V35.1z
			 M1354.5-9.5c0-0.1,0-0.2,0.1-0.5c0.1-0.3,0.1-0.4,0.2-0.5h40.9v1H1354.5z M1355.3-11.7c0.1-0.1,0.2-0.2,0.3-0.5
			c0.1-0.3,0.2-0.4,0.3-0.5h39.7v1H1355.3z M1395.6-15v1h-38.6c0.1-0.1,0.3-0.3,0.5-0.5c0.2-0.2,0.4-0.3,0.5-0.5H1395.6z
			 M1395.6-17.2v1h-35.4c0.9-0.4,1.7-0.6,2.5-0.8c0.8-0.1,1.6-0.2,2.5-0.2H1395.6z"/>
	</g>
</g>
</svg>
