<?xml version="1.0" encoding="utf-8"?>
<!-- Generator: Adobe Illustrator 19.0.0, SVG Export Plug-In . SVG Version: 6.00 Build 0)  -->
<svg version="1.1" id="Capa_1" xmlns="http://www.w3.org/2000/svg" xmlns:xlink="http://www.w3.org/1999/xlink" x="0px" y="0px"
	 viewBox="-321.7 -31.8 1800 84.8" style="enable-background:new -321.7 -31.8 1800 84.8;" xml:space="preserve">
<style type="text/css">
	.st0{display:none;}
	.st1{display:inline;fill:#161616;}
	.st2{fill:#FBBF24;}
	.st3{fill:none;stroke:#FBBF24;stroke-width:1.6;stroke-miterlimit:10;}
	.st4{clip-path:url(#XMLID_77_);}
</style>
<g id="Capa_5" class="st0">
	<rect id="XMLID_171_" x="-377.4" y="-127.2" class="st1" width="1970.8" height="316.5"/>
</g>
<g id="Capa_3">
	<rect id="XMLID_11_" x="1377.6" y="3.9" class="st2" width="100.7" height="31.2"/>
	<rect id="XMLID_13_" x="-321.7" y="3.9" class="st2" width="1348.9" height="31.2"/>
</g>
<g id="Capa_4">
	<line id="XMLID_1_" class="st3" x1="1049.8" y1="-2.9" x2="-321.7" y2="-2.9"/>
	<line id="XMLID_172_" class="st3" x1="1049.8" y1="-7.4" x2="-321.7" y2="-7.4"/>
	<line id="XMLID_173_" class="st3" x1="1049.8" y1="-11.9" x2="-321.7" y2="-11.9"/>
	<line id="XMLID_175_" class="st3" x1="1049.8" y1="-16.4" x2="-321.7" y2="-16.4"/>
</g>
<g id="Capa_7">
	<line id="XMLID_188_" class="st3" x1="1057.6" y1="-2.9" x2="1098.8" y2="-2.9"/>
	<line id="XMLID_187_" class="st3" x1="1057.8" y1="-7.4" x2="1098.8" y2="-7.4"/>
	<line id="XMLID_186_" class="st3" x1="1059.3" y1="-11.9" x2="1098.8" y2="-11.9"/>
	<line id="XMLID_185_" class="st3" x1="1065.1" y1="-16.4" x2="1098.8" y2="-16.4"/>
</g>
<g id="Capa_7_1_">
	<line id="XMLID_75_" class="st3" x1="1266.6" y1="-2.9" x2="1312.4" y2="-2.9"/>
	<line id="XMLID_74_" class="st3" x1="1266.8" y1="-7.4" x2="1312.4" y2="-7.4"/>
	<line id="XMLID_73_" class="st3" x1="1268.3" y1="-11.9" x2="1312.4" y2="-11.9"/>
	<line id="XMLID_72_" class="st3" x1="1274.1" y1="-16.4" x2="1312.4" y2="-16.4"/>
</g>
<g id="Capa_8_1_">
	<line id="XMLID_16_" class="st3" x1="1107.3" y1="-2.9" x2="1144.5" y2="-2.9"/>
	<line id="XMLID_15_" class="st3" x1="1107.4" y1="-7.4" x2="1144.5" y2="-7.4"/>
	<line id="XMLID_14_" class="st3" x1="1108.8" y1="-11.9" x2="1144.5" y2="-11.9"/>
	<line id="XMLID_12_" class="st3" x1="1115.1" y1="-16.4" x2="1144.5" y2="-16.4"/>
	<g id="XMLID_10_">
	</g>
	<g id="XMLID_9_">
	</g>
	<g id="XMLID_8_">
	</g>
	<g id="XMLID_7_">
	</g>
	<g id="XMLID_6_">
	</g>
	<g id="XMLID_3_">
	</g>
</g>
<g id="Capa_8_2_">
	<line id="XMLID_26_" class="st3" x1="1154.6" y1="-2.9" x2="1171.2" y2="-2.9"/>
	<line id="XMLID_25_" class="st3" x1="1154.6" y1="-7.4" x2="1171.2" y2="-7.4"/>
	<line id="XMLID_24_" class="st3" x1="1154.6" y1="-11.9" x2="1171.2" y2="-11.9"/>
	<line id="XMLID_23_" class="st3" x1="1154.6" y1="-16.4" x2="1171.2" y2="-16.4"/>
	<g id="XMLID_22_">
	</g>
	<g id="XMLID_21_">
	</g>
	<g id="XMLID_20_">
	</g>
	<g id="XMLID_19_">
	</g>
	<g id="XMLID_18_">
	</g>
	<g id="XMLID_17_">
	</g>
</g>
<g id="Capa_8_4_">
	<line id="XMLID_49_" class="st3" x1="1182.6" y1="-2.9" x2="1199.2" y2="-2.9"/>
	<line id="XMLID_48_" class="st3" x1="1182.6" y1="-7.4" x2="1199.2" y2="-7.4"/>
	<line id="XMLID_47_" class="st3" x1="1182.6" y1="-11.9" x2="1199.2" y2="-11.9"/>
	<line id="XMLID_46_" class="st3" x1="1182.6" y1="-16.4" x2="1199.2" y2="-16.4"/>
	<g id="XMLID_45_">
	</g>
	<g id="XMLID_44_">
	</g>
	<g id="XMLID_43_">
	</g>
	<g id="XMLID_42_">
	</g>
	<g id="XMLID_41_">
	</g>
	<g id="XMLID_40_">
	</g>
</g>
<g id="Capa_8">
	<line id="XMLID_192_" class="st3" x1="1207.1" y1="-2.9" x2="1223.6" y2="-2.9"/>
	<line id="XMLID_191_" class="st3" x1="1207.1" y1="-7.4" x2="1223.6" y2="-7.4"/>
	<line id="XMLID_190_" class="st3" x1="1207" y1="-11.9" x2="1223.6" y2="-11.9"/>
	<line id="XMLID_189_" class="st3" x1="1207.1" y1="-16.4" x2="1223.6" y2="-16.4"/>
	<g id="XMLID_2_">
	</g>
	<g id="XMLID_226_">
	</g>
	<g id="XMLID_227_">
	</g>
	<g id="XMLID_228_">
	</g>
	<g id="XMLID_229_">
	</g>
	<g id="XMLID_230_">
	</g>
</g>
<g id="Capa_8_5_">
	<line id="XMLID_58_" class="st3" x1="1207.1" y1="-20.9" x2="1223.6" y2="-20.9"/>
	<line id="XMLID_57_" class="st3" x1="1207" y1="-25.4" x2="1223.6" y2="-25.4"/>
	<line id="XMLID_56_" class="st3" x1="1207.1" y1="-29.9" x2="1223.6" y2="-29.9"/>
	<g id="XMLID_55_">
	</g>
	<g id="XMLID_54_">
	</g>
	<g id="XMLID_53_">
	</g>
	<g id="XMLID_52_">
	</g>
	<g id="XMLID_51_">
	</g>
	<g id="XMLID_50_">
	</g>
</g>
<g id="Capa_8_3_">
	<line id="XMLID_36_" class="st3" x1="1231.4" y1="-2.9" x2="1258.7" y2="-2.9"/>
	<line id="XMLID_35_" class="st3" x1="1231.4" y1="-7.4" x2="1258.7" y2="-7.4"/>
	<line id="XMLID_34_" class="st3" x1="1231.4" y1="-11.9" x2="1258.7" y2="-11.9"/>
	<line id="XMLID_33_" class="st3" x1="1231.4" y1="-16.4" x2="1258.7" y2="-16.4"/>
	<line id="XMLID_37_" class="st3" x1="1231.4" y1="-20.8" x2="1248" y2="-20.8"/>
	<line id="XMLID_38_" class="st3" x1="1231.4" y1="-25.4" x2="1248" y2="-25.4"/>
	<line id="XMLID_39_" class="st3" x1="1231.4" y1="-29.7" x2="1248" y2="-29.7"/>
	<g id="XMLID_32_">
	</g>
	<g id="XMLID_31_">
	</g>
	<g id="XMLID_30_">
	</g>
	<g id="XMLID_29_">
	</g>
	<g id="XMLID_28_">
	</g>
	<g id="XMLID_27_">
	</g>
</g>
<g id="Capa_8_6_">
	<line id="XMLID_71_" class="st3" x1="1320" y1="-2.9" x2="1347.4" y2="-2.9"/>
	<line id="XMLID_70_" class="st3" x1="1320" y1="-7.4" x2="1347.4" y2="-7.4"/>
	<line id="XMLID_69_" class="st3" x1="1320" y1="-11.9" x2="1347.4" y2="-11.9"/>
	<line id="XMLID_68_" class="st3" x1="1320" y1="-16.4" x2="1347.4" y2="-16.4"/>
	<line id="XMLID_67_" class="st3" x1="1320" y1="-20.8" x2="1336.7" y2="-20.8"/>
	<line id="XMLID_66_" class="st3" x1="1320" y1="-25.4" x2="1336.7" y2="-25.4"/>
	<line id="XMLID_65_" class="st3" x1="1320" y1="-29.7" x2="1336.7" y2="-29.7"/>
	<g id="XMLID_64_">
	</g>
	<g id="XMLID_63_">
	</g>
	<g id="XMLID_62_">
	</g>
	<g id="XMLID_61_">
	</g>
	<g id="XMLID_60_">
	</g>
	<g id="XMLID_59_">
	</g>
</g>
<g id="Capa_6">
	<line id="XMLID_180_" class="st3" x1="1356.1" y1="-2.9" x2="1478.3" y2="-2.9"/>
	<line id="XMLID_179_" class="st3" x1="1355.8" y1="-7.4" x2="1478.3" y2="-7.4"/>
	<line id="XMLID_178_" class="st3" x1="1357.5" y1="-11.9" x2="1478.3" y2="-11.9"/>
	<line id="XMLID_177_" class="st3" x1="1363.2" y1="-16.4" x2="1478.3" y2="-16.4"/>
</g>
<g id="XMLID_4_">
	<defs>
		<rect id="XMLID_169_" x="995.5" y="0.9" width="405.8" height="64.4"/>
	</defs>
	<clipPath id="XMLID_77_">
		<use xlink:href="#XMLID_169_"  style="overflow:visible;"/>
	</clipPath>
	<g id="XMLID_5_" class="st4">
		<path class="st2" d="M1022.5-5.8h27.3v1h-27.3V-5.8z M1022.5-3.5h27.3v1h-27.3V-3.5z M1022.5-1.1h27.3v1h-27.3V-1.1z M1022.5,3.9
			h16.7v31.2h-16.7V3.9z M1022.6-7.2c0-0.1,0-0.2,0.1-0.5c0.1-0.3,0.1-0.4,0.1-0.5h27v1H1022.6z M1023-9.5c0-0.1,0-0.2,0.1-0.5
			c0.1-0.3,0.1-0.4,0.2-0.5h26.5v1H1023z M1023.9-11.7c0.1-0.1,0.2-0.2,0.3-0.5c0.1-0.3,0.2-0.4,0.3-0.5h25.3v1H1023.9z M1049.8-15
			v1h-24.2c0.1-0.1,0.3-0.3,0.5-0.5c0.2-0.2,0.4-0.3,0.5-0.5H1049.8z M1049.8-17.2v1h-21c1.1-0.4,2-0.7,2.8-0.8
			c0.8-0.1,1.5-0.1,2.3-0.1H1049.8z"/>
		<path class="st2" d="M1057.4-7.2c0-0.1,0-0.2,0.1-0.5c0.1-0.3,0.1-0.4,0.1-0.5h41.5v1H1057.4z M1057.4-5.8h41.6v1h-41.6V-5.8z
			 M1057.4-3.5h41.6v1h-41.6V-3.5z M1057.4-1.1h41.6v1h-41.6V-1.1z M1099.1,35.1h-28.4c-1.8,0-3.6-0.3-5.2-1c-1.6-0.6-3-1.5-4.3-2.7
			c-1.2-1.2-2.1-2.6-2.8-4.2c-0.7-1.6-1-3.4-1-5.4V4.5h36.1v8.8h-19c0,1.5,0.2,2.6,0.7,3.4c0.4,0.8,1.6,1.2,3.4,1.2h20.4V35.1z
			 M1057.9-9.5c0-0.1,0-0.2,0.1-0.5c0.1-0.3,0.1-0.4,0.2-0.5h40.9v1H1057.9z M1058.8-11.7c0.1-0.1,0.2-0.2,0.3-0.5
			c0.1-0.3,0.2-0.4,0.3-0.5h39.7v1H1058.8z M1099.1-15v1h-38.6c0.1-0.1,0.3-0.3,0.5-0.5c0.2-0.2,0.4-0.3,0.5-0.5H1099.1z
			 M1099.1-17.2v1h-35.4c0.9-0.4,1.7-0.6,2.5-0.8c0.8-0.1,1.6-0.2,2.5-0.2H1099.1z"/>
		<path class="st2" d="M1111.3,3.9h23l9.2,9.9c1.3,1.3,2.2,2.7,2.7,4.2c0.5,1.4,0.8,3,0.8,4.7c0,3.6-1.2,6.5-3.6,8.9
			c-2.4,2.4-5.9,3.5-10.5,3.5h-26.3V17.8h17.9L1111.3,3.9z M1107.1-5.8h37.5v1h-37.5V-5.8z M1107.3-8.2h37.3v1h-37.4L1107.3-8.2z
			 M1107.3-3.5h37.3v1h-37.3L1107.3-3.5z M1107.6-9.5c0-0.1,0.1-0.2,0.2-0.5c0.1-0.3,0.2-0.4,0.2-0.5h36.7v1H1107.6z M1108.2-0.1
			c-0.1-0.1-0.1-0.2-0.2-0.4c-0.1-0.2-0.1-0.4-0.2-0.5h36.8v1H1108.2z M1108.4-11.7c0.1-0.1,0.2-0.2,0.3-0.5
			c0.1-0.3,0.2-0.4,0.3-0.5h35.6v1H1108.4z M1144.6-15v1h-34.5c0.1-0.1,0.3-0.3,0.5-0.5c0.2-0.2,0.4-0.3,0.5-0.5H1144.6z
			 M1144.6-17.2v1h-31.2c1.1-0.4,2-0.7,2.7-0.8c0.7-0.1,1.5-0.1,2.2-0.1H1144.6z"/>
		<path class="st2" d="M1171.4-17.2v1h-16.7v-1H1171.4z M1171.4-14.9v1h-16.7v-1H1171.4z M1171.4-12.7v1h-16.7v-1H1171.4z
			 M1171.4-10.4v1h-16.7v-1H1171.4z M1171.4-8.2v1h-16.7v-1H1171.4z M1171.4-5.8v1h-16.7v-1H1171.4z M1171.4-3.5v1h-16.7v-1H1171.4z
			 M1171.4-1.1v1h-16.7v-1H1171.4z M1199.4,3.7v18.1c0,2-0.3,3.8-1,5.4c-0.7,1.6-1.6,3-2.8,4.2c-1.2,1.1-2.6,2-4.2,2.7
			c-1.6,0.6-3.4,1-5.2,1h-18.2c-1.8,0-3.6-0.3-5.2-1c-1.6-0.6-3-1.5-4.3-2.7c-1.2-1.1-2.1-2.5-2.8-4.2c-0.7-1.6-1-3.4-1-5.4V3.7
			h16.7v8.4c0,3.8,1.6,5.6,4.8,5.6h1.8c1.8,0,3.1-0.5,3.7-1.6c0.6-1.1,1-2.4,1-4.1V3.7H1199.4z M1199.4-17.2v1h-16.7v-1H1199.4z
			 M1199.4-14.9v1h-16.7v-1H1199.4z M1199.4-12.7v1h-16.7v-1H1199.4z M1199.4-10.4v1h-16.7v-1H1199.4z M1199.4-8.2v1h-16.7v-1
			H1199.4z M1199.4-5.8v1h-16.7v-1H1199.4z M1199.4-3.5v1h-16.7v-1H1199.4z M1199.4-1.1v1h-16.7v-1H1199.4z"/>
		<path class="st2" d="M1207.1-28.6h16.7v1h-16.7V-28.6z M1207.1-26.4h16.7v1h-16.7V-26.4z M1207.1-24.1h16.7v1h-16.7V-24.1z
			 M1207.1-21.9h16.7v1h-16.7V-21.9z M1207.1-19.5h16.7v1h-16.7V-19.5z M1223.8-17.2v1h-16.7v-1H1223.8z M1223.8-14.9v1h-16.7v-1
			H1223.8z M1223.8-12.7v1h-16.7v-1H1223.8z M1223.8-10.4v1h-16.7v-1H1223.8z M1223.8-8.2v1h-16.7v-1H1223.8z M1223.8-5.8v1h-16.7
			v-1H1223.8z M1223.8-3.5v1h-16.7v-1H1223.8z M1223.8-1.1v1h-16.7v-1H1223.8z M1207.1,3.8h16.7v31.3h-16.7V3.8z"/>
		<path class="st2" d="M1231.5-28.6h16.7v1h-16.7V-28.6z M1231.5-26.4h16.7v1h-16.7V-26.4z M1231.5-24.1h16.7v1h-16.7V-24.1z
			 M1231.5-21.9h16.7v1h-16.7V-21.9z M1231.5-19.5h16.7v1h-16.7V-19.5z M1258.9-17.2v1h-27.4v-1H1258.9z M1258.9-14.9v1h-27.4v-1
			H1258.9z M1258.9-12.7v1h-27.4v-1H1258.9z M1258.9-10.4v1h-27.4v-1H1258.9z M1258.9-8.2v1h-27.4v-1H1258.9z M1258.9-5.8v1h-27.4
			v-1H1258.9z M1258.9-3.5v1h-27.4v-1H1258.9z M1258.9-1.1v1h-27.4v-1H1258.9z M1231.5,3.9h16.7V12c0,2,0.4,3.5,1.1,4.4
			c0.7,0.9,2.2,1.4,4.4,1.4h5.2v17.3h-14.4c-1.7,0-3.4-0.3-4.9-0.9c-1.6-0.6-2.9-1.4-4.2-2.6c-1.2-1.1-2.2-2.6-2.9-4.3
			c-0.7-1.7-1.1-3.7-1.1-6V3.9z"/>
		<path class="st2" d="M1266.5-7.2c0-0.1,0-0.2,0.1-0.5c0.1-0.3,0.1-0.4,0.1-0.5h45.8v1H1266.5z M1266.5-5.8h45.9v1h-45.9V-5.8z
			 M1266.5-3.5h45.9v1h-45.9V-3.5z M1266.5-1.1h45.9v1h-45.9V-1.1z M1283.9,3.8v7.6c0,4.3,2.1,6.4,6.3,6.4h4.9v-14h17.4v31.3h-32.7
			c-1.8,0-3.6-0.3-5.2-1c-1.6-0.6-3-1.5-4.3-2.7c-1.2-1.2-2.1-2.6-2.8-4.2c-0.7-1.6-1-3.4-1-5.4V3.8H1283.9z M1267-9.5
			c0-0.1,0-0.2,0.1-0.5c0.1-0.3,0.1-0.4,0.2-0.5h45.2v1H1267z M1267.8-11.7c0.1-0.1,0.2-0.2,0.3-0.5c0.1-0.3,0.2-0.4,0.3-0.5h44v1
			H1267.8z M1312.5-15v1h-42.9c0.1-0.1,0.3-0.3,0.5-0.5c0.2-0.2,0.4-0.3,0.5-0.5H1312.5z M1312.5-17.2v1h-39.7
			c0.9-0.4,1.7-0.6,2.5-0.8c0.8-0.1,1.6-0.2,2.5-0.2H1312.5z"/>
		<path class="st2" d="M1320.1-28.6h16.7v1h-16.7V-28.6z M1320.1-26.4h16.7v1h-16.7V-26.4z M1320.1-24.1h16.7v1h-16.7V-24.1z
			 M1320.1-21.9h16.7v1h-16.7V-21.9z M1320.1-19.5h16.7v1h-16.7V-19.5z M1347.5-17.2v1h-27.4v-1H1347.5z M1347.5-14.9v1h-27.4v-1
			H1347.5z M1347.5-12.7v1h-27.4v-1H1347.5z M1347.5-10.4v1h-27.4v-1H1347.5z M1347.5-8.2v1h-27.4v-1H1347.5z M1347.5-5.8v1h-27.4
			v-1H1347.5z M1347.5-3.5v1h-27.4v-1H1347.5z M1347.5-1.1v1h-27.4v-1H1347.5z M1320.1,3.9h16.7V12c0,2,0.4,3.5,1.1,4.4
			c0.7,0.9,2.2,1.4,4.4,1.4h5.2v17.3h-14.4c-1.7,0-3.4-0.3-4.9-0.9c-1.6-0.6-2.9-1.4-4.2-2.6c-1.2-1.1-2.2-2.6-2.9-4.3
			c-0.7-1.7-1.1-3.7-1.1-6V3.9z"/>
		<path class="st2" d="M1359.8,3.9h23l9.2,9.9c1.3,1.3,2.2,2.7,2.7,4.2c0.5,1.4,0.8,3,0.8,4.7c0,3.6-1.2,6.5-3.6,8.9
			c-2.4,2.4-5.9,3.5-10.5,3.5h-26.3V17.8h17.9L1359.8,3.9z M1355.6-5.8h37.5v1h-37.5V-5.8z M1355.8-8.2h37.3v1h-37.4L1355.8-8.2z
			 M1355.8-3.5h37.3v1h-37.3L1355.8-3.5z M1356.1-9.5c0-0.1,0.1-0.2,0.2-0.5c0.1-0.3,0.2-0.4,0.2-0.5h36.7v1H1356.1z M1356.8-0.1
			c-0.1-0.1-0.1-0.2-0.2-0.4c-0.1-0.2-0.1-0.4-0.2-0.5h36.8v1H1356.8z M1357-11.7c0.1-0.1,0.2-0.2,0.3-0.5c0.1-0.3,0.2-0.4,0.3-0.5
			h35.6v1H1357z M1393.2-15v1h-34.5c0.1-0.1,0.3-0.3,0.5-0.5c0.2-0.2,0.4-0.3,0.5-0.5H1393.2z M1393.2-17.2v1h-31.2
			c1.1-0.4,2-0.7,2.7-0.8c0.7-0.1,1.5-0.1,2.2-0.1H1393.2z"/>
	</g>
</g>
</svg>
