<?xml version="1.0" encoding="utf-8"?>
<!-- Generator: Adobe Illustrator 19.0.0, SVG Export Plug-In . SVG Version: 6.00 Build 0)  -->
<svg version="1.1" id="Capa_1" xmlns="http://www.w3.org/2000/svg" xmlns:xlink="http://www.w3.org/1999/xlink" x="0px" y="0px"
	 viewBox="-120 -20.8 1396.6 73.8" style="enable-background:new -120 -20.8 1396.6 73.8;" xml:space="preserve">
<style type="text/css">
	.st0{display:none;}
	.st1{display:inline;fill:#161616;}
	.st2{fill:#009FD6;}
	.st3{clip-path:url(#SVGID_2_);}
	.st4{fill:none;stroke:#009FD6;stroke-width:1.6;stroke-miterlimit:10;}
</style>
<g id="Capa_5" class="st0">
	<rect id="XMLID_171_" x="-189.9" y="-127.2" class="st1" width="1595.9" height="316.5"/>
</g>
<g id="Capa_3">
	<rect id="XMLID_11_" x="1191.8" y="3.5" class="st2" width="84.8" height="27.5"/>
	<rect id="XMLID_13_" x="-120" y="3.7" class="st2" width="1116.9" height="27.5"/>
</g>
<g id="Capa_2">
	<g id="XMLID_174_">
		<g>
			<defs>
				<rect id="SVGID_1_" x="991.3" y="2" width="208.3" height="63.3"/>
			</defs>
			<clipPath id="SVGID_2_">
				<use xlink:href="#SVGID_1_"  style="overflow:visible;"/>
			</clipPath>
			<g id="XMLID_170_" class="st3">
				<path id="XMLID_3_" class="st2" d="M996-17.3h31.9c0.8,0,1.5,0,2.2,0.1s1.6,0.4,2.7,0.8H996V-17.3z M996-15.1h39
					c0.1,0.1,0.3,0.3,0.5,0.5s0.4,0.4,0.5,0.5h-40V-15.1z M1037.1-12.7c0.1,0.1,0.2,0.2,0.3,0.5c0.1,0.3,0.2,0.4,0.3,0.5H996v-1
					H1037.1z M1038.3-10.5c0.1,0.1,0.1,0.2,0.2,0.5s0.1,0.4,0.1,0.5H996v-1H1038.3z M1038.9-8.2l0.1,1h-43v-1H1038.9z M1039-5.8v1
					h-43v-1H1039z M1039-3.5v1h-43v-1H1039z M1039-1.1v1h-43v-1H1039z M1039,3.7v18.1c0,2-0.3,3.8-1,5.4c-0.7,1.6-1.6,3-2.8,4.2
					c-1.2,1.1-2.6,2-4.2,2.7c-1.6,0.6-3.4,1-5.2,1h-13.2v17.5H996V3.7h16.7v14h4.7c1.7,0,3-0.4,3.9-1.1c0.9-0.7,1.4-1.4,1.5-2.1
					c0.1-0.3,0.1-0.6,0.1-1.1s0-0.9,0-1.2V3.8h16.1V3.7z"/>
				<path id="XMLID_195_" class="st2" d="M1091.4-7.2h-44.7c0-0.1,0-0.2,0.1-0.5s0.1-0.4,0.1-0.5h44.4L1091.4-7.2z M1091.4-4.8
					h-44.7v-1h44.7V-4.8z M1091.4-2.5h-44.7v-1h44.7V-2.5z M1091.4-0.2h-44.7v-1h44.7V-0.2z M1091.4,3.7v18.1c0,2-0.3,3.8-1,5.4
					c-0.7,1.6-1.6,3-2.8,4.2c-1.2,1.1-2.6,2-4.2,2.7c-1.6,0.6-3.4,1-5.2,1H1060c-1.8,0-3.6-0.3-5.2-1c-1.6-0.6-3-1.5-4.3-2.7
					c-1.2-1.1-2.1-2.5-2.8-4.2c-0.7-1.6-1-3.4-1-5.4V3.7h16.7v8.4c0,3.8,1.6,5.6,4.8,5.6h1.8c1.8,0,3.1-0.5,3.7-1.6s1-2.4,1-4.1V3.6
					L1091.4,3.7L1091.4,3.7z M1090.6-10.5c0.1,0.1,0.1,0.2,0.2,0.5s0.1,0.4,0.1,0.5h-43.8c0-0.1,0-0.2,0.1-0.5s0.1-0.4,0.2-0.5
					H1090.6z M1089.6-12.7c0.1,0.1,0.2,0.2,0.3,0.5c0.1,0.3,0.2,0.4,0.3,0.5H1048c0.1-0.1,0.2-0.2,0.3-0.5c0.1-0.3,0.2-0.4,0.3-0.5
					H1089.6z M1087.4-15.1c0.1,0.1,0.3,0.3,0.5,0.5s0.4,0.4,0.5,0.5h-38.7c0.1-0.1,0.3-0.3,0.5-0.5s0.4-0.3,0.5-0.5H1087.4z
					 M1081-17.3c0.8,0,1.6,0.1,2.3,0.3c0.7,0.2,1.3,0.4,1.9,0.7h-32.3c0.6-0.3,1.2-0.5,2-0.7c0.7-0.2,1.5-0.3,2.3-0.3H1081z"/>
				<path id="XMLID_205_" class="st2" d="M1099-17.3h31.7c0.8,0,1.5,0,2.2,0.1s1.6,0.4,2.7,0.8H1099V-17.3z M1099-15.1h38.8
					c0.1,0.1,0.3,0.3,0.5,0.5s0.4,0.4,0.5,0.5H1099V-15.1z M1140-12.7c0.1,0.1,0.2,0.2,0.3,0.5c0.1,0.3,0.2,0.4,0.3,0.5H1099v-1
					H1140z M1141.1-10.5c0.1,0.1,0.1,0.2,0.2,0.5s0.1,0.4,0.1,0.5H1099v-1H1141.1z M1141.8-8.2l0.1,1H1099v-1H1141.8z M1141.9-5.8v1
					H1099v-1H1141.9z M1141.9-3.5v1H1099v-1H1141.9z M1141.9-1.1v1H1099v-1H1141.9z M1099,3.7h16.7v31.4H1099V3.7z M1125.2,3.7h16.7
					v31.4h-16.7V3.7z"/>
				<path id="XMLID_216_" class="st2" d="M1149.5-7.2c0-0.1,0-0.2,0.1-0.5s0.1-0.4,0.1-0.5h44.1v1H1149.5z M1149.5-5.8h44.3v1h-44.3
					V-5.8z M1149.5-3.5h44.3v1h-44.3V-3.5z M1149.5-1.1h44.3v1h-44.3V-1.1z M1193.9,3.5v35.8c0,1.8-0.3,3.6-1,5.2
					c-0.6,1.6-1.5,3-2.7,4.2s-2.6,2.1-4.3,2.8c-1.7,0.7-3.5,1-5.4,1h-30.9V35.1h22.4c1.6,0,2.9-0.4,3.8-1.3c1-0.9,1.4-1.9,1.4-3.1
					v-3.4c0-0.1,0-0.3,0-0.6s-0.1-0.4-0.3-0.4c-0.3,0-0.4,0.1-0.4,0.4c-0.1,1.3-0.6,2.2-1.5,2.8s-2.2,0.9-4.1,0.9h-8
					c-1.8,0-3.6-0.3-5.2-1c-1.6-0.6-3-1.5-4.3-2.7c-1.2-1.2-2.1-2.6-2.8-4.2c-0.7-1.6-1-3.4-1-5.4V3.5h16.7v5.4
					c0,1.5,0.4,2.8,1.3,3.7c0.9,0.9,2,1.4,3.3,1.4h1.9c1.2,0,2.2-0.5,3.1-1.4s1.3-2,1.3-3.1v-6C1177.2,3.5,1193.9,3.5,1193.9,3.5z
					 M1150-9.5c0-0.1,0-0.2,0.1-0.5s0.1-0.4,0.2-0.5h43.6v1H1150z M1150.9-11.7c0.1-0.1,0.2-0.2,0.3-0.5c0.1-0.3,0.2-0.4,0.3-0.5
					h42.4v1H1150.9z M1193.9-15.1v1h-41.3c0.1-0.1,0.3-0.3,0.5-0.5s0.4-0.3,0.5-0.5H1193.9z M1193.9-17.3v1h-38.1
					c1.1-0.4,2-0.7,2.8-0.8c0.8-0.1,1.5-0.1,2.3-0.1h33V-17.3z"/>
			</g>
		</g>
	</g>
</g>
<g id="Capa_4">
	<line id="XMLID_1_" class="st4" x1="1039" y1="-2.9" x2="-120" y2="-2.9"/>
	<line id="XMLID_172_" class="st4" x1="1038.6" y1="-7.4" x2="-120" y2="-7.4"/>
	<line id="XMLID_173_" class="st4" x1="1036.7" y1="-11.9" x2="-120" y2="-11.9"/>
	<line id="XMLID_175_" class="st4" x1="1031.9" y1="-16.4" x2="-120" y2="-16.4"/>
</g>
<g id="Capa_6">
	<line id="XMLID_180_" class="st4" x1="1149.9" y1="-2.9" x2="1276.6" y2="-2.9"/>
	<line id="XMLID_179_" class="st4" x1="1150" y1="-7.4" x2="1276.6" y2="-7.4"/>
	<line id="XMLID_178_" class="st4" x1="1151.7" y1="-11.9" x2="1276.6" y2="-11.9"/>
	<line id="XMLID_177_" class="st4" x1="1156.8" y1="-16.4" x2="1276.6" y2="-16.4"/>
</g>
<g id="Capa_7">
	<line id="XMLID_188_" class="st4" x1="1047.3" y1="-2.9" x2="1091.1" y2="-2.9"/>
	<line id="XMLID_187_" class="st4" x1="1047.6" y1="-7.4" x2="1090.7" y2="-7.4"/>
	<line id="XMLID_186_" class="st4" x1="1049.2" y1="-11.9" x2="1089" y2="-11.9"/>
	<line id="XMLID_185_" class="st4" x1="1054.4" y1="-16.4" x2="1084" y2="-16.4"/>
</g>
<g id="Capa_8">
	<line id="XMLID_192_" class="st4" x1="1099.3" y1="-2.9" x2="1141.1" y2="-2.9"/>
	<line id="XMLID_191_" class="st4" x1="1099.3" y1="-7.4" x2="1141.1" y2="-7.4"/>
	<line id="XMLID_190_" class="st4" x1="1099.2" y1="-11.9" x2="1139.4" y2="-11.9"/>
	<line id="XMLID_189_" class="st4" x1="1099.3" y1="-16.4" x2="1133.5" y2="-16.4"/>
	<g id="XMLID_2_">
	</g>
	<g id="XMLID_226_">
	</g>
	<g id="XMLID_227_">
	</g>
	<g id="XMLID_228_">
	</g>
	<g id="XMLID_229_">
	</g>
	<g id="XMLID_230_">
	</g>
</g>
</svg>
