<?xml version="1.0" encoding="utf-8"?>
<!-- Generator: Adobe Illustrator 19.0.0, SVG Export Plug-In . SVG Version: 6.00 Build 0)  -->
<svg version="1.1" id="Capa_1" xmlns="http://www.w3.org/2000/svg" xmlns:xlink="http://www.w3.org/1999/xlink" x="0px" y="0px"
	 viewBox="-321.7 -31.8 1800 84.8" style="enable-background:new -321.7 -31.8 1800 84.8;" xml:space="preserve">
<style type="text/css">
	.st0{display:none;}
	.st1{display:inline;fill:#161616;}
	.st2{fill:#FFF8E3;}
	.st3{fill:none;stroke:#FFF8E3;stroke-width:1.6;stroke-miterlimit:10;}
	.st4{clip-path:url(#XMLID_76_);}
</style>
<g id="Capa_5" class="st0">
	<rect id="XMLID_171_" x="-377.4" y="-127.2" class="st1" width="1970.8" height="316.5"/>
</g>
<g id="Capa_3">
	<rect id="XMLID_11_" x="1385.7" y="3.8" class="st2" width="92.6" height="31.3"/>
	<rect id="XMLID_13_" x="-321.7" y="3.8" class="st2" width="1444.5" height="31.3"/>
</g>
<g id="Capa_7">
	<line id="XMLID_188_" class="st3" x1="-321.7" y1="-2.9" x2="1154.8" y2="-2.9"/>
	<line id="XMLID_187_" class="st3" x1="-321.7" y1="-7.4" x2="1154.8" y2="-7.4"/>
	<line id="XMLID_186_" class="st3" x1="-321.7" y1="-11.9" x2="1154.8" y2="-11.9"/>
	<line id="XMLID_185_" class="st3" x1="-321.7" y1="-16.4" x2="1154.8" y2="-16.4"/>
</g>
<g id="Capa_8_2_">
	<line id="XMLID_26_" class="st3" x1="1162.7" y1="-2.9" x2="1200" y2="-2.9"/>
	<line id="XMLID_25_" class="st3" x1="1162.7" y1="-7.4" x2="1200" y2="-7.4"/>
	<line id="XMLID_24_" class="st3" x1="1164.3" y1="-11.9" x2="1200" y2="-11.9"/>
	<line id="XMLID_23_" class="st3" x1="1171" y1="-16.4" x2="1200" y2="-16.4"/>
	<g id="XMLID_22_">
	</g>
	<g id="XMLID_21_">
	</g>
	<g id="XMLID_20_">
	</g>
	<g id="XMLID_19_">
	</g>
	<g id="XMLID_18_">
	</g>
	<g id="XMLID_17_">
	</g>
</g>
<g id="Capa_8_3_">
	<line id="XMLID_36_" class="st3" x1="1207.8" y1="-2.9" x2="1245.1" y2="-2.9"/>
	<line id="XMLID_35_" class="st3" x1="1207.8" y1="-7.4" x2="1245.1" y2="-7.4"/>
	<line id="XMLID_34_" class="st3" x1="1209.4" y1="-11.9" x2="1245.1" y2="-11.9"/>
	<line id="XMLID_33_" class="st3" x1="1216.1" y1="-16.4" x2="1245.1" y2="-16.4"/>
	<g id="XMLID_32_">
	</g>
	<g id="XMLID_31_">
	</g>
	<g id="XMLID_30_">
	</g>
	<g id="XMLID_29_">
	</g>
	<g id="XMLID_28_">
	</g>
	<g id="XMLID_27_">
	</g>
</g>
<g id="Capa_8">
	<line id="XMLID_192_" class="st3" x1="1252.9" y1="-2.9" x2="1269.7" y2="-2.9"/>
	<line id="XMLID_191_" class="st3" x1="1252.9" y1="-7.4" x2="1269.7" y2="-7.4"/>
	<line id="XMLID_190_" class="st3" x1="1252.9" y1="-11.9" x2="1269.7" y2="-11.9"/>
	<line id="XMLID_189_" class="st3" x1="1252.9" y1="-16.4" x2="1269.7" y2="-16.4"/>
	<g id="XMLID_2_">
	</g>
	<g id="XMLID_226_">
	</g>
	<g id="XMLID_227_">
	</g>
	<g id="XMLID_228_">
	</g>
	<g id="XMLID_229_">
	</g>
	<g id="XMLID_230_">
	</g>
</g>
<g id="Capa_8_5_">
	<line id="XMLID_55_" class="st3" x1="1280.7" y1="-2.9" x2="1297.5" y2="-2.9"/>
	<line id="XMLID_54_" class="st3" x1="1280.7" y1="-7.4" x2="1297.5" y2="-7.4"/>
	<line id="XMLID_53_" class="st3" x1="1280.7" y1="-11.9" x2="1297.5" y2="-11.9"/>
	<line id="XMLID_52_" class="st3" x1="1280.7" y1="-16.4" x2="1297.5" y2="-16.4"/>
	<g id="XMLID_51_">
	</g>
	<g id="XMLID_50_">
	</g>
	<g id="XMLID_49_">
	</g>
	<g id="XMLID_48_">
	</g>
	<g id="XMLID_47_">
	</g>
	<g id="XMLID_46_">
	</g>
</g>
<g id="Capa_8_4_">
	<line id="XMLID_45_" class="st3" x1="1305.3" y1="-2.9" x2="1346.9" y2="-2.9"/>
	<line id="XMLID_44_" class="st3" x1="1305.6" y1="-7.4" x2="1346.9" y2="-7.4"/>
	<line id="XMLID_43_" class="st3" x1="1306.9" y1="-11.9" x2="1346.9" y2="-11.9"/>
	<line id="XMLID_42_" class="st3" x1="1313.6" y1="-16.4" x2="1346.9" y2="-16.4"/>
	<g id="XMLID_41_">
	</g>
	<g id="XMLID_40_">
	</g>
	<g id="XMLID_39_">
	</g>
	<g id="XMLID_38_">
	</g>
	<g id="XMLID_37_">
	</g>
	<g id="XMLID_16_">
	</g>
</g>
<g id="Capa_8_6_">
	<line id="XMLID_65_" class="st3" x1="1354.4" y1="-2.9" x2="1371.2" y2="-2.9"/>
	<line id="XMLID_64_" class="st3" x1="1354.4" y1="-7.4" x2="1371.2" y2="-7.4"/>
	<line id="XMLID_63_" class="st3" x1="1354.4" y1="-11.9" x2="1371.2" y2="-11.9"/>
	<line id="XMLID_62_" class="st3" x1="1354.4" y1="-16.4" x2="1371.2" y2="-16.4"/>
	<g id="XMLID_61_">
	</g>
	<g id="XMLID_60_">
	</g>
	<g id="XMLID_59_">
	</g>
	<g id="XMLID_58_">
	</g>
	<g id="XMLID_57_">
	</g>
	<g id="XMLID_56_">
	</g>
</g>
<g id="Capa_8_1_">
	<line id="XMLID_15_" class="st3" x1="1378.7" y1="-2.9" x2="1478.3" y2="-2.9"/>
	<line id="XMLID_14_" class="st3" x1="1378.7" y1="-7.4" x2="1478.3" y2="-7.4"/>
	<line id="XMLID_12_" class="st3" x1="1378.7" y1="-11.9" x2="1478.3" y2="-11.9"/>
	<line id="XMLID_10_" class="st3" x1="1378.7" y1="-16.4" x2="1478.3" y2="-16.4"/>
	<g id="XMLID_9_">
	</g>
	<g id="XMLID_8_">
	</g>
	<g id="XMLID_7_">
	</g>
	<g id="XMLID_6_">
	</g>
	<g id="XMLID_3_">
	</g>
	<g id="XMLID_1_">
	</g>
</g>
<g id="Capa_8_7_">
	<line id="XMLID_74_" class="st3" x1="1378.7" y1="-20.9" x2="1395.7" y2="-20.9"/>
	<line id="XMLID_73_" class="st3" x1="1378.7" y1="-25.4" x2="1395.7" y2="-25.4"/>
	<line id="XMLID_72_" class="st3" x1="1378.7" y1="-29.9" x2="1395.7" y2="-29.9"/>
	<g id="XMLID_71_">
	</g>
	<g id="XMLID_70_">
	</g>
	<g id="XMLID_69_">
	</g>
	<g id="XMLID_68_">
	</g>
	<g id="XMLID_67_">
	</g>
	<g id="XMLID_66_">
	</g>
</g>
<g id="XMLID_4_">
	<defs>
		<rect id="XMLID_169_" x="1080" y="1.2" width="321.3" height="64"/>
	</defs>
	<clipPath id="XMLID_76_">
		<use xlink:href="#XMLID_169_"  style="overflow:visible;"/>
	</clipPath>
	<g id="XMLID_5_" class="st4">
		<path class="st2" d="M1108.9-7.2c0-0.1,0-0.2,0.1-0.5c0.1-0.3,0.1-0.4,0.1-0.5h45.8v1H1108.9z M1108.9-5.8h45.9v1h-45.9V-5.8z
			 M1108.9-3.5h45.9v1h-45.9V-3.5z M1108.9-1.1h45.9v1h-45.9V-1.1z M1126.3,3.8v7.6c0,4.3,2.1,6.4,6.3,6.4h4.9v-14h17.4v31.3h-32.7
			c-1.8,0-3.6-0.3-5.2-1c-1.6-0.6-3-1.5-4.3-2.7c-1.2-1.2-2.1-2.6-2.8-4.2c-0.7-1.6-1-3.4-1-5.4V3.8H1126.3z M1109.4-9.5
			c0-0.1,0-0.2,0.1-0.5c0.1-0.3,0.1-0.4,0.2-0.5h45.2v1H1109.4z M1110.2-11.7c0.1-0.1,0.2-0.2,0.3-0.5c0.1-0.3,0.2-0.4,0.3-0.5h44v1
			H1110.2z M1154.8-15v1H1112c0.1-0.1,0.3-0.3,0.5-0.5c0.2-0.2,0.4-0.3,0.5-0.5H1154.8z M1154.8-17.2v1h-39.7
			c0.9-0.4,1.7-0.6,2.5-0.8c0.8-0.1,1.6-0.2,2.5-0.2H1154.8z"/>
		<path class="st2" d="M1162.5-7.2c0-0.1,0-0.2,0.1-0.5c0.1-0.3,0.1-0.4,0.1-0.5h37.3v1H1162.5z M1162.6-5.8h37.4v1h-37.4V-5.8z
			 M1162.6-3.5h37.4v1h-37.4V-3.5z M1162.6-1.1h37.4v1h-37.4V-1.1z M1200,17.8v17.3h-24.3c-1.8,0-3.6-0.3-5.2-1
			c-1.6-0.6-3-1.5-4.2-2.7c-1.2-1.2-2.1-2.6-2.8-4.2c-0.7-1.6-1-3.4-1-5.4V4.5h16.7v7c0,1.8,0.6,3.4,1.7,4.6
			c1.1,1.2,2.6,1.8,4.5,1.8H1200z M1163-9.5c0-0.1,0-0.2,0.1-0.5c0.1-0.3,0.1-0.4,0.2-0.5h36.8v1H1163z M1163.8-11.7
			c0.1-0.1,0.2-0.2,0.3-0.5c0.1-0.3,0.2-0.4,0.3-0.5h35.6v1H1163.8z M1200-15v1h-34.5c0.1-0.1,0.3-0.3,0.5-0.5
			c0.2-0.2,0.4-0.3,0.5-0.5H1200z M1200-17.2v1h-31.3c1.1-0.4,2-0.7,2.8-0.8c0.8-0.1,1.5-0.1,2.3-0.1H1200z"/>
		<path class="st2" d="M1207.7-7.2c0-0.1,0-0.2,0.1-0.5c0.1-0.3,0.1-0.4,0.1-0.5h37.3v1H1207.7z M1207.8-5.8h37.4v1h-37.4V-5.8z
			 M1207.8-3.5h37.4v1h-37.4V-3.5z M1207.8-1.1h37.4v1h-37.4V-1.1z M1245.2,17.8v17.3h-24.3c-1.8,0-3.6-0.3-5.2-1
			c-1.6-0.6-3-1.5-4.2-2.7c-1.2-1.2-2.1-2.6-2.8-4.2c-0.7-1.6-1-3.4-1-5.4V4.5h16.7v7c0,1.8,0.6,3.4,1.7,4.6
			c1.1,1.2,2.6,1.8,4.5,1.8H1245.2z M1208.1-9.5c0-0.1,0-0.2,0.1-0.5c0.1-0.3,0.1-0.4,0.2-0.5h36.8v1H1208.1z M1209-11.7
			c0.1-0.1,0.2-0.2,0.3-0.5c0.1-0.3,0.2-0.4,0.3-0.5h35.6v1H1209z M1245.2-15v1h-34.5c0.1-0.1,0.3-0.3,0.5-0.5
			c0.2-0.2,0.4-0.3,0.5-0.5H1245.2z M1245.2-17.2v1h-31.3c1.1-0.4,2-0.7,2.8-0.8c0.8-0.1,1.5-0.1,2.3-0.1H1245.2z"/>
		<path class="st2" d="M1269.6-17.2v1h-16.7v-1H1269.6z M1269.6-14.9v1h-16.7v-1H1269.6z M1269.6-12.7v1h-16.7v-1H1269.6z
			 M1269.6-10.4v1h-16.7v-1H1269.6z M1269.6-8.2v1h-16.7v-1H1269.6z M1269.6-5.8v1h-16.7v-1H1269.6z M1269.6-3.5v1h-16.7v-1H1269.6z
			 M1269.6-1.1v1h-16.7v-1H1269.6z M1297.5,3.7v18.1c0,2-0.3,3.8-1,5.4c-0.7,1.6-1.6,3-2.8,4.2c-1.2,1.1-2.6,2-4.2,2.7
			c-1.6,0.6-3.4,1-5.2,1h-18.2c-1.8,0-3.6-0.3-5.2-1c-1.6-0.6-3-1.5-4.3-2.7c-1.2-1.1-2.1-2.5-2.8-4.2c-0.7-1.6-1-3.4-1-5.4V3.7
			h16.7v8.4c0,3.8,1.6,5.6,4.8,5.6h1.8c1.8,0,3.1-0.5,3.7-1.6c0.6-1.1,1-2.4,1-4.1V3.7H1297.5z M1297.5-17.2v1h-16.7v-1H1297.5z
			 M1297.5-14.9v1h-16.7v-1H1297.5z M1297.5-12.7v1h-16.7v-1H1297.5z M1297.5-10.4v1h-16.7v-1H1297.5z M1297.5-8.2v1h-16.7v-1
			H1297.5z M1297.5-5.8v1h-16.7v-1H1297.5z M1297.5-3.5v1h-16.7v-1H1297.5z M1297.5-1.1v1h-16.7v-1H1297.5z"/>
		<path class="st2" d="M1305.3-7.2c0-0.1,0-0.2,0.1-0.5c0.1-0.3,0.1-0.4,0.1-0.5h41.5v1H1305.3z M1305.3-5.8h41.6v1h-41.6V-5.8z
			 M1305.3-3.5h41.6v1h-41.6V-3.5z M1305.3-1.1h41.6v1h-41.6V-1.1z M1346.9,35.1h-28.4c-1.8,0-3.6-0.3-5.2-1c-1.6-0.6-3-1.5-4.3-2.7
			c-1.2-1.2-2.1-2.6-2.8-4.2c-0.7-1.6-1-3.4-1-5.4V4.5h36.1v8.8h-19c0,1.5,0.2,2.6,0.7,3.4c0.4,0.8,1.6,1.2,3.4,1.2h20.4V35.1z
			 M1305.8-9.5c0-0.1,0-0.2,0.1-0.5c0.1-0.3,0.1-0.4,0.2-0.5h40.9v1H1305.8z M1306.6-11.7c0.1-0.1,0.2-0.2,0.3-0.5
			c0.1-0.3,0.2-0.4,0.3-0.5h39.7v1H1306.6z M1346.9-15v1h-38.6c0.1-0.1,0.3-0.3,0.5-0.5c0.2-0.2,0.4-0.3,0.5-0.5H1346.9z
			 M1346.9-17.2v1h-35.4c0.9-0.4,1.7-0.6,2.5-0.8c0.8-0.1,1.6-0.2,2.5-0.2H1346.9z"/>
		<path class="st2" d="M1371.2-17.2v1h-16.7v-1H1371.2z M1371.2-14.9v1h-16.7v-1H1371.2z M1371.2-12.7v1h-16.7v-1H1371.2z
			 M1371.2-10.4v1h-16.7v-1H1371.2z M1371.2-8.2v1h-16.7v-1H1371.2z M1371.2-5.8v1h-16.7v-1H1371.2z M1371.2-3.5v1h-16.7v-1H1371.2z
			 M1371.2-1.1v1h-16.7v-1H1371.2z M1354.5,3.8h16.7v31.3h-16.7V3.8z"/>
		<path class="st2" d="M1378.8-28.6h16.7v1h-16.7V-28.6z M1378.8-26.4h16.7v1h-16.7V-26.4z M1378.8-24.1h16.7v1h-16.7V-24.1z
			 M1378.8-21.9h16.7v1h-16.7V-21.9z M1378.8-19.5h16.7v1h-16.7V-19.5z M1395.5-17.2v1h-16.7v-1H1395.5z M1395.5-14.9v1h-16.7v-1
			H1395.5z M1395.5-12.7v1h-16.7v-1H1395.5z M1395.5-10.4v1h-16.7v-1H1395.5z M1395.5-8.2v1h-16.7v-1H1395.5z M1395.5-5.8v1h-16.7
			v-1H1395.5z M1395.5-3.5v1h-16.7v-1H1395.5z M1395.5-1.1v1h-16.7v-1H1395.5z M1378.8,3.8h16.7v31.3h-16.7V3.8z"/>
	</g>
</g>
</svg>
