<?xml version="1.0" encoding="utf-8"?>
<!-- Generator: Adobe Illustrator 19.0.0, SVG Export Plug-In . SVG Version: 6.00 Build 0)  -->
<svg version="1.1" id="Capa_1" xmlns="http://www.w3.org/2000/svg" xmlns:xlink="http://www.w3.org/1999/xlink" x="0px" y="0px"
	 viewBox="-7.9 -31.8 1486.2 84.8" style="enable-background:new -7.9 -31.8 1486.2 84.8;" xml:space="preserve">
<style type="text/css">
	.st0{display:none;}
	.st1{display:inline;fill:#161616;}
	.st2{fill:#FBBF24;}
	.st3{fill:none;stroke:#FBBF24;stroke-width:1.6;stroke-miterlimit:10;}
	.st4{clip-path:url(#XMLID_16_);}
</style>
<g id="Capa_5" class="st0">
	<rect id="XMLID_171_" x="-377.4" y="-127.2" class="st1" width="1970.8" height="316.5"/>
</g>
<g id="Capa_3">
	<rect id="XMLID_11_" x="1380.8" y="3.7" class="st2" width="97.5" height="31.4"/>
	<rect id="XMLID_13_" x="-7.9" y="3.7" class="st2" width="1212.8" height="31.3"/>
</g>
<g id="Capa_7">
	<line id="XMLID_188_" class="st3" x1="-7.9" y1="-2.9" x2="1233.9" y2="-2.9"/>
	<line id="XMLID_187_" class="st3" x1="-7.9" y1="-7.4" x2="1233.9" y2="-7.4"/>
	<line id="XMLID_186_" class="st3" x1="-7.9" y1="-11.9" x2="1233.9" y2="-11.9"/>
	<line id="XMLID_185_" class="st3" x1="-7.9" y1="-16.4" x2="1233.9" y2="-16.4"/>
</g>
<g id="Capa_8_2_">
	<line id="XMLID_26_" class="st3" x1="1241.9" y1="-2.9" x2="1268.5" y2="-2.9"/>
	<line id="XMLID_25_" class="st3" x1="1241.9" y1="-7.4" x2="1268.5" y2="-7.4"/>
	<line id="XMLID_24_" class="st3" x1="1243.3" y1="-11.9" x2="1268.5" y2="-11.9"/>
	<line id="XMLID_23_" class="st3" x1="1249.7" y1="-16.4" x2="1268.5" y2="-16.4"/>
	<g id="XMLID_22_">
	</g>
	<g id="XMLID_21_">
	</g>
	<g id="XMLID_20_">
	</g>
	<g id="XMLID_19_">
	</g>
	<g id="XMLID_18_">
	</g>
	<g id="XMLID_17_">
	</g>
</g>
<g id="Capa_8_1_">
	<line id="XMLID_14_" class="st3" x1="1217.2" y1="-20.9" x2="1233.9" y2="-20.9"/>
	<line id="XMLID_12_" class="st3" x1="1217.2" y1="-25.4" x2="1233.9" y2="-25.4"/>
	<line id="XMLID_10_" class="st3" x1="1217.2" y1="-29.9" x2="1233.9" y2="-29.9"/>
	<g id="XMLID_9_">
	</g>
	<g id="XMLID_8_">
	</g>
	<g id="XMLID_7_">
	</g>
	<g id="XMLID_6_">
	</g>
	<g id="XMLID_3_">
	</g>
	<g id="XMLID_1_">
	</g>
</g>
<g id="Capa_8">
	<line id="XMLID_192_" class="st3" x1="1276.5" y1="-2.9" x2="1322.4" y2="-2.9"/>
	<line id="XMLID_191_" class="st3" x1="1276.8" y1="-7.4" x2="1322.4" y2="-7.4"/>
	<line id="XMLID_190_" class="st3" x1="1278.3" y1="-11.9" x2="1322.4" y2="-11.9"/>
	<line id="XMLID_189_" class="st3" x1="1284.8" y1="-16.4" x2="1322.4" y2="-16.4"/>
	<g id="XMLID_2_">
	</g>
	<g id="XMLID_226_">
	</g>
	<g id="XMLID_227_">
	</g>
	<g id="XMLID_228_">
	</g>
	<g id="XMLID_229_">
	</g>
	<g id="XMLID_230_">
	</g>
</g>
<g id="Capa_8_8_">
	<line id="XMLID_84_" class="st3" x1="1330.1" y1="-2.9" x2="1346.8" y2="-2.9"/>
	<line id="XMLID_83_" class="st3" x1="1330.1" y1="-7.4" x2="1346.8" y2="-7.4"/>
	<line id="XMLID_82_" class="st3" x1="1330.1" y1="-11.9" x2="1346.8" y2="-11.9"/>
	<line id="XMLID_81_" class="st3" x1="1330.1" y1="-16.4" x2="1346.8" y2="-16.4"/>
	<g id="XMLID_80_">
	</g>
	<g id="XMLID_79_">
	</g>
	<g id="XMLID_78_">
	</g>
	<g id="XMLID_77_">
	</g>
	<g id="XMLID_76_">
	</g>
	<g id="XMLID_75_">
	</g>
</g>
<g id="Capa_8_7_">
	<line id="XMLID_74_" class="st3" x1="1354.6" y1="-2.9" x2="1371.1" y2="-2.9"/>
	<line id="XMLID_73_" class="st3" x1="1354.6" y1="-7.4" x2="1371.1" y2="-7.4"/>
	<line id="XMLID_72_" class="st3" x1="1354.6" y1="-11.9" x2="1371.1" y2="-11.9"/>
	<line id="XMLID_71_" class="st3" x1="1354.6" y1="-16.4" x2="1371.1" y2="-16.4"/>
	<g id="XMLID_70_">
	</g>
	<g id="XMLID_69_">
	</g>
	<g id="XMLID_68_">
	</g>
	<g id="XMLID_39_">
	</g>
	<g id="XMLID_38_">
	</g>
	<g id="XMLID_37_">
	</g>
</g>
<g id="Capa_8_3_">
	<line id="XMLID_36_" class="st3" x1="1379.3" y1="-2.9" x2="1478.3" y2="-2.9"/>
	<line id="XMLID_35_" class="st3" x1="1379.3" y1="-7.4" x2="1478.3" y2="-7.4"/>
	<line id="XMLID_34_" class="st3" x1="1379.3" y1="-11.9" x2="1478.3" y2="-11.9"/>
	<line id="XMLID_33_" class="st3" x1="1379.3" y1="-16.4" x2="1478.3" y2="-16.4"/>
	<g id="XMLID_32_">
	</g>
	<g id="XMLID_31_">
	</g>
	<g id="XMLID_30_">
	</g>
	<g id="XMLID_29_">
	</g>
	<g id="XMLID_28_">
	</g>
	<g id="XMLID_27_">
	</g>
</g>
<g id="XMLID_4_">
	<defs>
		<rect id="XMLID_169_" x="957.7" y="1.2" width="443.6" height="64"/>
	</defs>
	<clipPath id="XMLID_16_">
		<use xlink:href="#XMLID_169_"  style="overflow:visible;"/>
	</clipPath>
	<g id="XMLID_5_" class="st4">
		<path class="st2" d="M1189.1-7.2c0-0.1,0-0.2,0.1-0.5c0.1-0.3,0.1-0.4,0.1-0.5h44.6v1H1189.1z M1189.2-5.8h44.7v1h-44.7V-5.8z
			 M1189.2-3.5h44.7v1h-44.7V-3.5z M1189.2-1.1h44.7v1h-44.7V-1.1z M1233.9,3.7v17.9c0,4.4-1.3,7.7-3.8,10c-2.5,2.3-6,3.4-10.5,3.4
			H1203c-4.1,0-7.5-1.2-10-3.7c-2.5-2.5-3.8-5.8-3.8-10.2V3.7h16.7v8.4c0,1.7,0.3,3.1,1.1,4.1c0.7,1,1.9,1.5,3.6,1.5h1.8
			c3.2,0,4.8-1.9,4.8-5.6V3.7H1233.9z M1189.6-9.5c0-0.1,0-0.2,0.1-0.5c0.1-0.3,0.1-0.4,0.2-0.5h44v1H1189.6z M1190.5-11.7
			c0.1-0.1,0.2-0.2,0.3-0.5c0.1-0.3,0.2-0.4,0.3-0.5h42.9v1H1190.5z M1233.9-15v1h-41.7c0.1-0.1,0.3-0.3,0.5-0.5
			c0.2-0.2,0.4-0.3,0.5-0.5H1233.9z M1233.9-17.2v1h-38.6c1.1-0.4,2-0.7,2.8-0.8c0.8-0.1,1.5-0.1,2.3-0.1H1233.9z M1233.9-28.6v1
			h-16.7v-1H1233.9z M1233.9-26.4v1h-16.7v-1H1233.9z M1233.9-24.1v1h-16.7v-1H1233.9z M1233.9-21.9v1h-16.7v-1H1233.9z
			 M1233.9-19.5v1h-16.7v-1H1233.9z"/>
		<path class="st2" d="M1241.5-5.8h27.3v1h-27.3V-5.8z M1241.5-3.5h27.3v1h-27.3V-3.5z M1241.5-1.1h27.3v1h-27.3V-1.1z M1241.5,3.9
			h16.7v31.2h-16.7V3.9z M1241.6-7.2c0-0.1,0-0.2,0.1-0.5c0.1-0.3,0.1-0.4,0.1-0.5h27v1H1241.6z M1242.1-9.5c0-0.1,0-0.2,0.1-0.5
			c0.1-0.3,0.1-0.4,0.2-0.5h26.5v1H1242.1z M1242.9-11.7c0.1-0.1,0.2-0.2,0.3-0.5c0.1-0.3,0.2-0.4,0.3-0.5h25.3v1H1242.9z
			 M1268.8-15v1h-24.2c0.1-0.1,0.3-0.3,0.5-0.5c0.2-0.2,0.4-0.3,0.5-0.5H1268.8z M1268.8-17.2v1h-21c1.1-0.4,2-0.7,2.8-0.8
			c0.8-0.1,1.5-0.1,2.3-0.1H1268.8z"/>
		<path class="st2" d="M1276.4-7.2c0-0.1,0-0.2,0.1-0.5c0.1-0.3,0.1-0.4,0.1-0.5h45.8v1H1276.4z M1276.4-5.8h45.9v1h-45.9V-5.8z
			 M1276.4-3.5h45.9v1h-45.9V-3.5z M1276.4-1.1h45.9v1h-45.9V-1.1z M1293.8,3.8v7.6c0,4.3,2.1,6.4,6.3,6.4h4.9v-14h17.4v31.3h-32.7
			c-1.8,0-3.6-0.3-5.2-1c-1.6-0.6-3-1.5-4.3-2.7c-1.2-1.2-2.1-2.6-2.8-4.2c-0.7-1.6-1-3.4-1-5.4V3.8H1293.8z M1276.9-9.5
			c0-0.1,0-0.2,0.1-0.5c0.1-0.3,0.1-0.4,0.2-0.5h45.2v1H1276.9z M1277.8-11.7c0.1-0.1,0.2-0.2,0.3-0.5c0.1-0.3,0.2-0.4,0.3-0.5h44v1
			H1277.8z M1322.4-15v1h-42.9c0.1-0.1,0.3-0.3,0.5-0.5c0.2-0.2,0.4-0.3,0.5-0.5H1322.4z M1322.4-17.2v1h-39.7
			c0.9-0.4,1.7-0.6,2.5-0.8c0.8-0.1,1.6-0.2,2.5-0.2H1322.4z"/>
		<path class="st2" d="M1346.7-17.2v1H1330v-1H1346.7z M1346.7-14.9v1H1330v-1H1346.7z M1346.7-12.7v1H1330v-1H1346.7z M1346.7-10.4
			v1H1330v-1H1346.7z M1346.7-8.2v1H1330v-1H1346.7z M1346.7-5.8v1H1330v-1H1346.7z M1346.7-3.5v1H1330v-1H1346.7z M1346.7-1.1v1
			H1330v-1H1346.7z M1395.6,3.7v18.1c0,2-0.4,3.8-1.1,5.4c-0.7,1.6-1.6,3-2.8,4.2c-1.2,1.2-2.6,2.1-4.2,2.7c-1.6,0.6-3.4,1-5.2,1
			h-11.1c-4.5,0-7.5-1.8-8.8-5.4c-0.7,1.8-1.8,3.2-3.2,4.1c-1.5,0.9-3.4,1.3-5.8,1.3h-10.1c-1.8,0-3.6-0.3-5.2-1
			c-1.6-0.6-3-1.5-4.3-2.7c-1.2-1.2-2.1-2.6-2.8-4.2c-0.7-1.6-1-3.4-1-5.4V3.7h16.7V12c0,1.7,0.3,2.9,0.9,3.8
			c0.6,0.9,1.5,1.3,2.7,1.3c2.7,0,4.1-1.7,4.1-5.2V3.7h16.7V12c0,3.5,1.3,5.3,3.9,5.3c2.5,0,3.8-1.8,3.8-5.3V3.7H1395.6z
			 M1371.2-17.2v1h-16.7v-1H1371.2z M1371.2-14.9v1h-16.7v-1H1371.2z M1371.2-12.7v1h-16.7v-1H1371.2z M1371.2-10.4v1h-16.7v-1
			H1371.2z M1371.2-8.2v1h-16.7v-1H1371.2z M1371.2-5.8v1h-16.7v-1H1371.2z M1371.2-3.5v1h-16.7v-1H1371.2z M1371.2-1.1v1h-16.7v-1
			H1371.2z M1395.6-17.2v1h-16.7v-1H1395.6z M1395.6-14.9v1h-16.7v-1H1395.6z M1395.6-12.7v1h-16.7v-1H1395.6z M1395.6-10.4v1h-16.7
			v-1H1395.6z M1395.6-8.2v1h-16.7v-1H1395.6z M1395.6-5.8v1h-16.7v-1H1395.6z M1395.6-3.5v1h-16.7v-1H1395.6z M1395.6-1.1v1h-16.7
			v-1H1395.6z"/>
	</g>
</g>
</svg>
