<?xml version="1.0" encoding="utf-8"?>
<!-- Generator: Adobe Illustrator 19.0.0, SVG Export Plug-In . SVG Version: 6.00 Build 0)  -->
<svg version="1.1" id="Capa_1" xmlns="http://www.w3.org/2000/svg" xmlns:xlink="http://www.w3.org/1999/xlink" x="0px" y="0px"
	 viewBox="-7.9 -31.8 1486.2 84.8" style="enable-background:new -7.9 -31.8 1486.2 84.8;" xml:space="preserve">
<style type="text/css">
	.st0{display:none;}
	.st1{display:inline;fill:#161616;}
	.st2{fill:#FBBF24;}
	.st3{fill:none;stroke:#FBBF24;stroke-width:1.6;stroke-miterlimit:10;}
	.st4{clip-path:url(#XMLID_46_);}
</style>
<g id="Capa_5" class="st0">
	<rect id="XMLID_171_" x="-377.4" y="-127.2" class="st1" width="1970.8" height="316.5"/>
</g>
<g id="Capa_3">
	<rect id="XMLID_11_" x="1395.2" y="4.5" class="st2" width="83.1" height="30.7"/>
	<rect id="XMLID_13_" x="-7.9" y="3.7" class="st2" width="1118.4" height="31.3"/>
</g>
<g id="Capa_7">
	<line id="XMLID_188_" class="st3" x1="-7.9" y1="-2.9" x2="1140.6" y2="-2.9"/>
	<line id="XMLID_187_" class="st3" x1="-7.9" y1="-7.4" x2="1140.6" y2="-7.4"/>
	<line id="XMLID_186_" class="st3" x1="-7.9" y1="-11.9" x2="1140.6" y2="-11.9"/>
	<line id="XMLID_185_" class="st3" x1="-7.9" y1="-16.4" x2="1140.6" y2="-16.4"/>
</g>
<g id="Capa_7_1_">
	<line id="XMLID_87_" class="st3" x1="1123.9" y1="-20.9" x2="1140.6" y2="-20.9"/>
	<line id="XMLID_86_" class="st3" x1="1123.9" y1="-25.4" x2="1140.6" y2="-25.4"/>
	<line id="XMLID_85_" class="st3" x1="1123.9" y1="-29.9" x2="1140.6" y2="-29.9"/>
</g>
<g id="Capa_8_6_">
	<line id="XMLID_67_" class="st3" x1="1148.3" y1="-2.9" x2="1189.7" y2="-2.9"/>
	<line id="XMLID_66_" class="st3" x1="1148.3" y1="-7.4" x2="1189.7" y2="-7.4"/>
	<line id="XMLID_65_" class="st3" x1="1149.9" y1="-11.9" x2="1189.7" y2="-11.9"/>
	<line id="XMLID_64_" class="st3" x1="1156.5" y1="-16.4" x2="1189.7" y2="-16.4"/>
	<g id="XMLID_63_">
	</g>
	<g id="XMLID_62_">
	</g>
	<g id="XMLID_61_">
	</g>
	<g id="XMLID_60_">
	</g>
	<g id="XMLID_59_">
	</g>
	<g id="XMLID_58_">
	</g>
</g>
<g id="Capa_8_2_">
	<line id="XMLID_26_" class="st3" x1="1197.5" y1="-2.9" x2="1233.3" y2="-2.9"/>
	<line id="XMLID_25_" class="st3" x1="1197.5" y1="-7.4" x2="1233.3" y2="-7.4"/>
	<line id="XMLID_24_" class="st3" x1="1199.1" y1="-11.9" x2="1233.3" y2="-11.9"/>
	<line id="XMLID_23_" class="st3" x1="1205.7" y1="-16.4" x2="1233.3" y2="-16.4"/>
	<g id="XMLID_22_">
	</g>
	<g id="XMLID_21_">
	</g>
	<g id="XMLID_20_">
	</g>
	<g id="XMLID_19_">
	</g>
	<g id="XMLID_18_">
	</g>
	<g id="XMLID_17_">
	</g>
</g>
<g id="Capa_8">
	<line id="XMLID_192_" class="st3" x1="1241.1" y1="-2.9" x2="1287" y2="-2.9"/>
	<line id="XMLID_191_" class="st3" x1="1241.3" y1="-7.4" x2="1287" y2="-7.4"/>
	<line id="XMLID_190_" class="st3" x1="1243" y1="-11.9" x2="1287" y2="-11.9"/>
	<line id="XMLID_189_" class="st3" x1="1249.9" y1="-16.4" x2="1287" y2="-16.4"/>
	<g id="XMLID_2_">
	</g>
	<g id="XMLID_226_">
	</g>
	<g id="XMLID_227_">
	</g>
	<g id="XMLID_228_">
	</g>
	<g id="XMLID_229_">
	</g>
	<g id="XMLID_230_">
	</g>
</g>
<g id="Capa_8_8_">
	<line id="XMLID_84_" class="st3" x1="1294.6" y1="-2.9" x2="1311.2" y2="-2.9"/>
	<line id="XMLID_83_" class="st3" x1="1294.6" y1="-7.4" x2="1311.2" y2="-7.4"/>
	<line id="XMLID_82_" class="st3" x1="1294.6" y1="-11.9" x2="1311.2" y2="-11.9"/>
	<line id="XMLID_81_" class="st3" x1="1294.6" y1="-16.4" x2="1311.2" y2="-16.4"/>
	<g id="XMLID_80_">
	</g>
	<g id="XMLID_79_">
	</g>
	<g id="XMLID_78_">
	</g>
	<g id="XMLID_77_">
	</g>
	<g id="XMLID_76_">
	</g>
	<g id="XMLID_75_">
	</g>
</g>
<g id="Capa_8_3_">
	<line id="XMLID_35_" class="st3" x1="1319" y1="-20.9" x2="1335.6" y2="-20.9"/>
	<line id="XMLID_34_" class="st3" x1="1319" y1="-25.4" x2="1335.6" y2="-25.4"/>
	<line id="XMLID_33_" class="st3" x1="1319" y1="-29.9" x2="1335.6" y2="-29.9"/>
	<g id="XMLID_32_">
	</g>
	<g id="XMLID_31_">
	</g>
	<g id="XMLID_30_">
	</g>
	<g id="XMLID_29_">
	</g>
	<g id="XMLID_28_">
	</g>
	<g id="XMLID_27_">
	</g>
</g>
<g id="Capa_8_1_">
	<line id="XMLID_15_" class="st3" x1="1319" y1="-2.9" x2="1346.4" y2="-2.9"/>
	<line id="XMLID_14_" class="st3" x1="1319" y1="-7.4" x2="1346.4" y2="-7.4"/>
	<line id="XMLID_12_" class="st3" x1="1319" y1="-11.9" x2="1346.4" y2="-11.9"/>
	<line id="XMLID_10_" class="st3" x1="1319" y1="-16.4" x2="1346.4" y2="-16.4"/>
	<g id="XMLID_9_">
	</g>
	<g id="XMLID_8_">
	</g>
	<g id="XMLID_7_">
	</g>
	<g id="XMLID_6_">
	</g>
	<g id="XMLID_3_">
	</g>
	<g id="XMLID_1_">
	</g>
</g>
<g id="Capa_8_4_">
	<line id="XMLID_44_" class="st3" x1="1354.1" y1="-2.9" x2="1478.3" y2="-2.9"/>
	<line id="XMLID_43_" class="st3" x1="1354.3" y1="-7.4" x2="1478.3" y2="-7.4"/>
	<line id="XMLID_42_" class="st3" x1="1356" y1="-11.9" x2="1478.3" y2="-11.9"/>
	<line id="XMLID_41_" class="st3" x1="1362.9" y1="-16.4" x2="1478.3" y2="-16.4"/>
	<g id="XMLID_40_">
	</g>
	<g id="XMLID_39_">
	</g>
	<g id="XMLID_38_">
	</g>
	<g id="XMLID_37_">
	</g>
	<g id="XMLID_36_">
	</g>
	<g id="XMLID_16_">
	</g>
</g>
<g id="XMLID_4_">
	<defs>
		<rect id="XMLID_169_" x="957.7" y="2.7" width="443.6" height="62.5"/>
	</defs>
	<clipPath id="XMLID_46_">
		<use xlink:href="#XMLID_169_"  style="overflow:visible;"/>
	</clipPath>
	<g id="XMLID_5_" class="st4">
		<path class="st2" d="M1095.8-7.2c0-0.1,0-0.2,0.1-0.5c0.1-0.3,0.1-0.4,0.1-0.5h44.6v1H1095.8z M1095.9-5.8h44.7v1h-44.7V-5.8z
			 M1095.9-3.5h44.7v1h-44.7V-3.5z M1095.9-1.1h44.7v1h-44.7V-1.1z M1140.6,3.7v17.9c0,4.4-1.3,7.7-3.8,10c-2.5,2.3-6,3.4-10.5,3.4
			h-16.7c-4.1,0-7.5-1.2-10-3.7c-2.5-2.5-3.8-5.8-3.8-10.2V3.7h16.7v8.4c0,1.7,0.3,3.1,1.1,4.1c0.7,1,1.9,1.5,3.6,1.5h1.8
			c3.2,0,4.8-1.9,4.8-5.6V3.7H1140.6z M1096.3-9.5c0-0.1,0-0.2,0.1-0.5c0.1-0.3,0.1-0.4,0.2-0.5h44v1H1096.3z M1097.2-11.7
			c0.1-0.1,0.2-0.2,0.3-0.5c0.1-0.3,0.2-0.4,0.3-0.5h42.9v1H1097.2z M1140.6-15v1h-41.7c0.1-0.1,0.3-0.3,0.5-0.5
			c0.2-0.2,0.4-0.3,0.5-0.5H1140.6z M1140.6-17.2v1H1102c1.1-0.4,2-0.7,2.8-0.8c0.8-0.1,1.5-0.1,2.3-0.1H1140.6z M1140.6-28.6v1
			h-16.7v-1H1140.6z M1140.6-26.4v1h-16.7v-1H1140.6z M1140.6-24.1v1h-16.7v-1H1140.6z M1140.6-21.9v1h-16.7v-1H1140.6z
			 M1140.6-19.5v1h-16.7v-1H1140.6z"/>
		<path class="st2" d="M1148.3-7.2c0-0.1,0-0.2,0.1-0.5c0.1-0.3,0.1-0.4,0.1-0.5h41.5v1H1148.3z M1148.3-5.8h41.6v1h-41.6V-5.8z
			 M1148.3-3.5h41.6v1h-41.6V-3.5z M1148.3-1.1h41.6v1h-41.6V-1.1z M1189.9,35.1h-28.4c-1.8,0-3.6-0.3-5.2-1c-1.6-0.6-3-1.5-4.3-2.7
			c-1.2-1.2-2.1-2.6-2.8-4.2c-0.7-1.6-1-3.4-1-5.4V4.5h36.1v8.8h-19c0,1.5,0.2,2.6,0.7,3.4c0.4,0.8,1.6,1.2,3.4,1.2h20.4V35.1z
			 M1148.7-9.5c0-0.1,0-0.2,0.1-0.5c0.1-0.3,0.1-0.4,0.2-0.5h40.9v1H1148.7z M1149.6-11.7c0.1-0.1,0.2-0.2,0.3-0.5
			c0.1-0.3,0.2-0.4,0.3-0.5h39.7v1H1149.6z M1189.9-15v1h-38.6c0.1-0.1,0.3-0.3,0.5-0.5c0.2-0.2,0.4-0.3,0.5-0.5H1189.9z
			 M1189.9-17.2v1h-35.4c0.9-0.4,1.7-0.6,2.5-0.8c0.8-0.1,1.6-0.2,2.5-0.2H1189.9z"/>
		<path class="st2" d="M1197.4-7.2c0-0.1,0-0.2,0.1-0.5c0.1-0.3,0.1-0.4,0.1-0.5h35.7v1H1197.4z M1197.4-5.8h35.9v1h-35.9V-5.8z
			 M1197.4-3.5h35.9v1h-35.9V-3.5z M1197.4-1.1h35.9v1h-35.9V-1.1z M1197.4,4h30.4v9.1h-9v39h-16.7v-39h-4.7V4z M1197.9-9.5
			c0-0.1,0-0.2,0.1-0.5c0.1-0.3,0.1-0.4,0.2-0.5h35.2v1H1197.9z M1198.8-11.7c0.1-0.1,0.2-0.2,0.3-0.5c0.1-0.3,0.2-0.4,0.3-0.5h34v1
			H1198.8z M1233.4-15v1h-32.9c0.1-0.1,0.3-0.3,0.5-0.5c0.2-0.2,0.4-0.3,0.5-0.5H1233.4z M1233.4-17.2v1h-29.7
			c1.1-0.4,2-0.7,2.8-0.8c0.8-0.1,1.5-0.1,2.3-0.1H1233.4z"/>
		<path class="st2" d="M1241-7.2c0-0.1,0-0.2,0.1-0.5c0.1-0.3,0.1-0.4,0.1-0.5h45.8v1H1241z M1241-5.8h45.9v1H1241V-5.8z M1241-3.5
			h45.9v1H1241V-3.5z M1241-1.1h45.9v1H1241V-1.1z M1258.4,3.8v7.6c0,4.3,2.1,6.4,6.3,6.4h4.9v-14h17.4v31.3h-32.7
			c-1.8,0-3.6-0.3-5.2-1c-1.6-0.6-3-1.5-4.3-2.7c-1.2-1.2-2.1-2.6-2.8-4.2c-0.7-1.6-1-3.4-1-5.4V3.8H1258.4z M1241.5-9.5
			c0-0.1,0-0.2,0.1-0.5c0.1-0.3,0.1-0.4,0.2-0.5h45.2v1H1241.5z M1242.3-11.7c0.1-0.1,0.2-0.2,0.3-0.5c0.1-0.3,0.2-0.4,0.3-0.5h44v1
			H1242.3z M1286.9-15v1h-42.9c0.1-0.1,0.3-0.3,0.5-0.5c0.2-0.2,0.4-0.3,0.5-0.5H1286.9z M1286.9-17.2v1h-39.7
			c0.9-0.4,1.7-0.6,2.5-0.8c0.8-0.1,1.6-0.2,2.5-0.2H1286.9z"/>
		<path class="st2" d="M1311.3-17.2v1h-16.7v-1H1311.3z M1311.3-14.9v1h-16.7v-1H1311.3z M1311.3-12.7v1h-16.7v-1H1311.3z
			 M1311.3-10.4v1h-16.7v-1H1311.3z M1311.3-8.2v1h-16.7v-1H1311.3z M1311.3-5.8v1h-16.7v-1H1311.3z M1311.3-3.5v1h-16.7v-1H1311.3z
			 M1311.3-1.1v1h-16.7v-1H1311.3z M1294.6,3.8h16.7v31.3h-16.7V3.8z"/>
		<path class="st2" d="M1318.9-28.6h16.7v1h-16.7V-28.6z M1318.9-26.4h16.7v1h-16.7V-26.4z M1318.9-24.1h16.7v1h-16.7V-24.1z
			 M1318.9-21.9h16.7v1h-16.7V-21.9z M1318.9-19.5h16.7v1h-16.7V-19.5z M1346.4-17.2v1h-27.4v-1H1346.4z M1346.4-14.9v1h-27.4v-1
			H1346.4z M1346.4-12.7v1h-27.4v-1H1346.4z M1346.4-10.4v1h-27.4v-1H1346.4z M1346.4-8.2v1h-27.4v-1H1346.4z M1346.4-5.8v1h-27.4
			v-1H1346.4z M1346.4-3.5v1h-27.4v-1H1346.4z M1346.4-1.1v1h-27.4v-1H1346.4z M1318.9,3.9h16.7V12c0,2,0.4,3.5,1.1,4.4
			c0.7,0.9,2.2,1.4,4.4,1.4h5.2v17.3h-14.4c-1.7,0-3.4-0.3-4.9-0.9c-1.6-0.6-2.9-1.4-4.2-2.6c-1.2-1.1-2.2-2.6-2.9-4.3
			c-0.7-1.7-1.1-3.7-1.1-6V3.9z"/>
		<path class="st2" d="M1354-7.2c0-0.1,0-0.2,0.1-0.5c0.1-0.3,0.1-0.4,0.1-0.5h41.5v1H1354z M1354-5.8h41.6v1H1354V-5.8z M1354-3.5
			h41.6v1H1354V-3.5z M1354-1.1h41.6v1H1354V-1.1z M1395.6,35.1h-28.4c-1.8,0-3.6-0.3-5.2-1c-1.6-0.6-3-1.5-4.3-2.7
			c-1.2-1.2-2.1-2.6-2.8-4.2c-0.7-1.6-1-3.4-1-5.4V4.5h36.1v8.8h-19c0,1.5,0.2,2.6,0.7,3.4c0.4,0.8,1.6,1.2,3.4,1.2h20.4V35.1z
			 M1354.5-9.5c0-0.1,0-0.2,0.1-0.5c0.1-0.3,0.1-0.4,0.2-0.5h40.9v1H1354.5z M1355.3-11.7c0.1-0.1,0.2-0.2,0.3-0.5
			c0.1-0.3,0.2-0.4,0.3-0.5h39.7v1H1355.3z M1395.6-15v1h-38.6c0.1-0.1,0.3-0.3,0.5-0.5c0.2-0.2,0.4-0.3,0.5-0.5H1395.6z
			 M1395.6-17.2v1h-35.4c0.9-0.4,1.7-0.6,2.5-0.8c0.8-0.1,1.6-0.2,2.5-0.2H1395.6z"/>
	</g>
</g>
</svg>
