<?xml version="1.0" encoding="utf-8"?>
<!-- Generator: Adobe Illustrator 19.0.0, SVG Export Plug-In . SVG Version: 6.00 Build 0)  -->
<svg version="1.1" xmlns="http://www.w3.org/2000/svg" xmlns:xlink="http://www.w3.org/1999/xlink" x="0px" y="0px"
	 viewBox="0 0 1396.6 73.8" style="enable-background:new 0 0 1396.6 73.8;" xml:space="preserve">
<style type="text/css">
	.st0{display:none;}
	.st1{display:inline;fill:#161616;}
	.st2{fill:#EB6312;}
	.st3{clip-path:url(#XMLID_232_);}
	.st4{fill:none;stroke:#EB6312;stroke-width:1.6;stroke-miterlimit:10;}
</style>
<g id="Capa_5" class="st0">
	<rect id="XMLID_171_" x="-69.9" y="-106.4" class="st1" width="1595.9" height="316.5"/>
</g>
<g id="Capa_3">
	<rect id="XMLID_11_" x="1311.8" y="24.3" class="st2" width="84.8" height="27.5"/>
	<rect id="XMLID_13_" y="24.5" class="st2" width="1116.9" height="27.5"/>
</g>
<g id="Capa_2">
	<g id="XMLID_174_">
		<defs>
			<rect id="XMLID_169_" x="1111.3" y="22.8" width="208.3" height="63.3"/>
		</defs>
		<clipPath id="XMLID_232_">
			<use xlink:href="#XMLID_169_"  style="overflow:visible;"/>
		</clipPath>
		<g id="XMLID_170_" class="st3">
			<path id="XMLID_3_" class="st2" d="M1116,3.5h31.9c0.8,0,1.5,0,2.2,0.1c0.7,0.1,1.6,0.4,2.7,0.8H1116V3.5z M1116,5.7h39
				c0.1,0.1,0.3,0.3,0.5,0.5c0.2,0.2,0.4,0.4,0.5,0.5h-40V5.7z M1157.1,8.1c0.1,0.1,0.2,0.2,0.3,0.5c0.1,0.3,0.2,0.4,0.3,0.5H1116
				v-1H1157.1z M1158.3,10.3c0.1,0.1,0.1,0.2,0.2,0.5c0.1,0.3,0.1,0.4,0.1,0.5H1116v-1H1158.3z M1158.9,12.6l0.1,1H1116v-1H1158.9z
				 M1159,15v1H1116v-1H1159z M1159,17.3v1H1116v-1H1159z M1159,19.7v1H1116v-1H1159z M1159,24.5v18.1c0,2-0.3,3.8-1,5.4
				c-0.7,1.6-1.6,3-2.8,4.2c-1.2,1.1-2.6,2-4.2,2.7c-1.6,0.6-3.4,1-5.2,1h-13.2v17.5H1116V24.5h16.7v14h4.7c1.7,0,3-0.4,3.9-1.1
				c0.9-0.7,1.4-1.4,1.5-2.1c0.1-0.3,0.1-0.6,0.1-1.1c0-0.5,0-0.9,0-1.2v-8.4H1159z"/>
			<path id="XMLID_195_" class="st2" d="M1211.4,13.6h-44.7c0-0.1,0-0.2,0.1-0.5c0.1-0.3,0.1-0.4,0.1-0.5h44.4L1211.4,13.6z
				 M1211.4,16h-44.7v-1h44.7V16z M1211.4,18.3h-44.7v-1h44.7V18.3z M1211.4,20.6h-44.7v-1h44.7V20.6z M1211.4,24.5v18.1
				c0,2-0.3,3.8-1,5.4c-0.7,1.6-1.6,3-2.8,4.2c-1.2,1.1-2.6,2-4.2,2.7c-1.6,0.6-3.4,1-5.2,1H1180c-1.8,0-3.6-0.3-5.2-1
				c-1.6-0.6-3-1.5-4.3-2.7c-1.2-1.1-2.1-2.5-2.8-4.2c-0.7-1.6-1-3.4-1-5.4V24.5h16.7v8.4c0,3.8,1.6,5.6,4.8,5.6h1.8
				c1.8,0,3.1-0.5,3.7-1.6c0.6-1.1,1-2.4,1-4.1v-8.4H1211.4z M1210.6,10.3c0.1,0.1,0.1,0.2,0.2,0.5c0.1,0.3,0.1,0.4,0.1,0.5h-43.8
				c0-0.1,0-0.2,0.1-0.5c0.1-0.3,0.1-0.4,0.2-0.5H1210.6z M1209.6,8.1c0.1,0.1,0.2,0.2,0.3,0.5c0.1,0.3,0.2,0.4,0.3,0.5H1168
				c0.1-0.1,0.2-0.2,0.3-0.5c0.1-0.3,0.2-0.4,0.3-0.5H1209.6z M1207.4,5.7c0.1,0.1,0.3,0.3,0.5,0.5c0.2,0.2,0.4,0.4,0.5,0.5h-38.7
				c0.1-0.1,0.3-0.3,0.5-0.5c0.2-0.2,0.4-0.3,0.5-0.5H1207.4z M1201,3.5c0.8,0,1.6,0.1,2.3,0.3c0.7,0.2,1.3,0.4,1.9,0.7h-32.3
				c0.6-0.3,1.2-0.5,2-0.7c0.7-0.2,1.5-0.3,2.3-0.3H1201z"/>
			<path id="XMLID_205_" class="st2" d="M1219,3.5h31.7c0.8,0,1.5,0,2.2,0.1c0.7,0.1,1.6,0.4,2.7,0.8H1219V3.5z M1219,5.7h38.8
				c0.1,0.1,0.3,0.3,0.5,0.5c0.2,0.2,0.4,0.4,0.5,0.5H1219V5.7z M1260,8.1c0.1,0.1,0.2,0.2,0.3,0.5c0.1,0.3,0.2,0.4,0.3,0.5H1219v-1
				H1260z M1261.1,10.3c0.1,0.1,0.1,0.2,0.2,0.5c0.1,0.3,0.1,0.4,0.1,0.5H1219v-1H1261.1z M1261.8,12.6l0.1,1H1219v-1H1261.8z
				 M1261.9,15v1H1219v-1H1261.9z M1261.9,17.3v1H1219v-1H1261.9z M1261.9,19.7v1H1219v-1H1261.9z M1219,24.5h16.7v31.4H1219V24.5z
				 M1245.2,24.5h16.7v31.4h-16.7V24.5z"/>
			<path id="XMLID_216_" class="st2" d="M1269.5,13.6c0-0.1,0-0.2,0.1-0.5c0.1-0.3,0.1-0.4,0.1-0.5h44.1v1H1269.5z M1269.5,15h44.3
				v1h-44.3V15z M1269.5,17.3h44.3v1h-44.3V17.3z M1269.5,19.7h44.3v1h-44.3V19.7z M1313.9,24.3v35.8c0,1.8-0.3,3.6-1,5.2
				c-0.6,1.6-1.5,3-2.7,4.2c-1.2,1.2-2.6,2.1-4.3,2.8c-1.7,0.7-3.5,1-5.4,1h-30.9V55.9h22.4c1.6,0,2.9-0.4,3.8-1.3
				c1-0.9,1.4-1.9,1.4-3.1v-3.4c0-0.1,0-0.3,0-0.6c0-0.3-0.1-0.4-0.3-0.4c-0.3,0-0.4,0.1-0.4,0.4c-0.1,1.3-0.6,2.2-1.5,2.8
				c-0.9,0.6-2.2,0.9-4.1,0.9h-8c-1.8,0-3.6-0.3-5.2-1c-1.6-0.6-3-1.5-4.3-2.7c-1.2-1.2-2.1-2.6-2.8-4.2c-0.7-1.6-1-3.4-1-5.4V24.3
				h16.7v5.4c0,1.5,0.4,2.8,1.3,3.7c0.9,0.9,2,1.4,3.3,1.4h1.9c1.2,0,2.2-0.5,3.1-1.4c0.9-0.9,1.3-2,1.3-3.1v-6H1313.9z M1270,11.3
				c0-0.1,0-0.2,0.1-0.5c0.1-0.3,0.1-0.4,0.2-0.5h43.6v1H1270z M1270.9,9.1c0.1-0.1,0.2-0.2,0.3-0.5c0.1-0.3,0.2-0.4,0.3-0.5h42.4v1
				H1270.9z M1313.9,5.7v1h-41.3c0.1-0.1,0.3-0.3,0.5-0.5c0.2-0.2,0.4-0.3,0.5-0.5H1313.9z M1313.9,3.5v1h-38.1
				c1.1-0.4,2-0.7,2.8-0.8c0.8-0.1,1.5-0.1,2.3-0.1H1313.9z"/>
		</g>
	</g>
</g>
<g id="Capa_4">
	<line id="XMLID_1_" class="st4" x1="1159" y1="17.9" x2="0" y2="17.9"/>
	<line id="XMLID_172_" class="st4" x1="1158.6" y1="13.4" x2="0" y2="13.4"/>
	<line id="XMLID_173_" class="st4" x1="1156.7" y1="8.9" x2="0" y2="8.9"/>
	<line id="XMLID_175_" class="st4" x1="1151.9" y1="4.4" x2="0" y2="4.4"/>
</g>
<g id="Capa_6">
	<line id="XMLID_180_" class="st4" x1="1269.9" y1="17.9" x2="1396.6" y2="17.9"/>
	<line id="XMLID_179_" class="st4" x1="1270" y1="13.4" x2="1396.6" y2="13.4"/>
	<line id="XMLID_178_" class="st4" x1="1271.7" y1="8.9" x2="1396.6" y2="8.9"/>
	<line id="XMLID_177_" class="st4" x1="1276.8" y1="4.4" x2="1396.6" y2="4.4"/>
</g>
<g id="Capa_7">
	<line id="XMLID_188_" class="st4" x1="1167.3" y1="17.9" x2="1211.1" y2="17.9"/>
	<line id="XMLID_187_" class="st4" x1="1167.6" y1="13.4" x2="1210.7" y2="13.4"/>
	<line id="XMLID_186_" class="st4" x1="1169.2" y1="8.9" x2="1209" y2="8.9"/>
	<line id="XMLID_185_" class="st4" x1="1174.4" y1="4.4" x2="1204" y2="4.4"/>
</g>
<g id="Capa_8">
	<line id="XMLID_192_" class="st4" x1="1219.3" y1="17.9" x2="1261.1" y2="17.9"/>
	<line id="XMLID_191_" class="st4" x1="1219.3" y1="13.4" x2="1261.1" y2="13.4"/>
	<line id="XMLID_190_" class="st4" x1="1219.2" y1="8.9" x2="1259.4" y2="8.9"/>
	<line id="XMLID_189_" class="st4" x1="1219.3" y1="4.4" x2="1253.5" y2="4.4"/>
	<g id="XMLID_2_">
	</g>
	<g id="XMLID_226_">
	</g>
	<g id="XMLID_227_">
	</g>
	<g id="XMLID_228_">
	</g>
	<g id="XMLID_229_">
	</g>
	<g id="XMLID_230_">
	</g>
</g>
</svg>
