<?xml version="1.0" encoding="utf-8"?>
<!-- Generator: Adobe Illustrator 19.0.0, SVG Export Plug-In . SVG Version: 6.00 Build 0)  -->
<svg version="1.1" id="Capa_1" xmlns="http://www.w3.org/2000/svg" xmlns:xlink="http://www.w3.org/1999/xlink" x="0px" y="0px"
	 viewBox="-321.7 -31.8 1800 84.8" style="enable-background:new -321.7 -31.8 1800 84.8;" xml:space="preserve">
<style type="text/css">
	.st0{display:none;}
	.st1{display:inline;fill:#161616;}
	.st2{fill:#FFF8E3;}
	.st3{fill:none;stroke:#FFF8E3;stroke-width:1.6;stroke-miterlimit:10;}
	.st4{clip-path:url(#XMLID_41_);}
</style>
<g id="Capa_5" class="st0">
	<rect id="XMLID_171_" x="-377.4" y="-127.2" class="st1" width="1970.8" height="316.5"/>
</g>
<g id="Capa_3">
	<rect id="XMLID_11_" x="1382.7" y="3.9" class="st2" width="95.6" height="31.2"/>
	<rect id="XMLID_13_" x="-321.7" y="4" class="st2" width="1429.6" height="31.1"/>
</g>
<g id="Capa_4">
	<line id="XMLID_1_" class="st3" x1="1138.5" y1="-2.9" x2="-321.7" y2="-2.9"/>
	<line id="XMLID_172_" class="st3" x1="1138.5" y1="-7.4" x2="-321.7" y2="-7.4"/>
	<line id="XMLID_173_" class="st3" x1="1138.5" y1="-11.9" x2="-321.7" y2="-11.9"/>
	<line id="XMLID_175_" class="st3" x1="1138.5" y1="-16.4" x2="-321.7" y2="-16.4"/>
</g>
<g id="Capa_7">
	<line id="XMLID_188_" class="st3" x1="1146.1" y1="-2.9" x2="1173.3" y2="-2.9"/>
	<line id="XMLID_187_" class="st3" x1="1146.3" y1="-7.4" x2="1173.3" y2="-7.4"/>
	<line id="XMLID_186_" class="st3" x1="1147.8" y1="-11.9" x2="1173.3" y2="-11.9"/>
	<line id="XMLID_185_" class="st3" x1="1153.6" y1="-16.4" x2="1173.3" y2="-16.4"/>
</g>
<g id="Capa_8">
	<line id="XMLID_192_" class="st3" x1="1181.1" y1="-2.9" x2="1197.7" y2="-2.9"/>
	<line id="XMLID_191_" class="st3" x1="1181.1" y1="-7.4" x2="1197.7" y2="-7.4"/>
	<line id="XMLID_190_" class="st3" x1="1181" y1="-11.9" x2="1197.7" y2="-11.9"/>
	<line id="XMLID_189_" class="st3" x1="1181.1" y1="-16.4" x2="1197.7" y2="-16.4"/>
	<g id="XMLID_2_">
	</g>
	<g id="XMLID_226_">
	</g>
	<g id="XMLID_227_">
	</g>
	<g id="XMLID_228_">
	</g>
	<g id="XMLID_229_">
	</g>
	<g id="XMLID_230_">
	</g>
</g>
<g id="Capa_8_1_">
	<line id="XMLID_16_" class="st3" x1="1205.4" y1="-2.9" x2="1247.1" y2="-2.9"/>
	<line id="XMLID_15_" class="st3" x1="1205.6" y1="-7.4" x2="1247.1" y2="-7.4"/>
	<line id="XMLID_14_" class="st3" x1="1207" y1="-11.9" x2="1247.1" y2="-11.9"/>
	<line id="XMLID_12_" class="st3" x1="1213.3" y1="-16.4" x2="1247.1" y2="-16.4"/>
	<g id="XMLID_10_">
	</g>
	<g id="XMLID_9_">
	</g>
	<g id="XMLID_8_">
	</g>
	<g id="XMLID_7_">
	</g>
	<g id="XMLID_6_">
	</g>
	<g id="XMLID_3_">
	</g>
</g>
<g id="Capa_8_2_">
	<line id="XMLID_26_" class="st3" x1="1254.5" y1="-2.9" x2="1297.3" y2="-2.9"/>
	<line id="XMLID_25_" class="st3" x1="1254.5" y1="-7.4" x2="1297.3" y2="-7.4"/>
	<line id="XMLID_24_" class="st3" x1="1254.5" y1="-11.9" x2="1295.6" y2="-11.9"/>
	<line id="XMLID_23_" class="st3" x1="1254.5" y1="-16.4" x2="1289.3" y2="-16.4"/>
	<g id="XMLID_22_">
	</g>
	<g id="XMLID_21_">
	</g>
	<g id="XMLID_20_">
	</g>
	<g id="XMLID_19_">
	</g>
	<g id="XMLID_18_">
	</g>
	<g id="XMLID_17_">
	</g>
</g>
<g id="Capa_8_3_">
	<line id="XMLID_36_" class="st3" x1="1305.1" y1="-2.9" x2="1349.8" y2="-2.9"/>
	<line id="XMLID_35_" class="st3" x1="1305.1" y1="-7.4" x2="1349.8" y2="-7.4"/>
	<line id="XMLID_34_" class="st3" x1="1306.8" y1="-11.9" x2="1349.8" y2="-11.9"/>
	<line id="XMLID_33_" class="st3" x1="1312.6" y1="-16.4" x2="1349.8" y2="-16.4"/>
	<line id="XMLID_37_" class="st3" x1="1333.1" y1="-20.8" x2="1349.8" y2="-20.8"/>
	<line id="XMLID_38_" class="st3" x1="1333.1" y1="-25.4" x2="1349.8" y2="-25.4"/>
	<line id="XMLID_39_" class="st3" x1="1333.1" y1="-29.7" x2="1349.8" y2="-29.7"/>
	<g id="XMLID_32_">
	</g>
	<g id="XMLID_31_">
	</g>
	<g id="XMLID_30_">
	</g>
	<g id="XMLID_29_">
	</g>
	<g id="XMLID_28_">
	</g>
	<g id="XMLID_27_">
	</g>
</g>
<g id="Capa_6">
	<line id="XMLID_180_" class="st3" x1="1356" y1="-2.9" x2="1478.3" y2="-2.9"/>
	<line id="XMLID_179_" class="st3" x1="1355.8" y1="-7.4" x2="1478.3" y2="-7.4"/>
	<line id="XMLID_178_" class="st3" x1="1357.4" y1="-11.9" x2="1478.3" y2="-11.9"/>
	<line id="XMLID_177_" class="st3" x1="1363.1" y1="-16.4" x2="1478.3" y2="-16.4"/>
</g>
<g id="XMLID_4_">
	<defs>
		<rect id="XMLID_169_" x="1080" y="1.5" width="321.3" height="63.7"/>
	</defs>
	<clipPath id="XMLID_41_">
		<use xlink:href="#XMLID_169_"  style="overflow:visible;"/>
	</clipPath>
	<g id="XMLID_5_" class="st4">
		<path class="st2" d="M1102.6-7.2c0-0.1,0-0.2,0.1-0.5c0.1-0.3,0.1-0.4,0.1-0.5h35.7v1H1102.6z M1102.6-5.8h35.9v1h-35.9V-5.8z
			 M1102.6-3.5h35.9v1h-35.9V-3.5z M1102.6-1.1h35.9v1h-35.9V-1.1z M1102.6,4h30.4v9.1h-9v39h-16.7v-39h-4.7V4z M1103.1-9.5
			c0-0.1,0-0.2,0.1-0.5c0.1-0.3,0.1-0.4,0.2-0.5h35.2v1H1103.1z M1103.9-11.7c0.1-0.1,0.2-0.2,0.3-0.5c0.1-0.3,0.2-0.4,0.3-0.5h34v1
			H1103.9z M1138.5-15v1h-32.9c0.1-0.1,0.3-0.3,0.5-0.5c0.2-0.2,0.4-0.3,0.5-0.5H1138.5z M1138.5-17.2v1h-29.7
			c1.1-0.4,2-0.7,2.8-0.8c0.8-0.1,1.5-0.1,2.3-0.1H1138.5z"/>
		<path class="st2" d="M1146.1-5.8h27.3v1h-27.3V-5.8z M1146.1-3.5h27.3v1h-27.3V-3.5z M1146.1-1.1h27.3v1h-27.3V-1.1z M1146.1,3.9
			h16.7v31.2h-16.7V3.9z M1146.2-7.2c0-0.1,0-0.2,0.1-0.5c0.1-0.3,0.1-0.4,0.1-0.5h27v1H1146.2z M1146.6-9.5c0-0.1,0-0.2,0.1-0.5
			c0.1-0.3,0.1-0.4,0.2-0.5h26.5v1H1146.6z M1147.5-11.7c0.1-0.1,0.2-0.2,0.3-0.5c0.1-0.3,0.2-0.4,0.3-0.5h25.3v1H1147.5z
			 M1173.4-15v1h-24.2c0.1-0.1,0.3-0.3,0.5-0.5c0.2-0.2,0.4-0.3,0.5-0.5H1173.4z M1173.4-17.2v1h-21c1.1-0.4,2-0.7,2.8-0.8
			c0.8-0.1,1.5-0.1,2.3-0.1H1173.4z"/>
		<path class="st2" d="M1197.7-17.2v1H1181v-1H1197.7z M1197.7-14.9v1H1181v-1H1197.7z M1197.7-12.7v1H1181v-1H1197.7z M1197.7-10.4
			v1H1181v-1H1197.7z M1197.7-8.2v1H1181v-1H1197.7z M1197.7-5.8v1H1181v-1H1197.7z M1197.7-3.5v1H1181v-1H1197.7z M1197.7-1.1v1
			H1181v-1H1197.7z M1181,3.8h16.7v31.3H1181V3.8z"/>
		<path class="st2" d="M1205.4-7.2c0-0.1,0-0.2,0.1-0.5c0.1-0.3,0.1-0.4,0.1-0.5h41.5v1H1205.4z M1205.4-5.8h41.6v1h-41.6V-5.8z
			 M1205.4-3.5h41.6v1h-41.6V-3.5z M1205.4-1.1h41.6v1h-41.6V-1.1z M1247,35.1h-28.4c-1.8,0-3.6-0.3-5.2-1c-1.6-0.6-3-1.5-4.3-2.7
			c-1.2-1.2-2.1-2.6-2.8-4.2c-0.7-1.6-1-3.4-1-5.4V4.5h36.1v8.8h-19c0,1.5,0.2,2.6,0.7,3.4c0.4,0.8,1.6,1.2,3.4,1.2h20.4V35.1z
			 M1205.9-9.5c0-0.1,0-0.2,0.1-0.5c0.1-0.3,0.1-0.4,0.2-0.5h40.9v1H1205.9z M1206.7-11.7c0.1-0.1,0.2-0.2,0.3-0.5
			c0.1-0.3,0.2-0.4,0.3-0.5h39.7v1H1206.7z M1247-15v1h-38.6c0.1-0.1,0.3-0.3,0.5-0.5c0.2-0.2,0.4-0.3,0.5-0.5H1247z M1247-17.2v1
			h-35.4c0.9-0.4,1.7-0.6,2.5-0.8c0.8-0.1,1.6-0.2,2.5-0.2H1247z"/>
		<path class="st2" d="M1254.5-17.2h31.7c0.8,0,1.5,0,2.2,0.1c0.7,0.1,1.6,0.4,2.7,0.8h-36.7V-17.2z M1254.5-15h38.8
			c0.1,0.1,0.3,0.3,0.5,0.5c0.2,0.2,0.4,0.4,0.5,0.5h-39.8V-15z M1295.4-12.6c0.1,0.1,0.2,0.2,0.3,0.5c0.1,0.3,0.2,0.4,0.3,0.5
			h-41.5v-1H1295.4z M1296.6-10.4c0.1,0.1,0.1,0.2,0.2,0.5c0.1,0.3,0.1,0.4,0.1,0.5h-42.4v-1H1296.6z M1297.3-8.2l0.1,1h-42.9v-1
			H1297.3z M1297.4-5.8v1h-42.9v-1H1297.4z M1297.4-3.5v1h-42.9v-1H1297.4z M1297.4-1.1v1h-42.9v-1H1297.4z M1254.5,3.7h16.7v31.4
			h-16.7V3.7z M1280.6,3.7h16.7v31.4h-16.7V3.7z"/>
		<path class="st2" d="M1305-7.2c0-0.1,0-0.2,0.1-0.5c0.1-0.3,0.1-0.4,0.1-0.5h44.6v1H1305z M1305.1-5.8h44.7v1h-44.7V-5.8z
			 M1305.1-3.5h44.7v1h-44.7V-3.5z M1305.1-1.1h44.7v1h-44.7V-1.1z M1349.8,3.7v17.9c0,4.4-1.3,7.7-3.8,10c-2.5,2.3-6,3.4-10.5,3.4
			h-16.7c-4.1,0-7.5-1.2-10-3.7c-2.5-2.5-3.8-5.8-3.8-10.2V3.7h16.7v8.4c0,1.7,0.3,3.1,1.1,4.1c0.7,1,1.9,1.5,3.6,1.5h1.8
			c3.2,0,4.8-1.9,4.8-5.6V3.7H1349.8z M1305.5-9.5c0-0.1,0-0.2,0.1-0.5c0.1-0.3,0.1-0.4,0.2-0.5h44v1H1305.5z M1306.3-11.7
			c0.1-0.1,0.2-0.2,0.3-0.5c0.1-0.3,0.2-0.4,0.3-0.5h42.9v1H1306.3z M1349.8-15v1h-41.7c0.1-0.1,0.3-0.3,0.5-0.5
			c0.2-0.2,0.4-0.3,0.5-0.5H1349.8z M1349.8-17.2v1h-38.6c1.1-0.4,2-0.7,2.8-0.8c0.8-0.1,1.5-0.1,2.3-0.1H1349.8z M1349.8-28.6v1
			h-16.7v-1H1349.8z M1349.8-26.4v1h-16.7v-1H1349.8z M1349.8-24.1v1h-16.7v-1H1349.8z M1349.8-21.9v1h-16.7v-1H1349.8z
			 M1349.8-19.5v1h-16.7v-1H1349.8z"/>
		<path class="st2" d="M1359.8,3.9h23l9.2,9.9c1.3,1.3,2.2,2.7,2.7,4.2c0.5,1.4,0.8,3,0.8,4.7c0,3.6-1.2,6.5-3.6,8.9
			c-2.4,2.4-5.9,3.5-10.5,3.5h-26.3V17.8h17.9L1359.8,3.9z M1355.6-5.8h37.5v1h-37.5V-5.8z M1355.8-8.2h37.3v1h-37.4L1355.8-8.2z
			 M1355.8-3.5h37.3v1h-37.3L1355.8-3.5z M1356.1-9.5c0-0.1,0.1-0.2,0.2-0.5c0.1-0.3,0.2-0.4,0.2-0.5h36.7v1H1356.1z M1356.8-0.1
			c-0.1-0.1-0.1-0.2-0.2-0.4c-0.1-0.2-0.1-0.4-0.2-0.5h36.8v1H1356.8z M1357-11.7c0.1-0.1,0.2-0.2,0.3-0.5c0.1-0.3,0.2-0.4,0.3-0.5
			h35.6v1H1357z M1393.2-15v1h-34.5c0.1-0.1,0.3-0.3,0.5-0.5c0.2-0.2,0.4-0.3,0.5-0.5H1393.2z M1393.2-17.2v1h-31.2
			c1.1-0.4,2-0.7,2.7-0.8c0.7-0.1,1.5-0.1,2.2-0.1H1393.2z"/>
	</g>
</g>
</svg>
