<?xml version="1.0" encoding="utf-8"?>
<!-- Generator: Adobe Illustrator 19.0.0, SVG Export Plug-In . SVG Version: 6.00 Build 0)  -->
<svg version="1.1" id="Capa_1" xmlns="http://www.w3.org/2000/svg" xmlns:xlink="http://www.w3.org/1999/xlink" x="0px" y="0px"
	 viewBox="-321.7 -31.8 1800 84.8" style="enable-background:new -321.7 -31.8 1800 84.8;" xml:space="preserve">
<style type="text/css">
	.st0{fill:#161616;}
	.st1{fill:#FFF8E3;}
	.st2{fill:none;stroke:#FFF8E3;stroke-width:1.6;stroke-miterlimit:10;}
	.st3{clip-path:url(#XMLID_41_);}
</style>
<g id="Capa_3">
	<rect id="XMLID_11_" x="1395.2" y="3.8" class="st1" width="83.1" height="31.3"/>
	<rect id="XMLID_13_" x="-321.7" y="3.7" class="st1" width="1494" height="31.4"/>
</g>
<g id="Capa_4">
	<line id="XMLID_1_" class="st2" x1="1212.4" y1="-2.9" x2="-321.7" y2="-2.9"/>
	<line id="XMLID_172_" class="st2" x1="1212.1" y1="-7.4" x2="-321.7" y2="-7.4"/>
	<line id="XMLID_173_" class="st2" x1="1210.7" y1="-11.9" x2="-321.7" y2="-11.9"/>
	<line id="XMLID_175_" class="st2" x1="1204" y1="-16.4" x2="-321.7" y2="-16.4"/>
</g>
<g id="Capa_8_1_">
	<line id="XMLID_16_" class="st2" x1="1219.9" y1="-2.9" x2="1261.6" y2="-2.9"/>
	<line id="XMLID_15_" class="st2" x1="1220" y1="-7.4" x2="1261.6" y2="-7.4"/>
	<line id="XMLID_14_" class="st2" x1="1221.5" y1="-11.9" x2="1261.6" y2="-11.9"/>
	<line id="XMLID_12_" class="st2" x1="1227.8" y1="-16.4" x2="1261.6" y2="-16.4"/>
	<g id="XMLID_10_">
	</g>
	<g id="XMLID_9_">
	</g>
	<g id="XMLID_8_">
	</g>
	<g id="XMLID_7_">
	</g>
	<g id="XMLID_6_">
	</g>
	<g id="XMLID_3_">
	</g>
</g>
<g id="Capa_8_2_">
	<line id="XMLID_26_" class="st2" x1="1275.9" y1="-2.9" x2="1303.3" y2="-2.9"/>
	<line id="XMLID_25_" class="st2" x1="1275.9" y1="-7.4" x2="1303.3" y2="-7.4"/>
	<line id="XMLID_24_" class="st2" x1="1277.9" y1="-11.9" x2="1303.3" y2="-11.9"/>
	<line id="XMLID_23_" class="st2" x1="1283.7" y1="-16.4" x2="1303.3" y2="-16.4"/>
	<g id="XMLID_22_">
	</g>
	<g id="XMLID_21_">
	</g>
	<g id="XMLID_20_">
	</g>
	<g id="XMLID_19_">
	</g>
	<g id="XMLID_18_">
	</g>
	<g id="XMLID_17_">
	</g>
</g>
<g id="Capa_6">
	<line id="XMLID_180_" class="st2" x1="1310.9" y1="-2.9" x2="1346.8" y2="-2.9"/>
	<line id="XMLID_179_" class="st2" x1="1310.6" y1="-7.4" x2="1346.8" y2="-7.4"/>
	<line id="XMLID_178_" class="st2" x1="1312.3" y1="-11.9" x2="1346.8" y2="-11.9"/>
	<line id="XMLID_177_" class="st2" x1="1318" y1="-16.4" x2="1346.8" y2="-16.4"/>
</g>
<g id="Capa_8">
	<line id="XMLID_192_" class="st2" x1="1354.5" y1="-2.9" x2="1371.1" y2="-2.9"/>
	<line id="XMLID_191_" class="st2" x1="1354.5" y1="-7.4" x2="1371.1" y2="-7.4"/>
	<line id="XMLID_190_" class="st2" x1="1354.4" y1="-11.9" x2="1371.1" y2="-11.9"/>
	<line id="XMLID_189_" class="st2" x1="1354.5" y1="-16.4" x2="1371.1" y2="-16.4"/>
	<g id="XMLID_2_">
	</g>
	<g id="XMLID_226_">
	</g>
	<g id="XMLID_227_">
	</g>
	<g id="XMLID_228_">
	</g>
	<g id="XMLID_229_">
	</g>
	<g id="XMLID_230_">
	</g>
</g>
<g id="Capa_8_3_">
	<line id="XMLID_36_" class="st2" x1="1378.8" y1="-2.9" x2="1478.3" y2="-2.9"/>
	<line id="XMLID_35_" class="st2" x1="1378.8" y1="-7.4" x2="1478.3" y2="-7.4"/>
	<line id="XMLID_34_" class="st2" x1="1378.8" y1="-11.9" x2="1478.3" y2="-11.9"/>
	<line id="XMLID_33_" class="st2" x1="1378.8" y1="-16.4" x2="1478.3" y2="-16.4"/>
	<line id="XMLID_37_" class="st2" x1="1378.8" y1="-20.8" x2="1393.2" y2="-20.8"/>
	<line id="XMLID_38_" class="st2" x1="1378.8" y1="-25.4" x2="1393.2" y2="-25.4"/>
	<line id="XMLID_39_" class="st2" x1="1378.8" y1="-29.7" x2="1393.2" y2="-29.7"/>
	<g id="XMLID_32_">
	</g>
	<g id="XMLID_31_">
	</g>
	<g id="XMLID_30_">
	</g>
	<g id="XMLID_29_">
	</g>
	<g id="XMLID_28_">
	</g>
	<g id="XMLID_27_">
	</g>
</g>
<g id="XMLID_4_">
	<defs>
		<rect id="XMLID_169_" x="1080" y="0.9" width="321.3" height="64.4"/>
	</defs>
	<clipPath id="XMLID_41_">
		<use xlink:href="#XMLID_169_"  style="overflow:visible;"/>
	</clipPath>
	<g id="XMLID_5_" class="st3">
		<path class="st1" d="M1169.2-17.2h31.9c0.8,0,1.5,0,2.2,0.1c0.7,0.1,1.6,0.4,2.7,0.8h-36.9V-17.2z M1169.2-15h39
			c0.1,0.1,0.3,0.3,0.5,0.5c0.2,0.2,0.4,0.4,0.5,0.5h-40V-15z M1210.3-12.6c0.1,0.1,0.2,0.2,0.3,0.5c0.1,0.3,0.2,0.4,0.3,0.5h-41.7
			v-1H1210.3z M1211.5-10.4c0.1,0.1,0.1,0.2,0.2,0.5c0.1,0.3,0.1,0.4,0.1,0.5h-42.6v-1H1211.5z M1212.2-8.2l0.1,1h-43.1v-1H1212.2z
			 M1212.3-5.8v1h-43.1v-1H1212.3z M1212.3-3.5v1h-43.1v-1H1212.3z M1212.3-1.1v1h-43.1v-1H1212.3z M1212.3,3.7v18.1
			c0,2-0.3,3.8-1,5.4c-0.7,1.6-1.6,3-2.8,4.2c-1.2,1.1-2.6,2-4.2,2.7c-1.6,0.6-3.4,1-5.2,1h-13.2v17.5h-16.7V3.7h16.7v14h4.7
			c1.7,0,3-0.4,3.9-1.1c0.9-0.7,1.4-1.4,1.5-2.1c0.1-0.3,0.1-0.6,0.1-1.1c0-0.5,0-0.9,0-1.2V3.7H1212.3z"/>
		<path class="st1" d="M1219.9-7.2c0-0.1,0-0.2,0.1-0.5c0.1-0.3,0.1-0.4,0.1-0.5h41.5v1H1219.9z M1219.9-5.8h41.6v1h-41.6V-5.8z
			 M1219.9-3.5h41.6v1h-41.6V-3.5z M1219.9-1.1h41.6v1h-41.6V-1.1z M1261.5,35.1h-28.4c-1.8,0-3.6-0.3-5.2-1c-1.6-0.6-3-1.5-4.3-2.7
			c-1.2-1.2-2.1-2.6-2.8-4.2c-0.7-1.6-1-3.4-1-5.4V4.5h36.1v8.8h-19c0,1.5,0.2,2.6,0.7,3.4c0.4,0.8,1.6,1.2,3.4,1.2h20.4V35.1z
			 M1220.4-9.5c0-0.1,0-0.2,0.1-0.5c0.1-0.3,0.1-0.4,0.2-0.5h40.9v1H1220.4z M1221.2-11.7c0.1-0.1,0.2-0.2,0.3-0.5
			c0.1-0.3,0.2-0.4,0.3-0.5h39.7v1H1221.2z M1261.5-15v1H1223c0.1-0.1,0.3-0.3,0.5-0.5c0.2-0.2,0.4-0.3,0.5-0.5H1261.5z
			 M1261.5-17.2v1h-35.4c0.9-0.4,1.7-0.6,2.5-0.8c0.8-0.1,1.6-0.2,2.5-0.2H1261.5z"/>
		<path class="st1" d="M1276-5.8h27.3v1H1276V-5.8z M1276-3.5h27.3v1H1276V-3.5z M1276-1.1h27.3v1H1276V-1.1z M1276,3.9h16.7v31.2
			H1276V3.9z M1276.1-7.2c0-0.1,0-0.2,0.1-0.5c0.1-0.3,0.1-0.4,0.1-0.5h27v1H1276.1z M1276.5-9.5c0-0.1,0-0.2,0.1-0.5
			c0.1-0.3,0.1-0.4,0.2-0.5h26.5v1H1276.5z M1277.4-11.7c0.1-0.1,0.2-0.2,0.3-0.5c0.1-0.3,0.2-0.4,0.3-0.5h25.3v1H1277.4z
			 M1303.3-15v1h-24.2c0.1-0.1,0.3-0.3,0.5-0.5c0.2-0.2,0.4-0.3,0.5-0.5H1303.3z M1303.3-17.2v1h-21c1.1-0.4,2-0.7,2.8-0.8
			c0.8-0.1,1.5-0.1,2.3-0.1H1303.3z"/>
		<path class="st1" d="M1310.9-7.2c0-0.1,0-0.2,0.1-0.5c0.1-0.3,0.1-0.4,0.1-0.5h35.7v1H1310.9z M1310.9-5.8h35.9v1h-35.9V-5.8z
			 M1310.9-3.5h35.9v1h-35.9V-3.5z M1310.9-1.1h35.9v1h-35.9V-1.1z M1310.9,4h30.4v9.1h-9v39h-16.7v-39h-4.7V4z M1311.4-9.5
			c0-0.1,0-0.2,0.1-0.5c0.1-0.3,0.1-0.4,0.2-0.5h35.2v1H1311.4z M1312.3-11.7c0.1-0.1,0.2-0.2,0.3-0.5c0.1-0.3,0.2-0.4,0.3-0.5h34v1
			H1312.3z M1346.8-15v1H1314c0.1-0.1,0.3-0.3,0.5-0.5c0.2-0.2,0.4-0.3,0.5-0.5H1346.8z M1346.8-17.2v1h-29.7c1.1-0.4,2-0.7,2.8-0.8
			c0.8-0.1,1.5-0.1,2.3-0.1H1346.8z"/>
		<path class="st1" d="M1371.2-17.2v1h-16.7v-1H1371.2z M1371.2-14.9v1h-16.7v-1H1371.2z M1371.2-12.7v1h-16.7v-1H1371.2z
			 M1371.2-10.4v1h-16.7v-1H1371.2z M1371.2-8.2v1h-16.7v-1H1371.2z M1371.2-5.8v1h-16.7v-1H1371.2z M1371.2-3.5v1h-16.7v-1H1371.2z
			 M1371.2-1.1v1h-16.7v-1H1371.2z M1354.5,3.8h16.7v31.3h-16.7V3.8z"/>
		<path class="st1" d="M1378.8-28.6h16.7v1h-16.7V-28.6z M1378.8-26.4h16.7v1h-16.7V-26.4z M1378.8-24.1h16.7v1h-16.7V-24.1z
			 M1378.8-21.9h16.7v1h-16.7V-21.9z M1378.8-19.5h16.7v1h-16.7V-19.5z M1395.5-17.2v1h-16.7v-1H1395.5z M1395.5-14.9v1h-16.7v-1
			H1395.5z M1395.5-12.7v1h-16.7v-1H1395.5z M1395.5-10.4v1h-16.7v-1H1395.5z M1395.5-8.2v1h-16.7v-1H1395.5z M1395.5-5.8v1h-16.7
			v-1H1395.5z M1395.5-3.5v1h-16.7v-1H1395.5z M1395.5-1.1v1h-16.7v-1H1395.5z M1378.8,3.8h16.7v31.3h-16.7V3.8z"/>
	</g>
</g>
</svg>
