<?xml version="1.0" encoding="utf-8"?>
<!-- Generator: Adobe Illustrator 19.0.0, SVG Export Plug-In . SVG Version: 6.00 Build 0)  -->
<svg version="1.1" id="Capa_1" xmlns="http://www.w3.org/2000/svg" xmlns:xlink="http://www.w3.org/1999/xlink" x="0px" y="0px"
	 viewBox="-321.7 -31.8 1800 84.8" style="enable-background:new -321.7 -31.8 1800 84.8;" xml:space="preserve">
<style type="text/css">
	.st0{display:none;}
	.st1{display:inline;fill:#161616;}
	.st2{fill:#FFF8E3;}
	.st3{fill:none;stroke:#FFF8E3;stroke-width:1.6;stroke-miterlimit:10;}
	.st4{clip-path:url(#XMLID_73_);}
</style>
<g id="Capa_5" class="st0">
	<rect id="XMLID_171_" x="-377.4" y="-127.2" class="st1" width="1970.8" height="316.5"/>
</g>
<g id="Capa_3">
	<rect id="XMLID_11_" x="1390.2" y="3.8" class="st2" width="88.1" height="31.3"/>
	<rect id="XMLID_13_" x="-321.7" y="3.8" class="st2" width="1374.9" height="31.3"/>
</g>
<g id="Capa_4">
	<line id="XMLID_1_" class="st3" x1="1096.5" y1="-2.9" x2="-321.7" y2="-2.9"/>
	<line id="XMLID_172_" class="st3" x1="1096.3" y1="-7.4" x2="-321.7" y2="-7.4"/>
	<line id="XMLID_173_" class="st3" x1="1094.2" y1="-11.9" x2="-321.7" y2="-11.9"/>
	<line id="XMLID_175_" class="st3" x1="1087.3" y1="-16.4" x2="-321.7" y2="-16.4"/>
</g>
<g id="Capa_4_1_">
	<line id="XMLID_42_" class="st3" x1="1069.2" y1="-20.9" x2="1052.6" y2="-20.9"/>
	<line id="XMLID_41_" class="st3" x1="1069.2" y1="-25.4" x2="1052.6" y2="-25.4"/>
	<line id="XMLID_40_" class="st3" x1="1069.2" y1="-29.9" x2="1052.6" y2="-29.9"/>
</g>
<g id="Capa_7">
	<line id="XMLID_188_" class="st3" x1="1103.9" y1="-2.9" x2="1120.5" y2="-2.9"/>
	<line id="XMLID_187_" class="st3" x1="1103.9" y1="-7.4" x2="1120.5" y2="-7.4"/>
	<line id="XMLID_186_" class="st3" x1="1103.9" y1="-11.9" x2="1120.5" y2="-11.9"/>
	<line id="XMLID_185_" class="st3" x1="1103.9" y1="-16.4" x2="1120.5" y2="-16.4"/>
</g>
<g id="Capa_8_1_">
	<line id="XMLID_16_" class="st3" x1="1128.8" y1="-2.9" x2="1166.3" y2="-2.9"/>
	<line id="XMLID_15_" class="st3" x1="1129" y1="-7.4" x2="1166.3" y2="-7.4"/>
	<line id="XMLID_14_" class="st3" x1="1130.4" y1="-11.9" x2="1166.3" y2="-11.9"/>
	<line id="XMLID_12_" class="st3" x1="1136.7" y1="-16.4" x2="1166.3" y2="-16.4"/>
	<g id="XMLID_10_">
	</g>
	<g id="XMLID_9_">
	</g>
	<g id="XMLID_8_">
	</g>
	<g id="XMLID_7_">
	</g>
	<g id="XMLID_6_">
	</g>
	<g id="XMLID_3_">
	</g>
</g>
<g id="Capa_8_2_">
	<line id="XMLID_26_" class="st3" x1="1176.2" y1="-2.9" x2="1203.7" y2="-2.9"/>
	<line id="XMLID_25_" class="st3" x1="1176.2" y1="-7.4" x2="1203.7" y2="-7.4"/>
	<line id="XMLID_24_" class="st3" x1="1176.2" y1="-11.9" x2="1203.7" y2="-11.9"/>
	<line id="XMLID_23_" class="st3" x1="1176.2" y1="-16.4" x2="1203.7" y2="-16.4"/>
	<g id="XMLID_22_">
	</g>
	<g id="XMLID_21_">
	</g>
	<g id="XMLID_20_">
	</g>
	<g id="XMLID_19_">
	</g>
	<g id="XMLID_18_">
	</g>
	<g id="XMLID_17_">
	</g>
</g>
<g id="Capa_8_4_">
	<line id="XMLID_51_" class="st3" x1="1176.2" y1="-20.9" x2="1193" y2="-20.9"/>
	<line id="XMLID_50_" class="st3" x1="1176.2" y1="-25.4" x2="1193" y2="-25.4"/>
	<line id="XMLID_49_" class="st3" x1="1176.2" y1="-29.9" x2="1193" y2="-29.9"/>
	<g id="XMLID_48_">
	</g>
	<g id="XMLID_47_">
	</g>
	<g id="XMLID_46_">
	</g>
	<g id="XMLID_45_">
	</g>
	<g id="XMLID_44_">
	</g>
	<g id="XMLID_43_">
	</g>
</g>
<g id="Capa_8">
	<line id="XMLID_192_" class="st3" x1="1211.3" y1="-2.9" x2="1255.8" y2="-2.9"/>
	<line id="XMLID_191_" class="st3" x1="1211.3" y1="-7.4" x2="1255.8" y2="-7.4"/>
	<line id="XMLID_190_" class="st3" x1="1213" y1="-11.9" x2="1254.2" y2="-11.9"/>
	<line id="XMLID_189_" class="st3" x1="1219.3" y1="-16.4" x2="1247.5" y2="-16.4"/>
	<g id="XMLID_2_">
	</g>
	<g id="XMLID_226_">
	</g>
	<g id="XMLID_227_">
	</g>
	<g id="XMLID_228_">
	</g>
	<g id="XMLID_229_">
	</g>
	<g id="XMLID_230_">
	</g>
</g>
<g id="Capa_8_3_">
	<line id="XMLID_36_" class="st3" x1="1265.9" y1="-2.9" x2="1293.3" y2="-2.9"/>
	<line id="XMLID_35_" class="st3" x1="1265.9" y1="-7.4" x2="1293.3" y2="-7.4"/>
	<line id="XMLID_34_" class="st3" x1="1267.8" y1="-11.9" x2="1293.3" y2="-11.9"/>
	<line id="XMLID_33_" class="st3" x1="1273.8" y1="-16.4" x2="1293.3" y2="-16.4"/>
	<g id="XMLID_32_">
	</g>
	<g id="XMLID_31_">
	</g>
	<g id="XMLID_30_">
	</g>
	<g id="XMLID_29_">
	</g>
	<g id="XMLID_28_">
	</g>
	<g id="XMLID_27_">
	</g>
</g>
<g id="Capa_8_5_">
	<line id="XMLID_58_" class="st3" x1="1300.8" y1="-2.9" x2="1317.6" y2="-2.9"/>
	<line id="XMLID_57_" class="st3" x1="1300.8" y1="-7.4" x2="1317.6" y2="-7.4"/>
	<line id="XMLID_56_" class="st3" x1="1300.8" y1="-11.9" x2="1317.6" y2="-11.9"/>
	<line id="XMLID_55_" class="st3" x1="1300.8" y1="-16.4" x2="1317.6" y2="-16.4"/>
	<g id="XMLID_54_">
	</g>
	<g id="XMLID_53_">
	</g>
	<g id="XMLID_52_">
	</g>
	<g id="XMLID_39_">
	</g>
	<g id="XMLID_38_">
	</g>
	<g id="XMLID_37_">
	</g>
</g>
<g id="Capa_8_6_">
	<line id="XMLID_68_" class="st3" x1="1325.3" y1="-2.9" x2="1371.2" y2="-2.9"/>
	<line id="XMLID_67_" class="st3" x1="1325.3" y1="-7.4" x2="1371.2" y2="-7.4"/>
	<line id="XMLID_66_" class="st3" x1="1326.9" y1="-11.9" x2="1371.2" y2="-11.9"/>
	<line id="XMLID_65_" class="st3" x1="1333.6" y1="-16.4" x2="1371.2" y2="-16.4"/>
	<g id="XMLID_64_">
	</g>
	<g id="XMLID_63_">
	</g>
	<g id="XMLID_62_">
	</g>
	<g id="XMLID_61_">
	</g>
	<g id="XMLID_60_">
	</g>
	<g id="XMLID_59_">
	</g>
</g>
<g id="Capa_6">
	<line id="XMLID_180_" class="st3" x1="1378.9" y1="-2.9" x2="1478.3" y2="-2.9"/>
	<line id="XMLID_179_" class="st3" x1="1378.9" y1="-7.4" x2="1478.3" y2="-7.4"/>
	<line id="XMLID_178_" class="st3" x1="1378.9" y1="-11.9" x2="1478.3" y2="-11.9"/>
	<line id="XMLID_177_" class="st3" x1="1378.9" y1="-16.4" x2="1478.3" y2="-16.4"/>
</g>
<g id="Capa_6_1_">
	<line id="XMLID_71_" class="st3" x1="1378.9" y1="-20.9" x2="1395.5" y2="-20.9"/>
	<line id="XMLID_70_" class="st3" x1="1378.9" y1="-25.4" x2="1395.5" y2="-25.4"/>
	<line id="XMLID_69_" class="st3" x1="1378.9" y1="-29.9" x2="1395.5" y2="-29.9"/>
</g>
<g id="XMLID_4_">
	<defs>
		<rect id="XMLID_169_" x="915" y="2.7" width="486.3" height="62.5"/>
	</defs>
	<clipPath id="XMLID_73_">
		<use xlink:href="#XMLID_169_"  style="overflow:visible;"/>
	</clipPath>
	<g id="XMLID_5_" class="st4">
		<path class="st2" d="M1052.6-28.6h16.7v1h-16.7V-28.6z M1052.6-26.4h16.7v1h-16.7V-26.4z M1052.6-24.1h16.7v1h-16.7V-24.1z
			 M1052.6-21.9h16.7v1h-16.7V-21.9z M1052.6-19.5h16.7v1h-16.7V-19.5z M1052.6-17.2h32.4c0.8,0,1.5,0,2.2,0.1
			c0.7,0.1,1.6,0.4,2.7,0.8h-37.3V-17.2z M1052.6-15h39.4c0.1,0.1,0.3,0.3,0.5,0.5c0.2,0.2,0.4,0.4,0.5,0.5h-40.5V-15z M1094.3-12.6
			c0.1,0.1,0.2,0.2,0.3,0.5c0.1,0.3,0.2,0.4,0.3,0.5h-42.2v-1H1094.3z M1095.4-10.4c0.1,0.1,0.1,0.2,0.2,0.5
			c0.1,0.3,0.1,0.4,0.1,0.5h-43.1v-1H1095.4z M1096.1-8.2l0.1,1h-43.6v-1H1096.1z M1096.3-5.8v1h-43.7v-1H1096.3z M1096.3-3.5v1
			h-43.7v-1H1096.3z M1096.3-1.1v1h-43.7v-1H1096.3z M1052.6,3.8h16.7v31.3h-16.7V3.8z M1079.6,3.8h16.7v31.3h-16.7V3.8z"/>
		<path class="st2" d="M1120.6-17.2v1h-16.7v-1H1120.6z M1120.6-14.9v1h-16.7v-1H1120.6z M1120.6-12.7v1h-16.7v-1H1120.6z
			 M1120.6-10.4v1h-16.7v-1H1120.6z M1120.6-8.2v1h-16.7v-1H1120.6z M1120.6-5.8v1h-16.7v-1H1120.6z M1120.6-3.5v1h-16.7v-1H1120.6z
			 M1120.6-1.1v1h-16.7v-1H1120.6z M1103.8,3.8h16.7v31.3h-16.7V3.8z"/>
		<path class="st2" d="M1132.9,3.9h23l9.2,9.9c1.3,1.3,2.2,2.7,2.7,4.2c0.5,1.4,0.8,3,0.8,4.7c0,3.6-1.2,6.5-3.6,8.9
			c-2.4,2.4-5.9,3.5-10.5,3.5h-26.3V17.8h17.9L1132.9,3.9z M1128.7-5.8h37.5v1h-37.5V-5.8z M1128.9-8.2h37.3v1h-37.4L1128.9-8.2z
			 M1128.9-3.5h37.3v1H1129L1128.9-3.5z M1129.2-9.5c0-0.1,0.1-0.2,0.2-0.5c0.1-0.3,0.2-0.4,0.2-0.5h36.7v1H1129.2z M1129.8-0.1
			c-0.1-0.1-0.1-0.2-0.2-0.4c-0.1-0.2-0.1-0.4-0.2-0.5h36.8v1H1129.8z M1130-11.7c0.1-0.1,0.2-0.2,0.3-0.5c0.1-0.3,0.2-0.4,0.3-0.5
			h35.6v1H1130z M1166.2-15v1h-34.5c0.1-0.1,0.3-0.3,0.5-0.5c0.2-0.2,0.4-0.3,0.5-0.5H1166.2z M1166.2-17.2v1H1135
			c1.1-0.4,2-0.7,2.7-0.8c0.7-0.1,1.5-0.1,2.2-0.1H1166.2z"/>
		<path class="st2" d="M1176.2-28.6h16.7v1h-16.7V-28.6z M1176.2-26.4h16.7v1h-16.7V-26.4z M1176.2-24.1h16.7v1h-16.7V-24.1z
			 M1176.2-21.9h16.7v1h-16.7V-21.9z M1176.2-19.5h16.7v1h-16.7V-19.5z M1203.7-17.2v1h-27.4v-1H1203.7z M1203.7-14.9v1h-27.4v-1
			H1203.7z M1203.7-12.7v1h-27.4v-1H1203.7z M1203.7-10.4v1h-27.4v-1H1203.7z M1203.7-8.2v1h-27.4v-1H1203.7z M1203.7-5.8v1h-27.4
			v-1H1203.7z M1203.7-3.5v1h-27.4v-1H1203.7z M1203.7-1.1v1h-27.4v-1H1203.7z M1176.2,3.9h16.7V12c0,2,0.4,3.5,1.1,4.4
			c0.7,0.9,2.2,1.4,4.4,1.4h5.2v17.3h-14.4c-1.7,0-3.4-0.3-4.9-0.9c-1.6-0.6-2.9-1.4-4.2-2.6c-1.2-1.1-2.2-2.6-2.9-4.3
			c-0.7-1.7-1.1-3.7-1.1-6V3.9z"/>
		<path class="st2" d="M1256-7.2h-44.7c0-0.1,0-0.2,0.1-0.5c0.1-0.3,0.1-0.4,0.1-0.5h44.4L1256-7.2z M1256-4.8h-44.7v-1h44.7V-4.8z
			 M1256-2.5h-44.7v-1h44.7V-2.5z M1256-0.1h-44.7v-1h44.7V-0.1z M1256,3.7v18.1c0,2-0.3,3.8-1,5.4c-0.7,1.6-1.6,3-2.8,4.2
			c-1.2,1.1-2.6,2-4.2,2.7c-1.6,0.6-3.4,1-5.2,1h-18.2c-1.8,0-3.6-0.3-5.2-1c-1.6-0.6-3-1.5-4.3-2.7c-1.2-1.1-2.1-2.5-2.8-4.2
			c-0.7-1.6-1-3.4-1-5.4V3.7h16.7v8.4c0,3.8,1.6,5.6,4.8,5.6h1.8c1.8,0,3.1-0.5,3.7-1.6c0.6-1.1,1-2.4,1-4.1V3.7H1256z M1255.2-10.4
			c0.1,0.1,0.1,0.2,0.2,0.5c0.1,0.3,0.1,0.4,0.1,0.5h-43.8c0-0.1,0-0.2,0.1-0.5c0.1-0.3,0.1-0.4,0.2-0.5H1255.2z M1254.2-12.6
			c0.1,0.1,0.2,0.2,0.3,0.5c0.1,0.3,0.2,0.4,0.3,0.5h-42.1c0.1-0.1,0.2-0.2,0.3-0.5c0.1-0.3,0.2-0.4,0.3-0.5H1254.2z M1252-15
			c0.1,0.1,0.3,0.3,0.5,0.5c0.2,0.2,0.4,0.4,0.5,0.5h-38.7c0.1-0.1,0.3-0.3,0.5-0.5c0.2-0.2,0.4-0.3,0.5-0.5H1252z M1245.6-17.2
			c0.8,0,1.6,0.1,2.3,0.3c0.7,0.2,1.3,0.4,1.9,0.7h-32.3c0.6-0.3,1.2-0.5,2-0.7c0.7-0.2,1.5-0.3,2.3-0.3H1245.6z"/>
		<path class="st2" d="M1265.9-5.8h27.3v1h-27.3V-5.8z M1265.9-3.5h27.3v1h-27.3V-3.5z M1265.9-1.1h27.3v1h-27.3V-1.1z M1265.9,3.9
			h16.7v31.2h-16.7V3.9z M1266-7.2c0-0.1,0-0.2,0.1-0.5c0.1-0.3,0.1-0.4,0.1-0.5h27v1H1266z M1266.5-9.5c0-0.1,0-0.2,0.1-0.5
			c0.1-0.3,0.1-0.4,0.2-0.5h26.5v1H1266.5z M1267.4-11.7c0.1-0.1,0.2-0.2,0.3-0.5c0.1-0.3,0.2-0.4,0.3-0.5h25.3v1H1267.4z
			 M1293.3-15v1h-24.2c0.1-0.1,0.3-0.3,0.5-0.5c0.2-0.2,0.4-0.3,0.5-0.5H1293.3z M1293.3-17.2v1h-21c1.1-0.4,2-0.7,2.8-0.8
			c0.8-0.1,1.5-0.1,2.3-0.1H1293.3z"/>
		<path class="st2" d="M1317.6-17.2v1h-16.7v-1H1317.6z M1317.6-14.9v1h-16.7v-1H1317.6z M1317.6-12.7v1h-16.7v-1H1317.6z
			 M1317.6-10.4v1h-16.7v-1H1317.6z M1317.6-8.2v1h-16.7v-1H1317.6z M1317.6-5.8v1h-16.7v-1H1317.6z M1317.6-3.5v1h-16.7v-1H1317.6z
			 M1317.6-1.1v1h-16.7v-1H1317.6z M1300.9,3.8h16.7v31.3h-16.7V3.8z"/>
		<path class="st2" d="M1325.2-7.2c0-0.1,0-0.2,0.1-0.5c0.1-0.3,0.1-0.4,0.1-0.5h45.8v1H1325.2z M1325.2-5.8h45.9v1h-45.9V-5.8z
			 M1325.2-3.5h45.9v1h-45.9V-3.5z M1325.2-1.1h45.9v1h-45.9V-1.1z M1342.6,3.8v7.6c0,4.3,2.1,6.4,6.3,6.4h4.9v-14h17.4v31.3h-32.7
			c-1.8,0-3.6-0.3-5.2-1c-1.6-0.6-3-1.5-4.3-2.7c-1.2-1.2-2.1-2.6-2.8-4.2c-0.7-1.6-1-3.4-1-5.4V3.8H1342.6z M1325.7-9.5
			c0-0.1,0-0.2,0.1-0.5c0.1-0.3,0.1-0.4,0.2-0.5h45.2v1H1325.7z M1326.6-11.7c0.1-0.1,0.2-0.2,0.3-0.5c0.1-0.3,0.2-0.4,0.3-0.5h44v1
			H1326.6z M1371.2-15v1h-42.9c0.1-0.1,0.3-0.3,0.5-0.5c0.2-0.2,0.4-0.3,0.5-0.5H1371.2z M1371.2-17.2v1h-39.7
			c0.9-0.4,1.7-0.6,2.5-0.8c0.8-0.1,1.6-0.2,2.5-0.2H1371.2z"/>
		<path class="st2" d="M1378.8-28.6h16.7v1h-16.7V-28.6z M1378.8-26.4h16.7v1h-16.7V-26.4z M1378.8-24.1h16.7v1h-16.7V-24.1z
			 M1378.8-21.9h16.7v1h-16.7V-21.9z M1378.8-19.5h16.7v1h-16.7V-19.5z M1395.5-17.2v1h-16.7v-1H1395.5z M1395.5-14.9v1h-16.7v-1
			H1395.5z M1395.5-12.7v1h-16.7v-1H1395.5z M1395.5-10.4v1h-16.7v-1H1395.5z M1395.5-8.2v1h-16.7v-1H1395.5z M1395.5-5.8v1h-16.7
			v-1H1395.5z M1395.5-3.5v1h-16.7v-1H1395.5z M1395.5-1.1v1h-16.7v-1H1395.5z M1378.8,3.8h16.7v31.3h-16.7V3.8z"/>
	</g>
</g>
</svg>
