<?xml version="1.0" encoding="utf-8"?>
<!-- Generator: Adobe Illustrator 19.0.0, SVG Export Plug-In . SVG Version: 6.00 Build 0)  -->
<svg version="1.1" id="Capa_1" xmlns="http://www.w3.org/2000/svg" xmlns:xlink="http://www.w3.org/1999/xlink" x="0px" y="0px"
	 viewBox="-321.7 -31.8 1800 84.8" style="enable-background:new -321.7 -31.8 1800 84.8;" xml:space="preserve">
<style type="text/css">
	.st0{display:none;}
	.st1{display:inline;fill:#161616;}
	.st2{fill:#FFF8E3;}
	.st3{fill:none;stroke:#FFF8E3;stroke-width:1.6;stroke-miterlimit:10;}
	.st4{clip-path:url(#XMLID_38_);}
</style>
<g id="Capa_5" class="st0">
	<rect id="XMLID_171_" x="-377.4" y="-127.2" class="st1" width="1970.8" height="316.5"/>
</g>
<g id="Capa_3">
	<rect id="XMLID_11_" x="1379.9" y="3.9" class="st2" width="98.4" height="31.2"/>
	<rect id="XMLID_13_" x="-321.7" y="3.9" class="st2" width="1402.4" height="31.2"/>
</g>
<g id="Capa_4">
	<line id="XMLID_1_" class="st3" x1="1099.2" y1="-2.9" x2="-321.7" y2="-2.9"/>
	<line id="XMLID_172_" class="st3" x1="1099.2" y1="-7.4" x2="-321.7" y2="-7.4"/>
	<line id="XMLID_173_" class="st3" x1="1099.2" y1="-11.9" x2="-321.7" y2="-11.9"/>
	<line id="XMLID_175_" class="st3" x1="1099.2" y1="-16.4" x2="-321.7" y2="-16.4"/>
</g>
<g id="Capa_7">
	<line id="XMLID_188_" class="st3" x1="1109.2" y1="-2.9" x2="1150.8" y2="-2.9"/>
	<line id="XMLID_187_" class="st3" x1="1109.5" y1="-7.4" x2="1150.8" y2="-7.4"/>
	<line id="XMLID_186_" class="st3" x1="1111" y1="-11.9" x2="1150.8" y2="-11.9"/>
	<line id="XMLID_185_" class="st3" x1="1116.8" y1="-16.4" x2="1150.8" y2="-16.4"/>
</g>
<g id="Capa_8">
	<line id="XMLID_192_" class="st3" x1="1158.4" y1="-2.9" x2="1185.8" y2="-2.9"/>
	<line id="XMLID_191_" class="st3" x1="1158.4" y1="-7.4" x2="1185.8" y2="-7.4"/>
	<line id="XMLID_190_" class="st3" x1="1158.3" y1="-11.9" x2="1185.8" y2="-11.9"/>
	<line id="XMLID_189_" class="st3" x1="1158.4" y1="-16.4" x2="1185.8" y2="-16.4"/>
	<g id="XMLID_2_">
	</g>
	<g id="XMLID_226_">
	</g>
	<g id="XMLID_227_">
	</g>
	<g id="XMLID_228_">
	</g>
	<g id="XMLID_229_">
	</g>
	<g id="XMLID_230_">
	</g>
</g>
<g id="Capa_8_4_">
	<line id="XMLID_48_" class="st3" x1="1158.4" y1="-20.9" x2="1174.9" y2="-20.9"/>
	<line id="XMLID_47_" class="st3" x1="1158.3" y1="-25.4" x2="1174.9" y2="-25.4"/>
	<line id="XMLID_46_" class="st3" x1="1158.4" y1="-29.9" x2="1174.9" y2="-29.9"/>
	<g id="XMLID_45_">
	</g>
	<g id="XMLID_44_">
	</g>
	<g id="XMLID_43_">
	</g>
	<g id="XMLID_42_">
	</g>
	<g id="XMLID_41_">
	</g>
	<g id="XMLID_40_">
	</g>
</g>
<g id="Capa_8_5_">
	<line id="XMLID_58_" class="st3" x1="1193.6" y1="-2.9" x2="1221" y2="-2.9"/>
	<line id="XMLID_57_" class="st3" x1="1193.6" y1="-7.4" x2="1221" y2="-7.4"/>
	<line id="XMLID_56_" class="st3" x1="1193.5" y1="-11.9" x2="1221" y2="-11.9"/>
	<line id="XMLID_55_" class="st3" x1="1193.6" y1="-16.4" x2="1221" y2="-16.4"/>
	<g id="XMLID_54_">
	</g>
	<g id="XMLID_53_">
	</g>
	<g id="XMLID_52_">
	</g>
	<g id="XMLID_51_">
	</g>
	<g id="XMLID_50_">
	</g>
	<g id="XMLID_49_">
	</g>
</g>
<g id="Capa_8_6_">
	<line id="XMLID_67_" class="st3" x1="1193.6" y1="-20.9" x2="1210.1" y2="-20.9"/>
	<line id="XMLID_66_" class="st3" x1="1193.5" y1="-25.4" x2="1210.1" y2="-25.4"/>
	<line id="XMLID_65_" class="st3" x1="1193.6" y1="-29.9" x2="1210.1" y2="-29.9"/>
	<g id="XMLID_64_">
	</g>
	<g id="XMLID_63_">
	</g>
	<g id="XMLID_62_">
	</g>
	<g id="XMLID_61_">
	</g>
	<g id="XMLID_60_">
	</g>
	<g id="XMLID_59_">
	</g>
</g>
<g id="Capa_8_1_">
	<line id="XMLID_16_" class="st3" x1="1228.5" y1="-2.9" x2="1245.2" y2="-2.9"/>
	<line id="XMLID_15_" class="st3" x1="1228.5" y1="-7.4" x2="1245.2" y2="-7.4"/>
	<line id="XMLID_14_" class="st3" x1="1228.5" y1="-11.9" x2="1245.2" y2="-11.9"/>
	<line id="XMLID_12_" class="st3" x1="1228.5" y1="-16.4" x2="1245.2" y2="-16.4"/>
	<g id="XMLID_10_">
	</g>
	<g id="XMLID_9_">
	</g>
	<g id="XMLID_8_">
	</g>
	<g id="XMLID_7_">
	</g>
	<g id="XMLID_6_">
	</g>
	<g id="XMLID_3_">
	</g>
</g>
<g id="Capa_8_2_">
	<line id="XMLID_26_" class="st3" x1="1252.8" y1="-2.9" x2="1295.6" y2="-2.9"/>
	<line id="XMLID_25_" class="st3" x1="1252.8" y1="-7.4" x2="1295.6" y2="-7.4"/>
	<line id="XMLID_24_" class="st3" x1="1252.8" y1="-11.9" x2="1294" y2="-11.9"/>
	<line id="XMLID_23_" class="st3" x1="1252.8" y1="-16.4" x2="1287.6" y2="-16.4"/>
	<g id="XMLID_22_">
	</g>
	<g id="XMLID_21_">
	</g>
	<g id="XMLID_20_">
	</g>
	<g id="XMLID_19_">
	</g>
	<g id="XMLID_18_">
	</g>
	<g id="XMLID_17_">
	</g>
</g>
<g id="Capa_8_3_">
	<line id="XMLID_36_" class="st3" x1="1303.3" y1="-2.9" x2="1347.6" y2="-2.9"/>
	<line id="XMLID_35_" class="st3" x1="1303.3" y1="-7.4" x2="1347.6" y2="-7.4"/>
	<line id="XMLID_34_" class="st3" x1="1304.9" y1="-11.9" x2="1347.6" y2="-11.9"/>
	<line id="XMLID_33_" class="st3" x1="1310.8" y1="-16.4" x2="1347.6" y2="-16.4"/>
	<g id="XMLID_32_">
	</g>
	<g id="XMLID_31_">
	</g>
	<g id="XMLID_30_">
	</g>
	<g id="XMLID_29_">
	</g>
	<g id="XMLID_28_">
	</g>
	<g id="XMLID_27_">
	</g>
</g>
<g id="Capa_6">
	<line id="XMLID_180_" class="st3" x1="1356" y1="-2.9" x2="1478.3" y2="-2.9"/>
	<line id="XMLID_179_" class="st3" x1="1355.8" y1="-7.4" x2="1478.3" y2="-7.4"/>
	<line id="XMLID_178_" class="st3" x1="1357.4" y1="-11.9" x2="1478.3" y2="-11.9"/>
	<line id="XMLID_177_" class="st3" x1="1363.1" y1="-16.4" x2="1478.3" y2="-16.4"/>
</g>
<g id="XMLID_4_">
	<defs>
		<rect id="XMLID_169_" x="1033.7" y="0.9" width="367.6" height="64.4"/>
	</defs>
	<clipPath id="XMLID_38_">
		<use xlink:href="#XMLID_169_"  style="overflow:visible;"/>
	</clipPath>
	<g id="XMLID_5_" class="st4">
		<path class="st2" d="M1065.8,3.9h23l9.2,9.9c1.3,1.3,2.2,2.7,2.7,4.2c0.5,1.4,0.8,3,0.8,4.7c0,3.6-1.2,6.5-3.6,8.9
			c-2.4,2.4-5.9,3.5-10.5,3.5h-26.3V17.8h17.9L1065.8,3.9z M1061.6-5.8h37.5v1h-37.5V-5.8z M1061.8-8.2h37.3v1h-37.4L1061.8-8.2z
			 M1061.8-3.5h37.3v1h-37.3L1061.8-3.5z M1062.1-9.5c0-0.1,0.1-0.2,0.2-0.5c0.1-0.3,0.2-0.4,0.2-0.5h36.7v1H1062.1z M1062.8-0.1
			c-0.1-0.1-0.1-0.2-0.2-0.4c-0.1-0.2-0.1-0.4-0.2-0.5h36.8v1H1062.8z M1063-11.7c0.1-0.1,0.2-0.2,0.3-0.5c0.1-0.3,0.2-0.4,0.3-0.5
			h35.6v1H1063z M1099.2-15v1h-34.5c0.1-0.1,0.3-0.3,0.5-0.5c0.2-0.2,0.4-0.3,0.5-0.5H1099.2z M1099.2-17.2v1h-31.2
			c1.1-0.4,2-0.7,2.7-0.8c0.7-0.1,1.5-0.1,2.2-0.1H1099.2z"/>
		<path class="st2" d="M1109.2-7.2c0-0.1,0-0.2,0.1-0.5c0.1-0.3,0.1-0.4,0.1-0.5h41.5v1H1109.2z M1109.2-5.8h41.6v1h-41.6V-5.8z
			 M1109.2-3.5h41.6v1h-41.6V-3.5z M1109.2-1.1h41.6v1h-41.6V-1.1z M1150.8,35.1h-28.4c-1.8,0-3.6-0.3-5.2-1c-1.6-0.6-3-1.5-4.3-2.7
			c-1.2-1.2-2.1-2.6-2.8-4.2c-0.7-1.6-1-3.4-1-5.4V4.5h36.1v8.8h-19c0,1.5,0.2,2.6,0.7,3.4c0.4,0.8,1.6,1.2,3.4,1.2h20.4V35.1z
			 M1109.7-9.5c0-0.1,0-0.2,0.1-0.5c0.1-0.3,0.1-0.4,0.2-0.5h40.9v1H1109.7z M1110.5-11.7c0.1-0.1,0.2-0.2,0.3-0.5
			c0.1-0.3,0.2-0.4,0.3-0.5h39.7v1H1110.5z M1150.8-15v1h-38.6c0.1-0.1,0.3-0.3,0.5-0.5c0.2-0.2,0.4-0.3,0.5-0.5H1150.8z
			 M1150.8-17.2v1h-35.4c0.9-0.4,1.7-0.6,2.5-0.8c0.8-0.1,1.6-0.2,2.5-0.2H1150.8z"/>
		<path class="st2" d="M1158.4-28.6h16.7v1h-16.7V-28.6z M1158.4-26.4h16.7v1h-16.7V-26.4z M1158.4-24.1h16.7v1h-16.7V-24.1z
			 M1158.4-21.9h16.7v1h-16.7V-21.9z M1158.4-19.5h16.7v1h-16.7V-19.5z M1185.8-17.2v1h-27.4v-1H1185.8z M1185.8-14.9v1h-27.4v-1
			H1185.8z M1185.8-12.7v1h-27.4v-1H1185.8z M1185.8-10.4v1h-27.4v-1H1185.8z M1185.8-8.2v1h-27.4v-1H1185.8z M1185.8-5.8v1h-27.4
			v-1H1185.8z M1185.8-3.5v1h-27.4v-1H1185.8z M1185.8-1.1v1h-27.4v-1H1185.8z M1158.4,3.9h16.7V12c0,2,0.4,3.5,1.1,4.4
			c0.7,0.9,2.2,1.4,4.4,1.4h5.2v17.3h-14.4c-1.7,0-3.4-0.3-4.9-0.9c-1.6-0.6-2.9-1.4-4.2-2.6c-1.2-1.1-2.2-2.6-2.9-4.3
			c-0.7-1.7-1.1-3.7-1.1-6V3.9z"/>
		<path class="st2" d="M1193.4-28.6h16.7v1h-16.7V-28.6z M1193.4-26.4h16.7v1h-16.7V-26.4z M1193.4-24.1h16.7v1h-16.7V-24.1z
			 M1193.4-21.9h16.7v1h-16.7V-21.9z M1193.4-19.5h16.7v1h-16.7V-19.5z M1220.8-17.2v1h-27.4v-1H1220.8z M1220.8-14.9v1h-27.4v-1
			H1220.8z M1220.8-12.7v1h-27.4v-1H1220.8z M1220.8-10.4v1h-27.4v-1H1220.8z M1220.8-8.2v1h-27.4v-1H1220.8z M1220.8-5.8v1h-27.4
			v-1H1220.8z M1220.8-3.5v1h-27.4v-1H1220.8z M1220.8-1.1v1h-27.4v-1H1220.8z M1193.4,3.9h16.7V12c0,2,0.4,3.5,1.1,4.4
			c0.7,0.9,2.2,1.4,4.4,1.4h5.2v17.3h-14.4c-1.7,0-3.4-0.3-4.9-0.9c-1.6-0.6-2.9-1.4-4.2-2.6c-1.2-1.1-2.2-2.6-2.9-4.3
			c-0.7-1.7-1.1-3.7-1.1-6V3.9z"/>
		<path class="st2" d="M1245.2-17.2v1h-16.7v-1H1245.2z M1245.2-14.9v1h-16.7v-1H1245.2z M1245.2-12.7v1h-16.7v-1H1245.2z
			 M1245.2-10.4v1h-16.7v-1H1245.2z M1245.2-8.2v1h-16.7v-1H1245.2z M1245.2-5.8v1h-16.7v-1H1245.2z M1245.2-3.5v1h-16.7v-1H1245.2z
			 M1245.2-1.1v1h-16.7v-1H1245.2z M1228.5,3.8h16.7v31.3h-16.7V3.8z"/>
		<path class="st2" d="M1252.8-17.2h31.7c0.8,0,1.5,0,2.2,0.1c0.7,0.1,1.6,0.4,2.7,0.8h-36.7V-17.2z M1252.8-15h38.8
			c0.1,0.1,0.3,0.3,0.5,0.5c0.2,0.2,0.4,0.4,0.5,0.5h-39.8V-15z M1293.7-12.6c0.1,0.1,0.2,0.2,0.3,0.5c0.1,0.3,0.2,0.4,0.3,0.5
			h-41.5v-1H1293.7z M1294.9-10.4c0.1,0.1,0.1,0.2,0.2,0.5c0.1,0.3,0.1,0.4,0.1,0.5h-42.4v-1H1294.9z M1295.5-8.2l0.1,1h-42.9v-1
			H1295.5z M1295.6-5.8v1h-42.9v-1H1295.6z M1295.6-3.5v1h-42.9v-1H1295.6z M1295.6-1.1v1h-42.9v-1H1295.6z M1252.8,3.7h16.7v31.4
			h-16.7V3.7z M1278.9,3.7h16.7v31.4h-16.7V3.7z"/>
		<path class="st2" d="M1303.3-7.2c0-0.1,0-0.2,0.1-0.5c0.1-0.3,0.1-0.4,0.1-0.5h44.1v1H1303.3z M1303.3-5.8h44.3v1h-44.3V-5.8z
			 M1303.3-3.5h44.3v1h-44.3V-3.5z M1303.3-1.1h44.3v1h-44.3V-1.1z M1347.6,3.5v35.8c0,1.8-0.3,3.6-1,5.2c-0.6,1.6-1.5,3-2.7,4.2
			c-1.2,1.2-2.6,2.1-4.3,2.8c-1.7,0.7-3.5,1-5.4,1h-30.9V35.1h22.4c1.6,0,2.9-0.4,3.8-1.3s1.4-1.9,1.4-3.1v-3.4c0-0.1,0-0.3,0-0.6
			s-0.1-0.4-0.3-0.4c-0.3,0-0.4,0.1-0.4,0.4c-0.1,1.3-0.6,2.2-1.5,2.8c-0.9,0.6-2.2,0.9-4.1,0.9h-8c-1.8,0-3.6-0.3-5.2-1
			c-1.6-0.6-3-1.5-4.3-2.7c-1.2-1.2-2.1-2.6-2.8-4.2c-0.7-1.6-1-3.4-1-5.4V3.5h16.7v5.4c0,1.5,0.4,2.8,1.3,3.7
			c0.9,0.9,2,1.4,3.3,1.4h1.9c1.2,0,2.2-0.5,3.1-1.4c0.9-0.9,1.3-2,1.3-3.1v-6H1347.6z M1303.8-9.5c0-0.1,0-0.2,0.1-0.5
			c0.1-0.3,0.1-0.4,0.2-0.5h43.6v1H1303.8z M1304.6-11.7c0.1-0.1,0.2-0.2,0.3-0.5c0.1-0.3,0.2-0.4,0.3-0.5h42.4v1H1304.6z
			 M1347.6-15v1h-41.3c0.1-0.1,0.3-0.3,0.5-0.5c0.2-0.2,0.4-0.3,0.5-0.5H1347.6z M1347.6-17.2v1h-38.1c1.1-0.4,2-0.7,2.8-0.8
			c0.8-0.1,1.5-0.1,2.3-0.1H1347.6z"/>
		<path class="st2" d="M1359.8,3.9h23l9.2,9.9c1.3,1.3,2.2,2.7,2.7,4.2c0.5,1.4,0.8,3,0.8,4.7c0,3.6-1.2,6.5-3.6,8.9
			c-2.4,2.4-5.9,3.5-10.5,3.5h-26.3V17.8h17.9L1359.8,3.9z M1355.6-5.8h37.5v1h-37.5V-5.8z M1355.8-8.2h37.3v1h-37.4L1355.8-8.2z
			 M1355.8-3.5h37.3v1h-37.3L1355.8-3.5z M1356.1-9.5c0-0.1,0.1-0.2,0.2-0.5c0.1-0.3,0.2-0.4,0.2-0.5h36.7v1H1356.1z M1356.8-0.1
			c-0.1-0.1-0.1-0.2-0.2-0.4c-0.1-0.2-0.1-0.4-0.2-0.5h36.8v1H1356.8z M1357-11.7c0.1-0.1,0.2-0.2,0.3-0.5c0.1-0.3,0.2-0.4,0.3-0.5
			h35.6v1H1357z M1393.2-15v1h-34.5c0.1-0.1,0.3-0.3,0.5-0.5c0.2-0.2,0.4-0.3,0.5-0.5H1393.2z M1393.2-17.2v1h-31.2
			c1.1-0.4,2-0.7,2.7-0.8c0.7-0.1,1.5-0.1,2.2-0.1H1393.2z"/>
	</g>
</g>
</svg>
