<?xml version="1.0" encoding="utf-8"?>
<!-- Generator: Adobe Illustrator 19.0.0, SVG Export Plug-In . SVG Version: 6.00 Build 0)  -->
<svg version="1.1" id="Capa_1" xmlns="http://www.w3.org/2000/svg" xmlns:xlink="http://www.w3.org/1999/xlink" x="0px" y="0px"
	 viewBox="-321.7 -31.8 1800 84.8" style="enable-background:new -321.7 -31.8 1800 84.8;" xml:space="preserve">
<style type="text/css">
	.st0{display:none;}
	.st1{display:inline;fill:#161616;}
	.st2{fill:#FFF8E3;}
	.st3{fill:none;stroke:#FFF8E3;stroke-width:1.6;stroke-miterlimit:10;}
	.st4{clip-path:url(#XMLID_17_);}
</style>
<g id="Capa_5" class="st0">
	<rect id="XMLID_171_" x="-377.4" y="-127.2" class="st1" width="1970.8" height="316.5"/>
</g>
<g id="Capa_3">
	<rect id="XMLID_11_" x="1382.7" y="3.9" class="st2" width="95.6" height="31.2"/>
	<rect id="XMLID_13_" x="-321.7" y="3.8" class="st2" width="1489.6" height="31.3"/>
</g>
<g id="Capa_4">
	<line id="XMLID_1_" class="st3" x1="1201.2" y1="-2.9" x2="-321.7" y2="-2.9"/>
	<line id="XMLID_172_" class="st3" x1="1201.2" y1="-7.4" x2="-321.7" y2="-7.4"/>
	<line id="XMLID_173_" class="st3" x1="1200.3" y1="-11.9" x2="-321.7" y2="-11.9"/>
	<line id="XMLID_175_" class="st3" x1="1196.8" y1="-16.4" x2="-321.7" y2="-16.4"/>
</g>
<g id="Capa_7">
	<line id="XMLID_188_" class="st3" x1="1211.2" y1="-2.9" x2="1278.2" y2="-2.9"/>
	<line id="XMLID_187_" class="st3" x1="1211.2" y1="-7.4" x2="1277.8" y2="-7.4"/>
	<line id="XMLID_186_" class="st3" x1="1211.2" y1="-11.9" x2="1276.2" y2="-11.9"/>
	<line id="XMLID_185_" class="st3" x1="1211.2" y1="-16.4" x2="1269.9" y2="-16.4"/>
</g>
<g id="Capa_8_1_">
	<line id="XMLID_16_" class="st3" x1="1285.6" y1="-2.9" x2="1302.3" y2="-2.9"/>
	<line id="XMLID_15_" class="st3" x1="1285.6" y1="-7.4" x2="1302.3" y2="-7.4"/>
	<line id="XMLID_14_" class="st3" x1="1285.6" y1="-11.9" x2="1302.3" y2="-11.9"/>
	<line id="XMLID_12_" class="st3" x1="1285.6" y1="-16.4" x2="1302.3" y2="-16.4"/>
	<g id="XMLID_10_">
	</g>
	<g id="XMLID_9_">
	</g>
	<g id="XMLID_8_">
	</g>
	<g id="XMLID_7_">
	</g>
	<g id="XMLID_6_">
	</g>
	<g id="XMLID_3_">
	</g>
</g>
<g id="Capa_8_3_">
	<line id="XMLID_36_" class="st3" x1="1310" y1="-2.9" x2="1347.5" y2="-2.9"/>
	<line id="XMLID_35_" class="st3" x1="1310" y1="-7.4" x2="1347.5" y2="-7.4"/>
	<line id="XMLID_34_" class="st3" x1="1311.7" y1="-11.9" x2="1347.5" y2="-11.9"/>
	<line id="XMLID_33_" class="st3" x1="1317.6" y1="-16.4" x2="1347.5" y2="-16.4"/>
	<g id="XMLID_32_">
	</g>
	<g id="XMLID_31_">
	</g>
	<g id="XMLID_30_">
	</g>
	<g id="XMLID_29_">
	</g>
	<g id="XMLID_28_">
	</g>
	<g id="XMLID_27_">
	</g>
</g>
<g id="Capa_6">
	<line id="XMLID_180_" class="st3" x1="1356" y1="-2.9" x2="1478.3" y2="-2.9"/>
	<line id="XMLID_179_" class="st3" x1="1355.8" y1="-7.4" x2="1478.3" y2="-7.4"/>
	<line id="XMLID_178_" class="st3" x1="1357.4" y1="-11.9" x2="1478.3" y2="-11.9"/>
	<line id="XMLID_177_" class="st3" x1="1363.1" y1="-16.4" x2="1478.3" y2="-16.4"/>
</g>
<g id="XMLID_4_">
	<defs>
		<rect id="XMLID_169_" x="1080" y="1.2" width="321.3" height="64"/>
	</defs>
	<clipPath id="XMLID_17_">
		<use xlink:href="#XMLID_169_"  style="overflow:visible;"/>
	</clipPath>
	<g id="XMLID_5_" class="st4">
		<path class="st2" d="M1155.2-7.2c0-0.1,0-0.2,0.1-0.5c0.1-0.3,0.1-0.4,0.1-0.5h45.8v1H1155.2z M1155.2-5.8h45.9v1h-45.9V-5.8z
			 M1155.2-3.5h45.9v1h-45.9V-3.5z M1155.2-1.1h45.9v1h-45.9V-1.1z M1172.6,3.8v7.6c0,4.3,2.1,6.4,6.3,6.4h4.9v-14h17.4v31.3h-32.7
			c-1.8,0-3.6-0.3-5.2-1c-1.6-0.6-3-1.5-4.3-2.7c-1.2-1.2-2.1-2.6-2.8-4.2c-0.7-1.6-1-3.4-1-5.4V3.8H1172.6z M1155.7-9.5
			c0-0.1,0-0.2,0.1-0.5c0.1-0.3,0.1-0.4,0.2-0.5h45.2v1H1155.7z M1156.6-11.7c0.1-0.1,0.2-0.2,0.3-0.5c0.1-0.3,0.2-0.4,0.3-0.5h44v1
			H1156.6z M1201.2-15v1h-42.9c0.1-0.1,0.3-0.3,0.5-0.5c0.2-0.2,0.4-0.3,0.5-0.5H1201.2z M1201.2-17.2v1h-39.7
			c0.9-0.4,1.7-0.6,2.5-0.8c0.8-0.1,1.6-0.2,2.5-0.2H1201.2z"/>
		<path class="st2" d="M1211.1-17.2h55.7c0.8,0,1.5,0,2.2,0.1c0.7,0.1,1.6,0.4,2.7,0.8h-60.7V-17.2z M1211.1-15h62.8
			c0.1,0.1,0.3,0.3,0.6,0.5c0.3,0.2,0.4,0.4,0.6,0.5h-63.9V-15z M1276.1-12.6c0.1,0.1,0.2,0.2,0.3,0.5c0.1,0.3,0.2,0.4,0.3,0.5
			h-65.5v-1H1276.1z M1277.2-10.4c0.1,0.1,0.1,0.2,0.2,0.5c0.1,0.3,0.1,0.4,0.1,0.5h-66.5v-1H1277.2z M1277.9-8.2l0.1,1h-66.9v-1
			H1277.9z M1278.2-5.8v1h-67.1v-1H1278.2z M1278.2-3.5v1h-67.1v-1H1278.2z M1278.2-1.1v1h-67.1v-1H1278.2z M1211.1,3.8h17.4v31.3
			h-17.4V3.8z M1236,3.8h17v31.3h-17V3.8z M1260.8,3.8h17.4v31.3h-17.4V3.8z"/>
		<path class="st2" d="M1302.3-17.2v1h-16.7v-1H1302.3z M1302.3-14.9v1h-16.7v-1H1302.3z M1302.3-12.7v1h-16.7v-1H1302.3z
			 M1302.3-10.4v1h-16.7v-1H1302.3z M1302.3-8.2v1h-16.7v-1H1302.3z M1302.3-5.8v1h-16.7v-1H1302.3z M1302.3-3.5v1h-16.7v-1H1302.3z
			 M1302.3-1.1v1h-16.7v-1H1302.3z M1285.6,3.8h16.7v31.3h-16.7V3.8z"/>
		<path class="st2" d="M1310-7.2c0-0.1,0-0.2,0.1-0.5c0.1-0.3,0.1-0.4,0.1-0.5h37.3v1H1310z M1310.1-5.8h37.4v1h-37.4V-5.8z
			 M1310.1-3.5h37.4v1h-37.4V-3.5z M1310.1-1.1h37.4v1h-37.4V-1.1z M1347.5,17.8v17.3h-24.3c-1.8,0-3.6-0.3-5.2-1
			c-1.6-0.6-3-1.5-4.2-2.7c-1.2-1.2-2.1-2.6-2.8-4.2c-0.7-1.6-1-3.4-1-5.4V4.5h16.7v7c0,1.8,0.6,3.4,1.7,4.6
			c1.1,1.2,2.6,1.8,4.5,1.8H1347.5z M1310.4-9.5c0-0.1,0-0.2,0.1-0.5c0.1-0.3,0.1-0.4,0.2-0.5h36.8v1H1310.4z M1311.3-11.7
			c0.1-0.1,0.2-0.2,0.3-0.5c0.1-0.3,0.2-0.4,0.3-0.5h35.6v1H1311.3z M1347.5-15v1H1313c0.1-0.1,0.3-0.3,0.5-0.5
			c0.2-0.2,0.4-0.3,0.5-0.5H1347.5z M1347.5-17.2v1h-31.3c1.1-0.4,2-0.7,2.8-0.8c0.8-0.1,1.5-0.1,2.3-0.1H1347.5z"/>
		<path class="st2" d="M1359.8,3.9h23l9.2,9.9c1.3,1.3,2.2,2.7,2.7,4.2c0.5,1.4,0.8,3,0.8,4.7c0,3.6-1.2,6.5-3.6,8.9
			c-2.4,2.4-5.9,3.5-10.5,3.5h-26.3V17.8h17.9L1359.8,3.9z M1355.6-5.8h37.5v1h-37.5V-5.8z M1355.8-8.2h37.3v1h-37.4L1355.8-8.2z
			 M1355.8-3.5h37.3v1h-37.3L1355.8-3.5z M1356.1-9.5c0-0.1,0.1-0.2,0.2-0.5c0.1-0.3,0.2-0.4,0.2-0.5h36.7v1H1356.1z M1356.8-0.1
			c-0.1-0.1-0.1-0.2-0.2-0.4c-0.1-0.2-0.1-0.4-0.2-0.5h36.8v1H1356.8z M1357-11.7c0.1-0.1,0.2-0.2,0.3-0.5c0.1-0.3,0.2-0.4,0.3-0.5
			h35.6v1H1357z M1393.2-15v1h-34.5c0.1-0.1,0.3-0.3,0.5-0.5c0.2-0.2,0.4-0.3,0.5-0.5H1393.2z M1393.2-17.2v1h-31.2
			c1.1-0.4,2-0.7,2.7-0.8c0.7-0.1,1.5-0.1,2.2-0.1H1393.2z"/>
	</g>
</g>
</svg>
