<?xml version="1.0" encoding="utf-8"?>
<!-- Generator: Adobe Illustrator 19.0.0, SVG Export Plug-In . SVG Version: 6.00 Build 0)  -->
<svg version="1.1" id="Capa_1" xmlns="http://www.w3.org/2000/svg" xmlns:xlink="http://www.w3.org/1999/xlink" x="0px" y="0px"
	 viewBox="-321.7 -31.8 1800 84.8" style="enable-background:new -321.7 -31.8 1800 84.8;" xml:space="preserve">
<style type="text/css">
	.st0{display:none;}
	.st1{display:inline;fill:#161616;}
	.st2{fill:#FFF8E3;}
	.st3{fill:none;stroke:#FFF8E3;stroke-width:1.6;stroke-miterlimit:10;}
	.st4{clip-path:url(#XMLID_28_);}
</style>
<g id="Capa_5" class="st0">
	<rect id="XMLID_171_" x="-377.4" y="-127.2" class="st1" width="1970.8" height="316.5"/>
</g>
<g id="Capa_3">
	<rect id="XMLID_11_" x="1374.8" y="3.9" class="st2" width="103.5" height="31.2"/>
	<rect id="XMLID_13_" x="-321.7" y="3.9" class="st2" width="1346.9" height="31.2"/>
</g>
<g id="Capa_4">
	<line id="XMLID_1_" class="st3" x1="1044.4" y1="-2.9" x2="-321.7" y2="-2.9"/>
	<line id="XMLID_172_" class="st3" x1="1044.4" y1="-7.4" x2="-321.7" y2="-7.4"/>
	<line id="XMLID_173_" class="st3" x1="1044.4" y1="-11.9" x2="-321.7" y2="-11.9"/>
	<line id="XMLID_175_" class="st3" x1="1044.4" y1="-16.4" x2="-321.7" y2="-16.4"/>
</g>
<g id="Capa_7">
	<line id="XMLID_188_" class="st3" x1="1054.4" y1="-2.9" x2="1081.8" y2="-2.9"/>
	<line id="XMLID_187_" class="st3" x1="1054.4" y1="-7.4" x2="1081.8" y2="-7.4"/>
	<line id="XMLID_186_" class="st3" x1="1054.4" y1="-11.9" x2="1081.8" y2="-11.9"/>
	<line id="XMLID_185_" class="st3" x1="1054.4" y1="-16.4" x2="1081.8" y2="-16.4"/>
</g>
<g id="Capa_7_1_">
	<line id="XMLID_42_" class="st3" x1="1054.4" y1="-20.9" x2="1071.2" y2="-20.9"/>
	<line id="XMLID_41_" class="st3" x1="1054.4" y1="-25.4" x2="1071.2" y2="-25.4"/>
	<line id="XMLID_40_" class="st3" x1="1054.4" y1="-29.9" x2="1071.2" y2="-29.9"/>
</g>
<g id="Capa_8_1_">
	<line id="XMLID_16_" class="st3" x1="1089.6" y1="-2.9" x2="1135.4" y2="-2.9"/>
	<line id="XMLID_15_" class="st3" x1="1089.7" y1="-7.4" x2="1135.4" y2="-7.4"/>
	<line id="XMLID_14_" class="st3" x1="1091.2" y1="-11.9" x2="1135.4" y2="-11.9"/>
	<line id="XMLID_12_" class="st3" x1="1097.5" y1="-16.4" x2="1135.4" y2="-16.4"/>
	<g id="XMLID_10_">
	</g>
	<g id="XMLID_9_">
	</g>
	<g id="XMLID_8_">
	</g>
	<g id="XMLID_7_">
	</g>
	<g id="XMLID_6_">
	</g>
	<g id="XMLID_3_">
	</g>
</g>
<g id="Capa_7_2_">
	<line id="XMLID_46_" class="st3" x1="1143.4" y1="-2.9" x2="1170.8" y2="-2.9"/>
	<line id="XMLID_45_" class="st3" x1="1143.4" y1="-7.4" x2="1170.8" y2="-7.4"/>
	<line id="XMLID_44_" class="st3" x1="1143.4" y1="-11.9" x2="1170.8" y2="-11.9"/>
	<line id="XMLID_43_" class="st3" x1="1143.4" y1="-16.4" x2="1170.8" y2="-16.4"/>
</g>
<g id="Capa_7_3_">
	<line id="XMLID_49_" class="st3" x1="1143.4" y1="-20.9" x2="1160.2" y2="-20.9"/>
	<line id="XMLID_48_" class="st3" x1="1143.4" y1="-25.4" x2="1160.2" y2="-25.4"/>
	<line id="XMLID_47_" class="st3" x1="1143.4" y1="-29.9" x2="1160.2" y2="-29.9"/>
</g>
<g id="Capa_8_4_">
	<line id="XMLID_59_" class="st3" x1="1178.1" y1="-2.9" x2="1194.9" y2="-2.9"/>
	<line id="XMLID_58_" class="st3" x1="1178.1" y1="-7.4" x2="1194.9" y2="-7.4"/>
	<line id="XMLID_57_" class="st3" x1="1178.1" y1="-11.9" x2="1194.9" y2="-11.9"/>
	<line id="XMLID_56_" class="st3" x1="1178.1" y1="-16.4" x2="1194.9" y2="-16.4"/>
	<g id="XMLID_55_">
	</g>
	<g id="XMLID_54_">
	</g>
	<g id="XMLID_53_">
	</g>
	<g id="XMLID_52_">
	</g>
	<g id="XMLID_51_">
	</g>
	<g id="XMLID_50_">
	</g>
</g>
<g id="Capa_8_2_">
	<line id="XMLID_26_" class="st3" x1="1203.2" y1="-2.9" x2="1240.5" y2="-2.9"/>
	<line id="XMLID_25_" class="st3" x1="1203.2" y1="-7.4" x2="1240.5" y2="-7.4"/>
	<line id="XMLID_24_" class="st3" x1="1204.6" y1="-11.9" x2="1240.5" y2="-11.9"/>
	<line id="XMLID_23_" class="st3" x1="1210.9" y1="-16.4" x2="1240.5" y2="-16.4"/>
	<g id="XMLID_22_">
	</g>
	<g id="XMLID_21_">
	</g>
	<g id="XMLID_20_">
	</g>
	<g id="XMLID_19_">
	</g>
	<g id="XMLID_18_">
	</g>
	<g id="XMLID_17_">
	</g>
</g>
<g id="Capa_7_4_">
	<line id="XMLID_63_" class="st3" x1="1250.5" y1="-2.9" x2="1277.9" y2="-2.9"/>
	<line id="XMLID_62_" class="st3" x1="1250.5" y1="-7.4" x2="1277.9" y2="-7.4"/>
	<line id="XMLID_61_" class="st3" x1="1250.5" y1="-11.9" x2="1277.9" y2="-11.9"/>
	<line id="XMLID_60_" class="st3" x1="1250.5" y1="-16.4" x2="1277.9" y2="-16.4"/>
</g>
<g id="Capa_7_5_">
	<line id="XMLID_66_" class="st3" x1="1250.5" y1="-20.9" x2="1267.3" y2="-20.9"/>
	<line id="XMLID_65_" class="st3" x1="1250.5" y1="-25.4" x2="1267.3" y2="-25.4"/>
	<line id="XMLID_64_" class="st3" x1="1250.5" y1="-29.9" x2="1267.3" y2="-29.9"/>
</g>
<g id="Capa_8_5_">
	<line id="XMLID_76_" class="st3" x1="1285.6" y1="-2.9" x2="1302.5" y2="-2.9"/>
	<line id="XMLID_75_" class="st3" x1="1285.6" y1="-7.4" x2="1302.5" y2="-7.4"/>
	<line id="XMLID_74_" class="st3" x1="1285.6" y1="-11.9" x2="1302.5" y2="-11.9"/>
	<line id="XMLID_73_" class="st3" x1="1285.6" y1="-16.4" x2="1302.5" y2="-16.4"/>
	<g id="XMLID_72_">
	</g>
	<g id="XMLID_71_">
	</g>
	<g id="XMLID_70_">
	</g>
	<g id="XMLID_69_">
	</g>
	<g id="XMLID_68_">
	</g>
	<g id="XMLID_67_">
	</g>
</g>
<g id="Capa_8">
	<line id="XMLID_192_" class="st3" x1="1310" y1="-2.9" x2="1347.5" y2="-2.9"/>
	<line id="XMLID_191_" class="st3" x1="1310.3" y1="-7.4" x2="1347.5" y2="-7.4"/>
	<line id="XMLID_190_" class="st3" x1="1311.7" y1="-11.9" x2="1347.5" y2="-11.9"/>
	<line id="XMLID_189_" class="st3" x1="1318" y1="-16.4" x2="1347.5" y2="-16.4"/>
	<g id="XMLID_2_">
	</g>
	<g id="XMLID_226_">
	</g>
	<g id="XMLID_227_">
	</g>
	<g id="XMLID_228_">
	</g>
	<g id="XMLID_229_">
	</g>
	<g id="XMLID_230_">
	</g>
</g>
<g id="Capa_6">
	<line id="XMLID_180_" class="st3" x1="1356" y1="-2.9" x2="1478.3" y2="-2.9"/>
	<line id="XMLID_179_" class="st3" x1="1355.8" y1="-7.4" x2="1478.3" y2="-7.4"/>
	<line id="XMLID_178_" class="st3" x1="1357.4" y1="-11.9" x2="1478.3" y2="-11.9"/>
	<line id="XMLID_177_" class="st3" x1="1364.3" y1="-16.4" x2="1478.3" y2="-16.4"/>
</g>
<g id="XMLID_4_">
	<defs>
		<rect id="XMLID_169_" x="947" y="1.2" width="454.3" height="64"/>
	</defs>
	<clipPath id="XMLID_28_">
		<use xlink:href="#XMLID_169_"  style="overflow:visible;"/>
	</clipPath>
	<g id="XMLID_5_" class="st4">
		<path class="st2" d="M1011.1,3.9h23l9.2,9.9c1.3,1.3,2.2,2.7,2.7,4.2c0.5,1.4,0.8,3,0.8,4.7c0,3.6-1.2,6.5-3.6,8.9
			c-2.4,2.4-5.9,3.5-10.5,3.5h-26.3V17.8h17.9L1011.1,3.9z M1006.9-5.8h37.5v1h-37.5V-5.8z M1007.1-8.2h37.3v1H1007L1007.1-8.2z
			 M1007.1-3.5h37.3v1h-37.3L1007.1-3.5z M1007.4-9.5c0-0.1,0.1-0.2,0.2-0.5c0.1-0.3,0.2-0.4,0.2-0.5h36.7v1H1007.4z M1008-0.1
			c-0.1-0.1-0.1-0.2-0.2-0.4c-0.1-0.2-0.1-0.4-0.2-0.5h36.8v1H1008z M1008.2-11.7c0.1-0.1,0.2-0.2,0.3-0.5c0.1-0.3,0.2-0.4,0.3-0.5
			h35.6v1H1008.2z M1044.4-15v1H1010c0.1-0.1,0.3-0.3,0.5-0.5c0.2-0.2,0.4-0.3,0.5-0.5H1044.4z M1044.4-17.2v1h-31.2
			c1.1-0.4,2-0.7,2.7-0.8c0.7-0.1,1.5-0.1,2.2-0.1H1044.4z"/>
		<path class="st2" d="M1054.5-28.6h16.7v1h-16.7V-28.6z M1054.5-26.4h16.7v1h-16.7V-26.4z M1054.5-24.1h16.7v1h-16.7V-24.1z
			 M1054.5-21.9h16.7v1h-16.7V-21.9z M1054.5-19.5h16.7v1h-16.7V-19.5z M1081.9-17.2v1h-27.4v-1H1081.9z M1081.9-14.9v1h-27.4v-1
			H1081.9z M1081.9-12.7v1h-27.4v-1H1081.9z M1081.9-10.4v1h-27.4v-1H1081.9z M1081.9-8.2v1h-27.4v-1H1081.9z M1081.9-5.8v1h-27.4
			v-1H1081.9z M1081.9-3.5v1h-27.4v-1H1081.9z M1081.9-1.1v1h-27.4v-1H1081.9z M1054.5,3.9h16.7V12c0,2,0.4,3.5,1.1,4.4
			c0.7,0.9,2.2,1.4,4.4,1.4h5.2v17.3h-14.4c-1.7,0-3.4-0.3-4.9-0.9c-1.6-0.6-2.9-1.4-4.2-2.6c-1.2-1.1-2.2-2.6-2.9-4.3
			c-0.7-1.7-1.1-3.7-1.1-6V3.9z"/>
		<path class="st2" d="M1089.5-7.2c0-0.1,0-0.2,0.1-0.5c0.1-0.3,0.1-0.4,0.1-0.5h45.8v1H1089.5z M1089.5-5.8h45.9v1h-45.9V-5.8z
			 M1089.5-3.5h45.9v1h-45.9V-3.5z M1089.5-1.1h45.9v1h-45.9V-1.1z M1106.9,3.8v7.6c0,4.3,2.1,6.4,6.3,6.4h4.9v-14h17.4v31.3h-32.7
			c-1.8,0-3.6-0.3-5.2-1c-1.6-0.6-3-1.5-4.3-2.7c-1.2-1.2-2.1-2.6-2.8-4.2c-0.7-1.6-1-3.4-1-5.4V3.8H1106.9z M1090-9.5
			c0-0.1,0-0.2,0.1-0.5c0.1-0.3,0.1-0.4,0.2-0.5h45.2v1H1090z M1090.9-11.7c0.1-0.1,0.2-0.2,0.3-0.5c0.1-0.3,0.2-0.4,0.3-0.5h44v1
			H1090.9z M1135.5-15v1h-42.9c0.1-0.1,0.3-0.3,0.5-0.5c0.2-0.2,0.4-0.3,0.5-0.5H1135.5z M1135.5-17.2v1h-39.7
			c0.9-0.4,1.7-0.6,2.5-0.8c0.8-0.1,1.6-0.2,2.5-0.2H1135.5z"/>
		<path class="st2" d="M1143.1-28.6h16.7v1h-16.7V-28.6z M1143.1-26.4h16.7v1h-16.7V-26.4z M1143.1-24.1h16.7v1h-16.7V-24.1z
			 M1143.1-21.9h16.7v1h-16.7V-21.9z M1143.1-19.5h16.7v1h-16.7V-19.5z M1170.5-17.2v1h-27.4v-1H1170.5z M1170.5-14.9v1h-27.4v-1
			H1170.5z M1170.5-12.7v1h-27.4v-1H1170.5z M1170.5-10.4v1h-27.4v-1H1170.5z M1170.5-8.2v1h-27.4v-1H1170.5z M1170.5-5.8v1h-27.4
			v-1H1170.5z M1170.5-3.5v1h-27.4v-1H1170.5z M1170.5-1.1v1h-27.4v-1H1170.5z M1143.1,3.9h16.7V12c0,2,0.4,3.5,1.1,4.4
			c0.7,0.9,2.2,1.4,4.4,1.4h5.2v17.3h-14.4c-1.7,0-3.4-0.3-4.9-0.9c-1.6-0.6-2.9-1.4-4.2-2.6c-1.2-1.1-2.2-2.6-2.9-4.3
			c-0.7-1.7-1.1-3.7-1.1-6V3.9z"/>
		<path class="st2" d="M1194.9-17.2v1h-16.7v-1H1194.9z M1194.9-14.9v1h-16.7v-1H1194.9z M1194.9-12.7v1h-16.7v-1H1194.9z
			 M1194.9-10.4v1h-16.7v-1H1194.9z M1194.9-8.2v1h-16.7v-1H1194.9z M1194.9-5.8v1h-16.7v-1H1194.9z M1194.9-3.5v1h-16.7v-1H1194.9z
			 M1194.9-1.1v1h-16.7v-1H1194.9z M1178.2,3.8h16.7v31.3h-16.7V3.8z"/>
		<path class="st2" d="M1207.2,3.9h23l9.2,9.9c1.3,1.3,2.2,2.7,2.7,4.2c0.5,1.4,0.8,3,0.8,4.7c0,3.6-1.2,6.5-3.6,8.9
			c-2.4,2.4-5.9,3.5-10.5,3.5h-26.3V17.8h17.9L1207.2,3.9z M1203-5.8h37.5v1H1203V-5.8z M1203.2-8.2h37.3v1h-37.4L1203.2-8.2z
			 M1203.2-3.5h37.3v1h-37.3L1203.2-3.5z M1203.5-9.5c0-0.1,0.1-0.2,0.2-0.5c0.1-0.3,0.2-0.4,0.2-0.5h36.7v1H1203.5z M1204.1-0.1
			c-0.1-0.1-0.1-0.2-0.2-0.4c-0.1-0.2-0.1-0.4-0.2-0.5h36.8v1H1204.1z M1204.3-11.7c0.1-0.1,0.2-0.2,0.3-0.5
			c0.1-0.3,0.2-0.4,0.3-0.5h35.6v1H1204.3z M1240.5-15v1H1206c0.1-0.1,0.3-0.3,0.5-0.5c0.2-0.2,0.4-0.3,0.5-0.5H1240.5z
			 M1240.5-17.2v1h-31.2c1.1-0.4,2-0.7,2.7-0.8c0.7-0.1,1.5-0.1,2.2-0.1H1240.5z"/>
		<path class="st2" d="M1250.6-28.6h16.7v1h-16.7V-28.6z M1250.6-26.4h16.7v1h-16.7V-26.4z M1250.6-24.1h16.7v1h-16.7V-24.1z
			 M1250.6-21.9h16.7v1h-16.7V-21.9z M1250.6-19.5h16.7v1h-16.7V-19.5z M1278-17.2v1h-27.4v-1H1278z M1278-14.9v1h-27.4v-1H1278z
			 M1278-12.7v1h-27.4v-1H1278z M1278-10.4v1h-27.4v-1H1278z M1278-8.2v1h-27.4v-1H1278z M1278-5.8v1h-27.4v-1H1278z M1278-3.5v1
			h-27.4v-1H1278z M1278-1.1v1h-27.4v-1H1278z M1250.6,3.9h16.7V12c0,2,0.4,3.5,1.1,4.4c0.7,0.9,2.2,1.4,4.4,1.4h5.2v17.3h-14.4
			c-1.7,0-3.4-0.3-4.9-0.9c-1.6-0.6-2.9-1.4-4.2-2.6c-1.2-1.1-2.2-2.6-2.9-4.3c-0.7-1.7-1.1-3.7-1.1-6V3.9z"/>
		<path class="st2" d="M1302.3-17.2v1h-16.7v-1H1302.3z M1302.3-14.9v1h-16.7v-1H1302.3z M1302.3-12.7v1h-16.7v-1H1302.3z
			 M1302.3-10.4v1h-16.7v-1H1302.3z M1302.3-8.2v1h-16.7v-1H1302.3z M1302.3-5.8v1h-16.7v-1H1302.3z M1302.3-3.5v1h-16.7v-1H1302.3z
			 M1302.3-1.1v1h-16.7v-1H1302.3z M1285.6,3.8h16.7v31.3h-16.7V3.8z"/>
		<path class="st2" d="M1310-7.2c0-0.1,0-0.2,0.1-0.5c0.1-0.3,0.1-0.4,0.1-0.5h37.3v1H1310z M1310.1-5.8h37.4v1h-37.4V-5.8z
			 M1310.1-3.5h37.4v1h-37.4V-3.5z M1310.1-1.1h37.4v1h-37.4V-1.1z M1347.5,17.8v17.3h-24.3c-1.8,0-3.6-0.3-5.2-1
			c-1.6-0.6-3-1.5-4.2-2.7c-1.2-1.2-2.1-2.6-2.8-4.2c-0.7-1.6-1-3.4-1-5.4V4.5h16.7v7c0,1.8,0.6,3.4,1.7,4.6
			c1.1,1.2,2.6,1.8,4.5,1.8H1347.5z M1310.4-9.5c0-0.1,0-0.2,0.1-0.5c0.1-0.3,0.1-0.4,0.2-0.5h36.8v1H1310.4z M1311.3-11.7
			c0.1-0.1,0.2-0.2,0.3-0.5c0.1-0.3,0.2-0.4,0.3-0.5h35.6v1H1311.3z M1347.5-15v1H1313c0.1-0.1,0.3-0.3,0.5-0.5
			c0.2-0.2,0.4-0.3,0.5-0.5H1347.5z M1347.5-17.2v1h-31.3c1.1-0.4,2-0.7,2.8-0.8c0.8-0.1,1.5-0.1,2.3-0.1H1347.5z"/>
		<path class="st2" d="M1359.8,3.9h23l9.2,9.9c1.3,1.3,2.2,2.7,2.7,4.2c0.5,1.4,0.8,3,0.8,4.7c0,3.6-1.2,6.5-3.6,8.9
			c-2.4,2.4-5.9,3.5-10.5,3.5h-26.3V17.8h17.9L1359.8,3.9z M1355.6-5.8h37.5v1h-37.5V-5.8z M1355.8-8.2h37.3v1h-37.4L1355.8-8.2z
			 M1355.8-3.5h37.3v1h-37.3L1355.8-3.5z M1356.1-9.5c0-0.1,0.1-0.2,0.2-0.5c0.1-0.3,0.2-0.4,0.2-0.5h36.7v1H1356.1z M1356.8-0.1
			c-0.1-0.1-0.1-0.2-0.2-0.4c-0.1-0.2-0.1-0.4-0.2-0.5h36.8v1H1356.8z M1357-11.7c0.1-0.1,0.2-0.2,0.3-0.5c0.1-0.3,0.2-0.4,0.3-0.5
			h35.6v1H1357z M1393.2-15v1h-34.5c0.1-0.1,0.3-0.3,0.5-0.5c0.2-0.2,0.4-0.3,0.5-0.5H1393.2z M1393.2-17.2v1h-31.2
			c1.1-0.4,2-0.7,2.7-0.8c0.7-0.1,1.5-0.1,2.2-0.1H1393.2z"/>
	</g>
</g>
</svg>
