<?xml version="1.0" encoding="utf-8"?>
<!-- Generator: Adobe Illustrator 19.0.0, SVG Export Plug-In . SVG Version: 6.00 Build 0)  -->
<svg version="1.1" id="Capa_1" xmlns="http://www.w3.org/2000/svg" xmlns:xlink="http://www.w3.org/1999/xlink" x="0px" y="0px"
	 viewBox="-7.9 -31.8 1486.2 84.8" style="enable-background:new -7.9 -31.8 1486.2 84.8;" xml:space="preserve">
<style type="text/css">
	.st0{display:none;}
	.st1{display:inline;fill:#161616;}
	.st2{fill:#FBBF24;}
	.st3{fill:none;stroke:#FBBF24;stroke-width:1.6;stroke-miterlimit:10;}
	.st4{clip-path:url(#XMLID_86_);}
</style>
<g id="Capa_5" class="st0">
	<rect id="XMLID_171_" x="-377.4" y="-127.2" class="st1" width="1970.8" height="316.5"/>
</g>
<g id="Capa_3">
	<rect id="XMLID_11_" x="1380.8" y="3.9" class="st2" width="97.5" height="31.5"/>
	<rect id="XMLID_13_" x="-7.9" y="3.7" class="st2" width="1127.2" height="31.4"/>
</g>
<g id="Capa_7">
	<line id="XMLID_188_" class="st3" x1="-7.9" y1="-2.9" x2="1120.4" y2="-2.9"/>
	<line id="XMLID_187_" class="st3" x1="-7.9" y1="-7.4" x2="1120.4" y2="-7.4"/>
	<line id="XMLID_186_" class="st3" x1="-7.9" y1="-11.9" x2="1120.4" y2="-11.9"/>
	<line id="XMLID_185_" class="st3" x1="-7.9" y1="-16.4" x2="1120.4" y2="-16.4"/>
</g>
<g id="Capa_8_4_">
	<line id="XMLID_47_" class="st3" x1="1131.8" y1="-2.9" x2="1148.5" y2="-2.9"/>
	<line id="XMLID_46_" class="st3" x1="1131.8" y1="-7.4" x2="1148.5" y2="-7.4"/>
	<line id="XMLID_45_" class="st3" x1="1131.8" y1="-11.9" x2="1148.5" y2="-11.9"/>
	<line id="XMLID_44_" class="st3" x1="1131.8" y1="-16.4" x2="1148.5" y2="-16.4"/>
	<g id="XMLID_43_">
	</g>
	<g id="XMLID_42_">
	</g>
	<g id="XMLID_41_">
	</g>
	<g id="XMLID_40_">
	</g>
	<g id="XMLID_16_">
	</g>
	<g id="XMLID_15_">
	</g>
</g>
<g id="Capa_8_5_">
	<line id="XMLID_57_" class="st3" x1="1156.3" y1="-2.9" x2="1173" y2="-2.9"/>
	<line id="XMLID_56_" class="st3" x1="1156.3" y1="-7.4" x2="1173" y2="-7.4"/>
	<line id="XMLID_55_" class="st3" x1="1156.3" y1="-11.9" x2="1173" y2="-11.9"/>
	<line id="XMLID_54_" class="st3" x1="1156.3" y1="-16.4" x2="1173" y2="-16.4"/>
	<g id="XMLID_53_">
	</g>
	<g id="XMLID_52_">
	</g>
	<g id="XMLID_51_">
	</g>
	<g id="XMLID_50_">
	</g>
	<g id="XMLID_49_">
	</g>
	<g id="XMLID_48_">
	</g>
</g>
<g id="Capa_8_6_">
	<line id="XMLID_67_" class="st3" x1="1180.8" y1="-2.9" x2="1218.2" y2="-2.9"/>
	<line id="XMLID_66_" class="st3" x1="1180.8" y1="-7.4" x2="1218.2" y2="-7.4"/>
	<line id="XMLID_65_" class="st3" x1="1182.4" y1="-11.9" x2="1218.2" y2="-11.9"/>
	<line id="XMLID_64_" class="st3" x1="1189" y1="-16.4" x2="1218.2" y2="-16.4"/>
	<g id="XMLID_63_">
	</g>
	<g id="XMLID_62_">
	</g>
	<g id="XMLID_61_">
	</g>
	<g id="XMLID_60_">
	</g>
	<g id="XMLID_59_">
	</g>
	<g id="XMLID_58_">
	</g>
</g>
<g id="Capa_8_2_">
	<line id="XMLID_26_" class="st3" x1="1225.8" y1="-2.9" x2="1253.2" y2="-2.9"/>
	<line id="XMLID_25_" class="st3" x1="1225.8" y1="-7.4" x2="1253.2" y2="-7.4"/>
	<line id="XMLID_24_" class="st3" x1="1225.8" y1="-11.9" x2="1253.2" y2="-11.9"/>
	<line id="XMLID_23_" class="st3" x1="1225.8" y1="-16.4" x2="1253.2" y2="-16.4"/>
	<g id="XMLID_22_">
	</g>
	<g id="XMLID_21_">
	</g>
	<g id="XMLID_20_">
	</g>
	<g id="XMLID_19_">
	</g>
	<g id="XMLID_18_">
	</g>
	<g id="XMLID_17_">
	</g>
</g>
<g id="Capa_8_1_">
	<line id="XMLID_14_" class="st3" x1="1225.8" y1="-20.9" x2="1242.6" y2="-20.9"/>
	<line id="XMLID_12_" class="st3" x1="1225.8" y1="-25.4" x2="1242.6" y2="-25.4"/>
	<line id="XMLID_10_" class="st3" x1="1225.8" y1="-29.9" x2="1242.6" y2="-29.9"/>
	<g id="XMLID_9_">
	</g>
	<g id="XMLID_8_">
	</g>
	<g id="XMLID_7_">
	</g>
	<g id="XMLID_6_">
	</g>
	<g id="XMLID_3_">
	</g>
	<g id="XMLID_1_">
	</g>
</g>
<g id="Capa_8">
	<line id="XMLID_192_" class="st3" x1="1261.1" y1="-2.9" x2="1305.6" y2="-2.9"/>
	<line id="XMLID_191_" class="st3" x1="1261.3" y1="-7.4" x2="1305.6" y2="-7.4"/>
	<line id="XMLID_190_" class="st3" x1="1262.9" y1="-11.9" x2="1303.8" y2="-11.9"/>
	<line id="XMLID_189_" class="st3" x1="1269.4" y1="-16.4" x2="1297.1" y2="-16.4"/>
	<g id="XMLID_2_">
	</g>
	<g id="XMLID_226_">
	</g>
	<g id="XMLID_227_">
	</g>
	<g id="XMLID_228_">
	</g>
	<g id="XMLID_229_">
	</g>
	<g id="XMLID_230_">
	</g>
</g>
<g id="Capa_8_8_">
	<line id="XMLID_84_" class="st3" x1="1315.5" y1="-2.9" x2="1342.9" y2="-2.9"/>
	<line id="XMLID_83_" class="st3" x1="1315.5" y1="-7.4" x2="1342.9" y2="-7.4"/>
	<line id="XMLID_82_" class="st3" x1="1317.3" y1="-11.9" x2="1342.9" y2="-11.9"/>
	<line id="XMLID_81_" class="st3" x1="1323.5" y1="-16.4" x2="1342.9" y2="-16.4"/>
	<g id="XMLID_80_">
	</g>
	<g id="XMLID_79_">
	</g>
	<g id="XMLID_78_">
	</g>
	<g id="XMLID_77_">
	</g>
	<g id="XMLID_76_">
	</g>
	<g id="XMLID_75_">
	</g>
</g>
<g id="Capa_8_7_">
	<line id="XMLID_74_" class="st3" x1="1350.3" y1="-2.9" x2="1367.7" y2="-2.9"/>
	<line id="XMLID_73_" class="st3" x1="1350.3" y1="-7.4" x2="1367.7" y2="-7.4"/>
	<line id="XMLID_72_" class="st3" x1="1350.3" y1="-11.9" x2="1367.7" y2="-11.9"/>
	<line id="XMLID_71_" class="st3" x1="1350.3" y1="-16.4" x2="1367.7" y2="-16.4"/>
	<g id="XMLID_70_">
	</g>
	<g id="XMLID_69_">
	</g>
	<g id="XMLID_68_">
	</g>
	<g id="XMLID_39_">
	</g>
	<g id="XMLID_38_">
	</g>
	<g id="XMLID_37_">
	</g>
</g>
<g id="Capa_8_3_">
	<line id="XMLID_36_" class="st3" x1="1378.3" y1="-2.9" x2="1478.3" y2="-2.9"/>
	<line id="XMLID_35_" class="st3" x1="1378.3" y1="-7.4" x2="1478.3" y2="-7.4"/>
	<line id="XMLID_34_" class="st3" x1="1378.3" y1="-11.9" x2="1478.3" y2="-11.9"/>
	<line id="XMLID_33_" class="st3" x1="1378.3" y1="-16.4" x2="1478.3" y2="-16.4"/>
	<g id="XMLID_32_">
	</g>
	<g id="XMLID_31_">
	</g>
	<g id="XMLID_30_">
	</g>
	<g id="XMLID_29_">
	</g>
	<g id="XMLID_28_">
	</g>
	<g id="XMLID_27_">
	</g>
</g>
<g id="XMLID_4_">
	<defs>
		<rect id="XMLID_169_" x="957.7" y="1.2" width="443.6" height="64"/>
	</defs>
	<clipPath id="XMLID_86_">
		<use xlink:href="#XMLID_169_"  style="overflow:visible;"/>
	</clipPath>
	<g id="XMLID_5_" class="st4">
		<path class="st2" d="M1120.5-17.2v1h-16.7v-1H1120.5z M1120.5-14.9v1h-16.7v-1H1120.5z M1120.5-12.7v1h-16.7v-1H1120.5z
			 M1120.5-10.4v1h-16.7v-1H1120.5z M1120.5-8.2v1h-16.7v-1H1120.5z M1120.5-5.8v1h-16.7v-1H1120.5z M1120.5-3.5v1h-16.7v-1H1120.5z
			 M1120.5-1.1v1h-16.7v-1H1120.5z M1117.7,35.1c-2.9-2-5.2-4.2-7-6.4c-1.8-2.3-3.2-4.7-4.2-7.3c-1-2.6-1.7-5.3-2.1-8.3
			c-0.4-2.9-0.6-6.1-0.7-9.5h16.7c0,3.1,0.4,5.8,1.1,8c0.8,2.2,2.4,4.2,4.8,6c1.1-0.6,2-1.4,2.7-2.2c0.7-0.9,1.2-1.8,1.6-3
			c0.4-1.1,0.7-2.4,0.8-3.9c0.2-1.5,0.2-3.1,0.2-5h16.9c0,1.2,0,2.5,0,3.9c0,1.4-0.1,2.8-0.2,4.3c-0.2,1.5-0.4,3.1-0.8,4.7
			c-0.4,1.7-0.9,3.4-1.7,5.2c-1.3,3-2.8,5.6-4.6,7.7c-1.8,2.1-4,4-6.7,5.7H1117.7z M1148.5-17.2v1h-16.7v-1H1148.5z M1148.5-14.9v1
			h-16.7v-1H1148.5z M1148.5-12.7v1h-16.7v-1H1148.5z M1148.5-10.4v1h-16.7v-1H1148.5z M1148.5-8.2v1h-16.7v-1H1148.5z M1148.5-5.8
			v1h-16.7v-1H1148.5z M1148.5-3.5v1h-16.7v-1H1148.5z M1148.5-1.1v1h-16.7v-1H1148.5z"/>
		<path class="st2" d="M1173-17.2v1h-16.7v-1H1173z M1173-14.9v1h-16.7v-1H1173z M1173-12.7v1h-16.7v-1H1173z M1173-10.4v1h-16.7v-1
			H1173z M1173-8.2v1h-16.7v-1H1173z M1173-5.8v1h-16.7v-1H1173z M1173-3.5v1h-16.7v-1H1173z M1173-1.1v1h-16.7v-1H1173z
			 M1156.3,3.8h16.7v31.3h-16.7V3.8z"/>
		<path class="st2" d="M1180.6-7.2c0-0.1,0-0.2,0.1-0.5c0.1-0.3,0.1-0.4,0.1-0.5h37.3v1H1180.6z M1180.7-5.8h37.4v1h-37.4V-5.8z
			 M1180.7-3.5h37.4v1h-37.4V-3.5z M1180.7-1.1h37.4v1h-37.4V-1.1z M1218.2,17.8v17.3h-24.3c-1.8,0-3.6-0.3-5.2-1
			c-1.6-0.6-3-1.5-4.2-2.7c-1.2-1.2-2.1-2.6-2.8-4.2c-0.7-1.6-1-3.4-1-5.4V4.5h16.7v7c0,1.8,0.6,3.4,1.7,4.6
			c1.1,1.2,2.6,1.8,4.5,1.8H1218.2z M1181.1-9.5c0-0.1,0-0.2,0.1-0.5c0.1-0.3,0.1-0.4,0.2-0.5h36.8v1H1181.1z M1182-11.7
			c0.1-0.1,0.2-0.2,0.3-0.5c0.1-0.3,0.2-0.4,0.3-0.5h35.6v1H1182z M1218.2-15v1h-34.5c0.1-0.1,0.3-0.3,0.5-0.5
			c0.2-0.2,0.4-0.3,0.5-0.5H1218.2z M1218.2-17.2v1h-31.3c1.1-0.4,2-0.7,2.8-0.8c0.8-0.1,1.5-0.1,2.3-0.1H1218.2z"/>
		<path class="st2" d="M1225.8-28.6h16.7v1h-16.7V-28.6z M1225.8-26.4h16.7v1h-16.7V-26.4z M1225.8-24.1h16.7v1h-16.7V-24.1z
			 M1225.8-21.9h16.7v1h-16.7V-21.9z M1225.8-19.5h16.7v1h-16.7V-19.5z M1253.2-17.2v1h-27.4v-1H1253.2z M1253.2-14.9v1h-27.4v-1
			H1253.2z M1253.2-12.7v1h-27.4v-1H1253.2z M1253.2-10.4v1h-27.4v-1H1253.2z M1253.2-8.2v1h-27.4v-1H1253.2z M1253.2-5.8v1h-27.4
			v-1H1253.2z M1253.2-3.5v1h-27.4v-1H1253.2z M1253.2-1.1v1h-27.4v-1H1253.2z M1225.8,3.9h16.7V12c0,2,0.4,3.5,1.1,4.4
			c0.7,0.9,2.2,1.4,4.4,1.4h5.2v17.3h-14.4c-1.7,0-3.4-0.3-4.9-0.9c-1.6-0.6-2.9-1.4-4.2-2.6c-1.2-1.1-2.2-2.6-2.9-4.3
			c-0.7-1.7-1.1-3.7-1.1-6V3.9z"/>
		<path class="st2" d="M1305.6-7.2h-44.7c0-0.1,0-0.2,0.1-0.5c0.1-0.3,0.1-0.4,0.1-0.5h44.4L1305.6-7.2z M1305.6-4.8h-44.7v-1h44.7
			V-4.8z M1305.6-2.5h-44.7v-1h44.7V-2.5z M1305.6-0.1h-44.7v-1h44.7V-0.1z M1305.6,3.7v18.1c0,2-0.3,3.8-1,5.4
			c-0.7,1.6-1.6,3-2.8,4.2c-1.2,1.1-2.6,2-4.2,2.7c-1.6,0.6-3.4,1-5.2,1h-18.2c-1.8,0-3.6-0.3-5.2-1c-1.6-0.6-3-1.5-4.3-2.7
			c-1.2-1.1-2.1-2.5-2.8-4.2c-0.7-1.6-1-3.4-1-5.4V3.7h16.7v8.4c0,3.8,1.6,5.6,4.8,5.6h1.8c1.8,0,3.1-0.5,3.7-1.6
			c0.6-1.1,1-2.4,1-4.1V3.7H1305.6z M1304.8-10.4c0.1,0.1,0.1,0.2,0.2,0.5c0.1,0.3,0.1,0.4,0.1,0.5h-43.8c0-0.1,0-0.2,0.1-0.5
			c0.1-0.3,0.1-0.4,0.2-0.5H1304.8z M1303.8-12.6c0.1,0.1,0.2,0.2,0.3,0.5c0.1,0.3,0.2,0.4,0.3,0.5h-42.1c0.1-0.1,0.2-0.2,0.3-0.5
			c0.1-0.3,0.2-0.4,0.3-0.5H1303.8z M1301.6-15c0.1,0.1,0.3,0.3,0.5,0.5c0.2,0.2,0.4,0.4,0.5,0.5h-38.7c0.1-0.1,0.3-0.3,0.5-0.5
			c0.2-0.2,0.4-0.3,0.5-0.5H1301.6z M1295.2-17.2c0.8,0,1.6,0.1,2.3,0.3c0.7,0.2,1.3,0.4,1.9,0.7h-32.3c0.6-0.3,1.2-0.5,2-0.7
			c0.7-0.2,1.5-0.3,2.3-0.3H1295.2z"/>
		<path class="st2" d="M1315.5-5.8h27.3v1h-27.3V-5.8z M1315.5-3.5h27.3v1h-27.3V-3.5z M1315.5-1.1h27.3v1h-27.3V-1.1z M1315.5,3.9
			h16.7v31.2h-16.7V3.9z M1315.6-7.2c0-0.1,0-0.2,0.1-0.5c0.1-0.3,0.1-0.4,0.1-0.5h27v1H1315.6z M1316.1-9.5c0-0.1,0-0.2,0.1-0.5
			c0.1-0.3,0.1-0.4,0.2-0.5h26.5v1H1316.1z M1316.9-11.7c0.1-0.1,0.2-0.2,0.3-0.5c0.1-0.3,0.2-0.4,0.3-0.5h25.3v1H1316.9z
			 M1342.8-15v1h-24.2c0.1-0.1,0.3-0.3,0.5-0.5c0.2-0.2,0.4-0.3,0.5-0.5H1342.8z M1342.8-17.2v1h-21c1.1-0.4,2-0.7,2.8-0.8
			c0.8-0.1,1.5-0.1,2.3-0.1H1342.8z"/>
		<path class="st2" d="M1367.8-17.2v1h-17.4v-1H1367.8z M1367.8-14.9v1h-17.4v-1H1367.8z M1367.8-12.7v1h-17.4v-1H1367.8z
			 M1367.8-10.4v1h-17.4v-1H1367.8z M1367.8-8.2v1h-17.4v-1H1367.8z M1367.8-5.8v1h-17.4v-1H1367.8z M1367.8-3.5v1h-17.4v-1H1367.8z
			 M1367.8-1.1v1h-17.4v-1H1367.8z M1350.4,21.8v-18h17.4v7.7c0,2.2,0.4,3.8,1.3,4.8c0.9,1,1.9,1.4,3.1,1.4h1.6
			c1.1,0,2.2-0.4,3.1-1.1c0.9-0.7,1.4-1.4,1.4-2.1c0.1-0.3,0.1-0.7,0.1-1.3c0-0.5,0-1,0-1.5v-8h17.1v18c0,3.9-1.2,7.1-3.5,9.4
			c-2.3,2.3-5.8,3.7-10.6,4.2v17.3h-17V35.4c-4.4-0.2-7.8-1.5-10.4-3.9C1351.6,29.1,1350.4,25.8,1350.4,21.8z M1395.5-17.2v1h-17.1
			v-1H1395.5z M1395.5-14.9v1h-17.1v-1H1395.5z M1395.5-12.7v1h-17.1v-1H1395.5z M1395.5-10.4v1h-17.1v-1H1395.5z M1395.5-8.2v1
			h-17.1v-1H1395.5z M1395.5-5.8v1h-17.1v-1H1395.5z M1395.5-3.5v1h-17.1v-1H1395.5z M1395.5-1.1v1h-17.1v-1H1395.5z"/>
	</g>
</g>
</svg>
