<?xml version="1.0" encoding="utf-8"?>
<!-- Generator: Adobe Illustrator 19.0.0, SVG Export Plug-In . SVG Version: 6.00 Build 0)  -->
<svg version="1.1" id="Capa_1" xmlns="http://www.w3.org/2000/svg" xmlns:xlink="http://www.w3.org/1999/xlink" x="0px" y="0px"
	 viewBox="-321.7 -31.8 1800 84.8" style="enable-background:new -321.7 -31.8 1800 84.8;" xml:space="preserve">
<style type="text/css">
	.st0{fill:#161616;}
	.st1{fill:#FFF8E3;}
	.st2{fill:none;stroke:#FFF8E3;stroke-width:1.6;stroke-miterlimit:10;}
	.st3{clip-path:url(#XMLID_41_);}
</style>
<g id="Capa_3">
	<rect id="XMLID_11_" x="1395.2" y="3.8" class="st1" width="83.1" height="31.3"/>
	<rect id="XMLID_13_" x="-321.7" y="3.7" class="st1" width="1494.7" height="31.4"/>
</g>
<g id="Capa_4">
	<line id="XMLID_1_" class="st2" x1="1216" y1="-2.9" x2="-321.7" y2="-2.9"/>
	<line id="XMLID_172_" class="st2" x1="1215.8" y1="-7.4" x2="-321.7" y2="-7.4"/>
	<line id="XMLID_173_" class="st2" x1="1214.3" y1="-11.9" x2="-321.7" y2="-11.9"/>
	<line id="XMLID_175_" class="st2" x1="1207.7" y1="-16.4" x2="-321.7" y2="-16.4"/>
</g>
<g id="Capa_7">
	<line id="XMLID_188_" class="st2" x1="1223.6" y1="-2.9" x2="1250.8" y2="-2.9"/>
	<line id="XMLID_187_" class="st2" x1="1223.8" y1="-7.4" x2="1250.8" y2="-7.4"/>
	<line id="XMLID_186_" class="st2" x1="1225.3" y1="-11.9" x2="1250.8" y2="-11.9"/>
	<line id="XMLID_185_" class="st2" x1="1231.1" y1="-16.4" x2="1250.8" y2="-16.4"/>
</g>
<g id="Capa_8_1_">
	<line id="XMLID_16_" class="st2" x1="1258.5" y1="-2.9" x2="1303.2" y2="-2.9"/>
	<line id="XMLID_15_" class="st2" x1="1258.7" y1="-7.4" x2="1303" y2="-7.4"/>
	<line id="XMLID_14_" class="st2" x1="1260.1" y1="-11.9" x2="1301.7" y2="-11.9"/>
	<line id="XMLID_12_" class="st2" x1="1266.4" y1="-16.4" x2="1294.9" y2="-16.4"/>
	<g id="XMLID_10_">
	</g>
	<g id="XMLID_9_">
	</g>
	<g id="XMLID_8_">
	</g>
	<g id="XMLID_7_">
	</g>
	<g id="XMLID_6_">
	</g>
	<g id="XMLID_3_">
	</g>
</g>
<g id="Capa_8_2_">
	<line id="XMLID_26_" class="st2" x1="1310.9" y1="-2.9" x2="1346.9" y2="-2.9"/>
	<line id="XMLID_25_" class="st2" x1="1310.9" y1="-7.4" x2="1346.9" y2="-7.4"/>
	<line id="XMLID_24_" class="st2" x1="1312.8" y1="-11.9" x2="1346.9" y2="-11.9"/>
	<line id="XMLID_23_" class="st2" x1="1318.6" y1="-16.4" x2="1346.9" y2="-16.4"/>
	<g id="XMLID_22_">
	</g>
	<g id="XMLID_21_">
	</g>
	<g id="XMLID_20_">
	</g>
	<g id="XMLID_19_">
	</g>
	<g id="XMLID_18_">
	</g>
	<g id="XMLID_17_">
	</g>
</g>
<g id="Capa_8">
	<line id="XMLID_192_" class="st2" x1="1354.8" y1="-2.9" x2="1371.3" y2="-2.9"/>
	<line id="XMLID_191_" class="st2" x1="1354.8" y1="-7.4" x2="1371.3" y2="-7.4"/>
	<line id="XMLID_190_" class="st2" x1="1354.7" y1="-11.9" x2="1371.3" y2="-11.9"/>
	<line id="XMLID_189_" class="st2" x1="1354.8" y1="-16.4" x2="1371.3" y2="-16.4"/>
	<g id="XMLID_2_">
	</g>
	<g id="XMLID_226_">
	</g>
	<g id="XMLID_227_">
	</g>
	<g id="XMLID_228_">
	</g>
	<g id="XMLID_229_">
	</g>
	<g id="XMLID_230_">
	</g>
</g>
<g id="Capa_8_3_">
	<line id="XMLID_36_" class="st2" x1="1378.8" y1="-2.9" x2="1478.3" y2="-2.9"/>
	<line id="XMLID_35_" class="st2" x1="1378.8" y1="-7.4" x2="1478.3" y2="-7.4"/>
	<line id="XMLID_34_" class="st2" x1="1378.8" y1="-11.9" x2="1478.3" y2="-11.9"/>
	<line id="XMLID_33_" class="st2" x1="1378.8" y1="-16.4" x2="1478.3" y2="-16.4"/>
	<line id="XMLID_37_" class="st2" x1="1378.8" y1="-20.8" x2="1395.5" y2="-20.8"/>
	<line id="XMLID_38_" class="st2" x1="1378.8" y1="-25.4" x2="1395.5" y2="-25.4"/>
	<line id="XMLID_39_" class="st2" x1="1378.8" y1="-29.7" x2="1395.5" y2="-29.7"/>
	<g id="XMLID_32_">
	</g>
	<g id="XMLID_31_">
	</g>
	<g id="XMLID_30_">
	</g>
	<g id="XMLID_29_">
	</g>
	<g id="XMLID_28_">
	</g>
	<g id="XMLID_27_">
	</g>
</g>
<g id="XMLID_4_">
	<defs>
		<rect id="XMLID_169_" x="1080" y="1.2" width="321.3" height="64"/>
	</defs>
	<clipPath id="XMLID_41_">
		<use xlink:href="#XMLID_169_"  style="overflow:visible;"/>
	</clipPath>
	<g id="XMLID_5_" class="st3">
		<path class="st1" d="M1172.9-17.2h31.9c0.8,0,1.5,0,2.2,0.1c0.7,0.1,1.6,0.4,2.7,0.8h-36.9V-17.2z M1172.9-15h39
			c0.1,0.1,0.3,0.3,0.5,0.5c0.2,0.2,0.4,0.4,0.5,0.5h-40V-15z M1214.1-12.6c0.1,0.1,0.2,0.2,0.3,0.5c0.1,0.3,0.2,0.4,0.3,0.5h-41.7
			v-1H1214.1z M1215.2-10.4c0.1,0.1,0.1,0.2,0.2,0.5c0.1,0.3,0.1,0.4,0.1,0.5h-42.6v-1H1215.2z M1215.9-8.2l0.1,1h-43.1v-1H1215.9z
			 M1216-5.8v1h-43.1v-1H1216z M1216-3.5v1h-43.1v-1H1216z M1216-1.1v1h-43.1v-1H1216z M1216,3.7v18.1c0,2-0.3,3.8-1,5.4
			c-0.7,1.6-1.6,3-2.8,4.2c-1.2,1.1-2.6,2-4.2,2.7c-1.6,0.6-3.4,1-5.2,1h-13.2v17.5h-16.7V3.7h16.7v14h4.7c1.7,0,3-0.4,3.9-1.1
			c0.9-0.7,1.4-1.4,1.5-2.1c0.1-0.3,0.1-0.6,0.1-1.1c0-0.5,0-0.9,0-1.2V3.7H1216z"/>
		<path class="st1" d="M1223.5-5.8h27.3v1h-27.3V-5.8z M1223.5-3.5h27.3v1h-27.3V-3.5z M1223.5-1.1h27.3v1h-27.3V-1.1z M1223.5,3.9
			h16.7v31.2h-16.7V3.9z M1223.6-7.2c0-0.1,0-0.2,0.1-0.5c0.1-0.3,0.1-0.4,0.1-0.5h27v1H1223.6z M1224.1-9.5c0-0.1,0-0.2,0.1-0.5
			c0.1-0.3,0.1-0.4,0.2-0.5h26.5v1H1224.1z M1225-11.7c0.1-0.1,0.2-0.2,0.3-0.5c0.1-0.3,0.2-0.4,0.3-0.5h25.3v1H1225z M1250.8-15v1
			h-24.2c0.1-0.1,0.3-0.3,0.5-0.5c0.2-0.2,0.4-0.3,0.5-0.5H1250.8z M1250.8-17.2v1h-21c1.1-0.4,2-0.7,2.8-0.8
			c0.8-0.1,1.5-0.1,2.3-0.1H1250.8z"/>
		<path class="st1" d="M1303.2-7.2h-44.7c0-0.1,0-0.2,0.1-0.5c0.1-0.3,0.1-0.4,0.1-0.5h44.4L1303.2-7.2z M1303.2-4.8h-44.7v-1h44.7
			V-4.8z M1303.2-2.5h-44.7v-1h44.7V-2.5z M1303.2-0.1h-44.7v-1h44.7V-0.1z M1303.2,3.7v18.1c0,2-0.3,3.8-1,5.4
			c-0.7,1.6-1.6,3-2.8,4.2c-1.2,1.1-2.6,2-4.2,2.7c-1.6,0.6-3.4,1-5.2,1h-18.2c-1.8,0-3.6-0.3-5.2-1c-1.6-0.6-3-1.5-4.3-2.7
			c-1.2-1.1-2.1-2.5-2.8-4.2c-0.7-1.6-1-3.4-1-5.4V3.7h16.7v8.4c0,3.8,1.6,5.6,4.8,5.6h1.8c1.8,0,3.1-0.5,3.7-1.6
			c0.6-1.1,1-2.4,1-4.1V3.7H1303.2z M1302.4-10.4c0.1,0.1,0.1,0.2,0.2,0.5c0.1,0.3,0.1,0.4,0.1,0.5H1259c0-0.1,0-0.2,0.1-0.5
			c0.1-0.3,0.1-0.4,0.2-0.5H1302.4z M1301.4-12.6c0.1,0.1,0.2,0.2,0.3,0.5c0.1,0.3,0.2,0.4,0.3,0.5h-42.1c0.1-0.1,0.2-0.2,0.3-0.5
			c0.1-0.3,0.2-0.4,0.3-0.5H1301.4z M1299.2-15c0.1,0.1,0.3,0.3,0.5,0.5c0.2,0.2,0.4,0.4,0.5,0.5h-38.7c0.1-0.1,0.3-0.3,0.5-0.5
			c0.2-0.2,0.4-0.3,0.5-0.5H1299.2z M1292.8-17.2c0.8,0,1.6,0.1,2.3,0.3c0.7,0.2,1.3,0.4,1.9,0.7h-32.3c0.6-0.3,1.2-0.5,2-0.7
			c0.7-0.2,1.5-0.3,2.3-0.3H1292.8z"/>
		<path class="st1" d="M1310.9-7.2c0-0.1,0-0.2,0.1-0.5c0.1-0.3,0.1-0.4,0.1-0.5h35.7v1H1310.9z M1310.9-5.8h35.9v1h-35.9V-5.8z
			 M1310.9-3.5h35.9v1h-35.9V-3.5z M1310.9-1.1h35.9v1h-35.9V-1.1z M1310.9,4h30.4v9.1h-9v39h-16.7v-39h-4.7V4z M1311.4-9.5
			c0-0.1,0-0.2,0.1-0.5c0.1-0.3,0.1-0.4,0.2-0.5h35.2v1H1311.4z M1312.3-11.7c0.1-0.1,0.2-0.2,0.3-0.5c0.1-0.3,0.2-0.4,0.3-0.5h34v1
			H1312.3z M1346.8-15v1H1314c0.1-0.1,0.3-0.3,0.5-0.5c0.2-0.2,0.4-0.3,0.5-0.5H1346.8z M1346.8-17.2v1h-29.7c1.1-0.4,2-0.7,2.8-0.8
			c0.8-0.1,1.5-0.1,2.3-0.1H1346.8z"/>
		<path class="st1" d="M1371.2-17.2v1h-16.7v-1H1371.2z M1371.2-14.9v1h-16.7v-1H1371.2z M1371.2-12.7v1h-16.7v-1H1371.2z
			 M1371.2-10.4v1h-16.7v-1H1371.2z M1371.2-8.2v1h-16.7v-1H1371.2z M1371.2-5.8v1h-16.7v-1H1371.2z M1371.2-3.5v1h-16.7v-1H1371.2z
			 M1371.2-1.1v1h-16.7v-1H1371.2z M1354.5,3.8h16.7v31.3h-16.7V3.8z"/>
		<path class="st1" d="M1378.8-28.6h16.7v1h-16.7V-28.6z M1378.8-26.4h16.7v1h-16.7V-26.4z M1378.8-24.1h16.7v1h-16.7V-24.1z
			 M1378.8-21.9h16.7v1h-16.7V-21.9z M1378.8-19.5h16.7v1h-16.7V-19.5z M1395.5-17.2v1h-16.7v-1H1395.5z M1395.5-14.9v1h-16.7v-1
			H1395.5z M1395.5-12.7v1h-16.7v-1H1395.5z M1395.5-10.4v1h-16.7v-1H1395.5z M1395.5-8.2v1h-16.7v-1H1395.5z M1395.5-5.8v1h-16.7
			v-1H1395.5z M1395.5-3.5v1h-16.7v-1H1395.5z M1395.5-1.1v1h-16.7v-1H1395.5z M1378.8,3.8h16.7v31.3h-16.7V3.8z"/>
	</g>
</g>
</svg>
