<?xml version="1.0" encoding="utf-8"?>
<!-- Generator: Adobe Illustrator 19.0.0, SVG Export Plug-In . SVG Version: 6.00 Build 0)  -->
<svg version="1.1" id="Capa_1" xmlns="http://www.w3.org/2000/svg" xmlns:xlink="http://www.w3.org/1999/xlink" x="0px" y="0px"
	 viewBox="-321.7 -31.8 1800 84.8" style="enable-background:new -321.7 -31.8 1800 84.8;" xml:space="preserve">
<style type="text/css">
	.st0{display:none;}
	.st1{display:inline;fill:#161616;}
	.st2{fill:#FFF8E3;}
	.st3{fill:none;stroke:#FFF8E3;stroke-width:1.6;stroke-miterlimit:10;}
	.st4{clip-path:url(#XMLID_118_);}
</style>
<g id="Capa_5" class="st0">
	<rect id="XMLID_171_" x="-377.4" y="-127.2" class="st1" width="1970.8" height="316.5"/>
</g>
<g id="Capa_3">
	<rect id="XMLID_11_" x="1379.9" y="3.9" class="st2" width="98.4" height="31.2"/>
	<rect id="XMLID_13_" x="-321.7" y="4.5" class="st2" width="1113.6" height="30.7"/>
</g>
<g id="Capa_4">
	<line id="XMLID_1_" class="st3" x1="814.1" y1="-2.9" x2="-321.7" y2="-2.9"/>
	<line id="XMLID_172_" class="st3" x1="813.8" y1="-7.4" x2="-321.7" y2="-7.4"/>
	<line id="XMLID_173_" class="st3" x1="813.8" y1="-11.9" x2="-321.7" y2="-11.9"/>
	<line id="XMLID_175_" class="st3" x1="813.8" y1="-16.4" x2="-321.7" y2="-16.4"/>
</g>
<g id="Capa_7">
	<line id="XMLID_188_" class="st3" x1="821.5" y1="-2.9" x2="866.2" y2="-2.9"/>
	<line id="XMLID_187_" class="st3" x1="821.7" y1="-7.4" x2="866.2" y2="-7.4"/>
	<line id="XMLID_186_" class="st3" x1="823.2" y1="-11.9" x2="864.5" y2="-11.9"/>
	<line id="XMLID_185_" class="st3" x1="829" y1="-16.4" x2="857.6" y2="-16.4"/>
</g>
<g id="Capa_8">
	<line id="XMLID_192_" class="st3" x1="916.8" y1="-2.9" x2="873.8" y2="-2.9"/>
	<line id="XMLID_191_" class="st3" x1="916.5" y1="-7.4" x2="873.8" y2="-7.4"/>
	<line id="XMLID_190_" class="st3" x1="914.8" y1="-11.9" x2="873.8" y2="-11.9"/>
	<line id="XMLID_189_" class="st3" x1="908.5" y1="-16.4" x2="873.8" y2="-16.4"/>
	<g id="XMLID_2_">
	</g>
	<g id="XMLID_226_">
	</g>
	<g id="XMLID_227_">
	</g>
	<g id="XMLID_228_">
	</g>
	<g id="XMLID_229_">
	</g>
	<g id="XMLID_230_">
	</g>
</g>
<g id="Capa_8_5_">
	<line id="XMLID_58_" class="st3" x1="924.4" y1="-2.9" x2="960.3" y2="-2.9"/>
	<line id="XMLID_57_" class="st3" x1="924.4" y1="-7.4" x2="960.3" y2="-7.4"/>
	<line id="XMLID_56_" class="st3" x1="926" y1="-11.9" x2="960.3" y2="-11.9"/>
	<line id="XMLID_55_" class="st3" x1="932.8" y1="-16.4" x2="960.3" y2="-16.4"/>
	<g id="XMLID_54_">
	</g>
	<g id="XMLID_53_">
	</g>
	<g id="XMLID_52_">
	</g>
	<g id="XMLID_51_">
	</g>
	<g id="XMLID_50_">
	</g>
	<g id="XMLID_49_">
	</g>
</g>
<g id="Capa_8_1_">
	<line id="XMLID_16_" class="st3" x1="967.9" y1="-2.9" x2="984.6" y2="-2.9"/>
	<line id="XMLID_15_" class="st3" x1="967.9" y1="-7.4" x2="984.6" y2="-7.4"/>
	<line id="XMLID_14_" class="st3" x1="967.9" y1="-11.9" x2="984.6" y2="-11.9"/>
	<line id="XMLID_12_" class="st3" x1="967.9" y1="-16.4" x2="984.6" y2="-16.4"/>
	<g id="XMLID_10_">
	</g>
	<g id="XMLID_9_">
	</g>
	<g id="XMLID_8_">
	</g>
	<g id="XMLID_7_">
	</g>
	<g id="XMLID_6_">
	</g>
	<g id="XMLID_3_">
	</g>
</g>
<g id="Capa_8_2_">
	<line id="XMLID_26_" class="st3" x1="1036.6" y1="-2.9" x2="992.3" y2="-2.9"/>
	<line id="XMLID_25_" class="st3" x1="1036.6" y1="-7.4" x2="992.3" y2="-7.4"/>
	<line id="XMLID_24_" class="st3" x1="1036.6" y1="-11.9" x2="993.9" y2="-11.9"/>
	<line id="XMLID_23_" class="st3" x1="1036.6" y1="-16.4" x2="1000.3" y2="-16.4"/>
	<g id="XMLID_22_">
	</g>
	<g id="XMLID_21_">
	</g>
	<g id="XMLID_20_">
	</g>
	<g id="XMLID_19_">
	</g>
	<g id="XMLID_18_">
	</g>
	<g id="XMLID_17_">
	</g>
</g>
<g id="Capa_8_7_">
	<line id="XMLID_79_" class="st3" x1="1044.2" y1="-2.9" x2="1060.9" y2="-2.9"/>
	<line id="XMLID_78_" class="st3" x1="1044.2" y1="-7.4" x2="1060.9" y2="-7.4"/>
	<line id="XMLID_77_" class="st3" x1="1044.2" y1="-11.9" x2="1060.9" y2="-11.9"/>
	<line id="XMLID_76_" class="st3" x1="1044.2" y1="-16.4" x2="1060.9" y2="-16.4"/>
	<g id="XMLID_75_">
	</g>
	<g id="XMLID_74_">
	</g>
	<g id="XMLID_73_">
	</g>
	<g id="XMLID_72_">
	</g>
	<g id="XMLID_71_">
	</g>
	<g id="XMLID_70_">
	</g>
</g>
<g id="Capa_8_8_">
	<line id="XMLID_89_" class="st3" x1="1072.1" y1="-2.9" x2="1088.9" y2="-2.9"/>
	<line id="XMLID_88_" class="st3" x1="1072.1" y1="-7.4" x2="1088.9" y2="-7.4"/>
	<line id="XMLID_87_" class="st3" x1="1072.1" y1="-11.9" x2="1088.9" y2="-11.9"/>
	<line id="XMLID_86_" class="st3" x1="1072.1" y1="-16.4" x2="1088.9" y2="-16.4"/>
	<g id="XMLID_85_">
	</g>
	<g id="XMLID_84_">
	</g>
	<g id="XMLID_83_">
	</g>
	<g id="XMLID_82_">
	</g>
	<g id="XMLID_81_">
	</g>
	<g id="XMLID_80_">
	</g>
</g>
<g id="Capa_8_11_">
	<line id="XMLID_116_" class="st3" x1="1096.5" y1="-2.9" x2="1123.8" y2="-2.9"/>
	<line id="XMLID_115_" class="st3" x1="1096.5" y1="-7.4" x2="1123.8" y2="-7.4"/>
	<line id="XMLID_114_" class="st3" x1="1098.2" y1="-11.9" x2="1123.8" y2="-11.9"/>
	<line id="XMLID_113_" class="st3" x1="1104.9" y1="-16.4" x2="1123.8" y2="-16.4"/>
	<g id="XMLID_112_">
	</g>
	<g id="XMLID_111_">
	</g>
	<g id="XMLID_110_">
	</g>
	<g id="XMLID_109_">
	</g>
	<g id="XMLID_108_">
	</g>
	<g id="XMLID_107_">
	</g>
</g>
<g id="Capa_8_6_">
	<line id="XMLID_66_" class="st3" x1="1131.4" y1="-2.9" x2="1177.4" y2="-2.9"/>
	<line id="XMLID_65_" class="st3" x1="1131.4" y1="-7.4" x2="1177.4" y2="-7.4"/>
	<line id="XMLID_64_" class="st3" x1="1133.1" y1="-11.9" x2="1177.4" y2="-11.9"/>
	<line id="XMLID_63_" class="st3" x1="1139.8" y1="-16.4" x2="1177.4" y2="-16.4"/>
	<g id="XMLID_62_">
	</g>
	<g id="XMLID_61_">
	</g>
	<g id="XMLID_60_">
	</g>
	<g id="XMLID_59_">
	</g>
	<g id="XMLID_48_">
	</g>
	<g id="XMLID_47_">
	</g>
</g>
<g id="Capa_8_4_">
	<line id="XMLID_46_" class="st3" x1="1185.1" y1="-2.9" x2="1222.5" y2="-2.9"/>
	<line id="XMLID_45_" class="st3" x1="1185.1" y1="-7.4" x2="1222.5" y2="-7.4"/>
	<line id="XMLID_44_" class="st3" x1="1186.8" y1="-11.9" x2="1222.5" y2="-11.9"/>
	<line id="XMLID_43_" class="st3" x1="1192.6" y1="-16.4" x2="1222.5" y2="-16.4"/>
	<g id="XMLID_42_">
	</g>
	<g id="XMLID_41_">
	</g>
	<g id="XMLID_40_">
	</g>
	<g id="XMLID_39_">
	</g>
	<g id="XMLID_38_">
	</g>
	<g id="XMLID_37_">
	</g>
</g>
<g id="Capa_8_9_">
	<line id="XMLID_96_" class="st3" x1="1230.2" y1="-2.9" x2="1247" y2="-2.9"/>
	<line id="XMLID_95_" class="st3" x1="1230.2" y1="-7.4" x2="1247" y2="-7.4"/>
	<line id="XMLID_94_" class="st3" x1="1230.2" y1="-11.9" x2="1247" y2="-11.9"/>
	<line id="XMLID_93_" class="st3" x1="1230.2" y1="-16.4" x2="1247" y2="-16.4"/>
	<g id="XMLID_92_">
	</g>
	<g id="XMLID_91_">
	</g>
	<g id="XMLID_90_">
	</g>
	<g id="XMLID_69_">
	</g>
	<g id="XMLID_68_">
	</g>
	<g id="XMLID_67_">
	</g>
</g>
<g id="Capa_8_3_">
	<line id="XMLID_36_" class="st3" x1="1254.6" y1="-2.9" x2="1299.3" y2="-2.9"/>
	<line id="XMLID_35_" class="st3" x1="1254.6" y1="-7.4" x2="1299.3" y2="-7.4"/>
	<line id="XMLID_34_" class="st3" x1="1256.2" y1="-11.9" x2="1297.5" y2="-11.9"/>
	<line id="XMLID_33_" class="st3" x1="1262.1" y1="-16.4" x2="1290.8" y2="-16.4"/>
	<g id="XMLID_32_">
	</g>
	<g id="XMLID_31_">
	</g>
	<g id="XMLID_30_">
	</g>
	<g id="XMLID_29_">
	</g>
	<g id="XMLID_28_">
	</g>
	<g id="XMLID_27_">
	</g>
</g>
<g id="Capa_8_10_">
	<line id="XMLID_106_" class="st3" x1="1306.8" y1="-2.9" x2="1349.9" y2="-2.9"/>
	<line id="XMLID_105_" class="st3" x1="1306.8" y1="-7.4" x2="1349.9" y2="-7.4"/>
	<line id="XMLID_104_" class="st3" x1="1306.8" y1="-11.9" x2="1348.2" y2="-11.9"/>
	<line id="XMLID_103_" class="st3" x1="1306.8" y1="-16.4" x2="1341.4" y2="-16.4"/>
	<g id="XMLID_102_">
	</g>
	<g id="XMLID_101_">
	</g>
	<g id="XMLID_100_">
	</g>
	<g id="XMLID_99_">
	</g>
	<g id="XMLID_98_">
	</g>
	<g id="XMLID_97_">
	</g>
</g>
<g id="Capa_6">
	<line id="XMLID_180_" class="st3" x1="1356" y1="-2.9" x2="1478.3" y2="-2.9"/>
	<line id="XMLID_179_" class="st3" x1="1355.8" y1="-7.4" x2="1478.3" y2="-7.4"/>
	<line id="XMLID_178_" class="st3" x1="1357.4" y1="-11.9" x2="1478.3" y2="-11.9"/>
	<line id="XMLID_177_" class="st3" x1="1363.1" y1="-16.4" x2="1478.3" y2="-16.4"/>
</g>
<g id="XMLID_4_">
	<defs>
		<rect id="XMLID_169_" x="758" y="1.8" width="643.3" height="63.4"/>
	</defs>
	<clipPath id="XMLID_118_">
		<use xlink:href="#XMLID_169_"  style="overflow:visible;"/>
	</clipPath>
	<g id="XMLID_5_" class="st4">
		<path class="st2" d="M776.3-7.2c0-0.1,0-0.2,0.1-0.5c0.1-0.3,0.1-0.4,0.1-0.5h37.3v1H776.3z M776.4-5.8h37.4v1h-37.4V-5.8z
			 M776.4-3.5h37.4v1h-37.4V-3.5z M776.4-1.1h37.4v1h-37.4V-1.1z M813.9,17.8v17.3h-24.3c-1.8,0-3.6-0.3-5.2-1
			c-1.6-0.6-3-1.5-4.2-2.7c-1.2-1.2-2.1-2.6-2.8-4.2s-1-3.4-1-5.4V4.5h16.7v7c0,1.8,0.6,3.4,1.7,4.6c1.1,1.2,2.6,1.8,4.5,1.8H813.9z
			 M776.8-9.5c0-0.1,0-0.2,0.1-0.5c0.1-0.3,0.1-0.4,0.2-0.5h36.8v1H776.8z M777.7-11.7c0.1-0.1,0.2-0.2,0.3-0.5
			c0.1-0.3,0.2-0.4,0.3-0.5h35.6v1H777.7z M813.9-15v1h-34.5c0.1-0.1,0.3-0.3,0.5-0.5c0.2-0.2,0.4-0.3,0.5-0.5H813.9z M813.9-17.2v1
			h-31.3c1.1-0.4,2-0.7,2.8-0.8c0.8-0.1,1.5-0.1,2.3-0.1H813.9z"/>
		<path class="st2" d="M866.2-7.2h-44.7c0-0.1,0-0.2,0.1-0.5c0.1-0.3,0.1-0.4,0.1-0.5h44.4L866.2-7.2z M866.2-4.8h-44.7v-1h44.7
			V-4.8z M866.2-2.5h-44.7v-1h44.7V-2.5z M866.2-0.1h-44.7v-1h44.7V-0.1z M866.2,3.7v18.1c0,2-0.3,3.8-1,5.4s-1.6,3-2.8,4.2
			c-1.2,1.1-2.6,2-4.2,2.7c-1.6,0.6-3.4,1-5.2,1h-18.2c-1.8,0-3.6-0.3-5.2-1c-1.6-0.6-3-1.5-4.3-2.7c-1.2-1.1-2.1-2.5-2.8-4.2
			s-1-3.4-1-5.4V3.7h16.7v8.4c0,3.8,1.6,5.6,4.8,5.6h1.8c1.8,0,3.1-0.5,3.7-1.6c0.6-1.1,1-2.4,1-4.1V3.7H866.2z M865.4-10.4
			c0.1,0.1,0.1,0.2,0.2,0.5c0.1,0.3,0.1,0.4,0.1,0.5H822c0-0.1,0-0.2,0.1-0.5c0.1-0.3,0.1-0.4,0.2-0.5H865.4z M864.4-12.6
			c0.1,0.1,0.2,0.2,0.3,0.5c0.1,0.3,0.2,0.4,0.3,0.5h-42.1c0.1-0.1,0.2-0.2,0.3-0.5c0.1-0.3,0.2-0.4,0.3-0.5H864.4z M862.2-15
			c0.1,0.1,0.3,0.3,0.5,0.5c0.2,0.2,0.4,0.4,0.5,0.5h-38.7c0.1-0.1,0.3-0.3,0.5-0.5c0.2-0.2,0.4-0.3,0.5-0.5H862.2z M855.8-17.2
			c0.8,0,1.6,0.1,2.3,0.3c0.7,0.2,1.3,0.4,1.9,0.7h-32.3c0.6-0.3,1.2-0.5,2-0.7c0.7-0.2,1.5-0.3,2.3-0.3H855.8z"/>
		<path class="st2" d="M873.8-17.2h31.7c0.8,0,1.5,0,2.2,0.1c0.7,0.1,1.6,0.4,2.7,0.8h-36.7V-17.2z M873.8-15h38.8
			c0.1,0.1,0.3,0.3,0.5,0.5c0.2,0.2,0.4,0.4,0.5,0.5h-39.8V-15z M914.8-12.6c0.1,0.1,0.2,0.2,0.3,0.5c0.1,0.3,0.2,0.4,0.3,0.5h-41.5
			v-1H914.8z M916-10.4c0.1,0.1,0.1,0.2,0.2,0.5c0.1,0.3,0.1,0.4,0.1,0.5h-42.4v-1H916z M916.6-8.2l0.1,1h-42.9v-1H916.6z
			 M916.7-5.8v1h-42.9v-1H916.7z M916.7-3.5v1h-42.9v-1H916.7z M916.7-1.1v1h-42.9v-1H916.7z M873.8,3.7h16.7v31.4h-16.7V3.7z
			 M900,3.7h16.7v31.4H900V3.7z"/>
		<path class="st2" d="M924.4-7.2c0-0.1,0-0.2,0.1-0.5c0.1-0.3,0.1-0.4,0.1-0.5h35.7v1H924.4z M924.4-5.8h35.9v1h-35.9V-5.8z
			 M924.4-3.5h35.9v1h-35.9V-3.5z M924.4-1.1h35.9v1h-35.9V-1.1z M924.4,4h30.4v9.1h-9v39H929v-39h-4.7V4z M924.8-9.5
			c0-0.1,0-0.2,0.1-0.5c0.1-0.3,0.1-0.4,0.2-0.5h35.2v1H924.8z M925.7-11.7c0.1-0.1,0.2-0.2,0.3-0.5c0.1-0.3,0.2-0.4,0.3-0.5h34v1
			H925.7z M960.3-15v1h-32.9c0.1-0.1,0.3-0.3,0.5-0.5c0.2-0.2,0.4-0.3,0.5-0.5H960.3z M960.3-17.2v1h-29.7c1.1-0.4,2-0.7,2.8-0.8
			c0.8-0.1,1.5-0.1,2.3-0.1H960.3z"/>
		<path class="st2" d="M984.6-17.2v1h-16.7v-1H984.6z M984.6-14.9v1h-16.7v-1H984.6z M984.6-12.7v1h-16.7v-1H984.6z M984.6-10.4v1
			h-16.7v-1H984.6z M984.6-8.2v1h-16.7v-1H984.6z M984.6-5.8v1h-16.7v-1H984.6z M984.6-3.5v1h-16.7v-1H984.6z M984.6-1.1v1h-16.7v-1
			H984.6z M967.9,3.8h16.7v31.3h-16.7V3.8z"/>
		<path class="st2" d="M992.3-7.2c0-0.1,0-0.2,0.1-0.5c0.1-0.3,0.1-0.4,0.1-0.5h44.1v1H992.3z M992.3-5.8h44.3v1h-44.3V-5.8z
			 M992.3-3.5h44.3v1h-44.3V-3.5z M992.3-1.1h44.3v1h-44.3V-1.1z M1036.6,3.5v35.8c0,1.8-0.3,3.6-1,5.2c-0.6,1.6-1.5,3-2.7,4.2
			c-1.2,1.2-2.6,2.1-4.3,2.8c-1.7,0.7-3.5,1-5.4,1h-30.9V35.1h22.4c1.6,0,2.9-0.4,3.8-1.3s1.4-1.9,1.4-3.1v-3.4c0-0.1,0-0.3,0-0.6
			s-0.1-0.4-0.3-0.4c-0.3,0-0.4,0.1-0.4,0.4c-0.1,1.3-0.6,2.2-1.5,2.8c-0.9,0.6-2.2,0.9-4.1,0.9h-8c-1.8,0-3.6-0.3-5.2-1
			c-1.6-0.6-3-1.5-4.3-2.7c-1.2-1.2-2.1-2.6-2.8-4.2c-0.7-1.6-1-3.4-1-5.4V3.5h16.7v5.4c0,1.5,0.4,2.8,1.3,3.7
			c0.9,0.9,2,1.4,3.3,1.4h1.9c1.2,0,2.2-0.5,3.1-1.4c0.9-0.9,1.3-2,1.3-3.1v-6H1036.6z M992.8-9.5c0-0.1,0-0.2,0.1-0.5
			c0.1-0.3,0.1-0.4,0.2-0.5h43.6v1H992.8z M993.6-11.7c0.1-0.1,0.2-0.2,0.3-0.5c0.1-0.3,0.2-0.4,0.3-0.5h42.4v1H993.6z M1036.6-15v1
			h-41.3c0.1-0.1,0.3-0.3,0.5-0.5c0.2-0.2,0.4-0.3,0.5-0.5H1036.6z M1036.6-17.2v1h-38.1c1.1-0.4,2-0.7,2.8-0.8
			c0.8-0.1,1.5-0.1,2.3-0.1H1036.6z"/>
		<path class="st2" d="M1060.9-17.2v1h-16.7v-1H1060.9z M1060.9-14.9v1h-16.7v-1H1060.9z M1060.9-12.7v1h-16.7v-1H1060.9z
			 M1060.9-10.4v1h-16.7v-1H1060.9z M1060.9-8.2v1h-16.7v-1H1060.9z M1060.9-5.8v1h-16.7v-1H1060.9z M1060.9-3.5v1h-16.7v-1H1060.9z
			 M1060.9-1.1v1h-16.7v-1H1060.9z M1088.8,3.7v18.1c0,2-0.3,3.8-1,5.4c-0.7,1.6-1.6,3-2.8,4.2c-1.2,1.1-2.6,2-4.2,2.7
			c-1.6,0.6-3.4,1-5.2,1h-18.2c-1.8,0-3.6-0.3-5.2-1c-1.6-0.6-3-1.5-4.3-2.7c-1.2-1.1-2.1-2.5-2.8-4.2c-0.7-1.6-1-3.4-1-5.4V3.7
			h16.7v8.4c0,3.8,1.6,5.6,4.8,5.6h1.8c1.8,0,3.1-0.5,3.7-1.6c0.6-1.1,1-2.4,1-4.1V3.7H1088.8z M1088.8-17.2v1h-16.7v-1H1088.8z
			 M1088.8-14.9v1h-16.7v-1H1088.8z M1088.8-12.7v1h-16.7v-1H1088.8z M1088.8-10.4v1h-16.7v-1H1088.8z M1088.8-8.2v1h-16.7v-1
			H1088.8z M1088.8-5.8v1h-16.7v-1H1088.8z M1088.8-3.5v1h-16.7v-1H1088.8z M1088.8-1.1v1h-16.7v-1H1088.8z"/>
		<path class="st2" d="M1096.5-5.8h27.3v1h-27.3V-5.8z M1096.5-3.5h27.3v1h-27.3V-3.5z M1096.5-1.1h27.3v1h-27.3V-1.1z M1096.5,3.9
			h16.7v31.2h-16.7V3.9z M1096.6-7.2c0-0.1,0-0.2,0.1-0.5c0.1-0.3,0.1-0.4,0.1-0.5h27v1H1096.6z M1097.1-9.5c0-0.1,0-0.2,0.1-0.5
			c0.1-0.3,0.1-0.4,0.2-0.5h26.5v1H1097.1z M1097.9-11.7c0.1-0.1,0.2-0.2,0.3-0.5c0.1-0.3,0.2-0.4,0.3-0.5h25.3v1H1097.9z
			 M1123.8-15v1h-24.2c0.1-0.1,0.3-0.3,0.5-0.5c0.2-0.2,0.4-0.3,0.5-0.5H1123.8z M1123.8-17.2v1h-21c1.1-0.4,2-0.7,2.8-0.8
			c0.8-0.1,1.5-0.1,2.3-0.1H1123.8z"/>
		<path class="st2" d="M1131.4-7.2c0-0.1,0-0.2,0.1-0.5c0.1-0.3,0.1-0.4,0.1-0.5h45.8v1H1131.4z M1131.4-5.8h45.9v1h-45.9V-5.8z
			 M1131.4-3.5h45.9v1h-45.9V-3.5z M1131.4-1.1h45.9v1h-45.9V-1.1z M1148.8,3.8v7.6c0,4.3,2.1,6.4,6.3,6.4h4.9v-14h17.4v31.3h-32.7
			c-1.8,0-3.6-0.3-5.2-1c-1.6-0.6-3-1.5-4.3-2.7c-1.2-1.2-2.1-2.6-2.8-4.2c-0.7-1.6-1-3.4-1-5.4V3.8H1148.8z M1131.9-9.5
			c0-0.1,0-0.2,0.1-0.5c0.1-0.3,0.1-0.4,0.2-0.5h45.2v1H1131.9z M1132.8-11.7c0.1-0.1,0.2-0.2,0.3-0.5c0.1-0.3,0.2-0.4,0.3-0.5h44v1
			H1132.8z M1177.4-15v1h-42.9c0.1-0.1,0.3-0.3,0.5-0.5c0.2-0.2,0.4-0.3,0.5-0.5H1177.4z M1177.4-17.2v1h-39.7
			c0.9-0.4,1.7-0.6,2.5-0.8c0.8-0.1,1.6-0.2,2.5-0.2H1177.4z"/>
		<path class="st2" d="M1185-7.2c0-0.1,0-0.2,0.1-0.5c0.1-0.3,0.1-0.4,0.1-0.5h37.3v1H1185z M1185.1-5.8h37.4v1h-37.4V-5.8z
			 M1185.1-3.5h37.4v1h-37.4V-3.5z M1185.1-1.1h37.4v1h-37.4V-1.1z M1222.6,17.8v17.3h-24.3c-1.8,0-3.6-0.3-5.2-1
			c-1.6-0.6-3-1.5-4.2-2.7c-1.2-1.2-2.1-2.6-2.8-4.2c-0.7-1.6-1-3.4-1-5.4V4.5h16.7v7c0,1.8,0.6,3.4,1.7,4.6
			c1.1,1.2,2.6,1.8,4.5,1.8H1222.6z M1185.5-9.5c0-0.1,0-0.2,0.1-0.5c0.1-0.3,0.1-0.4,0.2-0.5h36.8v1H1185.5z M1186.4-11.7
			c0.1-0.1,0.2-0.2,0.3-0.5c0.1-0.3,0.2-0.4,0.3-0.5h35.6v1H1186.4z M1222.6-15v1h-34.5c0.1-0.1,0.3-0.3,0.5-0.5
			c0.2-0.2,0.4-0.3,0.5-0.5H1222.6z M1222.6-17.2v1h-31.3c1.1-0.4,2-0.7,2.8-0.8c0.8-0.1,1.5-0.1,2.3-0.1H1222.6z"/>
		<path class="st2" d="M1246.9-17.2v1h-16.7v-1H1246.9z M1246.9-14.9v1h-16.7v-1H1246.9z M1246.9-12.7v1h-16.7v-1H1246.9z
			 M1246.9-10.4v1h-16.7v-1H1246.9z M1246.9-8.2v1h-16.7v-1H1246.9z M1246.9-5.8v1h-16.7v-1H1246.9z M1246.9-3.5v1h-16.7v-1H1246.9z
			 M1246.9-1.1v1h-16.7v-1H1246.9z M1230.2,3.8h16.7v31.3h-16.7V3.8z"/>
		<path class="st2" d="M1299.3-7.2h-44.7c0-0.1,0-0.2,0.1-0.5c0.1-0.3,0.1-0.4,0.1-0.5h44.4L1299.3-7.2z M1299.3-4.8h-44.7v-1h44.7
			V-4.8z M1299.3-2.5h-44.7v-1h44.7V-2.5z M1299.3-0.1h-44.7v-1h44.7V-0.1z M1299.3,3.7v18.1c0,2-0.3,3.8-1,5.4
			c-0.7,1.6-1.6,3-2.8,4.2c-1.2,1.1-2.6,2-4.2,2.7c-1.6,0.6-3.4,1-5.2,1h-18.2c-1.8,0-3.6-0.3-5.2-1c-1.6-0.6-3-1.5-4.3-2.7
			c-1.2-1.1-2.1-2.5-2.8-4.2c-0.7-1.6-1-3.4-1-5.4V3.7h16.7v8.4c0,3.8,1.6,5.6,4.8,5.6h1.8c1.8,0,3.1-0.5,3.7-1.6
			c0.6-1.1,1-2.4,1-4.1V3.7H1299.3z M1298.5-10.4c0.1,0.1,0.1,0.2,0.2,0.5c0.1,0.3,0.1,0.4,0.1,0.5H1255c0-0.1,0-0.2,0.1-0.5
			c0.1-0.3,0.1-0.4,0.2-0.5H1298.5z M1297.5-12.6c0.1,0.1,0.2,0.2,0.3,0.5c0.1,0.3,0.2,0.4,0.3,0.5h-42.1c0.1-0.1,0.2-0.2,0.3-0.5
			c0.1-0.3,0.2-0.4,0.3-0.5H1297.5z M1295.3-15c0.1,0.1,0.3,0.3,0.5,0.5c0.2,0.2,0.4,0.4,0.5,0.5h-38.7c0.1-0.1,0.3-0.3,0.5-0.5
			c0.2-0.2,0.4-0.3,0.5-0.5H1295.3z M1288.9-17.2c0.8,0,1.6,0.1,2.3,0.3c0.7,0.2,1.3,0.4,1.9,0.7h-32.3c0.6-0.3,1.2-0.5,2-0.7
			c0.7-0.2,1.5-0.3,2.3-0.3H1288.9z"/>
		<path class="st2" d="M1306.9-17.2h31.7c0.8,0,1.5,0,2.2,0.1c0.7,0.1,1.6,0.4,2.7,0.8h-36.7V-17.2z M1306.9-15h38.8
			c0.1,0.1,0.3,0.3,0.5,0.5c0.2,0.2,0.4,0.4,0.5,0.5h-39.8V-15z M1347.9-12.6c0.1,0.1,0.2,0.2,0.3,0.5c0.1,0.3,0.2,0.4,0.3,0.5
			h-41.5v-1H1347.9z M1349-10.4c0.1,0.1,0.1,0.2,0.2,0.5c0.1,0.3,0.1,0.4,0.1,0.5h-42.4v-1H1349z M1349.7-8.2l0.1,1h-42.9v-1H1349.7
			z M1349.8-5.8v1h-42.9v-1H1349.8z M1349.8-3.5v1h-42.9v-1H1349.8z M1349.8-1.1v1h-42.9v-1H1349.8z M1306.9,3.7h16.7v31.4h-16.7
			V3.7z M1333.1,3.7h16.7v31.4h-16.7V3.7z"/>
		<path class="st2" d="M1359.8,3.9h23l9.2,9.9c1.3,1.3,2.2,2.7,2.7,4.2c0.5,1.4,0.8,3,0.8,4.7c0,3.6-1.2,6.5-3.6,8.9
			c-2.4,2.4-5.9,3.5-10.5,3.5h-26.3V17.8h17.9L1359.8,3.9z M1355.6-5.8h37.5v1h-37.5V-5.8z M1355.8-8.2h37.3v1h-37.4L1355.8-8.2z
			 M1355.8-3.5h37.3v1h-37.3L1355.8-3.5z M1356.1-9.5c0-0.1,0.1-0.2,0.2-0.5c0.1-0.3,0.2-0.4,0.2-0.5h36.7v1H1356.1z M1356.8-0.1
			c-0.1-0.1-0.1-0.2-0.2-0.4c-0.1-0.2-0.1-0.4-0.2-0.5h36.8v1H1356.8z M1357-11.7c0.1-0.1,0.2-0.2,0.3-0.5c0.1-0.3,0.2-0.4,0.3-0.5
			h35.6v1H1357z M1393.2-15v1h-34.5c0.1-0.1,0.3-0.3,0.5-0.5c0.2-0.2,0.4-0.3,0.5-0.5H1393.2z M1393.2-17.2v1h-31.2
			c1.1-0.4,2-0.7,2.7-0.8c0.7-0.1,1.5-0.1,2.2-0.1H1393.2z"/>
	</g>
</g>
</svg>
