<?xml version="1.0" encoding="utf-8"?>
<!-- Generator: Adobe Illustrator 19.0.0, SVG Export Plug-In . SVG Version: 6.00 Build 0)  -->
<svg version="1.1" id="Capa_1" xmlns="http://www.w3.org/2000/svg" xmlns:xlink="http://www.w3.org/1999/xlink" x="0px" y="0px"
	 viewBox="-7.9 -31.8 1486.2 84.8" style="enable-background:new -7.9 -31.8 1486.2 84.8;" xml:space="preserve">
<style type="text/css">
	.st0{display:none;}
	.st1{display:inline;fill:#161616;}
	.st2{fill:#FFF8E3;}
	.st3{fill:none;stroke:#FFF8E3;stroke-width:1.6;stroke-miterlimit:10;}
	.st4{clip-path:url(#XMLID_86_);}
</style>
<g id="Capa_5" class="st0">
	<rect id="XMLID_171_" x="-377.4" y="-127.2" class="st1" width="1970.8" height="316.5"/>
</g>
<g id="Capa_3">
	<polygon id="XMLID_11_" class="st2" points="1380.8,3.8 1478.3,3.9 1478.3,35.1 1380.8,35.1 	"/>
	<rect id="XMLID_13_" x="-7.9" y="3.7" class="st2" width="1101.3" height="31.4"/>
</g>
<g id="Capa_7">
	<line id="XMLID_188_" class="st3" x1="-7.9" y1="-2.9" x2="1095.2" y2="-2.9"/>
	<line id="XMLID_187_" class="st3" x1="-7.9" y1="-7.4" x2="1095.2" y2="-7.4"/>
	<line id="XMLID_186_" class="st3" x1="-7.9" y1="-11.9" x2="1095.2" y2="-11.9"/>
	<line id="XMLID_185_" class="st3" x1="-7.9" y1="-16.4" x2="1095.2" y2="-16.4"/>
</g>
<g id="Capa_8_4_">
	<line id="XMLID_47_" class="st3" x1="1106.7" y1="-2.9" x2="1123.3" y2="-2.9"/>
	<line id="XMLID_46_" class="st3" x1="1106.7" y1="-7.4" x2="1123.3" y2="-7.4"/>
	<line id="XMLID_45_" class="st3" x1="1106.7" y1="-11.9" x2="1123.3" y2="-11.9"/>
	<line id="XMLID_44_" class="st3" x1="1106.7" y1="-16.4" x2="1123.3" y2="-16.4"/>
	<g id="XMLID_43_">
	</g>
	<g id="XMLID_42_">
	</g>
	<g id="XMLID_41_">
	</g>
	<g id="XMLID_40_">
	</g>
	<g id="XMLID_16_">
	</g>
	<g id="XMLID_15_">
	</g>
</g>
<g id="Capa_8_5_">
	<line id="XMLID_57_" class="st3" x1="1131.2" y1="-2.9" x2="1147.8" y2="-2.9"/>
	<line id="XMLID_56_" class="st3" x1="1131.2" y1="-7.4" x2="1147.8" y2="-7.4"/>
	<line id="XMLID_55_" class="st3" x1="1131.2" y1="-11.9" x2="1147.8" y2="-11.9"/>
	<line id="XMLID_54_" class="st3" x1="1131.2" y1="-16.4" x2="1147.8" y2="-16.4"/>
	<g id="XMLID_53_">
	</g>
	<g id="XMLID_52_">
	</g>
	<g id="XMLID_51_">
	</g>
	<g id="XMLID_50_">
	</g>
	<g id="XMLID_49_">
	</g>
	<g id="XMLID_48_">
	</g>
</g>
<g id="Capa_8_6_">
	<line id="XMLID_67_" class="st3" x1="1155.6" y1="-2.9" x2="1193" y2="-2.9"/>
	<line id="XMLID_66_" class="st3" x1="1155.6" y1="-7.4" x2="1193" y2="-7.4"/>
	<line id="XMLID_65_" class="st3" x1="1157.2" y1="-11.9" x2="1193" y2="-11.9"/>
	<line id="XMLID_64_" class="st3" x1="1163.8" y1="-16.4" x2="1193" y2="-16.4"/>
	<g id="XMLID_63_">
	</g>
	<g id="XMLID_62_">
	</g>
	<g id="XMLID_61_">
	</g>
	<g id="XMLID_60_">
	</g>
	<g id="XMLID_59_">
	</g>
	<g id="XMLID_58_">
	</g>
</g>
<g id="Capa_8_2_">
	<line id="XMLID_26_" class="st3" x1="1200.7" y1="-2.9" x2="1228" y2="-2.9"/>
	<line id="XMLID_25_" class="st3" x1="1200.7" y1="-7.4" x2="1228" y2="-7.4"/>
	<line id="XMLID_24_" class="st3" x1="1200.7" y1="-11.9" x2="1228" y2="-11.9"/>
	<line id="XMLID_23_" class="st3" x1="1200.7" y1="-16.4" x2="1228" y2="-16.4"/>
	<g id="XMLID_22_">
	</g>
	<g id="XMLID_21_">
	</g>
	<g id="XMLID_20_">
	</g>
	<g id="XMLID_19_">
	</g>
	<g id="XMLID_18_">
	</g>
	<g id="XMLID_17_">
	</g>
</g>
<g id="Capa_8_1_">
	<line id="XMLID_14_" class="st3" x1="1200.7" y1="-20.9" x2="1217.4" y2="-20.9"/>
	<line id="XMLID_12_" class="st3" x1="1200.7" y1="-25.4" x2="1217.4" y2="-25.4"/>
	<line id="XMLID_10_" class="st3" x1="1200.7" y1="-29.9" x2="1217.4" y2="-29.9"/>
	<g id="XMLID_9_">
	</g>
	<g id="XMLID_8_">
	</g>
	<g id="XMLID_7_">
	</g>
	<g id="XMLID_6_">
	</g>
	<g id="XMLID_3_">
	</g>
	<g id="XMLID_1_">
	</g>
</g>
<g id="Capa_8">
	<line id="XMLID_192_" class="st3" x1="1235.9" y1="-2.9" x2="1280.4" y2="-2.9"/>
	<line id="XMLID_191_" class="st3" x1="1236.1" y1="-7.4" x2="1280.4" y2="-7.4"/>
	<line id="XMLID_190_" class="st3" x1="1237.7" y1="-11.9" x2="1278.6" y2="-11.9"/>
	<line id="XMLID_189_" class="st3" x1="1244.2" y1="-16.4" x2="1271.9" y2="-16.4"/>
	<g id="XMLID_2_">
	</g>
	<g id="XMLID_226_">
	</g>
	<g id="XMLID_227_">
	</g>
	<g id="XMLID_228_">
	</g>
	<g id="XMLID_229_">
	</g>
	<g id="XMLID_230_">
	</g>
</g>
<g id="Capa_8_8_">
	<line id="XMLID_84_" class="st3" x1="1290.3" y1="-2.9" x2="1317.7" y2="-2.9"/>
	<line id="XMLID_83_" class="st3" x1="1290.3" y1="-7.4" x2="1317.7" y2="-7.4"/>
	<line id="XMLID_82_" class="st3" x1="1292.1" y1="-11.9" x2="1317.7" y2="-11.9"/>
	<line id="XMLID_81_" class="st3" x1="1298.3" y1="-16.4" x2="1317.7" y2="-16.4"/>
	<g id="XMLID_80_">
	</g>
	<g id="XMLID_79_">
	</g>
	<g id="XMLID_78_">
	</g>
	<g id="XMLID_77_">
	</g>
	<g id="XMLID_76_">
	</g>
	<g id="XMLID_75_">
	</g>
</g>
<g id="Capa_8_7_">
	<line id="XMLID_74_" class="st3" x1="1325.1" y1="-2.9" x2="1342" y2="-2.9"/>
	<line id="XMLID_73_" class="st3" x1="1325.1" y1="-7.4" x2="1342" y2="-7.4"/>
	<line id="XMLID_72_" class="st3" x1="1325.1" y1="-11.9" x2="1342" y2="-11.9"/>
	<line id="XMLID_71_" class="st3" x1="1325.1" y1="-16.4" x2="1342" y2="-16.4"/>
	<g id="XMLID_70_">
	</g>
	<g id="XMLID_69_">
	</g>
	<g id="XMLID_68_">
	</g>
	<g id="XMLID_39_">
	</g>
	<g id="XMLID_38_">
	</g>
	<g id="XMLID_37_">
	</g>
</g>
<g id="Capa_8_3_">
	<line id="XMLID_36_" class="st3" x1="1349.7" y1="-2.9" x2="1478.3" y2="-2.9"/>
	<line id="XMLID_35_" class="st3" x1="1349.7" y1="-7.4" x2="1478.3" y2="-7.4"/>
	<line id="XMLID_34_" class="st3" x1="1351.4" y1="-11.9" x2="1478.3" y2="-11.9"/>
	<line id="XMLID_33_" class="st3" x1="1358.1" y1="-16.4" x2="1478.3" y2="-16.4"/>
	<g id="XMLID_32_">
	</g>
	<g id="XMLID_31_">
	</g>
	<g id="XMLID_30_">
	</g>
	<g id="XMLID_29_">
	</g>
	<g id="XMLID_28_">
	</g>
	<g id="XMLID_27_">
	</g>
</g>
<g id="XMLID_4_">
	<defs>
		<rect id="XMLID_169_" x="957.7" y="0.9" width="443.6" height="64.3"/>
	</defs>
	<clipPath id="XMLID_86_">
		<use xlink:href="#XMLID_169_"  style="overflow:visible;"/>
	</clipPath>
	<g id="XMLID_5_" class="st4">
		<path class="st2" d="M1095.3-17.2v1h-16.7v-1H1095.3z M1095.3-14.9v1h-16.7v-1H1095.3z M1095.3-12.7v1h-16.7v-1H1095.3z
			 M1095.3-10.4v1h-16.7v-1H1095.3z M1095.3-8.2v1h-16.7v-1H1095.3z M1095.3-5.8v1h-16.7v-1H1095.3z M1095.3-3.5v1h-16.7v-1H1095.3z
			 M1095.3-1.1v1h-16.7v-1H1095.3z M1092.5,35.1c-2.9-2-5.2-4.2-7-6.4c-1.8-2.3-3.2-4.7-4.2-7.3c-1-2.6-1.7-5.3-2.1-8.3
			c-0.4-2.9-0.6-6.1-0.7-9.5h16.7c0,3.1,0.4,5.8,1.1,8c0.8,2.2,2.4,4.2,4.8,6c1.1-0.6,2-1.4,2.7-2.2c0.7-0.9,1.2-1.8,1.6-3
			c0.4-1.1,0.7-2.4,0.8-3.9c0.2-1.5,0.2-3.1,0.2-5h16.9c0,1.2,0,2.5,0,3.9c0,1.4-0.1,2.8-0.2,4.3c-0.2,1.5-0.4,3.1-0.8,4.7
			c-0.4,1.7-0.9,3.4-1.7,5.2c-1.3,3-2.8,5.6-4.6,7.7c-1.8,2.1-4,4-6.7,5.7H1092.5z M1123.3-17.2v1h-16.7v-1H1123.3z M1123.3-14.9v1
			h-16.7v-1H1123.3z M1123.3-12.7v1h-16.7v-1H1123.3z M1123.3-10.4v1h-16.7v-1H1123.3z M1123.3-8.2v1h-16.7v-1H1123.3z M1123.3-5.8
			v1h-16.7v-1H1123.3z M1123.3-3.5v1h-16.7v-1H1123.3z M1123.3-1.1v1h-16.7v-1H1123.3z"/>
		<path class="st2" d="M1147.8-17.2v1h-16.7v-1H1147.8z M1147.8-14.9v1h-16.7v-1H1147.8z M1147.8-12.7v1h-16.7v-1H1147.8z
			 M1147.8-10.4v1h-16.7v-1H1147.8z M1147.8-8.2v1h-16.7v-1H1147.8z M1147.8-5.8v1h-16.7v-1H1147.8z M1147.8-3.5v1h-16.7v-1H1147.8z
			 M1147.8-1.1v1h-16.7v-1H1147.8z M1131.1,3.8h16.7v31.3h-16.7V3.8z"/>
		<path class="st2" d="M1155.4-7.2c0-0.1,0-0.2,0.1-0.5c0.1-0.3,0.1-0.4,0.1-0.5h37.3v1H1155.4z M1155.5-5.8h37.4v1h-37.4V-5.8z
			 M1155.5-3.5h37.4v1h-37.4V-3.5z M1155.5-1.1h37.4v1h-37.4V-1.1z M1193,17.8v17.3h-24.3c-1.8,0-3.6-0.3-5.2-1
			c-1.6-0.6-3-1.5-4.2-2.7c-1.2-1.2-2.1-2.6-2.8-4.2c-0.7-1.6-1-3.4-1-5.4V4.5h16.7v7c0,1.8,0.6,3.4,1.7,4.6
			c1.1,1.2,2.6,1.8,4.5,1.8H1193z M1155.9-9.5c0-0.1,0-0.2,0.1-0.5c0.1-0.3,0.1-0.4,0.2-0.5h36.8v1H1155.9z M1156.8-11.7
			c0.1-0.1,0.2-0.2,0.3-0.5c0.1-0.3,0.2-0.4,0.3-0.5h35.6v1H1156.8z M1193-15v1h-34.5c0.1-0.1,0.3-0.3,0.5-0.5
			c0.2-0.2,0.4-0.3,0.5-0.5H1193z M1193-17.2v1h-31.3c1.1-0.4,2-0.7,2.8-0.8c0.8-0.1,1.5-0.1,2.3-0.1H1193z"/>
		<path class="st2" d="M1200.6-28.6h16.7v1h-16.7V-28.6z M1200.6-26.4h16.7v1h-16.7V-26.4z M1200.6-24.1h16.7v1h-16.7V-24.1z
			 M1200.6-21.9h16.7v1h-16.7V-21.9z M1200.6-19.5h16.7v1h-16.7V-19.5z M1228-17.2v1h-27.4v-1H1228z M1228-14.9v1h-27.4v-1H1228z
			 M1228-12.7v1h-27.4v-1H1228z M1228-10.4v1h-27.4v-1H1228z M1228-8.2v1h-27.4v-1H1228z M1228-5.8v1h-27.4v-1H1228z M1228-3.5v1
			h-27.4v-1H1228z M1228-1.1v1h-27.4v-1H1228z M1200.6,3.9h16.7V12c0,2,0.4,3.5,1.1,4.4c0.7,0.9,2.2,1.4,4.4,1.4h5.2v17.3h-14.4
			c-1.7,0-3.4-0.3-4.9-0.9c-1.6-0.6-2.9-1.4-4.2-2.6c-1.2-1.1-2.2-2.6-2.9-4.3c-0.7-1.7-1.1-3.7-1.1-6V3.9z"/>
		<path class="st2" d="M1280.4-7.2h-44.7c0-0.1,0-0.2,0.1-0.5c0.1-0.3,0.1-0.4,0.1-0.5h44.4L1280.4-7.2z M1280.4-4.8h-44.7v-1h44.7
			V-4.8z M1280.4-2.5h-44.7v-1h44.7V-2.5z M1280.4-0.1h-44.7v-1h44.7V-0.1z M1280.4,3.7v18.1c0,2-0.3,3.8-1,5.4
			c-0.7,1.6-1.6,3-2.8,4.2c-1.2,1.1-2.6,2-4.2,2.7c-1.6,0.6-3.4,1-5.2,1h-18.2c-1.8,0-3.6-0.3-5.2-1c-1.6-0.6-3-1.5-4.3-2.7
			c-1.2-1.1-2.1-2.5-2.8-4.2c-0.7-1.6-1-3.4-1-5.4V3.7h16.7v8.4c0,3.8,1.6,5.6,4.8,5.6h1.8c1.8,0,3.1-0.5,3.7-1.6
			c0.6-1.1,1-2.4,1-4.1V3.7H1280.4z M1279.6-10.4c0.1,0.1,0.1,0.2,0.2,0.5c0.1,0.3,0.1,0.4,0.1,0.5h-43.8c0-0.1,0-0.2,0.1-0.5
			c0.1-0.3,0.1-0.4,0.2-0.5H1279.6z M1278.5-12.6c0.1,0.1,0.2,0.2,0.3,0.5c0.1,0.3,0.2,0.4,0.3,0.5H1237c0.1-0.1,0.2-0.2,0.3-0.5
			c0.1-0.3,0.2-0.4,0.3-0.5H1278.5z M1276.3-15c0.1,0.1,0.3,0.3,0.5,0.5c0.2,0.2,0.4,0.4,0.5,0.5h-38.7c0.1-0.1,0.3-0.3,0.5-0.5
			c0.2-0.2,0.4-0.3,0.5-0.5H1276.3z M1269.9-17.2c0.8,0,1.6,0.1,2.3,0.3c0.7,0.2,1.3,0.4,1.9,0.7h-32.3c0.6-0.3,1.2-0.5,2-0.7
			c0.7-0.2,1.5-0.3,2.3-0.3H1269.9z"/>
		<path class="st2" d="M1290.3-5.8h27.3v1h-27.3V-5.8z M1290.3-3.5h27.3v1h-27.3V-3.5z M1290.3-1.1h27.3v1h-27.3V-1.1z M1290.3,3.9
			h16.7v31.2h-16.7V3.9z M1290.4-7.2c0-0.1,0-0.2,0.1-0.5c0.1-0.3,0.1-0.4,0.1-0.5h27v1H1290.4z M1290.9-9.5c0-0.1,0-0.2,0.1-0.5
			c0.1-0.3,0.1-0.4,0.2-0.5h26.5v1H1290.9z M1291.7-11.7c0.1-0.1,0.2-0.2,0.3-0.5c0.1-0.3,0.2-0.4,0.3-0.5h25.3v1H1291.7z
			 M1317.6-15v1h-24.2c0.1-0.1,0.3-0.3,0.5-0.5c0.2-0.2,0.4-0.3,0.5-0.5H1317.6z M1317.6-17.2v1h-21c1.1-0.4,2-0.7,2.8-0.8
			c0.8-0.1,1.5-0.1,2.3-0.1H1317.6z"/>
		<path class="st2" d="M1342-17.2v1h-16.7v-1H1342z M1342-14.9v1h-16.7v-1H1342z M1342-12.7v1h-16.7v-1H1342z M1342-10.4v1h-16.7v-1
			H1342z M1342-8.2v1h-16.7v-1H1342z M1342-5.8v1h-16.7v-1H1342z M1342-3.5v1h-16.7v-1H1342z M1342-1.1v1h-16.7v-1H1342z
			 M1325.2,3.8h16.7v31.3h-16.7V3.8z"/>
		<path class="st2" d="M1349.6-7.2c0-0.1,0-0.2,0.1-0.5c0.1-0.3,0.1-0.4,0.1-0.5h45.8v1H1349.6z M1349.6-5.8h45.9v1h-45.9V-5.8z
			 M1349.6-3.5h45.9v1h-45.9V-3.5z M1349.6-1.1h45.9v1h-45.9V-1.1z M1367,3.8v7.6c0,4.3,2.1,6.4,6.3,6.4h4.9v-14h17.4v31.3h-32.7
			c-1.8,0-3.6-0.3-5.2-1c-1.6-0.6-3-1.5-4.3-2.7c-1.2-1.2-2.1-2.6-2.8-4.2c-0.7-1.6-1-3.4-1-5.4V3.8H1367z M1350.1-9.5
			c0-0.1,0-0.2,0.1-0.5c0.1-0.3,0.1-0.4,0.2-0.5h45.2v1H1350.1z M1350.9-11.7c0.1-0.1,0.2-0.2,0.3-0.5c0.1-0.3,0.2-0.4,0.3-0.5h44v1
			H1350.9z M1395.5-15v1h-42.9c0.1-0.1,0.3-0.3,0.5-0.5c0.2-0.2,0.4-0.3,0.5-0.5H1395.5z M1395.5-17.2v1h-39.7
			c0.9-0.4,1.7-0.6,2.5-0.8c0.8-0.1,1.6-0.2,2.5-0.2H1395.5z"/>
	</g>
</g>
</svg>
