<?xml version="1.0" encoding="utf-8"?>
<!-- Generator: Adobe Illustrator 19.0.0, SVG Export Plug-In . SVG Version: 6.00 Build 0)  -->
<svg version="1.1" id="Capa_1" xmlns="http://www.w3.org/2000/svg" xmlns:xlink="http://www.w3.org/1999/xlink" x="0px" y="0px"
	 viewBox="-321.7 -31.8 1800 84.8" style="enable-background:new -321.7 -31.8 1800 84.8;" xml:space="preserve">
<style type="text/css">
	.st0{display:none;}
	.st1{display:inline;fill:#161616;}
	.st2{fill:#FFF8E3;}
	.st3{fill:none;stroke:#FFF8E3;stroke-width:1.6;stroke-miterlimit:10;}
	.st4{clip-path:url(#XMLID_66_);}
</style>
<g id="Capa_5" class="st0">
	<rect id="XMLID_171_" x="-377.4" y="-127.2" class="st1" width="1970.8" height="316.5"/>
</g>
<g id="Capa_3">
	<rect id="XMLID_11_" x="1374.8" y="3.9" class="st2" width="103.5" height="31.2"/>
	<rect id="XMLID_13_" x="-321.7" y="4.5" class="st2" width="1223.9" height="30.6"/>
</g>
<g id="Capa_4">
	<line id="XMLID_1_" class="st3" x1="927.9" y1="-2.9" x2="-321.7" y2="-2.9"/>
	<line id="XMLID_172_" class="st3" x1="927.9" y1="-7.4" x2="-321.7" y2="-7.4"/>
	<line id="XMLID_173_" class="st3" x1="927.9" y1="-11.9" x2="-321.7" y2="-11.9"/>
	<line id="XMLID_175_" class="st3" x1="927.9" y1="-16.4" x2="-321.7" y2="-16.4"/>
</g>
<g id="asdasd">
	<line id="XMLID_30_" class="st3" x1="936.1" y1="-2.9" x2="973.6" y2="-2.9"/>
	<line id="XMLID_29_" class="st3" x1="936.1" y1="-7.4" x2="973.6" y2="-7.4"/>
	<line id="XMLID_28_" class="st3" x1="937.6" y1="-11.9" x2="973.6" y2="-11.9"/>
	<line id="XMLID_27_" class="st3" x1="943.7" y1="-16.4" x2="973.6" y2="-16.4"/>
</g>
<g id="Capa_7">
	<line id="XMLID_188_" class="st3" x1="983.6" y1="-2.9" x2="1011" y2="-2.9"/>
	<line id="XMLID_187_" class="st3" x1="983.6" y1="-7.4" x2="1011" y2="-7.4"/>
	<line id="XMLID_186_" class="st3" x1="983.6" y1="-11.9" x2="1011" y2="-11.9"/>
	<line id="XMLID_185_" class="st3" x1="983.6" y1="-16.4" x2="1011" y2="-16.4"/>
</g>
<g id="Capa_7_1_">
	<line id="XMLID_42_" class="st3" x1="983.6" y1="-20.9" x2="1000.3" y2="-20.9"/>
	<line id="XMLID_41_" class="st3" x1="983.6" y1="-25.4" x2="1000.3" y2="-25.4"/>
	<line id="XMLID_40_" class="st3" x1="983.6" y1="-29.9" x2="1000.3" y2="-29.9"/>
</g>
<g id="Capa_8_1_">
	<line id="XMLID_16_" class="st3" x1="1018.6" y1="-2.9" x2="1064.4" y2="-2.9"/>
	<line id="XMLID_15_" class="st3" x1="1018.7" y1="-7.4" x2="1064.4" y2="-7.4"/>
	<line id="XMLID_14_" class="st3" x1="1020.2" y1="-11.9" x2="1064.4" y2="-11.9"/>
	<line id="XMLID_12_" class="st3" x1="1026.5" y1="-16.4" x2="1064.4" y2="-16.4"/>
	<g id="XMLID_10_">
	</g>
	<g id="XMLID_9_">
	</g>
	<g id="XMLID_8_">
	</g>
	<g id="XMLID_7_">
	</g>
	<g id="XMLID_6_">
	</g>
	<g id="XMLID_3_">
	</g>
</g>
<g id="Capa_7_2_">
	<line id="XMLID_46_" class="st3" x1="1072.3" y1="-2.9" x2="1117" y2="-2.9"/>
	<line id="XMLID_45_" class="st3" x1="1072.3" y1="-7.4" x2="1117" y2="-7.4"/>
	<line id="XMLID_44_" class="st3" x1="1073.8" y1="-11.9" x2="1117" y2="-11.9"/>
	<line id="XMLID_43_" class="st3" x1="1080.4" y1="-16.4" x2="1117" y2="-16.4"/>
</g>
<g id="Capa_7_7_">
	<line id="XMLID_37_" class="st3" x1="1100.3" y1="-20.9" x2="1117" y2="-20.9"/>
	<line id="XMLID_36_" class="st3" x1="1100.3" y1="-25.4" x2="1117" y2="-25.4"/>
	<line id="XMLID_35_" class="st3" x1="1100.3" y1="-29.9" x2="1117" y2="-29.9"/>
</g>
<g id="Capa_7_6_">
	<line id="XMLID_34_" class="st3" x1="1124.6" y1="-2.9" x2="1141.3" y2="-2.9"/>
	<line id="XMLID_33_" class="st3" x1="1124.6" y1="-7.4" x2="1141.3" y2="-7.4"/>
	<line id="XMLID_32_" class="st3" x1="1124.6" y1="-11.9" x2="1141.3" y2="-11.9"/>
	<line id="XMLID_31_" class="st3" x1="1124.6" y1="-16.4" x2="1141.3" y2="-16.4"/>
</g>
<g id="Capa_8_4_">
	<line id="XMLID_59_" class="st3" x1="1149.7" y1="-2.9" x2="1187" y2="-2.9"/>
	<line id="XMLID_58_" class="st3" x1="1149.7" y1="-7.4" x2="1187" y2="-7.4"/>
	<line id="XMLID_57_" class="st3" x1="1151.3" y1="-11.9" x2="1187" y2="-11.9"/>
	<line id="XMLID_56_" class="st3" x1="1157.8" y1="-16.4" x2="1187" y2="-16.4"/>
	<g id="XMLID_55_">
	</g>
	<g id="XMLID_54_">
	</g>
	<g id="XMLID_53_">
	</g>
	<g id="XMLID_52_">
	</g>
	<g id="XMLID_51_">
	</g>
	<g id="XMLID_50_">
	</g>
</g>
<g id="Capa_7_3_">
	<line id="XMLID_20_" class="st3" x1="1197" y1="-2.9" x2="1224.4" y2="-2.9"/>
	<line id="XMLID_19_" class="st3" x1="1197" y1="-7.4" x2="1224.4" y2="-7.4"/>
	<line id="XMLID_18_" class="st3" x1="1197" y1="-11.9" x2="1224.4" y2="-11.9"/>
	<line id="XMLID_17_" class="st3" x1="1197" y1="-16.4" x2="1224.4" y2="-16.4"/>
</g>
<g id="Capa_7_8_">
	<line id="XMLID_23_" class="st3" x1="1197" y1="-20.9" x2="1213.7" y2="-20.9"/>
	<line id="XMLID_22_" class="st3" x1="1197" y1="-25.4" x2="1213.7" y2="-25.4"/>
	<line id="XMLID_21_" class="st3" x1="1197" y1="-29.9" x2="1213.7" y2="-29.9"/>
</g>
<g id="Capa_7_4_">
	<line id="XMLID_63_" class="st3" x1="1232" y1="-2.9" x2="1248.7" y2="-2.9"/>
	<line id="XMLID_62_" class="st3" x1="1232" y1="-7.4" x2="1248.7" y2="-7.4"/>
	<line id="XMLID_61_" class="st3" x1="1232" y1="-11.9" x2="1248.7" y2="-11.9"/>
	<line id="XMLID_60_" class="st3" x1="1232" y1="-16.4" x2="1248.7" y2="-16.4"/>
</g>
<g id="Capa_8_2_">
	<line id="XMLID_64_" class="st3" x1="1256.5" y1="-2.9" x2="1294" y2="-2.9"/>
	<line id="XMLID_49_" class="st3" x1="1256.5" y1="-7.4" x2="1294" y2="-7.4"/>
	<line id="XMLID_48_" class="st3" x1="1258.3" y1="-11.9" x2="1294" y2="-11.9"/>
	<line id="XMLID_47_" class="st3" x1="1264.5" y1="-16.4" x2="1294" y2="-16.4"/>
	<g id="XMLID_39_">
	</g>
	<g id="XMLID_38_">
	</g>
	<g id="XMLID_26_">
	</g>
	<g id="XMLID_25_">
	</g>
	<g id="XMLID_24_">
	</g>
	<g id="XMLID_2_">
	</g>
</g>
<g id="Capa_8_5_">
	<line id="XMLID_76_" class="st3" x1="1301.6" y1="-2.9" x2="1347.6" y2="-2.9"/>
	<line id="XMLID_75_" class="st3" x1="1301.6" y1="-7.4" x2="1347.6" y2="-7.4"/>
	<line id="XMLID_74_" class="st3" x1="1303.3" y1="-11.9" x2="1347.6" y2="-11.9"/>
	<line id="XMLID_73_" class="st3" x1="1309.5" y1="-16.4" x2="1347.6" y2="-16.4"/>
	<g id="XMLID_72_">
	</g>
	<g id="XMLID_71_">
	</g>
	<g id="XMLID_70_">
	</g>
	<g id="XMLID_69_">
	</g>
	<g id="XMLID_68_">
	</g>
	<g id="XMLID_67_">
	</g>
</g>
<g id="Capa_6">
	<line id="XMLID_180_" class="st3" x1="1356" y1="-2.9" x2="1478.3" y2="-2.9"/>
	<line id="XMLID_179_" class="st3" x1="1355.8" y1="-7.4" x2="1478.3" y2="-7.4"/>
	<line id="XMLID_178_" class="st3" x1="1357.4" y1="-11.9" x2="1478.3" y2="-11.9"/>
	<line id="XMLID_177_" class="st3" x1="1364.3" y1="-16.4" x2="1478.3" y2="-16.4"/>
</g>
<g id="XMLID_4_">
	<defs>
		<rect id="XMLID_169_" x="799.3" y="1.2" width="601.9" height="64"/>
	</defs>
	<clipPath id="XMLID_66_">
		<use xlink:href="#XMLID_169_"  style="overflow:visible;"/>
	</clipPath>
	<g id="XMLID_5_" class="st4">
		<path class="st2" d="M886.3-7.2c0-0.1,0-0.2,0.1-0.5c0.1-0.3,0.1-0.4,0.1-0.5h41.5v1H886.3z M886.3-5.8h41.6v1h-41.6V-5.8z
			 M886.3-3.5h41.6v1h-41.6V-3.5z M886.3-1.1h41.6v1h-41.6V-1.1z M927.9,35.1h-28.4c-1.8,0-3.6-0.3-5.2-1c-1.6-0.6-3-1.5-4.3-2.7
			c-1.2-1.2-2.1-2.6-2.8-4.2s-1-3.4-1-5.4V4.5h36.1v8.8h-19c0,1.5,0.2,2.6,0.7,3.4c0.4,0.8,1.6,1.2,3.4,1.2h20.4V35.1z M886.7-9.5
			c0-0.1,0-0.2,0.1-0.5c0.1-0.3,0.1-0.4,0.2-0.5h40.9v1H886.7z M887.6-11.7c0.1-0.1,0.2-0.2,0.3-0.5c0.1-0.3,0.2-0.4,0.3-0.5h39.7v1
			H887.6z M927.9-15v1h-38.6c0.1-0.1,0.3-0.3,0.5-0.5c0.2-0.2,0.4-0.3,0.5-0.5H927.9z M927.9-17.2v1h-35.4c0.9-0.4,1.7-0.6,2.5-0.8
			c0.8-0.1,1.6-0.2,2.5-0.2H927.9z"/>
		<path class="st2" d="M940.1,3.9h23l9.2,9.9c1.3,1.3,2.2,2.7,2.7,4.2c0.5,1.4,0.8,3,0.8,4.7c0,3.6-1.2,6.5-3.6,8.9
			c-2.4,2.4-5.9,3.5-10.5,3.5h-26.3V17.8h17.9L940.1,3.9z M935.9-5.8h37.5v1h-37.5V-5.8z M936.1-8.2h37.3v1H936L936.1-8.2z
			 M936.1-3.5h37.3v1h-37.3L936.1-3.5z M936.4-9.5c0-0.1,0.1-0.2,0.2-0.5c0.1-0.3,0.2-0.4,0.2-0.5h36.7v1H936.4z M937.1-0.1
			c-0.1-0.1-0.1-0.2-0.2-0.4c-0.1-0.2-0.1-0.4-0.2-0.5h36.8v1H937.1z M937.3-11.7c0.1-0.1,0.2-0.2,0.3-0.5c0.1-0.3,0.2-0.4,0.3-0.5
			h35.6v1H937.3z M973.5-15v1H939c0.1-0.1,0.3-0.3,0.5-0.5c0.2-0.2,0.4-0.3,0.5-0.5H973.5z M973.5-17.2v1h-31.2
			c1.1-0.4,2-0.7,2.7-0.8c0.7-0.1,1.5-0.1,2.2-0.1H973.5z"/>
		<path class="st2" d="M983.5-28.6h16.7v1h-16.7V-28.6z M983.5-26.4h16.7v1h-16.7V-26.4z M983.5-24.1h16.7v1h-16.7V-24.1z
			 M983.5-21.9h16.7v1h-16.7V-21.9z M983.5-19.5h16.7v1h-16.7V-19.5z M1010.9-17.2v1h-27.4v-1H1010.9z M1010.9-14.9v1h-27.4v-1
			H1010.9z M1010.9-12.7v1h-27.4v-1H1010.9z M1010.9-10.4v1h-27.4v-1H1010.9z M1010.9-8.2v1h-27.4v-1H1010.9z M1010.9-5.8v1h-27.4
			v-1H1010.9z M1010.9-3.5v1h-27.4v-1H1010.9z M1010.9-1.1v1h-27.4v-1H1010.9z M983.5,3.9h16.7V12c0,2,0.4,3.5,1.1,4.4
			c0.7,0.9,2.2,1.4,4.4,1.4h5.2v17.3h-14.4c-1.7,0-3.4-0.3-4.9-0.9c-1.6-0.6-2.9-1.4-4.2-2.6c-1.2-1.1-2.2-2.6-2.9-4.3
			c-0.7-1.7-1.1-3.7-1.1-6V3.9z"/>
		<path class="st2" d="M1018.5-7.2c0-0.1,0-0.2,0.1-0.5c0.1-0.3,0.1-0.4,0.1-0.5h45.8v1H1018.5z M1018.5-5.8h45.9v1h-45.9V-5.8z
			 M1018.5-3.5h45.9v1h-45.9V-3.5z M1018.5-1.1h45.9v1h-45.9V-1.1z M1035.9,3.8v7.6c0,4.3,2.1,6.4,6.3,6.4h4.9v-14h17.4v31.3h-32.7
			c-1.8,0-3.6-0.3-5.2-1c-1.6-0.6-3-1.5-4.3-2.7c-1.2-1.2-2.1-2.6-2.8-4.2c-0.7-1.6-1-3.4-1-5.4V3.8H1035.9z M1019-9.5
			c0-0.1,0-0.2,0.1-0.5c0.1-0.3,0.1-0.4,0.2-0.5h45.2v1H1019z M1019.9-11.7c0.1-0.1,0.2-0.2,0.3-0.5c0.1-0.3,0.2-0.4,0.3-0.5h44v1
			H1019.9z M1064.5-15v1h-42.9c0.1-0.1,0.3-0.3,0.5-0.5c0.2-0.2,0.4-0.3,0.5-0.5H1064.5z M1064.5-17.2v1h-39.7
			c0.9-0.4,1.7-0.6,2.5-0.8c0.8-0.1,1.6-0.2,2.5-0.2H1064.5z"/>
		<path class="st2" d="M1072.1-7.2c0-0.1,0-0.2,0.1-0.5c0.1-0.3,0.1-0.4,0.1-0.5h44.6v1H1072.1z M1072.2-5.8h44.7v1h-44.7V-5.8z
			 M1072.2-3.5h44.7v1h-44.7V-3.5z M1072.2-1.1h44.7v1h-44.7V-1.1z M1116.9,3.7v17.9c0,4.4-1.3,7.7-3.8,10c-2.5,2.3-6,3.4-10.5,3.4
			H1086c-4.1,0-7.5-1.2-10-3.7c-2.5-2.5-3.8-5.8-3.8-10.2V3.7h16.7v8.4c0,1.7,0.3,3.1,1.1,4.1c0.7,1,1.9,1.5,3.6,1.5h1.8
			c3.2,0,4.8-1.9,4.8-5.6V3.7H1116.9z M1072.6-9.5c0-0.1,0-0.2,0.1-0.5c0.1-0.3,0.1-0.4,0.2-0.5h44v1H1072.6z M1073.5-11.7
			c0.1-0.1,0.2-0.2,0.3-0.5c0.1-0.3,0.2-0.4,0.3-0.5h42.9v1H1073.5z M1116.9-15v1h-41.7c0.1-0.1,0.3-0.3,0.5-0.5
			c0.2-0.2,0.4-0.3,0.5-0.5H1116.9z M1116.9-17.2v1h-38.6c1.1-0.4,2-0.7,2.8-0.8c0.8-0.1,1.5-0.1,2.3-0.1H1116.9z M1116.9-28.6v1
			h-16.7v-1H1116.9z M1116.9-26.4v1h-16.7v-1H1116.9z M1116.9-24.1v1h-16.7v-1H1116.9z M1116.9-21.9v1h-16.7v-1H1116.9z
			 M1116.9-19.5v1h-16.7v-1H1116.9z"/>
		<path class="st2" d="M1141.3-17.2v1h-16.7v-1H1141.3z M1141.3-14.9v1h-16.7v-1H1141.3z M1141.3-12.7v1h-16.7v-1H1141.3z
			 M1141.3-10.4v1h-16.7v-1H1141.3z M1141.3-8.2v1h-16.7v-1H1141.3z M1141.3-5.8v1h-16.7v-1H1141.3z M1141.3-3.5v1h-16.7v-1H1141.3z
			 M1141.3-1.1v1h-16.7v-1H1141.3z M1124.6,3.8h16.7v31.3h-16.7V3.8z"/>
		<path class="st2" d="M1153.6,3.9h23l9.2,9.9c1.3,1.3,2.2,2.7,2.7,4.2c0.5,1.4,0.8,3,0.8,4.7c0,3.6-1.2,6.5-3.6,8.9
			c-2.4,2.4-5.9,3.5-10.5,3.5h-26.3V17.8h17.9L1153.6,3.9z M1149.4-5.8h37.5v1h-37.5V-5.8z M1149.6-8.2h37.3v1h-37.4L1149.6-8.2z
			 M1149.6-3.5h37.3v1h-37.3L1149.6-3.5z M1149.9-9.5c0-0.1,0.1-0.2,0.2-0.5c0.1-0.3,0.2-0.4,0.2-0.5h36.7v1H1149.9z M1150.6-0.1
			c-0.1-0.1-0.1-0.2-0.2-0.4c-0.1-0.2-0.1-0.4-0.2-0.5h36.8v1H1150.6z M1150.7-11.7c0.1-0.1,0.2-0.2,0.3-0.5
			c0.1-0.3,0.2-0.4,0.3-0.5h35.6v1H1150.7z M1186.9-15v1h-34.5c0.1-0.1,0.3-0.3,0.5-0.5c0.2-0.2,0.4-0.3,0.5-0.5H1186.9z
			 M1186.9-17.2v1h-31.2c1.1-0.4,2-0.7,2.7-0.8c0.7-0.1,1.5-0.1,2.2-0.1H1186.9z"/>
		<path class="st2" d="M1197-28.6h16.7v1H1197V-28.6z M1197-26.4h16.7v1H1197V-26.4z M1197-24.1h16.7v1H1197V-24.1z M1197-21.9h16.7
			v1H1197V-21.9z M1197-19.5h16.7v1H1197V-19.5z M1224.4-17.2v1H1197v-1H1224.4z M1224.4-14.9v1H1197v-1H1224.4z M1224.4-12.7v1
			H1197v-1H1224.4z M1224.4-10.4v1H1197v-1H1224.4z M1224.4-8.2v1H1197v-1H1224.4z M1224.4-5.8v1H1197v-1H1224.4z M1224.4-3.5v1
			H1197v-1H1224.4z M1224.4-1.1v1H1197v-1H1224.4z M1197,3.9h16.7V12c0,2,0.4,3.5,1.1,4.4c0.7,0.9,2.2,1.4,4.4,1.4h5.2v17.3H1210
			c-1.7,0-3.4-0.3-4.9-0.9c-1.6-0.6-2.9-1.4-4.2-2.6c-1.2-1.1-2.2-2.6-2.9-4.3c-0.7-1.7-1.1-3.7-1.1-6V3.9z"/>
		<path class="st2" d="M1248.7-17.2v1H1232v-1H1248.7z M1248.7-14.9v1H1232v-1H1248.7z M1248.7-12.7v1H1232v-1H1248.7z M1248.7-10.4
			v1H1232v-1H1248.7z M1248.7-8.2v1H1232v-1H1248.7z M1248.7-5.8v1H1232v-1H1248.7z M1248.7-3.5v1H1232v-1H1248.7z M1248.7-1.1v1
			H1232v-1H1248.7z M1232,3.8h16.7v31.3H1232V3.8z"/>
		<path class="st2" d="M1256.4-7.2c0-0.1,0-0.2,0.1-0.5c0.1-0.3,0.1-0.4,0.1-0.5h37.3v1H1256.4z M1256.5-5.8h37.4v1h-37.4V-5.8z
			 M1256.5-3.5h37.4v1h-37.4V-3.5z M1256.5-1.1h37.4v1h-37.4V-1.1z M1293.9,17.8v17.3h-24.3c-1.8,0-3.6-0.3-5.2-1
			c-1.6-0.6-3-1.5-4.2-2.7c-1.2-1.2-2.1-2.6-2.8-4.2c-0.7-1.6-1-3.4-1-5.4V4.5h16.7v7c0,1.8,0.6,3.4,1.7,4.6
			c1.1,1.2,2.6,1.8,4.5,1.8H1293.9z M1256.9-9.5c0-0.1,0-0.2,0.1-0.5c0.1-0.3,0.1-0.4,0.2-0.5h36.8v1H1256.9z M1257.7-11.7
			c0.1-0.1,0.2-0.2,0.3-0.5c0.1-0.3,0.2-0.4,0.3-0.5h35.6v1H1257.7z M1293.9-15v1h-34.5c0.1-0.1,0.3-0.3,0.5-0.5
			c0.2-0.2,0.4-0.3,0.5-0.5H1293.9z M1293.9-17.2v1h-31.3c1.1-0.4,2-0.7,2.8-0.8c0.8-0.1,1.5-0.1,2.3-0.1H1293.9z"/>
		<path class="st2" d="M1301.6-7.2c0-0.1,0-0.2,0.1-0.5c0.1-0.3,0.1-0.4,0.1-0.5h45.8v1H1301.6z M1301.6-5.8h45.9v1h-45.9V-5.8z
			 M1301.6-3.5h45.9v1h-45.9V-3.5z M1301.6-1.1h45.9v1h-45.9V-1.1z M1318.9,3.8v7.6c0,4.3,2.1,6.4,6.3,6.4h4.9v-14h17.4v31.3h-32.7
			c-1.8,0-3.6-0.3-5.2-1c-1.6-0.6-3-1.5-4.3-2.7c-1.2-1.2-2.1-2.6-2.8-4.2c-0.7-1.6-1-3.4-1-5.4V3.8H1318.9z M1302-9.5
			c0-0.1,0-0.2,0.1-0.5c0.1-0.3,0.1-0.4,0.2-0.5h45.2v1H1302z M1302.9-11.7c0.1-0.1,0.2-0.2,0.3-0.5c0.1-0.3,0.2-0.4,0.3-0.5h44v1
			H1302.9z M1347.5-15v1h-42.9c0.1-0.1,0.3-0.3,0.5-0.5c0.2-0.2,0.4-0.3,0.5-0.5H1347.5z M1347.5-17.2v1h-39.7
			c0.9-0.4,1.7-0.6,2.5-0.8c0.8-0.1,1.6-0.2,2.5-0.2H1347.5z"/>
		<path class="st2" d="M1359.8,3.9h23l9.2,9.9c1.3,1.3,2.2,2.7,2.7,4.2c0.5,1.4,0.8,3,0.8,4.7c0,3.6-1.2,6.5-3.6,8.9
			c-2.4,2.4-5.9,3.5-10.5,3.5h-26.3V17.8h17.9L1359.8,3.9z M1355.6-5.8h37.5v1h-37.5V-5.8z M1355.8-8.2h37.3v1h-37.4L1355.8-8.2z
			 M1355.8-3.5h37.3v1h-37.3L1355.8-3.5z M1356.1-9.5c0-0.1,0.1-0.2,0.2-0.5c0.1-0.3,0.2-0.4,0.2-0.5h36.7v1H1356.1z M1356.8-0.1
			c-0.1-0.1-0.1-0.2-0.2-0.4c-0.1-0.2-0.1-0.4-0.2-0.5h36.8v1H1356.8z M1357-11.7c0.1-0.1,0.2-0.2,0.3-0.5c0.1-0.3,0.2-0.4,0.3-0.5
			h35.6v1H1357z M1393.2-15v1h-34.5c0.1-0.1,0.3-0.3,0.5-0.5c0.2-0.2,0.4-0.3,0.5-0.5H1393.2z M1393.2-17.2v1h-31.2
			c1.1-0.4,2-0.7,2.7-0.8c0.7-0.1,1.5-0.1,2.2-0.1H1393.2z"/>
	</g>
</g>
</svg>
