<?xml version="1.0" encoding="utf-8"?>
<!-- Generator: Adobe Illustrator 19.0.0, SVG Export Plug-In . SVG Version: 6.00 Build 0)  -->
<svg version="1.1" id="Capa_1" xmlns="http://www.w3.org/2000/svg" xmlns:xlink="http://www.w3.org/1999/xlink" x="0px" y="0px"
	 viewBox="-321.7 -31.8 1800 84.8" style="enable-background:new -321.7 -31.8 1800 84.8;" xml:space="preserve">
<style type="text/css">
	.st0{display:none;}
	.st1{display:inline;fill:#161616;}
	.st2{fill:#FFF8E3;}
	.st3{fill:none;stroke:#FFF8E3;stroke-width:1.6;stroke-miterlimit:10;}
	.st4{clip-path:url(#XMLID_37_);}
</style>
<g id="Capa_5" class="st0">
	<rect id="XMLID_171_" x="-377.4" y="-127.2" class="st1" width="1970.8" height="316.5"/>
</g>
<g id="Capa_3">
	<rect id="XMLID_11_" x="1382.7" y="3.9" class="st2" width="95.6" height="31.2"/>
	<rect id="XMLID_13_" x="-321.7" y="3.8" class="st2" width="1431.2" height="31.3"/>
</g>
<g id="Capa_4">
	<line id="XMLID_1_" class="st3" x1="1142" y1="-2.9" x2="-321.7" y2="-2.9"/>
	<line id="XMLID_172_" class="st3" x1="1142" y1="-7.4" x2="-321.7" y2="-7.4"/>
	<line id="XMLID_173_" class="st3" x1="1141.1" y1="-11.9" x2="-321.7" y2="-11.9"/>
	<line id="XMLID_175_" class="st3" x1="1137.7" y1="-16.4" x2="-321.7" y2="-16.4"/>
</g>
<g id="Capa_7">
	<line id="XMLID_188_" class="st3" x1="1152.1" y1="-2.9" x2="1219.1" y2="-2.9"/>
	<line id="XMLID_187_" class="st3" x1="1152.1" y1="-7.4" x2="1218.7" y2="-7.4"/>
	<line id="XMLID_186_" class="st3" x1="1152.1" y1="-11.9" x2="1217" y2="-11.9"/>
	<line id="XMLID_185_" class="st3" x1="1152.1" y1="-16.4" x2="1210.8" y2="-16.4"/>
</g>
<g id="Capa_8_1_">
	<line id="XMLID_16_" class="st3" x1="1226.6" y1="-2.9" x2="1243.3" y2="-2.9"/>
	<line id="XMLID_15_" class="st3" x1="1226.6" y1="-7.4" x2="1243.3" y2="-7.4"/>
	<line id="XMLID_14_" class="st3" x1="1226.6" y1="-11.9" x2="1243.3" y2="-11.9"/>
	<line id="XMLID_12_" class="st3" x1="1226.6" y1="-16.4" x2="1243.3" y2="-16.4"/>
	<g id="XMLID_10_">
	</g>
	<g id="XMLID_9_">
	</g>
	<g id="XMLID_8_">
	</g>
	<g id="XMLID_7_">
	</g>
	<g id="XMLID_6_">
	</g>
	<g id="XMLID_3_">
	</g>
</g>
<g id="Capa_8_2_">
	<line id="XMLID_26_" class="st3" x1="1250.8" y1="-2.9" x2="1295" y2="-2.9"/>
	<line id="XMLID_25_" class="st3" x1="1251.1" y1="-7.4" x2="1295" y2="-7.4"/>
	<line id="XMLID_24_" class="st3" x1="1252.6" y1="-11.9" x2="1295" y2="-11.9"/>
	<line id="XMLID_23_" class="st3" x1="1258.6" y1="-16.4" x2="1295" y2="-16.4"/>
	<g id="XMLID_22_">
	</g>
	<g id="XMLID_21_">
	</g>
	<g id="XMLID_20_">
	</g>
	<g id="XMLID_19_">
	</g>
	<g id="XMLID_18_">
	</g>
	<g id="XMLID_17_">
	</g>
</g>
<g id="Capa_8_3_">
	<line id="XMLID_36_" class="st3" x1="1302.7" y1="-2.9" x2="1347.3" y2="-2.9"/>
	<line id="XMLID_35_" class="st3" x1="1303" y1="-7.4" x2="1347.1" y2="-7.4"/>
	<line id="XMLID_34_" class="st3" x1="1304.5" y1="-11.9" x2="1345.7" y2="-11.9"/>
	<line id="XMLID_33_" class="st3" x1="1310.8" y1="-16.4" x2="1339.7" y2="-16.4"/>
	<g id="XMLID_32_">
	</g>
	<g id="XMLID_31_">
	</g>
	<g id="XMLID_30_">
	</g>
	<g id="XMLID_29_">
	</g>
	<g id="XMLID_28_">
	</g>
	<g id="XMLID_27_">
	</g>
</g>
<g id="Capa_6">
	<line id="XMLID_180_" class="st3" x1="1356" y1="-2.9" x2="1478.3" y2="-2.9"/>
	<line id="XMLID_179_" class="st3" x1="1355.8" y1="-7.4" x2="1478.3" y2="-7.4"/>
	<line id="XMLID_178_" class="st3" x1="1357.4" y1="-11.9" x2="1478.3" y2="-11.9"/>
	<line id="XMLID_177_" class="st3" x1="1363.1" y1="-16.4" x2="1478.3" y2="-16.4"/>
</g>
<g id="XMLID_4_">
	<defs>
		<rect id="XMLID_169_" x="1080" y="0.7" width="321.3" height="64.5"/>
	</defs>
	<clipPath id="XMLID_37_">
		<use xlink:href="#XMLID_169_"  style="overflow:visible;"/>
	</clipPath>
	<g id="XMLID_5_" class="st4">
		<path class="st2" d="M1096.1-7.2c0-0.1,0-0.2,0.1-0.5c0.1-0.3,0.1-0.4,0.1-0.5h45.8v1H1096.1z M1096.1-5.8h45.9v1h-45.9V-5.8z
			 M1096.1-3.5h45.9v1h-45.9V-3.5z M1096.1-1.1h45.9v1h-45.9V-1.1z M1113.5,3.8v7.6c0,4.3,2.1,6.4,6.3,6.4h4.9v-14h17.4v31.3h-32.7
			c-1.8,0-3.6-0.3-5.2-1c-1.6-0.6-3-1.5-4.3-2.7c-1.2-1.2-2.1-2.6-2.8-4.2c-0.7-1.6-1-3.4-1-5.4V3.8H1113.5z M1096.6-9.5
			c0-0.1,0-0.2,0.1-0.5c0.1-0.3,0.1-0.4,0.2-0.5h45.2v1H1096.6z M1097.4-11.7c0.1-0.1,0.2-0.2,0.3-0.5c0.1-0.3,0.2-0.4,0.3-0.5h44v1
			H1097.4z M1142-15v1h-42.9c0.1-0.1,0.3-0.3,0.5-0.5c0.2-0.2,0.4-0.3,0.5-0.5H1142z M1142-17.2v1h-39.7c0.9-0.4,1.7-0.6,2.5-0.8
			c0.8-0.1,1.6-0.2,2.5-0.2H1142z"/>
		<path class="st2" d="M1152-17.2h55.7c0.8,0,1.5,0,2.2,0.1c0.7,0.1,1.6,0.4,2.7,0.8H1152V-17.2z M1152-15h62.8
			c0.1,0.1,0.3,0.3,0.6,0.5c0.3,0.2,0.4,0.4,0.6,0.5H1152V-15z M1216.9-12.6c0.1,0.1,0.2,0.2,0.3,0.5c0.1,0.3,0.2,0.4,0.3,0.5H1152
			v-1H1216.9z M1218.1-10.4c0.1,0.1,0.1,0.2,0.2,0.5c0.1,0.3,0.1,0.4,0.1,0.5H1152v-1H1218.1z M1218.7-8.2l0.1,1H1152v-1H1218.7z
			 M1219-5.8v1H1152v-1H1219z M1219-3.5v1H1152v-1H1219z M1219-1.1v1H1152v-1H1219z M1152,3.8h17.4v31.3H1152V3.8z M1176.9,3.8h17
			v31.3h-17V3.8z M1201.6,3.8h17.4v31.3h-17.4V3.8z"/>
		<path class="st2" d="M1243.2-17.2v1h-16.7v-1H1243.2z M1243.2-14.9v1h-16.7v-1H1243.2z M1243.2-12.7v1h-16.7v-1H1243.2z
			 M1243.2-10.4v1h-16.7v-1H1243.2z M1243.2-8.2v1h-16.7v-1H1243.2z M1243.2-5.8v1h-16.7v-1H1243.2z M1243.2-3.5v1h-16.7v-1H1243.2z
			 M1243.2-1.1v1h-16.7v-1H1243.2z M1226.5,3.8h16.7v31.3h-16.7V3.8z"/>
		<path class="st2" d="M1250.8-7.2c0-0.1,0-0.2,0.1-0.5c0.1-0.3,0.1-0.4,0.1-0.5h44.1v1H1250.8z M1250.8-5.8h44.3v1h-44.3V-5.8z
			 M1250.8-3.5h44.3v1h-44.3V-3.5z M1250.8-1.1h44.3v1h-44.3V-1.1z M1295.2,3.5v35.8c0,1.8-0.3,3.6-1,5.2c-0.6,1.6-1.5,3-2.7,4.2
			c-1.2,1.2-2.6,2.1-4.3,2.8c-1.7,0.7-3.5,1-5.4,1h-30.9V35.1h22.4c1.6,0,2.9-0.4,3.8-1.3s1.4-1.9,1.4-3.1v-3.4c0-0.1,0-0.3,0-0.6
			s-0.1-0.4-0.3-0.4c-0.3,0-0.4,0.1-0.4,0.4c-0.1,1.3-0.6,2.2-1.5,2.8c-0.9,0.6-2.2,0.9-4.1,0.9h-8c-1.8,0-3.6-0.3-5.2-1
			c-1.6-0.6-3-1.5-4.3-2.7c-1.2-1.2-2.1-2.6-2.8-4.2c-0.7-1.6-1-3.4-1-5.4V3.5h16.7v5.4c0,1.5,0.4,2.8,1.3,3.7
			c0.9,0.9,2,1.4,3.3,1.4h1.9c1.2,0,2.2-0.5,3.1-1.4c0.9-0.9,1.3-2,1.3-3.1v-6H1295.2z M1251.3-9.5c0-0.1,0-0.2,0.1-0.5
			c0.1-0.3,0.1-0.4,0.2-0.5h43.6v1H1251.3z M1252.2-11.7c0.1-0.1,0.2-0.2,0.3-0.5c0.1-0.3,0.2-0.4,0.3-0.5h42.4v1H1252.2z
			 M1295.2-15v1h-41.3c0.1-0.1,0.3-0.3,0.5-0.5c0.2-0.2,0.4-0.3,0.5-0.5H1295.2z M1295.2-17.2v1H1257c1.1-0.4,2-0.7,2.8-0.8
			c0.8-0.1,1.5-0.1,2.3-0.1H1295.2z"/>
		<path class="st2" d="M1347.4-7.2h-44.7c0-0.1,0-0.2,0.1-0.5c0.1-0.3,0.1-0.4,0.1-0.5h44.4L1347.4-7.2z M1347.4-4.8h-44.7v-1h44.7
			V-4.8z M1347.4-2.5h-44.7v-1h44.7V-2.5z M1347.4-0.1h-44.7v-1h44.7V-0.1z M1347.4,3.7v18.1c0,2-0.3,3.8-1,5.4
			c-0.7,1.6-1.6,3-2.8,4.2c-1.2,1.1-2.6,2-4.2,2.7c-1.6,0.6-3.4,1-5.2,1H1316c-1.8,0-3.6-0.3-5.2-1c-1.6-0.6-3-1.5-4.3-2.7
			c-1.2-1.1-2.1-2.5-2.8-4.2c-0.7-1.6-1-3.4-1-5.4V3.7h16.7v8.4c0,3.8,1.6,5.6,4.8,5.6h1.8c1.8,0,3.1-0.5,3.7-1.6
			c0.6-1.1,1-2.4,1-4.1V3.7H1347.4z M1346.6-10.4c0.1,0.1,0.1,0.2,0.2,0.5c0.1,0.3,0.1,0.4,0.1,0.5h-43.8c0-0.1,0-0.2,0.1-0.5
			c0.1-0.3,0.1-0.4,0.2-0.5H1346.6z M1345.6-12.6c0.1,0.1,0.2,0.2,0.3,0.5c0.1,0.3,0.2,0.4,0.3,0.5H1304c0.1-0.1,0.2-0.2,0.3-0.5
			c0.1-0.3,0.2-0.4,0.3-0.5H1345.6z M1343.4-15c0.1,0.1,0.3,0.3,0.5,0.5c0.2,0.2,0.4,0.4,0.5,0.5h-38.7c0.1-0.1,0.3-0.3,0.5-0.5
			c0.2-0.2,0.4-0.3,0.5-0.5H1343.4z M1337-17.2c0.8,0,1.6,0.1,2.3,0.3c0.7,0.2,1.3,0.4,1.9,0.7h-32.3c0.6-0.3,1.2-0.5,2-0.7
			c0.7-0.2,1.5-0.3,2.3-0.3H1337z"/>
		<path class="st2" d="M1359.8,3.9h23l9.2,9.9c1.3,1.3,2.2,2.7,2.7,4.2c0.5,1.4,0.8,3,0.8,4.7c0,3.6-1.2,6.5-3.6,8.9
			c-2.4,2.4-5.9,3.5-10.5,3.5h-26.3V17.8h17.9L1359.8,3.9z M1355.6-5.8h37.5v1h-37.5V-5.8z M1355.8-8.2h37.3v1h-37.4L1355.8-8.2z
			 M1355.8-3.5h37.3v1h-37.3L1355.8-3.5z M1356.1-9.5c0-0.1,0.1-0.2,0.2-0.5c0.1-0.3,0.2-0.4,0.2-0.5h36.7v1H1356.1z M1356.8-0.1
			c-0.1-0.1-0.1-0.2-0.2-0.4c-0.1-0.2-0.1-0.4-0.2-0.5h36.8v1H1356.8z M1357-11.7c0.1-0.1,0.2-0.2,0.3-0.5c0.1-0.3,0.2-0.4,0.3-0.5
			h35.6v1H1357z M1393.2-15v1h-34.5c0.1-0.1,0.3-0.3,0.5-0.5c0.2-0.2,0.4-0.3,0.5-0.5H1393.2z M1393.2-17.2v1h-31.2
			c1.1-0.4,2-0.7,2.7-0.8c0.7-0.1,1.5-0.1,2.2-0.1H1393.2z"/>
	</g>
</g>
</svg>
