<?xml version="1.0" encoding="utf-8"?>
<!-- Generator: Adobe Illustrator 19.0.0, SVG Export Plug-In . SVG Version: 6.00 Build 0)  -->
<svg version="1.1" id="Capa_1" xmlns="http://www.w3.org/2000/svg" xmlns:xlink="http://www.w3.org/1999/xlink" x="0px" y="0px"
	 viewBox="-321.7 -31.8 1800 84.8" style="enable-background:new -321.7 -31.8 1800 84.8;" xml:space="preserve">
<style type="text/css">
	.st0{display:none;}
	.st1{display:inline;fill:#161616;}
	.st2{fill:#FFF8E3;}
	.st3{fill:none;stroke:#FFF8E3;stroke-width:1.6;stroke-miterlimit:10;}
	.st4{clip-path:url(#XMLID_28_);}
</style>
<g id="Capa_5" class="st0">
	<rect id="XMLID_171_" x="-377.4" y="-127.2" class="st1" width="1970.8" height="316.5"/>
</g>
<g id="Capa_3">
	<rect id="XMLID_11_" x="1385.7" y="3.8" class="st2" width="92.6" height="31.3"/>
	<rect id="XMLID_13_" x="-321.7" y="3.8" class="st2" width="1562.3" height="31.3"/>
</g>
<g id="Capa_7">
	<line id="XMLID_188_" class="st3" x1="-321.7" y1="-2.9" x2="1251.1" y2="-2.9"/>
	<line id="XMLID_187_" class="st3" x1="-321.7" y1="-7.4" x2="1251.1" y2="-7.4"/>
	<line id="XMLID_186_" class="st3" x1="-321.7" y1="-11.9" x2="1251.1" y2="-11.9"/>
	<line id="XMLID_185_" class="st3" x1="-321.7" y1="-16.4" x2="1251.1" y2="-16.4"/>
</g>
<g id="Capa_8_2_">
	<line id="XMLID_26_" class="st3" x1="1258.7" y1="-2.9" x2="1301.5" y2="-2.9"/>
	<line id="XMLID_25_" class="st3" x1="1258.7" y1="-7.4" x2="1301.3" y2="-7.4"/>
	<line id="XMLID_24_" class="st3" x1="1258.7" y1="-11.9" x2="1299.7" y2="-11.9"/>
	<line id="XMLID_23_" class="st3" x1="1258.7" y1="-16.4" x2="1293.3" y2="-16.4"/>
	<g id="XMLID_22_">
	</g>
	<g id="XMLID_21_">
	</g>
	<g id="XMLID_20_">
	</g>
	<g id="XMLID_19_">
	</g>
	<g id="XMLID_18_">
	</g>
	<g id="XMLID_17_">
	</g>
</g>
<g id="Capa_8">
	<line id="XMLID_192_" class="st3" x1="1309.2" y1="-2.9" x2="1326" y2="-2.9"/>
	<line id="XMLID_191_" class="st3" x1="1309.2" y1="-7.4" x2="1326" y2="-7.4"/>
	<line id="XMLID_190_" class="st3" x1="1309.2" y1="-11.9" x2="1326" y2="-11.9"/>
	<line id="XMLID_189_" class="st3" x1="1309.2" y1="-16.4" x2="1326" y2="-16.4"/>
	<g id="XMLID_2_">
	</g>
	<g id="XMLID_226_">
	</g>
	<g id="XMLID_227_">
	</g>
	<g id="XMLID_228_">
	</g>
	<g id="XMLID_229_">
	</g>
	<g id="XMLID_230_">
	</g>
</g>
<g id="Capa_8_4_">
	<line id="XMLID_45_" class="st3" x1="1333.6" y1="-2.9" x2="1371.1" y2="-2.9"/>
	<line id="XMLID_44_" class="st3" x1="1333.9" y1="-7.4" x2="1371.1" y2="-7.4"/>
	<line id="XMLID_43_" class="st3" x1="1335.3" y1="-11.9" x2="1371.1" y2="-11.9"/>
	<line id="XMLID_42_" class="st3" x1="1341.9" y1="-16.4" x2="1371.1" y2="-16.4"/>
	<g id="XMLID_41_">
	</g>
	<g id="XMLID_40_">
	</g>
	<g id="XMLID_39_">
	</g>
	<g id="XMLID_38_">
	</g>
	<g id="XMLID_37_">
	</g>
	<g id="XMLID_16_">
	</g>
</g>
<g id="Capa_8_1_">
	<line id="XMLID_15_" class="st3" x1="1378.7" y1="-2.9" x2="1478.3" y2="-2.9"/>
	<line id="XMLID_14_" class="st3" x1="1378.7" y1="-7.4" x2="1478.3" y2="-7.4"/>
	<line id="XMLID_12_" class="st3" x1="1378.7" y1="-11.9" x2="1478.3" y2="-11.9"/>
	<line id="XMLID_10_" class="st3" x1="1378.7" y1="-16.4" x2="1478.3" y2="-16.4"/>
	<g id="XMLID_9_">
	</g>
	<g id="XMLID_8_">
	</g>
	<g id="XMLID_7_">
	</g>
	<g id="XMLID_6_">
	</g>
	<g id="XMLID_3_">
	</g>
	<g id="XMLID_1_">
	</g>
</g>
<g id="XMLID_4_">
	<defs>
		<rect id="XMLID_169_" x="1080" y="0.7" width="321.3" height="64.5"/>
	</defs>
	<clipPath id="XMLID_28_">
		<use xlink:href="#XMLID_169_"  style="overflow:visible;"/>
	</clipPath>
	<g id="XMLID_5_" class="st4">
		<path class="st2" d="M1251.2-17.2v1h-16.7v-1H1251.2z M1251.2-14.9v1h-16.7v-1H1251.2z M1251.2-12.7v1h-16.7v-1H1251.2z
			 M1251.2-10.4v1h-16.7v-1H1251.2z M1251.2-8.2v1h-16.7v-1H1251.2z M1251.2-5.8v1h-16.7v-1H1251.2z M1251.2-3.5v1h-16.7v-1H1251.2z
			 M1251.2-1.1v1h-16.7v-1H1251.2z M1234.5,3.8h16.7v31.3h-16.7V3.8z"/>
		<path class="st2" d="M1258.8-17.2h31.7c0.8,0,1.5,0,2.2,0.1c0.7,0.1,1.6,0.4,2.7,0.8h-36.7V-17.2z M1258.8-15h38.8
			c0.1,0.1,0.3,0.3,0.5,0.5c0.2,0.2,0.4,0.4,0.5,0.5h-39.8V-15z M1299.7-12.6c0.1,0.1,0.2,0.2,0.3,0.5c0.1,0.3,0.2,0.4,0.3,0.5
			h-41.5v-1H1299.7z M1300.9-10.4c0.1,0.1,0.1,0.2,0.2,0.5c0.1,0.3,0.1,0.4,0.1,0.5h-42.4v-1H1300.9z M1301.6-8.2l0.1,1h-42.9v-1
			H1301.6z M1301.7-5.8v1h-42.9v-1H1301.7z M1301.7-3.5v1h-42.9v-1H1301.7z M1301.7-1.1v1h-42.9v-1H1301.7z M1258.8,3.7h16.7v31.4
			h-16.7V3.7z M1284.9,3.7h16.7v31.4h-16.7V3.7z"/>
		<path class="st2" d="M1326-17.2v1h-16.7v-1H1326z M1326-14.9v1h-16.7v-1H1326z M1326-12.7v1h-16.7v-1H1326z M1326-10.4v1h-16.7v-1
			H1326z M1326-8.2v1h-16.7v-1H1326z M1326-5.8v1h-16.7v-1H1326z M1326-3.5v1h-16.7v-1H1326z M1326-1.1v1h-16.7v-1H1326z
			 M1309.3,3.8h16.7v31.3h-16.7V3.8z"/>
		<path class="st2" d="M1333.7-7.2c0-0.1,0-0.2,0.1-0.5c0.1-0.3,0.1-0.4,0.1-0.5h37.3v1H1333.7z M1333.7-5.8h37.4v1h-37.4V-5.8z
			 M1333.7-3.5h37.4v1h-37.4V-3.5z M1333.7-1.1h37.4v1h-37.4V-1.1z M1371.2,17.8v17.3h-24.3c-1.8,0-3.6-0.3-5.2-1
			c-1.6-0.6-3-1.5-4.2-2.7c-1.2-1.2-2.1-2.6-2.8-4.2c-0.7-1.6-1-3.4-1-5.4V4.5h16.7v7c0,1.8,0.6,3.4,1.7,4.6
			c1.1,1.2,2.6,1.8,4.5,1.8H1371.2z M1334.1-9.5c0-0.1,0-0.2,0.1-0.5c0.1-0.3,0.1-0.4,0.2-0.5h36.8v1H1334.1z M1335-11.7
			c0.1-0.1,0.2-0.2,0.3-0.5c0.1-0.3,0.2-0.4,0.3-0.5h35.6v1H1335z M1371.2-15v1h-34.5c0.1-0.1,0.3-0.3,0.5-0.5
			c0.2-0.2,0.4-0.3,0.5-0.5H1371.2z M1371.2-17.2v1h-31.3c1.1-0.4,2-0.7,2.8-0.8c0.8-0.1,1.5-0.1,2.3-0.1H1371.2z"/>
		<path class="st2" d="M1395.5-17.2v1h-16.7v-1H1395.5z M1395.5-14.9v1h-16.7v-1H1395.5z M1395.5-12.7v1h-16.7v-1H1395.5z
			 M1395.5-10.4v1h-16.7v-1H1395.5z M1395.5-8.2v1h-16.7v-1H1395.5z M1395.5-5.8v1h-16.7v-1H1395.5z M1395.5-3.5v1h-16.7v-1H1395.5z
			 M1395.5-1.1v1h-16.7v-1H1395.5z M1378.8,3.8h16.7v31.3h-16.7V3.8z"/>
	</g>
</g>
</svg>
