<?xml version="1.0" encoding="utf-8"?>
<!-- Generator: Adobe Illustrator 19.0.0, SVG Export Plug-In . SVG Version: 6.00 Build 0)  -->
<svg version="1.1" id="Capa_1" xmlns="http://www.w3.org/2000/svg" xmlns:xlink="http://www.w3.org/1999/xlink" x="0px" y="0px"
	 viewBox="-321.7 -31.8 1800 84.8" style="enable-background:new -321.7 -31.8 1800 84.8;" xml:space="preserve">
<style type="text/css">
	.st0{display:none;}
	.st1{display:inline;fill:#161616;}
	.st2{fill:#FFF8E3;}
	.st3{fill:none;stroke:#FFF8E3;stroke-width:1.6;stroke-miterlimit:10;}
	.st4{clip-path:url(#XMLID_16_);}
</style>
<g id="Capa_5" class="st0">
	<rect id="XMLID_171_" x="-377.4" y="-127.2" class="st1" width="1970.8" height="316.5"/>
</g>
<g id="Capa_3">
	<rect id="XMLID_11_" x="1395.2" y="4.4" class="st2" width="83.1" height="30.7"/>
	<rect id="XMLID_13_" x="-321.7" y="3.8" class="st2" width="1501.9" height="31.3"/>
</g>
<g id="Capa_7">
	<line id="XMLID_188_" class="st3" x1="-321.7" y1="-2.9" x2="1219.8" y2="-2.9"/>
	<line id="XMLID_187_" class="st3" x1="-321.7" y1="-7.4" x2="1219.1" y2="-7.4"/>
	<line id="XMLID_186_" class="st3" x1="-321.7" y1="-11.9" x2="1217.6" y2="-11.9"/>
	<line id="XMLID_185_" class="st3" x1="-321.7" y1="-16.4" x2="1210.8" y2="-16.4"/>
</g>
<g id="Capa_8_2_">
	<line id="XMLID_26_" class="st3" x1="1227.1" y1="-2.9" x2="1271.7" y2="-2.9"/>
	<line id="XMLID_25_" class="st3" x1="1227.1" y1="-7.4" x2="1271.5" y2="-7.4"/>
	<line id="XMLID_24_" class="st3" x1="1228.8" y1="-11.9" x2="1269.9" y2="-11.9"/>
	<line id="XMLID_23_" class="st3" x1="1235" y1="-16.4" x2="1263.5" y2="-16.4"/>
	<g id="XMLID_22_">
	</g>
	<g id="XMLID_21_">
	</g>
	<g id="XMLID_20_">
	</g>
	<g id="XMLID_19_">
	</g>
	<g id="XMLID_18_">
	</g>
	<g id="XMLID_17_">
	</g>
</g>
<g id="Capa_8_1_">
	<line id="XMLID_14_" class="st3" x1="1176" y1="-20.9" x2="1192.7" y2="-20.9"/>
	<line id="XMLID_12_" class="st3" x1="1176" y1="-25.4" x2="1192.7" y2="-25.4"/>
	<line id="XMLID_10_" class="st3" x1="1176" y1="-29.9" x2="1192.7" y2="-29.9"/>
	<g id="XMLID_9_">
	</g>
	<g id="XMLID_8_">
	</g>
	<g id="XMLID_7_">
	</g>
	<g id="XMLID_6_">
	</g>
	<g id="XMLID_3_">
	</g>
	<g id="XMLID_1_">
	</g>
</g>
<g id="Capa_8">
	<line id="XMLID_192_" class="st3" x1="1279.5" y1="-2.9" x2="1346.6" y2="-2.9"/>
	<line id="XMLID_191_" class="st3" x1="1279.5" y1="-7.4" x2="1346.2" y2="-7.4"/>
	<line id="XMLID_190_" class="st3" x1="1279.5" y1="-11.9" x2="1344.6" y2="-11.9"/>
	<line id="XMLID_189_" class="st3" x1="1279.5" y1="-16.4" x2="1338.1" y2="-16.4"/>
	<g id="XMLID_2_">
	</g>
	<g id="XMLID_226_">
	</g>
	<g id="XMLID_227_">
	</g>
	<g id="XMLID_228_">
	</g>
	<g id="XMLID_229_">
	</g>
	<g id="XMLID_230_">
	</g>
</g>
<g id="Capa_8_3_">
	<line id="XMLID_36_" class="st3" x1="1354.1" y1="-2.9" x2="1478.3" y2="-2.9"/>
	<line id="XMLID_35_" class="st3" x1="1354.4" y1="-7.4" x2="1478.3" y2="-7.4"/>
	<line id="XMLID_34_" class="st3" x1="1355.8" y1="-11.9" x2="1478.3" y2="-11.9"/>
	<line id="XMLID_33_" class="st3" x1="1362.5" y1="-16.4" x2="1478.3" y2="-16.4"/>
	<g id="XMLID_32_">
	</g>
	<g id="XMLID_31_">
	</g>
	<g id="XMLID_30_">
	</g>
	<g id="XMLID_29_">
	</g>
	<g id="XMLID_28_">
	</g>
	<g id="XMLID_27_">
	</g>
</g>
<g id="XMLID_4_">
	<defs>
		<rect id="XMLID_169_" x="1080" y="1.7" width="321.3" height="63.5"/>
	</defs>
	<clipPath id="XMLID_16_">
		<use xlink:href="#XMLID_169_"  style="overflow:visible;"/>
	</clipPath>
	<g id="XMLID_5_" class="st4">
		<path class="st2" d="M1175.9-28.6h16.7v1h-16.7V-28.6z M1175.9-26.4h16.7v1h-16.7V-26.4z M1175.9-24.1h16.7v1h-16.7V-24.1z
			 M1175.9-21.9h16.7v1h-16.7V-21.9z M1175.9-19.5h16.7v1h-16.7V-19.5z M1175.9-17.2h32.4c0.8,0,1.5,0,2.2,0.1
			c0.7,0.1,1.6,0.4,2.7,0.8h-37.3V-17.2z M1175.9-15h39.4c0.1,0.1,0.3,0.3,0.5,0.5c0.2,0.2,0.4,0.4,0.5,0.5h-40.5V-15z M1217.5-12.6
			c0.1,0.1,0.2,0.2,0.3,0.5c0.1,0.3,0.2,0.4,0.3,0.5h-42.2v-1H1217.5z M1218.7-10.4c0.1,0.1,0.1,0.2,0.2,0.5
			c0.1,0.3,0.1,0.4,0.1,0.5h-43.1v-1H1218.7z M1219.3-8.2l0.1,1h-43.6v-1H1219.3z M1219.5-5.8v1h-43.7v-1H1219.5z M1219.5-3.5v1
			h-43.7v-1H1219.5z M1219.5-1.1v1h-43.7v-1H1219.5z M1175.9,3.8h16.7v31.3h-16.7V3.8z M1202.8,3.8h16.7v31.3h-16.7V3.8z"/>
		<path class="st2" d="M1271.8-7.2h-44.7c0-0.1,0-0.2,0.1-0.5c0.1-0.3,0.1-0.4,0.1-0.5h44.4L1271.8-7.2z M1271.8-4.8h-44.7v-1h44.7
			V-4.8z M1271.8-2.5h-44.7v-1h44.7V-2.5z M1271.8-0.1h-44.7v-1h44.7V-0.1z M1271.8,3.7v18.1c0,2-0.3,3.8-1,5.4
			c-0.7,1.6-1.6,3-2.8,4.2c-1.2,1.1-2.6,2-4.2,2.7c-1.6,0.6-3.4,1-5.2,1h-18.2c-1.8,0-3.6-0.3-5.2-1c-1.6-0.6-3-1.5-4.3-2.7
			c-1.2-1.1-2.1-2.5-2.8-4.2c-0.7-1.6-1-3.4-1-5.4V3.7h16.7v8.4c0,3.8,1.6,5.6,4.8,5.6h1.8c1.8,0,3.1-0.5,3.7-1.6
			c0.6-1.1,1-2.4,1-4.1V3.7H1271.8z M1271-10.4c0.1,0.1,0.1,0.2,0.2,0.5c0.1,0.3,0.1,0.4,0.1,0.5h-43.8c0-0.1,0-0.2,0.1-0.5
			c0.1-0.3,0.1-0.4,0.2-0.5H1271z M1269.9-12.6c0.1,0.1,0.2,0.2,0.3,0.5c0.1,0.3,0.2,0.4,0.3,0.5h-42.1c0.1-0.1,0.2-0.2,0.3-0.5
			c0.1-0.3,0.2-0.4,0.3-0.5H1269.9z M1267.7-15c0.1,0.1,0.3,0.3,0.5,0.5c0.2,0.2,0.4,0.4,0.5,0.5h-38.7c0.1-0.1,0.3-0.3,0.5-0.5
			c0.2-0.2,0.4-0.3,0.5-0.5H1267.7z M1261.3-17.2c0.8,0,1.6,0.1,2.3,0.3c0.7,0.2,1.3,0.4,1.9,0.7h-32.3c0.6-0.3,1.2-0.5,2-0.7
			c0.7-0.2,1.5-0.3,2.3-0.3H1261.3z"/>
		<path class="st2" d="M1279.5-17.2h55.7c0.8,0,1.5,0,2.2,0.1c0.7,0.1,1.6,0.4,2.7,0.8h-60.7V-17.2z M1279.5-15h62.8
			c0.1,0.1,0.3,0.3,0.6,0.5c0.3,0.2,0.4,0.4,0.6,0.5h-63.9V-15z M1344.4-12.6c0.1,0.1,0.2,0.2,0.3,0.5c0.1,0.3,0.2,0.4,0.3,0.5
			h-65.5v-1H1344.4z M1345.6-10.4c0.1,0.1,0.1,0.2,0.2,0.5c0.1,0.3,0.1,0.4,0.1,0.5h-66.5v-1H1345.6z M1346.3-8.2l0.1,1h-66.9v-1
			H1346.3z M1346.5-5.8v1h-67.1v-1H1346.5z M1346.5-3.5v1h-67.1v-1H1346.5z M1346.5-1.1v1h-67.1v-1H1346.5z M1279.5,3.8h17.4v31.3
			h-17.4V3.8z M1304.4,3.8h17v31.3h-17V3.8z M1329.2,3.8h17.4v31.3h-17.4V3.8z"/>
		<path class="st2" d="M1354-7.2c0-0.1,0-0.2,0.1-0.5c0.1-0.3,0.1-0.4,0.1-0.5h41.5v1H1354z M1354-5.8h41.6v1H1354V-5.8z M1354-3.5
			h41.6v1H1354V-3.5z M1354-1.1h41.6v1H1354V-1.1z M1395.6,35.1h-28.4c-1.8,0-3.6-0.3-5.2-1c-1.6-0.6-3-1.5-4.3-2.7
			c-1.2-1.2-2.1-2.6-2.8-4.2c-0.7-1.6-1-3.4-1-5.4V4.5h36.1v8.8h-19c0,1.5,0.2,2.6,0.7,3.4c0.4,0.8,1.6,1.2,3.4,1.2h20.4V35.1z
			 M1354.5-9.5c0-0.1,0-0.2,0.1-0.5c0.1-0.3,0.1-0.4,0.2-0.5h40.9v1H1354.5z M1355.3-11.7c0.1-0.1,0.2-0.2,0.3-0.5
			c0.1-0.3,0.2-0.4,0.3-0.5h39.7v1H1355.3z M1395.6-15v1h-38.6c0.1-0.1,0.3-0.3,0.5-0.5c0.2-0.2,0.4-0.3,0.5-0.5H1395.6z
			 M1395.6-17.2v1h-35.4c0.9-0.4,1.7-0.6,2.5-0.8c0.8-0.1,1.6-0.2,2.5-0.2H1395.6z"/>
	</g>
</g>
</svg>
